%TF.GenerationSoftware,KiCad,Pcbnew,(5.1.6)-1*%
%TF.CreationDate,2020-08-14T19:02:09+02:00*%
%TF.ProjectId,ESP32-S2-WROOM,45535033-322d-4533-922d-57524f4f4d2e,1.2*%
%TF.SameCoordinates,Original*%
%TF.FileFunction,Soldermask,Top*%
%TF.FilePolarity,Negative*%
%FSLAX46Y46*%
G04 Gerber Fmt 4.6, Leading zero omitted, Abs format (unit mm)*
G04 Created by KiCad (PCBNEW (5.1.6)-1) date 2020-08-14 19:02:09*
%MOMM*%
%LPD*%
G01*
G04 APERTURE LIST*
%ADD10O,1.100000X1.100000*%
%ADD11R,1.100000X1.100000*%
%ADD12R,1.800000X1.800000*%
%ADD13O,1.800000X1.800000*%
G04 APERTURE END LIST*
D10*
%TO.C,J2*%
X85090000Y-101600000D03*
X85090000Y-100330000D03*
X85090000Y-99060000D03*
X85090000Y-97790000D03*
X85090000Y-96520000D03*
X85090000Y-95250000D03*
X85090000Y-93980000D03*
X85090000Y-92710000D03*
X85090000Y-91440000D03*
X85090000Y-90170000D03*
X85090000Y-88900000D03*
X85090000Y-87630000D03*
X85090000Y-86360000D03*
X85090000Y-85090000D03*
X85090000Y-83820000D03*
D11*
X85090000Y-82550000D03*
%TD*%
D10*
%TO.C,J3*%
X107950000Y-111760000D03*
X107950000Y-110490000D03*
X107950000Y-109220000D03*
X107950000Y-107950000D03*
X107950000Y-106680000D03*
X107950000Y-105410000D03*
X107950000Y-104140000D03*
X107950000Y-102870000D03*
X107950000Y-101600000D03*
X107950000Y-100330000D03*
X107950000Y-99060000D03*
X107950000Y-97790000D03*
X107950000Y-96520000D03*
X107950000Y-95250000D03*
X107950000Y-93980000D03*
X107950000Y-92710000D03*
X107950000Y-91440000D03*
X107950000Y-90170000D03*
X107950000Y-88900000D03*
X107950000Y-87630000D03*
X107950000Y-86360000D03*
X107950000Y-85090000D03*
X107950000Y-83820000D03*
D11*
X107950000Y-82550000D03*
%TD*%
D12*
%TO.C,J4*%
X115570000Y-62230000D03*
D13*
X115570000Y-64770000D03*
X115570000Y-67310000D03*
X115570000Y-69850000D03*
X115570000Y-72390000D03*
X115570000Y-74930000D03*
X115570000Y-77470000D03*
X115570000Y-80010000D03*
X115570000Y-82550000D03*
X115570000Y-85090000D03*
X115570000Y-87630000D03*
X115570000Y-90170000D03*
X115570000Y-92710000D03*
X115570000Y-95250000D03*
X115570000Y-97790000D03*
X115570000Y-100330000D03*
X115570000Y-102870000D03*
X115570000Y-105410000D03*
X115570000Y-107950000D03*
X115570000Y-110490000D03*
X115570000Y-113030000D03*
X115570000Y-115570000D03*
X115570000Y-118110000D03*
X115570000Y-120650000D03*
%TD*%
D12*
%TO.C,J1*%
X78740000Y-62230000D03*
D13*
X78740000Y-64770000D03*
X78740000Y-67310000D03*
X78740000Y-69850000D03*
X78740000Y-72390000D03*
X78740000Y-74930000D03*
X78740000Y-77470000D03*
X78740000Y-80010000D03*
X78740000Y-82550000D03*
X78740000Y-85090000D03*
X78740000Y-87630000D03*
X78740000Y-90170000D03*
X78740000Y-92710000D03*
X78740000Y-95250000D03*
X78740000Y-97790000D03*
X78740000Y-100330000D03*
%TD*%
D12*
%TO.C,J5*%
X78740000Y-41910000D03*
D13*
X81280000Y-41910000D03*
X83820000Y-41910000D03*
X86360000Y-41910000D03*
X88900000Y-41910000D03*
%TD*%
D12*
%TO.C,J6*%
X93980000Y-41910000D03*
D13*
X96520000Y-41910000D03*
X99060000Y-41910000D03*
X101600000Y-41910000D03*
%TD*%
%TO.C,J7*%
X101600000Y-46990000D03*
X99060000Y-46990000D03*
X96520000Y-46990000D03*
D12*
X93980000Y-46990000D03*
%TD*%
%TO.C,J8*%
X106680000Y-59690000D03*
D13*
X106680000Y-57150000D03*
X106680000Y-54610000D03*
X106680000Y-52070000D03*
X106680000Y-49530000D03*
X106680000Y-46990000D03*
X106680000Y-44450000D03*
X106680000Y-41910000D03*
%TD*%
D12*
%TO.C,J9*%
X110490000Y-41910000D03*
D13*
X110490000Y-44450000D03*
X110490000Y-46990000D03*
X110490000Y-49530000D03*
X110490000Y-52070000D03*
X110490000Y-54610000D03*
X110490000Y-57150000D03*
%TD*%
%TO.C,J10*%
X114300000Y-57150000D03*
X114300000Y-54610000D03*
X114300000Y-52070000D03*
X114300000Y-49530000D03*
X114300000Y-46990000D03*
X114300000Y-44450000D03*
D12*
X114300000Y-41910000D03*
%TD*%
%TO.C,J11*%
X102108000Y-54356000D03*
%TD*%
%TO.C,J12*%
X78740000Y-46990000D03*
D13*
X81280000Y-46990000D03*
X83820000Y-46990000D03*
X86360000Y-46990000D03*
X88900000Y-46990000D03*
%TD*%
D12*
%TO.C,J13*%
X78740000Y-52324000D03*
D13*
X81280000Y-52324000D03*
X83820000Y-52324000D03*
X86360000Y-52324000D03*
X88900000Y-52324000D03*
%TD*%
%TO.C,J14*%
X88900000Y-56388000D03*
X86360000Y-56388000D03*
X83820000Y-56388000D03*
X81280000Y-56388000D03*
D12*
X78740000Y-56388000D03*
%TD*%
%TO.C,J15*%
X78740000Y-120650000D03*
D13*
X81280000Y-120650000D03*
X83820000Y-120650000D03*
X86360000Y-120650000D03*
X88900000Y-120650000D03*
X91440000Y-120650000D03*
X93980000Y-120650000D03*
X96520000Y-120650000D03*
%TD*%
%TO.C,J16*%
X96520000Y-118110000D03*
X93980000Y-118110000D03*
X91440000Y-118110000D03*
X88900000Y-118110000D03*
X86360000Y-118110000D03*
X83820000Y-118110000D03*
X81280000Y-118110000D03*
D12*
X78740000Y-118110000D03*
%TD*%
%TO.C,J17*%
X78740000Y-115570000D03*
D13*
X81280000Y-115570000D03*
X83820000Y-115570000D03*
X86360000Y-115570000D03*
X88900000Y-115570000D03*
X91440000Y-115570000D03*
X93980000Y-115570000D03*
X96520000Y-115570000D03*
%TD*%
%TO.C,J18*%
X96520000Y-113030000D03*
X93980000Y-113030000D03*
X91440000Y-113030000D03*
X88900000Y-113030000D03*
X86360000Y-113030000D03*
X83820000Y-113030000D03*
X81280000Y-113030000D03*
D12*
X78740000Y-113030000D03*
%TD*%
%TO.C,J19*%
X78740000Y-110490000D03*
D13*
X81280000Y-110490000D03*
X83820000Y-110490000D03*
X86360000Y-110490000D03*
X88900000Y-110490000D03*
X91440000Y-110490000D03*
X93980000Y-110490000D03*
X96520000Y-110490000D03*
%TD*%
D12*
%TO.C,J20*%
X78740000Y-107950000D03*
D13*
X81280000Y-107950000D03*
X83820000Y-107950000D03*
X86360000Y-107950000D03*
X88900000Y-107950000D03*
X91440000Y-107950000D03*
X93980000Y-107950000D03*
X96520000Y-107950000D03*
%TD*%
D12*
%TO.C,J21*%
X100965000Y-104140000D03*
D13*
X98425000Y-104140000D03*
X95885000Y-104140000D03*
X93345000Y-104140000D03*
X90805000Y-104140000D03*
%TD*%
D12*
%TO.C,J23*%
X102870000Y-121920000D03*
D13*
X102870000Y-119380000D03*
X102870000Y-116840000D03*
X102870000Y-114300000D03*
X102870000Y-111760000D03*
X102870000Y-109220000D03*
%TD*%
M02*
