M48
; DRILL file {KiCad (5.1.6)-1} date 08/14/20 19:02:13
; FORMAT={-:-/ absolute / metric / decimal}
; #@! TF.CreationDate,2020-08-14T19:02:13+02:00
; #@! TF.GenerationSoftware,Kicad,Pcbnew,(5.1.6)-1
; #@! TF.FileFunction,Plated,1,2,PTH
FMAT,2
METRIC
T1C0.400
T2C0.700
T3C1.000
%
G90
G05
T1
X80.506Y-57.859
X80.951Y-54.027
X81.534Y-59.69
X81.922Y-77.161
X82.702Y-64.884
X83.263Y-68.323
X83.626Y-58.534
X84.074Y-61.087
X85.815Y-64.008
X86.334Y-49.579
X88.011Y-88.138
X89.281Y-92.202
X89.53Y-88.26
X90.801Y-56.412
X91.721Y-88.111
X93.091Y-93.472
X93.52Y-82.756
X93.68Y-86.152
X93.761Y-87.259
X94.757Y-88.412
X95.858Y-58.305
X96.234Y-85.237
X96.393Y-90.043
X97.196Y-56.322
X97.556Y-49.064
X97.917Y-45.085
X100.408Y-86.51
X100.454Y-100.884
X100.457Y-89.408
X101.293Y-95.737
X102.271Y-87.266
X102.502Y-89.774
X103.351Y-60.655
X103.423Y-79.289
X104.055Y-61.707
X104.074Y-68.253
X104.697Y-46.256
X104.803Y-72.697
X105.548Y-105.901
X105.756Y-91.567
X106.125Y-77.16
X106.198Y-95.987
X106.303Y-92.736
X106.85Y-75.509
X107.088Y-72.197
X107.207Y-70.84
X107.381Y-122.938
X108.097Y-43.185
X108.369Y-67.197
X110.313Y-90.752
X96.05Y-60.85
X96.05Y-62.85
X96.05Y-64.85
X96.05Y-66.85
X96.05Y-68.85
X96.05Y-70.85
X96.05Y-72.85
X96.05Y-74.85
X96.05Y-76.85
X101.05Y-60.85
X101.05Y-62.85
X101.05Y-64.85
X101.05Y-66.85
X101.05Y-68.85
X101.05Y-70.85
X101.05Y-72.85
X101.05Y-74.85
X101.05Y-76.85
X101.05Y-78.85
T2
X107.95Y-82.55
X107.95Y-83.82
X107.95Y-85.09
X107.95Y-86.36
X107.95Y-87.63
X107.95Y-88.9
X107.95Y-90.17
X107.95Y-91.44
X107.95Y-92.71
X107.95Y-93.98
X107.95Y-95.25
X107.95Y-96.52
X107.95Y-97.79
X107.95Y-99.06
X107.95Y-100.33
X107.95Y-101.6
X107.95Y-102.87
X107.95Y-104.14
X107.95Y-105.41
X107.95Y-106.68
X107.95Y-107.95
X107.95Y-109.22
X107.95Y-110.49
X107.95Y-111.76
X85.09Y-82.55
X85.09Y-83.82
X85.09Y-85.09
X85.09Y-86.36
X85.09Y-87.63
X85.09Y-88.9
X85.09Y-90.17
X85.09Y-91.44
X85.09Y-92.71
X85.09Y-93.98
X85.09Y-95.25
X85.09Y-96.52
X85.09Y-97.79
X85.09Y-99.06
X85.09Y-100.33
X85.09Y-101.6
T3
X78.74Y-118.11
X81.28Y-118.11
X83.82Y-118.11
X86.36Y-118.11
X88.9Y-118.11
X91.44Y-118.11
X93.98Y-118.11
X96.52Y-118.11
X78.74Y-115.57
X81.28Y-115.57
X83.82Y-115.57
X86.36Y-115.57
X88.9Y-115.57
X91.44Y-115.57
X93.98Y-115.57
X96.52Y-115.57
X78.74Y-120.65
X81.28Y-120.65
X83.82Y-120.65
X86.36Y-120.65
X88.9Y-120.65
X91.44Y-120.65
X93.98Y-120.65
X96.52Y-120.65
X102.108Y-54.356
X110.49Y-41.91
X110.49Y-44.45
X110.49Y-46.99
X110.49Y-49.53
X110.49Y-52.07
X110.49Y-54.61
X110.49Y-57.15
X78.74Y-41.91
X81.28Y-41.91
X83.82Y-41.91
X86.36Y-41.91
X88.9Y-41.91
X78.74Y-56.388
X81.28Y-56.388
X83.82Y-56.388
X86.36Y-56.388
X88.9Y-56.388
X93.98Y-46.99
X96.52Y-46.99
X99.06Y-46.99
X101.6Y-46.99
X102.87Y-109.22
X102.87Y-111.76
X102.87Y-114.3
X102.87Y-116.84
X102.87Y-119.38
X102.87Y-121.92
X106.68Y-41.91
X106.68Y-44.45
X106.68Y-46.99
X106.68Y-49.53
X106.68Y-52.07
X106.68Y-54.61
X106.68Y-57.15
X106.68Y-59.69
X90.805Y-104.14
X93.345Y-104.14
X95.885Y-104.14
X98.425Y-104.14
X100.965Y-104.14
X78.74Y-107.95
X81.28Y-107.95
X83.82Y-107.95
X86.36Y-107.95
X88.9Y-107.95
X91.44Y-107.95
X93.98Y-107.95
X96.52Y-107.95
X78.74Y-52.324
X81.28Y-52.324
X83.82Y-52.324
X86.36Y-52.324
X88.9Y-52.324
X115.57Y-62.23
X115.57Y-64.77
X115.57Y-67.31
X115.57Y-69.85
X115.57Y-72.39
X115.57Y-74.93
X115.57Y-77.47
X115.57Y-80.01
X115.57Y-82.55
X115.57Y-85.09
X115.57Y-87.63
X115.57Y-90.17
X115.57Y-92.71
X115.57Y-95.25
X115.57Y-97.79
X115.57Y-100.33
X115.57Y-102.87
X115.57Y-105.41
X115.57Y-107.95
X115.57Y-110.49
X115.57Y-113.03
X115.57Y-115.57
X115.57Y-118.11
X115.57Y-120.65
X78.74Y-46.99
X81.28Y-46.99
X83.82Y-46.99
X86.36Y-46.99
X88.9Y-46.99
X93.98Y-41.91
X96.52Y-41.91
X99.06Y-41.91
X101.6Y-41.91
X114.3Y-41.91
X114.3Y-44.45
X114.3Y-46.99
X114.3Y-49.53
X114.3Y-52.07
X114.3Y-54.61
X114.3Y-57.15
X78.74Y-113.03
X81.28Y-113.03
X83.82Y-113.03
X86.36Y-113.03
X88.9Y-113.03
X91.44Y-113.03
X93.98Y-113.03
X96.52Y-113.03
X78.74Y-62.23
X78.74Y-64.77
X78.74Y-67.31
X78.74Y-69.85
X78.74Y-72.39
X78.74Y-74.93
X78.74Y-77.47
X78.74Y-80.01
X78.74Y-82.55
X78.74Y-85.09
X78.74Y-87.63
X78.74Y-90.17
X78.74Y-92.71
X78.74Y-95.25
X78.74Y-97.79
X78.74Y-100.33
X78.74Y-110.49
X81.28Y-110.49
X83.82Y-110.49
X86.36Y-110.49
X88.9Y-110.49
X91.44Y-110.49
X93.98Y-110.49
X96.52Y-110.49
T0
M30
