%TF.GenerationSoftware,KiCad,Pcbnew,(5.1.6)-1*%
%TF.CreationDate,2020-08-14T19:02:09+02:00*%
%TF.ProjectId,ESP32-S2-WROOM,45535033-322d-4533-922d-57524f4f4d2e,1.2*%
%TF.SameCoordinates,Original*%
%TF.FileFunction,Copper,L1,Top*%
%TF.FilePolarity,Positive*%
%FSLAX46Y46*%
G04 Gerber Fmt 4.6, Leading zero omitted, Abs format (unit mm)*
G04 Created by KiCad (PCBNEW (5.1.6)-1) date 2020-08-14 19:02:09*
%MOMM*%
%LPD*%
G01*
G04 APERTURE LIST*
%TA.AperFunction,EtchedComponent*%
%ADD10C,1.000000*%
%TD*%
%TA.AperFunction,ComponentPad*%
%ADD11O,1.000000X1.000000*%
%TD*%
%TA.AperFunction,ComponentPad*%
%ADD12R,1.000000X1.000000*%
%TD*%
%TA.AperFunction,ComponentPad*%
%ADD13R,1.700000X1.700000*%
%TD*%
%TA.AperFunction,ComponentPad*%
%ADD14O,1.700000X1.700000*%
%TD*%
%TA.AperFunction,ViaPad*%
%ADD15C,1.000000*%
%TD*%
%TA.AperFunction,ViaPad*%
%ADD16C,0.800000*%
%TD*%
%TA.AperFunction,Conductor*%
%ADD17C,0.250000*%
%TD*%
%TA.AperFunction,Conductor*%
%ADD18C,0.254000*%
%TD*%
G04 APERTURE END LIST*
D10*
%TO.C,Ant 868 Mhz*%
X97050000Y-77850000D02*
X96050000Y-76850000D01*
X100050000Y-77850000D02*
X97050000Y-77850000D01*
X101050000Y-78850000D02*
X100050000Y-77850000D01*
X97050000Y-75850000D02*
X96050000Y-74850000D01*
X101050000Y-76850000D02*
X100050000Y-75850000D01*
X100050000Y-75850000D02*
X97050000Y-75850000D01*
X97050000Y-73850000D02*
X96050000Y-72850000D01*
X101050000Y-74850000D02*
X100050000Y-73850000D01*
X100050000Y-73850000D02*
X97050000Y-73850000D01*
X100050000Y-71850000D02*
X97050000Y-71850000D01*
X97050000Y-71850000D02*
X96050000Y-70850000D01*
X101050000Y-72850000D02*
X100050000Y-71850000D01*
X100050000Y-69850000D02*
X97050000Y-69850000D01*
X97050000Y-69850000D02*
X96050000Y-68850000D01*
X101050000Y-70850000D02*
X100050000Y-69850000D01*
X100050000Y-67850000D02*
X97050000Y-67850000D01*
X97050000Y-67850000D02*
X96050000Y-66850000D01*
X101050000Y-68850000D02*
X100050000Y-67850000D01*
X100050000Y-65850000D02*
X97050000Y-65850000D01*
X97050000Y-65850000D02*
X96050000Y-64850000D01*
X101050000Y-66850000D02*
X100050000Y-65850000D01*
X100050000Y-63850000D02*
X97050000Y-63850000D01*
X97050000Y-63850000D02*
X96050000Y-62850000D01*
X101050000Y-64850000D02*
X100050000Y-63850000D01*
X100050000Y-61850000D02*
X97050000Y-61850000D01*
X97050000Y-61850000D02*
X96050000Y-60850000D01*
X101050000Y-62850000D02*
X100050000Y-61850000D01*
%TD*%
D11*
%TO.P,J2,16*%
%TO.N,/IO13*%
X85090000Y-101600000D03*
%TO.P,J2,15*%
%TO.N,/IO12*%
X85090000Y-100330000D03*
%TO.P,J2,14*%
%TO.N,/IO11*%
X85090000Y-99060000D03*
%TO.P,J2,13*%
%TO.N,/IO10*%
X85090000Y-97790000D03*
%TO.P,J2,12*%
%TO.N,/IO9*%
X85090000Y-96520000D03*
%TO.P,J2,11*%
%TO.N,/IO8*%
X85090000Y-95250000D03*
%TO.P,J2,10*%
%TO.N,/IO7*%
X85090000Y-93980000D03*
%TO.P,J2,9*%
%TO.N,/IO6*%
X85090000Y-92710000D03*
%TO.P,J2,8*%
%TO.N,/IO5*%
X85090000Y-91440000D03*
%TO.P,J2,7*%
%TO.N,/IO4*%
X85090000Y-90170000D03*
%TO.P,J2,6*%
%TO.N,/IO3*%
X85090000Y-88900000D03*
%TO.P,J2,5*%
%TO.N,/IO2*%
X85090000Y-87630000D03*
%TO.P,J2,4*%
%TO.N,/IO1*%
X85090000Y-86360000D03*
%TO.P,J2,3*%
%TO.N,/IO0*%
X85090000Y-85090000D03*
%TO.P,J2,2*%
%TO.N,/3.3v*%
X85090000Y-83820000D03*
D12*
%TO.P,J2,1*%
%TO.N,GND*%
X85090000Y-82550000D03*
%TD*%
D11*
%TO.P,J3,24*%
%TO.N,GND*%
X107950000Y-111760000D03*
%TO.P,J3,23*%
%TO.N,/VUSB*%
X107950000Y-110490000D03*
%TO.P,J3,22*%
%TO.N,/3.3v*%
X107950000Y-109220000D03*
%TO.P,J3,21*%
%TO.N,/DC_DISP*%
X107950000Y-107950000D03*
%TO.P,J3,20*%
%TO.N,/IO15*%
X107950000Y-106680000D03*
%TO.P,J3,19*%
%TO.N,/IO16*%
X107950000Y-105410000D03*
%TO.P,J3,18*%
%TO.N,/U1TXD*%
X107950000Y-104140000D03*
%TO.P,J3,17*%
%TO.N,/U1RXD*%
X107950000Y-102870000D03*
%TO.P,J3,16*%
%TO.N,/IO21*%
X107950000Y-101600000D03*
%TO.P,J3,15*%
%TO.N,/IO26*%
X107950000Y-100330000D03*
%TO.P,J3,14*%
%TO.N,/IO33*%
X107950000Y-99060000D03*
%TO.P,J3,13*%
%TO.N,/IO34*%
X107950000Y-97790000D03*
%TO.P,J3,12*%
%TO.N,/IO35*%
X107950000Y-96520000D03*
%TO.P,J3,11*%
%TO.N,/IO36*%
X107950000Y-95250000D03*
%TO.P,J3,10*%
%TO.N,/IO37*%
X107950000Y-93980000D03*
%TO.P,J3,9*%
%TO.N,/IO38*%
X107950000Y-92710000D03*
%TO.P,J3,8*%
%TO.N,/IO39*%
X107950000Y-91440000D03*
%TO.P,J3,7*%
%TO.N,/SCL*%
X107950000Y-90170000D03*
%TO.P,J3,6*%
%TO.N,/SDA*%
X107950000Y-88900000D03*
%TO.P,J3,5*%
%TO.N,/IO42*%
X107950000Y-87630000D03*
%TO.P,J3,4*%
%TO.N,/TXD0*%
X107950000Y-86360000D03*
%TO.P,J3,3*%
%TO.N,/RXD0*%
X107950000Y-85090000D03*
%TO.P,J3,2*%
%TO.N,/IO45*%
X107950000Y-83820000D03*
D12*
%TO.P,J3,1*%
%TO.N,/IO46*%
X107950000Y-82550000D03*
%TD*%
D13*
%TO.P,J4,1*%
%TO.N,/IO46*%
X115570000Y-62230000D03*
D14*
%TO.P,J4,2*%
%TO.N,/IO45*%
X115570000Y-64770000D03*
%TO.P,J4,3*%
%TO.N,/RXD0*%
X115570000Y-67310000D03*
%TO.P,J4,4*%
%TO.N,/TXD0*%
X115570000Y-69850000D03*
%TO.P,J4,5*%
%TO.N,/IO42*%
X115570000Y-72390000D03*
%TO.P,J4,6*%
%TO.N,/SDA*%
X115570000Y-74930000D03*
%TO.P,J4,7*%
%TO.N,/SCL*%
X115570000Y-77470000D03*
%TO.P,J4,8*%
%TO.N,/IO39*%
X115570000Y-80010000D03*
%TO.P,J4,9*%
%TO.N,/IO38*%
X115570000Y-82550000D03*
%TO.P,J4,10*%
%TO.N,/IO37*%
X115570000Y-85090000D03*
%TO.P,J4,11*%
%TO.N,/IO36*%
X115570000Y-87630000D03*
%TO.P,J4,12*%
%TO.N,/IO35*%
X115570000Y-90170000D03*
%TO.P,J4,13*%
%TO.N,/IO34*%
X115570000Y-92710000D03*
%TO.P,J4,14*%
%TO.N,/IO33*%
X115570000Y-95250000D03*
%TO.P,J4,15*%
%TO.N,/IO26*%
X115570000Y-97790000D03*
%TO.P,J4,16*%
%TO.N,/IO21*%
X115570000Y-100330000D03*
%TO.P,J4,17*%
%TO.N,/U1RXD*%
X115570000Y-102870000D03*
%TO.P,J4,18*%
%TO.N,/U1TXD*%
X115570000Y-105410000D03*
%TO.P,J4,19*%
%TO.N,/IO16*%
X115570000Y-107950000D03*
%TO.P,J4,20*%
%TO.N,/IO15*%
X115570000Y-110490000D03*
%TO.P,J4,21*%
%TO.N,/DC_DISP*%
X115570000Y-113030000D03*
%TO.P,J4,22*%
%TO.N,/3.3v*%
X115570000Y-115570000D03*
%TO.P,J4,23*%
%TO.N,/VUSB*%
X115570000Y-118110000D03*
%TO.P,J4,24*%
%TO.N,GND*%
X115570000Y-120650000D03*
%TD*%
D13*
%TO.P,J1,1*%
%TO.N,GND*%
X78740000Y-62230000D03*
D14*
%TO.P,J1,2*%
%TO.N,/3.3v*%
X78740000Y-64770000D03*
%TO.P,J1,3*%
%TO.N,/IO0*%
X78740000Y-67310000D03*
%TO.P,J1,4*%
%TO.N,/IO1*%
X78740000Y-69850000D03*
%TO.P,J1,5*%
%TO.N,/IO2*%
X78740000Y-72390000D03*
%TO.P,J1,6*%
%TO.N,/IO3*%
X78740000Y-74930000D03*
%TO.P,J1,7*%
%TO.N,/IO4*%
X78740000Y-77470000D03*
%TO.P,J1,8*%
%TO.N,/IO5*%
X78740000Y-80010000D03*
%TO.P,J1,9*%
%TO.N,/IO6*%
X78740000Y-82550000D03*
%TO.P,J1,10*%
%TO.N,/IO7*%
X78740000Y-85090000D03*
%TO.P,J1,11*%
%TO.N,/IO8*%
X78740000Y-87630000D03*
%TO.P,J1,12*%
%TO.N,/IO9*%
X78740000Y-90170000D03*
%TO.P,J1,13*%
%TO.N,/IO10*%
X78740000Y-92710000D03*
%TO.P,J1,14*%
%TO.N,/IO11*%
X78740000Y-95250000D03*
%TO.P,J1,15*%
%TO.N,/IO12*%
X78740000Y-97790000D03*
%TO.P,J1,16*%
%TO.N,/IO13*%
X78740000Y-100330000D03*
%TD*%
D13*
%TO.P,J5,1*%
%TO.N,/IO11*%
X78740000Y-41910000D03*
D14*
%TO.P,J5,2*%
%TO.N,/IO13*%
X81280000Y-41910000D03*
%TO.P,J5,3*%
%TO.N,/IO12*%
X83820000Y-41910000D03*
%TO.P,J5,4*%
%TO.N,/3.3v*%
X86360000Y-41910000D03*
%TO.P,J5,5*%
%TO.N,GND*%
X88900000Y-41910000D03*
%TD*%
D13*
%TO.P,J6,1*%
%TO.N,/SDA*%
X93980000Y-41910000D03*
D14*
%TO.P,J6,2*%
%TO.N,/SCL*%
X96520000Y-41910000D03*
%TO.P,J6,3*%
%TO.N,/3.3v*%
X99060000Y-41910000D03*
%TO.P,J6,4*%
%TO.N,GND*%
X101600000Y-41910000D03*
%TD*%
%TO.P,J7,4*%
%TO.N,/3.3v*%
X101600000Y-46990000D03*
%TO.P,J7,3*%
%TO.N,GND*%
X99060000Y-46990000D03*
%TO.P,J7,2*%
%TO.N,/SCL*%
X96520000Y-46990000D03*
D13*
%TO.P,J7,1*%
%TO.N,/SDA*%
X93980000Y-46990000D03*
%TD*%
%TO.P,J8,1*%
%TO.N,/IO0*%
X106680000Y-59690000D03*
D14*
%TO.P,J8,2*%
%TO.N,/IO1*%
X106680000Y-57150000D03*
%TO.P,J8,3*%
%TO.N,/IO2*%
X106680000Y-54610000D03*
%TO.P,J8,4*%
%TO.N,/IO3*%
X106680000Y-52070000D03*
%TO.P,J8,5*%
%TO.N,/IO4*%
X106680000Y-49530000D03*
%TO.P,J8,6*%
%TO.N,/IO5*%
X106680000Y-46990000D03*
%TO.P,J8,7*%
%TO.N,/IO6*%
X106680000Y-44450000D03*
%TO.P,J8,8*%
%TO.N,/IO7*%
X106680000Y-41910000D03*
%TD*%
D13*
%TO.P,J9,1*%
%TO.N,/IO46*%
X110490000Y-41910000D03*
D14*
%TO.P,J9,2*%
%TO.N,/IO45*%
X110490000Y-44450000D03*
%TO.P,J9,3*%
%TO.N,/RXD0*%
X110490000Y-46990000D03*
%TO.P,J9,4*%
%TO.N,/TXD0*%
X110490000Y-49530000D03*
%TO.P,J9,5*%
%TO.N,/IO42*%
X110490000Y-52070000D03*
%TO.P,J9,6*%
%TO.N,/IO39*%
X110490000Y-54610000D03*
%TO.P,J9,7*%
%TO.N,/IO38*%
X110490000Y-57150000D03*
%TD*%
%TO.P,J10,7*%
%TO.N,/IO21*%
X114300000Y-57150000D03*
%TO.P,J10,6*%
%TO.N,/IO26*%
X114300000Y-54610000D03*
%TO.P,J10,5*%
%TO.N,/IO33*%
X114300000Y-52070000D03*
%TO.P,J10,4*%
%TO.N,/IO34*%
X114300000Y-49530000D03*
%TO.P,J10,3*%
%TO.N,/IO35*%
X114300000Y-46990000D03*
%TO.P,J10,2*%
%TO.N,/IO36*%
X114300000Y-44450000D03*
D13*
%TO.P,J10,1*%
%TO.N,/IO37*%
X114300000Y-41910000D03*
%TD*%
%TO.P,J11,1*%
%TO.N,/IO8*%
X102108000Y-54356000D03*
%TD*%
%TO.P,J12,1*%
%TO.N,/IO16*%
X78740000Y-46990000D03*
D14*
%TO.P,J12,2*%
%TO.N,/IO15*%
X81280000Y-46990000D03*
%TO.P,J12,3*%
%TO.N,/DC_DISP*%
X83820000Y-46990000D03*
%TO.P,J12,4*%
%TO.N,/U1RXD*%
X86360000Y-46990000D03*
%TO.P,J12,5*%
%TO.N,/U1TXD*%
X88900000Y-46990000D03*
%TD*%
D13*
%TO.P,J13,1*%
%TO.N,/3.3v*%
X78740000Y-52324000D03*
D14*
%TO.P,J13,2*%
X81280000Y-52324000D03*
%TO.P,J13,3*%
X83820000Y-52324000D03*
%TO.P,J13,4*%
X86360000Y-52324000D03*
%TO.P,J13,5*%
X88900000Y-52324000D03*
%TD*%
%TO.P,J14,5*%
%TO.N,GND*%
X88900000Y-56388000D03*
%TO.P,J14,4*%
X86360000Y-56388000D03*
%TO.P,J14,3*%
X83820000Y-56388000D03*
%TO.P,J14,2*%
X81280000Y-56388000D03*
D13*
%TO.P,J14,1*%
X78740000Y-56388000D03*
%TD*%
%TO.P,J15,1*%
%TO.N,N/C*%
X78740000Y-120650000D03*
D14*
%TO.P,J15,2*%
X81280000Y-120650000D03*
%TO.P,J15,3*%
X83820000Y-120650000D03*
%TO.P,J15,4*%
X86360000Y-120650000D03*
%TO.P,J15,5*%
X88900000Y-120650000D03*
%TO.P,J15,6*%
X91440000Y-120650000D03*
%TO.P,J15,7*%
X93980000Y-120650000D03*
%TO.P,J15,8*%
X96520000Y-120650000D03*
%TD*%
%TO.P,J16,8*%
%TO.N,N/C*%
X96520000Y-118110000D03*
%TO.P,J16,7*%
X93980000Y-118110000D03*
%TO.P,J16,6*%
X91440000Y-118110000D03*
%TO.P,J16,5*%
X88900000Y-118110000D03*
%TO.P,J16,4*%
X86360000Y-118110000D03*
%TO.P,J16,3*%
X83820000Y-118110000D03*
%TO.P,J16,2*%
X81280000Y-118110000D03*
D13*
%TO.P,J16,1*%
X78740000Y-118110000D03*
%TD*%
%TO.P,J17,1*%
%TO.N,N/C*%
X78740000Y-115570000D03*
D14*
%TO.P,J17,2*%
X81280000Y-115570000D03*
%TO.P,J17,3*%
X83820000Y-115570000D03*
%TO.P,J17,4*%
X86360000Y-115570000D03*
%TO.P,J17,5*%
X88900000Y-115570000D03*
%TO.P,J17,6*%
X91440000Y-115570000D03*
%TO.P,J17,7*%
X93980000Y-115570000D03*
%TO.P,J17,8*%
X96520000Y-115570000D03*
%TD*%
%TO.P,J18,8*%
%TO.N,N/C*%
X96520000Y-113030000D03*
%TO.P,J18,7*%
X93980000Y-113030000D03*
%TO.P,J18,6*%
X91440000Y-113030000D03*
%TO.P,J18,5*%
X88900000Y-113030000D03*
%TO.P,J18,4*%
X86360000Y-113030000D03*
%TO.P,J18,3*%
X83820000Y-113030000D03*
%TO.P,J18,2*%
X81280000Y-113030000D03*
D13*
%TO.P,J18,1*%
X78740000Y-113030000D03*
%TD*%
%TO.P,J19,1*%
%TO.N,N/C*%
X78740000Y-110490000D03*
D14*
%TO.P,J19,2*%
X81280000Y-110490000D03*
%TO.P,J19,3*%
X83820000Y-110490000D03*
%TO.P,J19,4*%
X86360000Y-110490000D03*
%TO.P,J19,5*%
X88900000Y-110490000D03*
%TO.P,J19,6*%
X91440000Y-110490000D03*
%TO.P,J19,7*%
X93980000Y-110490000D03*
%TO.P,J19,8*%
X96520000Y-110490000D03*
%TD*%
D13*
%TO.P,J20,1*%
%TO.N,N/C*%
X78740000Y-107950000D03*
D14*
%TO.P,J20,2*%
X81280000Y-107950000D03*
%TO.P,J20,3*%
X83820000Y-107950000D03*
%TO.P,J20,4*%
X86360000Y-107950000D03*
%TO.P,J20,5*%
X88900000Y-107950000D03*
%TO.P,J20,6*%
X91440000Y-107950000D03*
%TO.P,J20,7*%
X93980000Y-107950000D03*
%TO.P,J20,8*%
X96520000Y-107950000D03*
%TD*%
D13*
%TO.P,J21,1*%
%TO.N,Net-(J21-Pad1)*%
X100965000Y-104140000D03*
D14*
%TO.P,J21,2*%
%TO.N,Net-(J21-Pad2)*%
X98425000Y-104140000D03*
%TO.P,J21,3*%
%TO.N,Net-(J21-Pad3)*%
X95885000Y-104140000D03*
%TO.P,J21,4*%
%TO.N,Net-(J21-Pad4)*%
X93345000Y-104140000D03*
%TO.P,J21,5*%
%TO.N,Net-(J21-Pad5)*%
X90805000Y-104140000D03*
%TD*%
D15*
%TO.N,*%
%TO.C,Ant 868 Mhz*%
X96050000Y-60850000D03*
X101050000Y-60850000D03*
X101050000Y-62850000D03*
X96050000Y-62850000D03*
X96050000Y-64850000D03*
X101050000Y-64850000D03*
X96050000Y-66850000D03*
X101050000Y-66850000D03*
X101050000Y-68850000D03*
X96050000Y-68850000D03*
X96050000Y-70850000D03*
X101050000Y-70850000D03*
X101050000Y-72850000D03*
X96050000Y-72850000D03*
X96050000Y-74850000D03*
X101050000Y-74850000D03*
X101050000Y-76850000D03*
X96050000Y-76850000D03*
X101050000Y-78850000D03*
%TD*%
D13*
%TO.P,J23,1*%
%TO.N,Net-(J23-Pad1)*%
X102870000Y-121920000D03*
D14*
%TO.P,J23,2*%
%TO.N,Net-(J23-Pad2)*%
X102870000Y-119380000D03*
%TO.P,J23,3*%
%TO.N,Net-(J23-Pad3)*%
X102870000Y-116840000D03*
%TO.P,J23,4*%
%TO.N,Net-(J23-Pad4)*%
X102870000Y-114300000D03*
%TO.P,J23,5*%
%TO.N,Net-(J23-Pad5)*%
X102870000Y-111760000D03*
%TO.P,J23,6*%
%TO.N,Net-(J23-Pad6)*%
X102870000Y-109220000D03*
%TD*%
D16*
%TO.N,GND*%
X85815000Y-64008000D03*
X81534000Y-59690000D03*
X80950897Y-54026897D03*
X89281000Y-92202000D03*
X88011000Y-88138000D03*
X96393000Y-90043000D03*
X93091000Y-93472000D03*
X97917000Y-45085000D03*
X84074000Y-61087000D03*
X83625552Y-58533942D03*
X100457000Y-89408000D03*
%TO.N,/3.3v*%
X89530347Y-88260347D03*
%TO.N,/IO0*%
X83263100Y-68323000D03*
%TO.N,/U1TXD*%
X105756200Y-91567000D03*
%TO.N,/U1RXD*%
X102271200Y-87266400D03*
X103350800Y-60655000D03*
%TO.N,/SDA*%
X110312600Y-90752400D03*
X107380800Y-122937800D03*
X94757300Y-88412400D03*
X100407800Y-86509600D03*
X102502500Y-89774300D03*
X106197900Y-95987500D03*
X106303400Y-92735500D03*
X104802900Y-72697000D03*
X107207100Y-70839900D03*
%TO.N,/IO3*%
X95857500Y-58305500D03*
X82702100Y-64883900D03*
X97196200Y-56322300D03*
X81922500Y-77161100D03*
%TO.N,/IO4*%
X96234300Y-85237200D03*
X104054700Y-61707000D03*
%TO.N,/IO5*%
X90800700Y-56412000D03*
X93761200Y-87258700D03*
%TO.N,/IO8*%
X80506200Y-57859300D03*
X97556100Y-49063900D03*
%TO.N,/IO15*%
X105547700Y-105901100D03*
X100453700Y-100883800D03*
X101293100Y-95736900D03*
X103423200Y-79289000D03*
X108369300Y-67197300D03*
X108097200Y-43184700D03*
%TO.N,/IO16*%
X86334100Y-49579400D03*
%TO.N,/IO35*%
X104073900Y-68253300D03*
X104697300Y-46255800D03*
%TO.N,/IO36*%
X107088200Y-72197000D03*
X106125200Y-77159800D03*
%TO.N,/IO38*%
X106850500Y-75509100D03*
%TO.N,Net-(J23-Pad3)*%
X93520000Y-82756000D03*
X93679903Y-86152097D03*
X91721000Y-88111000D03*
%TD*%
D17*
%TO.N,GND*%
X86360000Y-63299000D02*
X86360000Y-56388000D01*
X85815000Y-63844000D02*
X86360000Y-63299000D01*
X85815000Y-64008000D02*
X85815000Y-63844000D01*
X81280000Y-56388000D02*
X81280000Y-59436000D01*
X81280000Y-59436000D02*
X81534000Y-59690000D01*
X80950897Y-56058897D02*
X81280000Y-56388000D01*
X80950897Y-54026897D02*
X80950897Y-56058897D01*
X89281000Y-92202000D02*
X89281000Y-89408000D01*
X89281000Y-89408000D02*
X88011000Y-88138000D01*
X96901000Y-89535000D02*
X96393000Y-90043000D01*
X101600000Y-41910000D02*
X101600000Y-41021000D01*
X101600000Y-41021000D02*
X100838000Y-40259000D01*
X90551000Y-40259000D02*
X88900000Y-41910000D01*
X100838000Y-40259000D02*
X90551000Y-40259000D01*
X84074000Y-61087000D02*
X83625552Y-60638552D01*
X83625552Y-60638552D02*
X83625552Y-58533942D01*
X96901000Y-89535000D02*
X100330000Y-89535000D01*
X100330000Y-89535000D02*
X100457000Y-89408000D01*
%TO.N,/3.3v*%
X85090000Y-83820000D02*
X84899500Y-83820000D01*
X84899500Y-83820000D02*
X84264600Y-83185100D01*
X84264600Y-83185100D02*
X84264600Y-65420600D01*
X84264600Y-65420600D02*
X82594200Y-63750200D01*
X82594200Y-63750200D02*
X82594200Y-54725100D01*
X82594200Y-54725100D02*
X83820000Y-53499300D01*
X85090000Y-83820000D02*
X94615000Y-93345000D01*
X94615000Y-93345000D02*
X94615000Y-104560500D01*
X94615000Y-104560500D02*
X96248300Y-106193800D01*
X96248300Y-106193800D02*
X96429300Y-106193800D01*
X96429300Y-106193800D02*
X97695400Y-107459900D01*
X97695400Y-107459900D02*
X97695400Y-113406000D01*
X97695400Y-113406000D02*
X102310300Y-118020900D01*
X102310300Y-118020900D02*
X103422000Y-118020900D01*
X103422000Y-118020900D02*
X105726300Y-115716600D01*
X105726300Y-115716600D02*
X105726300Y-111443700D01*
X105726300Y-111443700D02*
X107950000Y-109220000D01*
X83820000Y-52324000D02*
X83820000Y-53499300D01*
X78740000Y-64770000D02*
X78740000Y-63594700D01*
X78740000Y-52324000D02*
X78740000Y-53499300D01*
X78740000Y-53499300D02*
X77564700Y-54674600D01*
X77564700Y-54674600D02*
X77564700Y-63227500D01*
X77564700Y-63227500D02*
X77931900Y-63594700D01*
X77931900Y-63594700D02*
X78740000Y-63594700D01*
X86360000Y-41910000D02*
X86360000Y-43085300D01*
X86360000Y-52324000D02*
X86360000Y-51148700D01*
X86360000Y-51148700D02*
X85184700Y-49973400D01*
X85184700Y-49973400D02*
X85184700Y-44260600D01*
X85184700Y-44260600D02*
X86360000Y-43085300D01*
X101600000Y-46990000D02*
X101600000Y-45814700D01*
X101600000Y-45814700D02*
X99060000Y-43274700D01*
X99060000Y-43274700D02*
X99060000Y-41910000D01*
%TO.N,/IO0*%
X83263100Y-68323000D02*
X83263100Y-83263100D01*
X83263100Y-83263100D02*
X85090000Y-85090000D01*
%TO.N,/DC_DISP*%
X107950000Y-107950000D02*
X106273000Y-106273000D01*
X106273000Y-106273000D02*
X106273000Y-105600600D01*
X106273000Y-105600600D02*
X102665700Y-101993300D01*
X102665700Y-101993300D02*
X102665700Y-98772000D01*
X102665700Y-98772000D02*
X102665600Y-98772000D01*
X102665600Y-98772000D02*
X99500900Y-95607300D01*
X99500900Y-95607300D02*
X99500900Y-94865100D01*
X99500900Y-94865100D02*
X85090000Y-80454200D01*
X85090000Y-80454200D02*
X85090000Y-51901800D01*
X85090000Y-51901800D02*
X83820000Y-50631800D01*
X83820000Y-50631800D02*
X83820000Y-46990000D01*
%TO.N,/U1TXD*%
X105756200Y-91567000D02*
X105399900Y-91210700D01*
X105399900Y-91210700D02*
X105399900Y-73125800D01*
X105399900Y-73125800D02*
X105528200Y-72997500D01*
X105528200Y-72997500D02*
X105528200Y-61806600D01*
X105528200Y-61806600D02*
X90711600Y-46990000D01*
X90711600Y-46990000D02*
X90075300Y-46990000D01*
X88900000Y-46990000D02*
X90075300Y-46990000D01*
%TO.N,/U1RXD*%
X102271200Y-87266400D02*
X101777200Y-87760400D01*
X101777200Y-87760400D02*
X101777200Y-90074700D01*
X101777200Y-90074700D02*
X102271100Y-90568600D01*
X102271100Y-90568600D02*
X102271200Y-90568600D01*
X102271200Y-90568600D02*
X102271200Y-94539600D01*
X102271200Y-94539600D02*
X106830300Y-99098700D01*
X106830300Y-99098700D02*
X106830300Y-101750300D01*
X106830300Y-101750300D02*
X107950000Y-102870000D01*
X86360000Y-46990000D02*
X87535300Y-46990000D01*
X87535300Y-46990000D02*
X87535300Y-47357400D01*
X87535300Y-47357400D02*
X88343200Y-48165300D01*
X88343200Y-48165300D02*
X90861100Y-48165300D01*
X90861100Y-48165300D02*
X103350800Y-60655000D01*
%TO.N,/SCL*%
X96520000Y-46990000D02*
X96520000Y-52073000D01*
X96520000Y-52073000D02*
X106125200Y-61678200D01*
X106125200Y-61678200D02*
X106125200Y-75809500D01*
X106125200Y-75809500D02*
X106850400Y-76534700D01*
X106850400Y-76534700D02*
X106850500Y-76534700D01*
X106850500Y-76534700D02*
X106850500Y-77460300D01*
X106850500Y-77460300D02*
X106575600Y-77735200D01*
X106575600Y-77735200D02*
X106575600Y-88795600D01*
X106575600Y-88795600D02*
X107950000Y-90170000D01*
X96520000Y-41910000D02*
X96520000Y-46990000D01*
X115570000Y-77470000D02*
X115570000Y-78645300D01*
X115570000Y-78645300D02*
X115202700Y-78645300D01*
X115202700Y-78645300D02*
X108885100Y-84962900D01*
X108885100Y-84962900D02*
X108885100Y-89234900D01*
X108885100Y-89234900D02*
X107950000Y-90170000D01*
%TO.N,/SDA*%
X95155300Y-41910000D02*
X95155300Y-41542700D01*
X95155300Y-41542700D02*
X95985300Y-40712700D01*
X95985300Y-40712700D02*
X97043400Y-40712700D01*
X97043400Y-40712700D02*
X97695400Y-41364700D01*
X97695400Y-41364700D02*
X97695400Y-43029700D01*
X97695400Y-43029700D02*
X100330000Y-45664300D01*
X100330000Y-45664300D02*
X100330000Y-47448300D01*
X100330000Y-47448300D02*
X106127100Y-53245400D01*
X106127100Y-53245400D02*
X106991300Y-53245400D01*
X106991300Y-53245400D02*
X107899600Y-54153700D01*
X107899600Y-54153700D02*
X107899600Y-66641300D01*
X107899600Y-66641300D02*
X107207100Y-67333800D01*
X107207100Y-67333800D02*
X107207100Y-70839900D01*
X93980000Y-41910000D02*
X95155300Y-41910000D01*
X93980000Y-46990000D02*
X93980000Y-41910000D01*
X107380800Y-122937800D02*
X110312600Y-120006000D01*
X110312600Y-120006000D02*
X110312600Y-90752400D01*
X100407800Y-86509600D02*
X96660100Y-86509600D01*
X96660100Y-86509600D02*
X94757300Y-88412400D01*
X106197900Y-95987500D02*
X103397900Y-93187500D01*
X103397900Y-93187500D02*
X103397900Y-90669700D01*
X103397900Y-90669700D02*
X102502500Y-89774300D01*
X104802900Y-72697000D02*
X104802900Y-91688100D01*
X104802900Y-91688100D02*
X105850300Y-92735500D01*
X105850300Y-92735500D02*
X106303400Y-92735500D01*
%TO.N,/IO3*%
X95857500Y-58305500D02*
X95857500Y-57661000D01*
X95857500Y-57661000D02*
X97196200Y-56322300D01*
X81922500Y-77161100D02*
X81922500Y-65663500D01*
X81922500Y-65663500D02*
X82702100Y-64883900D01*
X85090000Y-88900000D02*
X81922500Y-85732500D01*
X81922500Y-85732500D02*
X81922500Y-77161100D01*
%TO.N,/IO4*%
X104054700Y-61707000D02*
X102697900Y-63063800D01*
X102697900Y-63063800D02*
X102697900Y-79675600D01*
X102697900Y-79675600D02*
X97136300Y-85237200D01*
X97136300Y-85237200D02*
X96234300Y-85237200D01*
%TO.N,/IO5*%
X93761200Y-87258700D02*
X88819200Y-82316700D01*
X88819200Y-82316700D02*
X88819200Y-58393500D01*
X88819200Y-58393500D02*
X90800700Y-56412000D01*
%TO.N,/IO8*%
X102108000Y-54356000D02*
X102108000Y-53180700D01*
X80506200Y-57859300D02*
X80589200Y-57942300D01*
X80589200Y-57942300D02*
X80589200Y-90749200D01*
X80589200Y-90749200D02*
X85090000Y-95250000D01*
X102108000Y-53180700D02*
X101672900Y-53180700D01*
X101672900Y-53180700D02*
X97556100Y-49063900D01*
%TO.N,/IO11*%
X78740000Y-41910000D02*
X78740000Y-43085300D01*
X78740000Y-95250000D02*
X78740000Y-94074700D01*
X78740000Y-94074700D02*
X78372700Y-94074700D01*
X78372700Y-94074700D02*
X77070900Y-92772900D01*
X77070900Y-92772900D02*
X77070900Y-44754400D01*
X77070900Y-44754400D02*
X78740000Y-43085300D01*
%TO.N,/IO12*%
X78740000Y-97790000D02*
X78740000Y-96614700D01*
X83820000Y-41910000D02*
X82644700Y-41910000D01*
X82644700Y-41910000D02*
X82644700Y-41542700D01*
X82644700Y-41542700D02*
X81830200Y-40728200D01*
X81830200Y-40728200D02*
X77758300Y-40728200D01*
X77758300Y-40728200D02*
X76599700Y-41886800D01*
X76599700Y-41886800D02*
X76599700Y-94841700D01*
X76599700Y-94841700D02*
X78372700Y-96614700D01*
X78372700Y-96614700D02*
X78740000Y-96614700D01*
%TO.N,/IO13*%
X81280000Y-43085300D02*
X80104700Y-44260600D01*
X80104700Y-44260600D02*
X80104700Y-57235100D01*
X80104700Y-57235100D02*
X79780900Y-57558900D01*
X79780900Y-57558900D02*
X79780900Y-58159700D01*
X79780900Y-58159700D02*
X80104700Y-58483500D01*
X80104700Y-58483500D02*
X80104700Y-96614700D01*
X80104700Y-96614700D02*
X85090000Y-101600000D01*
X81280000Y-41910000D02*
X81280000Y-43085300D01*
%TO.N,/IO15*%
X100453700Y-100883800D02*
X105471000Y-105901100D01*
X105471000Y-105901100D02*
X105547700Y-105901100D01*
X103423200Y-79289000D02*
X103423200Y-84520100D01*
X103423200Y-84520100D02*
X101293100Y-86650200D01*
X101293100Y-86650200D02*
X101293100Y-95736900D01*
X108097200Y-43184700D02*
X108369300Y-43456800D01*
X108369300Y-43456800D02*
X108369300Y-67197300D01*
%TO.N,/IO16*%
X86334100Y-49579400D02*
X87535300Y-50780600D01*
X87535300Y-50780600D02*
X87535300Y-82262600D01*
X87535300Y-82262600D02*
X100567800Y-95295100D01*
X100567800Y-95295100D02*
X100567800Y-96037300D01*
X100567800Y-96037300D02*
X100992700Y-96462200D01*
X100992700Y-96462200D02*
X101068700Y-96462200D01*
X101068700Y-96462200D02*
X106379900Y-101773400D01*
X106379900Y-101773400D02*
X106379900Y-103839900D01*
X106379900Y-103839900D02*
X107950000Y-105410000D01*
%TO.N,/IO21*%
X115570000Y-100330000D02*
X115570000Y-99154700D01*
X114300000Y-57150000D02*
X114300000Y-58325300D01*
X114300000Y-58325300D02*
X116753800Y-60779100D01*
X116753800Y-60779100D02*
X116753800Y-98336200D01*
X116753800Y-98336200D02*
X115935300Y-99154700D01*
X115935300Y-99154700D02*
X115570000Y-99154700D01*
%TO.N,/IO26*%
X114300000Y-55785300D02*
X114667300Y-55785300D01*
X114667300Y-55785300D02*
X117254600Y-58372600D01*
X117254600Y-58372600D02*
X117254600Y-100316100D01*
X117254600Y-100316100D02*
X115970700Y-101600000D01*
X115970700Y-101600000D02*
X115161000Y-101600000D01*
X115161000Y-101600000D02*
X114369200Y-100808200D01*
X114369200Y-100808200D02*
X114369200Y-98990800D01*
X114369200Y-98990800D02*
X115570000Y-97790000D01*
X114300000Y-54610000D02*
X114300000Y-55785300D01*
%TO.N,/IO33*%
X115570000Y-95250000D02*
X115570000Y-96425300D01*
X114300000Y-52070000D02*
X114300000Y-53245300D01*
X114300000Y-53245300D02*
X114667300Y-53245300D01*
X114667300Y-53245300D02*
X117755600Y-56333600D01*
X117755600Y-56333600D02*
X117755600Y-102381400D01*
X117755600Y-102381400D02*
X116084700Y-104052300D01*
X116084700Y-104052300D02*
X115070000Y-104052300D01*
X115070000Y-104052300D02*
X113918800Y-102901100D01*
X113918800Y-102901100D02*
X113918800Y-97709200D01*
X113918800Y-97709200D02*
X115202700Y-96425300D01*
X115202700Y-96425300D02*
X115570000Y-96425300D01*
%TO.N,/IO35*%
X107950000Y-96520000D02*
X104148500Y-92718500D01*
X104148500Y-92718500D02*
X104148500Y-78988500D01*
X104148500Y-78988500D02*
X104073900Y-78913900D01*
X104073900Y-78913900D02*
X104073900Y-68253300D01*
X114300000Y-45814700D02*
X114667300Y-45814700D01*
X114667300Y-45814700D02*
X115512500Y-44969500D01*
X115512500Y-44969500D02*
X115512500Y-40887400D01*
X115512500Y-40887400D02*
X115359700Y-40734600D01*
X115359700Y-40734600D02*
X109458000Y-40734600D01*
X109458000Y-40734600D02*
X108495000Y-41697600D01*
X108495000Y-41697600D02*
X108495000Y-41761200D01*
X108495000Y-41761200D02*
X107170900Y-43085300D01*
X107170900Y-43085300D02*
X107170900Y-43085400D01*
X107170900Y-43085400D02*
X106274000Y-43085400D01*
X106274000Y-43085400D02*
X104697400Y-44662000D01*
X104697400Y-44662000D02*
X104697400Y-46255800D01*
X104697400Y-46255800D02*
X104697300Y-46255800D01*
X114300000Y-46990000D02*
X114300000Y-45814700D01*
%TO.N,/IO36*%
X107088200Y-72197000D02*
X109094600Y-70190600D01*
X109094600Y-70190600D02*
X109094600Y-44178000D01*
X109094600Y-44178000D02*
X109997900Y-43274700D01*
X109997900Y-43274700D02*
X111949400Y-43274700D01*
X111949400Y-43274700D02*
X113124700Y-44450000D01*
X114300000Y-44450000D02*
X113124700Y-44450000D01*
X107950000Y-95250000D02*
X107124600Y-94424600D01*
X107124600Y-94424600D02*
X107124600Y-91019200D01*
X107124600Y-91019200D02*
X106125200Y-90019800D01*
X106125200Y-90019800D02*
X106125200Y-77159800D01*
%TO.N,/IO38*%
X115570000Y-83725300D02*
X115202600Y-83725300D01*
X115202600Y-83725300D02*
X110097300Y-88830600D01*
X110097300Y-88830600D02*
X110097300Y-89942000D01*
X110097300Y-89942000D02*
X109587300Y-90452000D01*
X109587300Y-90452000D02*
X109587300Y-91072700D01*
X109587300Y-91072700D02*
X107950000Y-92710000D01*
X110490000Y-57150000D02*
X110490000Y-71869600D01*
X110490000Y-71869600D02*
X106850500Y-75509100D01*
X115570000Y-82550000D02*
X115570000Y-83725300D01*
%TO.N,/IO39*%
X115570000Y-81185300D02*
X115202700Y-81185300D01*
X115202700Y-81185300D02*
X109368700Y-87019300D01*
X109368700Y-87019300D02*
X109368700Y-90021300D01*
X109368700Y-90021300D02*
X107950000Y-91440000D01*
X115570000Y-80010000D02*
X115570000Y-81185300D01*
%TO.N,/TXD0*%
X107950000Y-86360000D02*
X107083300Y-85493300D01*
X107083300Y-85493300D02*
X107083300Y-77864400D01*
X107083300Y-77864400D02*
X107300800Y-77646900D01*
X107300800Y-77646900D02*
X107300800Y-76576600D01*
X107300800Y-76576600D02*
X115202700Y-68674700D01*
X115202700Y-68674700D02*
X115570000Y-68674700D01*
X110490000Y-50705300D02*
X110857400Y-50705300D01*
X110857400Y-50705300D02*
X111665300Y-51513200D01*
X111665300Y-51513200D02*
X111665300Y-65137300D01*
X111665300Y-65137300D02*
X115202700Y-68674700D01*
X115570000Y-69850000D02*
X115570000Y-68674700D01*
X110490000Y-49530000D02*
X110490000Y-50705300D01*
%TO.N,/RXD0*%
X110490000Y-46990000D02*
X110490000Y-48165300D01*
X115570000Y-67310000D02*
X115570000Y-66134700D01*
X115570000Y-66134700D02*
X115202700Y-66134700D01*
X115202700Y-66134700D02*
X112314800Y-63246800D01*
X112314800Y-63246800D02*
X112314800Y-49622800D01*
X112314800Y-49622800D02*
X110857300Y-48165300D01*
X110857300Y-48165300D02*
X110490000Y-48165300D01*
%TO.N,/IO45*%
X115570000Y-64770000D02*
X115570000Y-63594700D01*
X110490000Y-44450000D02*
X110490000Y-45625300D01*
X110490000Y-45625300D02*
X110857300Y-45625300D01*
X110857300Y-45625300D02*
X113095900Y-47863900D01*
X113095900Y-47863900D02*
X113095900Y-61928600D01*
X113095900Y-61928600D02*
X114762000Y-63594700D01*
X114762000Y-63594700D02*
X115570000Y-63594700D01*
%TO.N,Net-(J23-Pad3)*%
X102870000Y-116840000D02*
X102870000Y-115664700D01*
X97060400Y-93450400D02*
X97060400Y-104680400D01*
X97060400Y-104680400D02*
X101694700Y-109314700D01*
X101694700Y-109314700D02*
X101694700Y-114856800D01*
X101694700Y-114856800D02*
X102502600Y-115664700D01*
X102502600Y-115664700D02*
X102870000Y-115664700D01*
X93520000Y-82756000D02*
X93520000Y-85992194D01*
X93520000Y-85992194D02*
X93679903Y-86152097D01*
X91721000Y-88111000D02*
X97060400Y-93450400D01*
%TD*%
D18*
%TO.N,GND*%
G36*
X114254010Y-85793411D02*
G01*
X114416525Y-86036632D01*
X114623368Y-86243475D01*
X114797760Y-86360000D01*
X114623368Y-86476525D01*
X114416525Y-86683368D01*
X114254010Y-86926589D01*
X114142068Y-87196842D01*
X114085000Y-87483740D01*
X114085000Y-87776260D01*
X114142068Y-88063158D01*
X114254010Y-88333411D01*
X114416525Y-88576632D01*
X114623368Y-88783475D01*
X114797760Y-88900000D01*
X114623368Y-89016525D01*
X114416525Y-89223368D01*
X114254010Y-89466589D01*
X114142068Y-89736842D01*
X114085000Y-90023740D01*
X114085000Y-90316260D01*
X114142068Y-90603158D01*
X114254010Y-90873411D01*
X114416525Y-91116632D01*
X114623368Y-91323475D01*
X114797760Y-91440000D01*
X114623368Y-91556525D01*
X114416525Y-91763368D01*
X114254010Y-92006589D01*
X114142068Y-92276842D01*
X114085000Y-92563740D01*
X114085000Y-92856260D01*
X114142068Y-93143158D01*
X114254010Y-93413411D01*
X114416525Y-93656632D01*
X114623368Y-93863475D01*
X114797760Y-93980000D01*
X114623368Y-94096525D01*
X114416525Y-94303368D01*
X114254010Y-94546589D01*
X114142068Y-94816842D01*
X114085000Y-95103740D01*
X114085000Y-95396260D01*
X114142068Y-95683158D01*
X114254010Y-95953411D01*
X114392509Y-96160689D01*
X113407798Y-97145401D01*
X113378800Y-97169199D01*
X113355002Y-97198197D01*
X113355001Y-97198198D01*
X113283826Y-97284924D01*
X113213254Y-97416954D01*
X113169798Y-97560215D01*
X113155124Y-97709200D01*
X113158801Y-97746532D01*
X113158800Y-102863777D01*
X113155124Y-102901100D01*
X113158800Y-102938422D01*
X113158800Y-102938432D01*
X113169797Y-103050085D01*
X113198612Y-103145077D01*
X113213254Y-103193346D01*
X113283826Y-103325376D01*
X113301371Y-103346754D01*
X113378799Y-103441101D01*
X113407803Y-103464904D01*
X114412416Y-104469518D01*
X114254010Y-104706589D01*
X114142068Y-104976842D01*
X114085000Y-105263740D01*
X114085000Y-105556260D01*
X114142068Y-105843158D01*
X114254010Y-106113411D01*
X114416525Y-106356632D01*
X114623368Y-106563475D01*
X114797760Y-106680000D01*
X114623368Y-106796525D01*
X114416525Y-107003368D01*
X114254010Y-107246589D01*
X114142068Y-107516842D01*
X114085000Y-107803740D01*
X114085000Y-108096260D01*
X114142068Y-108383158D01*
X114254010Y-108653411D01*
X114416525Y-108896632D01*
X114623368Y-109103475D01*
X114797760Y-109220000D01*
X114623368Y-109336525D01*
X114416525Y-109543368D01*
X114254010Y-109786589D01*
X114142068Y-110056842D01*
X114085000Y-110343740D01*
X114085000Y-110636260D01*
X114142068Y-110923158D01*
X114254010Y-111193411D01*
X114416525Y-111436632D01*
X114623368Y-111643475D01*
X114797760Y-111760000D01*
X114623368Y-111876525D01*
X114416525Y-112083368D01*
X114254010Y-112326589D01*
X114142068Y-112596842D01*
X114085000Y-112883740D01*
X114085000Y-113176260D01*
X114142068Y-113463158D01*
X114254010Y-113733411D01*
X114416525Y-113976632D01*
X114623368Y-114183475D01*
X114797760Y-114300000D01*
X114623368Y-114416525D01*
X114416525Y-114623368D01*
X114254010Y-114866589D01*
X114142068Y-115136842D01*
X114085000Y-115423740D01*
X114085000Y-115716260D01*
X114142068Y-116003158D01*
X114254010Y-116273411D01*
X114416525Y-116516632D01*
X114623368Y-116723475D01*
X114797760Y-116840000D01*
X114623368Y-116956525D01*
X114416525Y-117163368D01*
X114254010Y-117406589D01*
X114142068Y-117676842D01*
X114085000Y-117963740D01*
X114085000Y-118256260D01*
X114142068Y-118543158D01*
X114254010Y-118813411D01*
X114416525Y-119056632D01*
X114623368Y-119263475D01*
X114805534Y-119385195D01*
X114688645Y-119454822D01*
X114472412Y-119649731D01*
X114298359Y-119883080D01*
X114173175Y-120145901D01*
X114128524Y-120293110D01*
X114249845Y-120523000D01*
X115443000Y-120523000D01*
X115443000Y-120503000D01*
X115697000Y-120503000D01*
X115697000Y-120523000D01*
X116890155Y-120523000D01*
X117011476Y-120293110D01*
X116966825Y-120145901D01*
X116841641Y-119883080D01*
X116667588Y-119649731D01*
X116451355Y-119454822D01*
X116334466Y-119385195D01*
X116516632Y-119263475D01*
X116723475Y-119056632D01*
X116885990Y-118813411D01*
X116997932Y-118543158D01*
X117055000Y-118256260D01*
X117055000Y-117963740D01*
X116997932Y-117676842D01*
X116885990Y-117406589D01*
X116723475Y-117163368D01*
X116516632Y-116956525D01*
X116342240Y-116840000D01*
X116516632Y-116723475D01*
X116723475Y-116516632D01*
X116885990Y-116273411D01*
X116997932Y-116003158D01*
X117055000Y-115716260D01*
X117055000Y-115423740D01*
X116997932Y-115136842D01*
X116885990Y-114866589D01*
X116723475Y-114623368D01*
X116516632Y-114416525D01*
X116342240Y-114300000D01*
X116516632Y-114183475D01*
X116723475Y-113976632D01*
X116885990Y-113733411D01*
X116997932Y-113463158D01*
X117055000Y-113176260D01*
X117055000Y-112883740D01*
X116997932Y-112596842D01*
X116885990Y-112326589D01*
X116723475Y-112083368D01*
X116516632Y-111876525D01*
X116342240Y-111760000D01*
X116516632Y-111643475D01*
X116723475Y-111436632D01*
X116885990Y-111193411D01*
X116997932Y-110923158D01*
X117055000Y-110636260D01*
X117055000Y-110343740D01*
X116997932Y-110056842D01*
X116885990Y-109786589D01*
X116723475Y-109543368D01*
X116516632Y-109336525D01*
X116342240Y-109220000D01*
X116516632Y-109103475D01*
X116723475Y-108896632D01*
X116885990Y-108653411D01*
X116997932Y-108383158D01*
X117055000Y-108096260D01*
X117055000Y-107803740D01*
X116997932Y-107516842D01*
X116885990Y-107246589D01*
X116723475Y-107003368D01*
X116516632Y-106796525D01*
X116342240Y-106680000D01*
X116516632Y-106563475D01*
X116723475Y-106356632D01*
X116885990Y-106113411D01*
X116997932Y-105843158D01*
X117055000Y-105556260D01*
X117055000Y-105263740D01*
X116997932Y-104976842D01*
X116885990Y-104706589D01*
X116733472Y-104478329D01*
X117450001Y-103761801D01*
X117450001Y-125697711D01*
X117411091Y-126094545D01*
X117305220Y-126445206D01*
X117133257Y-126768623D01*
X116901748Y-127052482D01*
X116619514Y-127285965D01*
X116297304Y-127460184D01*
X115947385Y-127568502D01*
X115552557Y-127610000D01*
X108445843Y-127610000D01*
X108516055Y-127596034D01*
X108869224Y-127449746D01*
X109187067Y-127237370D01*
X109457370Y-126967067D01*
X109669746Y-126649224D01*
X109816034Y-126296055D01*
X109890610Y-125921133D01*
X109890610Y-125538867D01*
X109816034Y-125163945D01*
X109669746Y-124810776D01*
X109457370Y-124492933D01*
X109187067Y-124222630D01*
X108869224Y-124010254D01*
X108516055Y-123863966D01*
X108141133Y-123789390D01*
X107969256Y-123789390D01*
X108040574Y-123741737D01*
X108184737Y-123597574D01*
X108298005Y-123428056D01*
X108376026Y-123239698D01*
X108415800Y-123039739D01*
X108415800Y-122977601D01*
X110386511Y-121006890D01*
X114128524Y-121006890D01*
X114173175Y-121154099D01*
X114298359Y-121416920D01*
X114472412Y-121650269D01*
X114688645Y-121845178D01*
X114938748Y-121994157D01*
X115213109Y-122091481D01*
X115443000Y-121970814D01*
X115443000Y-120777000D01*
X115697000Y-120777000D01*
X115697000Y-121970814D01*
X115926891Y-122091481D01*
X116201252Y-121994157D01*
X116451355Y-121845178D01*
X116667588Y-121650269D01*
X116841641Y-121416920D01*
X116966825Y-121154099D01*
X117011476Y-121006890D01*
X116890155Y-120777000D01*
X115697000Y-120777000D01*
X115443000Y-120777000D01*
X114249845Y-120777000D01*
X114128524Y-121006890D01*
X110386511Y-121006890D01*
X110823604Y-120569798D01*
X110852601Y-120546001D01*
X110947574Y-120430276D01*
X111018146Y-120298247D01*
X111061603Y-120154986D01*
X111072600Y-120043333D01*
X111072600Y-120043324D01*
X111076276Y-120006001D01*
X111072600Y-119968678D01*
X111072600Y-91456111D01*
X111116537Y-91412174D01*
X111229805Y-91242656D01*
X111307826Y-91054298D01*
X111347600Y-90854339D01*
X111347600Y-90650461D01*
X111307826Y-90450502D01*
X111229805Y-90262144D01*
X111116537Y-90092626D01*
X110972374Y-89948463D01*
X110857300Y-89871573D01*
X110857300Y-89145401D01*
X114240912Y-85761790D01*
X114254010Y-85793411D01*
G37*
X114254010Y-85793411D02*
X114416525Y-86036632D01*
X114623368Y-86243475D01*
X114797760Y-86360000D01*
X114623368Y-86476525D01*
X114416525Y-86683368D01*
X114254010Y-86926589D01*
X114142068Y-87196842D01*
X114085000Y-87483740D01*
X114085000Y-87776260D01*
X114142068Y-88063158D01*
X114254010Y-88333411D01*
X114416525Y-88576632D01*
X114623368Y-88783475D01*
X114797760Y-88900000D01*
X114623368Y-89016525D01*
X114416525Y-89223368D01*
X114254010Y-89466589D01*
X114142068Y-89736842D01*
X114085000Y-90023740D01*
X114085000Y-90316260D01*
X114142068Y-90603158D01*
X114254010Y-90873411D01*
X114416525Y-91116632D01*
X114623368Y-91323475D01*
X114797760Y-91440000D01*
X114623368Y-91556525D01*
X114416525Y-91763368D01*
X114254010Y-92006589D01*
X114142068Y-92276842D01*
X114085000Y-92563740D01*
X114085000Y-92856260D01*
X114142068Y-93143158D01*
X114254010Y-93413411D01*
X114416525Y-93656632D01*
X114623368Y-93863475D01*
X114797760Y-93980000D01*
X114623368Y-94096525D01*
X114416525Y-94303368D01*
X114254010Y-94546589D01*
X114142068Y-94816842D01*
X114085000Y-95103740D01*
X114085000Y-95396260D01*
X114142068Y-95683158D01*
X114254010Y-95953411D01*
X114392509Y-96160689D01*
X113407798Y-97145401D01*
X113378800Y-97169199D01*
X113355002Y-97198197D01*
X113355001Y-97198198D01*
X113283826Y-97284924D01*
X113213254Y-97416954D01*
X113169798Y-97560215D01*
X113155124Y-97709200D01*
X113158801Y-97746532D01*
X113158800Y-102863777D01*
X113155124Y-102901100D01*
X113158800Y-102938422D01*
X113158800Y-102938432D01*
X113169797Y-103050085D01*
X113198612Y-103145077D01*
X113213254Y-103193346D01*
X113283826Y-103325376D01*
X113301371Y-103346754D01*
X113378799Y-103441101D01*
X113407803Y-103464904D01*
X114412416Y-104469518D01*
X114254010Y-104706589D01*
X114142068Y-104976842D01*
X114085000Y-105263740D01*
X114085000Y-105556260D01*
X114142068Y-105843158D01*
X114254010Y-106113411D01*
X114416525Y-106356632D01*
X114623368Y-106563475D01*
X114797760Y-106680000D01*
X114623368Y-106796525D01*
X114416525Y-107003368D01*
X114254010Y-107246589D01*
X114142068Y-107516842D01*
X114085000Y-107803740D01*
X114085000Y-108096260D01*
X114142068Y-108383158D01*
X114254010Y-108653411D01*
X114416525Y-108896632D01*
X114623368Y-109103475D01*
X114797760Y-109220000D01*
X114623368Y-109336525D01*
X114416525Y-109543368D01*
X114254010Y-109786589D01*
X114142068Y-110056842D01*
X114085000Y-110343740D01*
X114085000Y-110636260D01*
X114142068Y-110923158D01*
X114254010Y-111193411D01*
X114416525Y-111436632D01*
X114623368Y-111643475D01*
X114797760Y-111760000D01*
X114623368Y-111876525D01*
X114416525Y-112083368D01*
X114254010Y-112326589D01*
X114142068Y-112596842D01*
X114085000Y-112883740D01*
X114085000Y-113176260D01*
X114142068Y-113463158D01*
X114254010Y-113733411D01*
X114416525Y-113976632D01*
X114623368Y-114183475D01*
X114797760Y-114300000D01*
X114623368Y-114416525D01*
X114416525Y-114623368D01*
X114254010Y-114866589D01*
X114142068Y-115136842D01*
X114085000Y-115423740D01*
X114085000Y-115716260D01*
X114142068Y-116003158D01*
X114254010Y-116273411D01*
X114416525Y-116516632D01*
X114623368Y-116723475D01*
X114797760Y-116840000D01*
X114623368Y-116956525D01*
X114416525Y-117163368D01*
X114254010Y-117406589D01*
X114142068Y-117676842D01*
X114085000Y-117963740D01*
X114085000Y-118256260D01*
X114142068Y-118543158D01*
X114254010Y-118813411D01*
X114416525Y-119056632D01*
X114623368Y-119263475D01*
X114805534Y-119385195D01*
X114688645Y-119454822D01*
X114472412Y-119649731D01*
X114298359Y-119883080D01*
X114173175Y-120145901D01*
X114128524Y-120293110D01*
X114249845Y-120523000D01*
X115443000Y-120523000D01*
X115443000Y-120503000D01*
X115697000Y-120503000D01*
X115697000Y-120523000D01*
X116890155Y-120523000D01*
X117011476Y-120293110D01*
X116966825Y-120145901D01*
X116841641Y-119883080D01*
X116667588Y-119649731D01*
X116451355Y-119454822D01*
X116334466Y-119385195D01*
X116516632Y-119263475D01*
X116723475Y-119056632D01*
X116885990Y-118813411D01*
X116997932Y-118543158D01*
X117055000Y-118256260D01*
X117055000Y-117963740D01*
X116997932Y-117676842D01*
X116885990Y-117406589D01*
X116723475Y-117163368D01*
X116516632Y-116956525D01*
X116342240Y-116840000D01*
X116516632Y-116723475D01*
X116723475Y-116516632D01*
X116885990Y-116273411D01*
X116997932Y-116003158D01*
X117055000Y-115716260D01*
X117055000Y-115423740D01*
X116997932Y-115136842D01*
X116885990Y-114866589D01*
X116723475Y-114623368D01*
X116516632Y-114416525D01*
X116342240Y-114300000D01*
X116516632Y-114183475D01*
X116723475Y-113976632D01*
X116885990Y-113733411D01*
X116997932Y-113463158D01*
X117055000Y-113176260D01*
X117055000Y-112883740D01*
X116997932Y-112596842D01*
X116885990Y-112326589D01*
X116723475Y-112083368D01*
X116516632Y-111876525D01*
X116342240Y-111760000D01*
X116516632Y-111643475D01*
X116723475Y-111436632D01*
X116885990Y-111193411D01*
X116997932Y-110923158D01*
X117055000Y-110636260D01*
X117055000Y-110343740D01*
X116997932Y-110056842D01*
X116885990Y-109786589D01*
X116723475Y-109543368D01*
X116516632Y-109336525D01*
X116342240Y-109220000D01*
X116516632Y-109103475D01*
X116723475Y-108896632D01*
X116885990Y-108653411D01*
X116997932Y-108383158D01*
X117055000Y-108096260D01*
X117055000Y-107803740D01*
X116997932Y-107516842D01*
X116885990Y-107246589D01*
X116723475Y-107003368D01*
X116516632Y-106796525D01*
X116342240Y-106680000D01*
X116516632Y-106563475D01*
X116723475Y-106356632D01*
X116885990Y-106113411D01*
X116997932Y-105843158D01*
X117055000Y-105556260D01*
X117055000Y-105263740D01*
X116997932Y-104976842D01*
X116885990Y-104706589D01*
X116733472Y-104478329D01*
X117450001Y-103761801D01*
X117450001Y-125697711D01*
X117411091Y-126094545D01*
X117305220Y-126445206D01*
X117133257Y-126768623D01*
X116901748Y-127052482D01*
X116619514Y-127285965D01*
X116297304Y-127460184D01*
X115947385Y-127568502D01*
X115552557Y-127610000D01*
X108445843Y-127610000D01*
X108516055Y-127596034D01*
X108869224Y-127449746D01*
X109187067Y-127237370D01*
X109457370Y-126967067D01*
X109669746Y-126649224D01*
X109816034Y-126296055D01*
X109890610Y-125921133D01*
X109890610Y-125538867D01*
X109816034Y-125163945D01*
X109669746Y-124810776D01*
X109457370Y-124492933D01*
X109187067Y-124222630D01*
X108869224Y-124010254D01*
X108516055Y-123863966D01*
X108141133Y-123789390D01*
X107969256Y-123789390D01*
X108040574Y-123741737D01*
X108184737Y-123597574D01*
X108298005Y-123428056D01*
X108376026Y-123239698D01*
X108415800Y-123039739D01*
X108415800Y-122977601D01*
X110386511Y-121006890D01*
X114128524Y-121006890D01*
X114173175Y-121154099D01*
X114298359Y-121416920D01*
X114472412Y-121650269D01*
X114688645Y-121845178D01*
X114938748Y-121994157D01*
X115213109Y-122091481D01*
X115443000Y-121970814D01*
X115443000Y-120777000D01*
X115697000Y-120777000D01*
X115697000Y-121970814D01*
X115926891Y-122091481D01*
X116201252Y-121994157D01*
X116451355Y-121845178D01*
X116667588Y-121650269D01*
X116841641Y-121416920D01*
X116966825Y-121154099D01*
X117011476Y-121006890D01*
X116890155Y-120777000D01*
X115697000Y-120777000D01*
X115443000Y-120777000D01*
X114249845Y-120777000D01*
X114128524Y-121006890D01*
X110386511Y-121006890D01*
X110823604Y-120569798D01*
X110852601Y-120546001D01*
X110947574Y-120430276D01*
X111018146Y-120298247D01*
X111061603Y-120154986D01*
X111072600Y-120043333D01*
X111072600Y-120043324D01*
X111076276Y-120006001D01*
X111072600Y-119968678D01*
X111072600Y-91456111D01*
X111116537Y-91412174D01*
X111229805Y-91242656D01*
X111307826Y-91054298D01*
X111347600Y-90854339D01*
X111347600Y-90650461D01*
X111307826Y-90450502D01*
X111229805Y-90262144D01*
X111116537Y-90092626D01*
X110972374Y-89948463D01*
X110857300Y-89871573D01*
X110857300Y-89145401D01*
X114240912Y-85761790D01*
X114254010Y-85793411D01*
G36*
X88495347Y-88300148D02*
G01*
X88495347Y-88362286D01*
X88535121Y-88562245D01*
X88613142Y-88750603D01*
X88726410Y-88920121D01*
X88870573Y-89064284D01*
X89040091Y-89177552D01*
X89228449Y-89255573D01*
X89428408Y-89295347D01*
X89490545Y-89295347D01*
X93855000Y-93659802D01*
X93855001Y-102743897D01*
X93778158Y-102712068D01*
X93491260Y-102655000D01*
X93198740Y-102655000D01*
X92911842Y-102712068D01*
X92641589Y-102824010D01*
X92398368Y-102986525D01*
X92191525Y-103193368D01*
X92075000Y-103367760D01*
X91958475Y-103193368D01*
X91751632Y-102986525D01*
X91508411Y-102824010D01*
X91238158Y-102712068D01*
X90951260Y-102655000D01*
X90658740Y-102655000D01*
X90371842Y-102712068D01*
X90101589Y-102824010D01*
X89858368Y-102986525D01*
X89651525Y-103193368D01*
X89489010Y-103436589D01*
X89377068Y-103706842D01*
X89320000Y-103993740D01*
X89320000Y-104286260D01*
X89377068Y-104573158D01*
X89489010Y-104843411D01*
X89651525Y-105086632D01*
X89858368Y-105293475D01*
X90101589Y-105455990D01*
X90371842Y-105567932D01*
X90658740Y-105625000D01*
X90951260Y-105625000D01*
X91238158Y-105567932D01*
X91508411Y-105455990D01*
X91751632Y-105293475D01*
X91958475Y-105086632D01*
X92075000Y-104912240D01*
X92191525Y-105086632D01*
X92398368Y-105293475D01*
X92641589Y-105455990D01*
X92911842Y-105567932D01*
X93198740Y-105625000D01*
X93491260Y-105625000D01*
X93778158Y-105567932D01*
X94048411Y-105455990D01*
X94280567Y-105300868D01*
X95684500Y-106704802D01*
X95693758Y-106716083D01*
X95573368Y-106796525D01*
X95366525Y-107003368D01*
X95250000Y-107177760D01*
X95133475Y-107003368D01*
X94926632Y-106796525D01*
X94683411Y-106634010D01*
X94413158Y-106522068D01*
X94126260Y-106465000D01*
X93833740Y-106465000D01*
X93546842Y-106522068D01*
X93276589Y-106634010D01*
X93033368Y-106796525D01*
X92826525Y-107003368D01*
X92710000Y-107177760D01*
X92593475Y-107003368D01*
X92386632Y-106796525D01*
X92143411Y-106634010D01*
X91873158Y-106522068D01*
X91586260Y-106465000D01*
X91293740Y-106465000D01*
X91006842Y-106522068D01*
X90736589Y-106634010D01*
X90493368Y-106796525D01*
X90286525Y-107003368D01*
X90170000Y-107177760D01*
X90053475Y-107003368D01*
X89846632Y-106796525D01*
X89603411Y-106634010D01*
X89333158Y-106522068D01*
X89046260Y-106465000D01*
X88753740Y-106465000D01*
X88466842Y-106522068D01*
X88196589Y-106634010D01*
X87953368Y-106796525D01*
X87746525Y-107003368D01*
X87630000Y-107177760D01*
X87513475Y-107003368D01*
X87306632Y-106796525D01*
X87063411Y-106634010D01*
X86793158Y-106522068D01*
X86506260Y-106465000D01*
X86213740Y-106465000D01*
X85926842Y-106522068D01*
X85656589Y-106634010D01*
X85413368Y-106796525D01*
X85206525Y-107003368D01*
X85090000Y-107177760D01*
X84973475Y-107003368D01*
X84766632Y-106796525D01*
X84523411Y-106634010D01*
X84253158Y-106522068D01*
X83966260Y-106465000D01*
X83673740Y-106465000D01*
X83386842Y-106522068D01*
X83116589Y-106634010D01*
X82873368Y-106796525D01*
X82666525Y-107003368D01*
X82550000Y-107177760D01*
X82433475Y-107003368D01*
X82226632Y-106796525D01*
X81983411Y-106634010D01*
X81713158Y-106522068D01*
X81426260Y-106465000D01*
X81133740Y-106465000D01*
X80846842Y-106522068D01*
X80576589Y-106634010D01*
X80333368Y-106796525D01*
X80201513Y-106928380D01*
X80179502Y-106855820D01*
X80120537Y-106745506D01*
X80041185Y-106648815D01*
X79944494Y-106569463D01*
X79834180Y-106510498D01*
X79714482Y-106474188D01*
X79590000Y-106461928D01*
X77890000Y-106461928D01*
X77765518Y-106474188D01*
X77645820Y-106510498D01*
X77535506Y-106569463D01*
X77438815Y-106648815D01*
X77359463Y-106745506D01*
X77300498Y-106855820D01*
X77264188Y-106975518D01*
X77251928Y-107100000D01*
X77251928Y-108800000D01*
X77264188Y-108924482D01*
X77300498Y-109044180D01*
X77359463Y-109154494D01*
X77413222Y-109220000D01*
X77359463Y-109285506D01*
X77300498Y-109395820D01*
X77264188Y-109515518D01*
X77251928Y-109640000D01*
X77251928Y-111340000D01*
X77264188Y-111464482D01*
X77300498Y-111584180D01*
X77359463Y-111694494D01*
X77413222Y-111760000D01*
X77359463Y-111825506D01*
X77300498Y-111935820D01*
X77264188Y-112055518D01*
X77251928Y-112180000D01*
X77251928Y-113880000D01*
X77264188Y-114004482D01*
X77300498Y-114124180D01*
X77359463Y-114234494D01*
X77413222Y-114300000D01*
X77359463Y-114365506D01*
X77300498Y-114475820D01*
X77264188Y-114595518D01*
X77251928Y-114720000D01*
X77251928Y-116420000D01*
X77264188Y-116544482D01*
X77300498Y-116664180D01*
X77359463Y-116774494D01*
X77413222Y-116840000D01*
X77359463Y-116905506D01*
X77300498Y-117015820D01*
X77264188Y-117135518D01*
X77251928Y-117260000D01*
X77251928Y-118960000D01*
X77264188Y-119084482D01*
X77300498Y-119204180D01*
X77359463Y-119314494D01*
X77413222Y-119380000D01*
X77359463Y-119445506D01*
X77300498Y-119555820D01*
X77264188Y-119675518D01*
X77251928Y-119800000D01*
X77251928Y-121500000D01*
X77264188Y-121624482D01*
X77300498Y-121744180D01*
X77359463Y-121854494D01*
X77438815Y-121951185D01*
X77535506Y-122030537D01*
X77645820Y-122089502D01*
X77765518Y-122125812D01*
X77890000Y-122138072D01*
X79590000Y-122138072D01*
X79714482Y-122125812D01*
X79834180Y-122089502D01*
X79944494Y-122030537D01*
X80041185Y-121951185D01*
X80120537Y-121854494D01*
X80179502Y-121744180D01*
X80201513Y-121671620D01*
X80333368Y-121803475D01*
X80576589Y-121965990D01*
X80846842Y-122077932D01*
X81133740Y-122135000D01*
X81426260Y-122135000D01*
X81713158Y-122077932D01*
X81983411Y-121965990D01*
X82226632Y-121803475D01*
X82433475Y-121596632D01*
X82550000Y-121422240D01*
X82666525Y-121596632D01*
X82873368Y-121803475D01*
X83116589Y-121965990D01*
X83386842Y-122077932D01*
X83673740Y-122135000D01*
X83966260Y-122135000D01*
X84253158Y-122077932D01*
X84523411Y-121965990D01*
X84766632Y-121803475D01*
X84973475Y-121596632D01*
X85090000Y-121422240D01*
X85206525Y-121596632D01*
X85413368Y-121803475D01*
X85656589Y-121965990D01*
X85926842Y-122077932D01*
X86213740Y-122135000D01*
X86506260Y-122135000D01*
X86793158Y-122077932D01*
X87063411Y-121965990D01*
X87306632Y-121803475D01*
X87513475Y-121596632D01*
X87630000Y-121422240D01*
X87746525Y-121596632D01*
X87953368Y-121803475D01*
X88196589Y-121965990D01*
X88466842Y-122077932D01*
X88753740Y-122135000D01*
X89046260Y-122135000D01*
X89333158Y-122077932D01*
X89603411Y-121965990D01*
X89846632Y-121803475D01*
X90053475Y-121596632D01*
X90170000Y-121422240D01*
X90286525Y-121596632D01*
X90493368Y-121803475D01*
X90736589Y-121965990D01*
X91006842Y-122077932D01*
X91293740Y-122135000D01*
X91586260Y-122135000D01*
X91873158Y-122077932D01*
X92143411Y-121965990D01*
X92386632Y-121803475D01*
X92593475Y-121596632D01*
X92710000Y-121422240D01*
X92826525Y-121596632D01*
X93033368Y-121803475D01*
X93276589Y-121965990D01*
X93546842Y-122077932D01*
X93833740Y-122135000D01*
X94126260Y-122135000D01*
X94413158Y-122077932D01*
X94683411Y-121965990D01*
X94926632Y-121803475D01*
X95133475Y-121596632D01*
X95250000Y-121422240D01*
X95366525Y-121596632D01*
X95573368Y-121803475D01*
X95816589Y-121965990D01*
X96086842Y-122077932D01*
X96373740Y-122135000D01*
X96666260Y-122135000D01*
X96953158Y-122077932D01*
X97223411Y-121965990D01*
X97466632Y-121803475D01*
X97673475Y-121596632D01*
X97835990Y-121353411D01*
X97947932Y-121083158D01*
X98005000Y-120796260D01*
X98005000Y-120503740D01*
X97947932Y-120216842D01*
X97835990Y-119946589D01*
X97673475Y-119703368D01*
X97466632Y-119496525D01*
X97292240Y-119380000D01*
X97466632Y-119263475D01*
X97673475Y-119056632D01*
X97835990Y-118813411D01*
X97947932Y-118543158D01*
X98005000Y-118256260D01*
X98005000Y-117963740D01*
X97947932Y-117676842D01*
X97835990Y-117406589D01*
X97673475Y-117163368D01*
X97466632Y-116956525D01*
X97292240Y-116840000D01*
X97466632Y-116723475D01*
X97673475Y-116516632D01*
X97835990Y-116273411D01*
X97947932Y-116003158D01*
X98005000Y-115716260D01*
X98005000Y-115423740D01*
X97947932Y-115136842D01*
X97835990Y-114866589D01*
X97673475Y-114623368D01*
X97466632Y-114416525D01*
X97292240Y-114300000D01*
X97425534Y-114210936D01*
X101689064Y-118474466D01*
X101554010Y-118676589D01*
X101442068Y-118946842D01*
X101385000Y-119233740D01*
X101385000Y-119526260D01*
X101442068Y-119813158D01*
X101554010Y-120083411D01*
X101716525Y-120326632D01*
X101848380Y-120458487D01*
X101775820Y-120480498D01*
X101665506Y-120539463D01*
X101568815Y-120618815D01*
X101489463Y-120715506D01*
X101430498Y-120825820D01*
X101394188Y-120945518D01*
X101381928Y-121070000D01*
X101381928Y-122770000D01*
X101394188Y-122894482D01*
X101430498Y-123014180D01*
X101489463Y-123124494D01*
X101568815Y-123221185D01*
X101665506Y-123300537D01*
X101775820Y-123359502D01*
X101895518Y-123395812D01*
X102020000Y-123408072D01*
X103720000Y-123408072D01*
X103844482Y-123395812D01*
X103964180Y-123359502D01*
X104074494Y-123300537D01*
X104171185Y-123221185D01*
X104250537Y-123124494D01*
X104309502Y-123014180D01*
X104345812Y-122894482D01*
X104358072Y-122770000D01*
X104358072Y-121070000D01*
X104345812Y-120945518D01*
X104309502Y-120825820D01*
X104250537Y-120715506D01*
X104171185Y-120618815D01*
X104074494Y-120539463D01*
X103964180Y-120480498D01*
X103891620Y-120458487D01*
X104023475Y-120326632D01*
X104185990Y-120083411D01*
X104297932Y-119813158D01*
X104355000Y-119526260D01*
X104355000Y-119233740D01*
X104297932Y-118946842D01*
X104185990Y-118676589D01*
X104047851Y-118469850D01*
X106237304Y-116280398D01*
X106266301Y-116256601D01*
X106361274Y-116140876D01*
X106431846Y-116008847D01*
X106475303Y-115865586D01*
X106486300Y-115753933D01*
X106486300Y-115753924D01*
X106489976Y-115716601D01*
X106486300Y-115679278D01*
X106486300Y-112061874D01*
X106855881Y-112061874D01*
X106872554Y-112116864D01*
X106962877Y-112320206D01*
X107091135Y-112502020D01*
X107252399Y-112655318D01*
X107440471Y-112774210D01*
X107648124Y-112854126D01*
X107823000Y-112729129D01*
X107823000Y-111887000D01*
X108077000Y-111887000D01*
X108077000Y-112729129D01*
X108251876Y-112854126D01*
X108459529Y-112774210D01*
X108647601Y-112655318D01*
X108808865Y-112502020D01*
X108937123Y-112320206D01*
X109027446Y-112116864D01*
X109044119Y-112061874D01*
X108917954Y-111887000D01*
X108077000Y-111887000D01*
X107823000Y-111887000D01*
X106982046Y-111887000D01*
X106855881Y-112061874D01*
X106486300Y-112061874D01*
X106486300Y-111758501D01*
X106897240Y-111347562D01*
X106872554Y-111403136D01*
X106855881Y-111458126D01*
X106982046Y-111633000D01*
X107823000Y-111633000D01*
X107823000Y-111621974D01*
X107838212Y-111625000D01*
X108061788Y-111625000D01*
X108077000Y-111621974D01*
X108077000Y-111633000D01*
X108917954Y-111633000D01*
X109044119Y-111458126D01*
X109027446Y-111403136D01*
X108937123Y-111199794D01*
X108887647Y-111129658D01*
X108955824Y-111027624D01*
X109041383Y-110821067D01*
X109085000Y-110601788D01*
X109085000Y-110378212D01*
X109041383Y-110158933D01*
X108955824Y-109952376D01*
X108890759Y-109855000D01*
X108955824Y-109757624D01*
X109041383Y-109551067D01*
X109085000Y-109331788D01*
X109085000Y-109108212D01*
X109041383Y-108888933D01*
X108955824Y-108682376D01*
X108890759Y-108585000D01*
X108955824Y-108487624D01*
X109041383Y-108281067D01*
X109085000Y-108061788D01*
X109085000Y-107838212D01*
X109041383Y-107618933D01*
X108955824Y-107412376D01*
X108890759Y-107315000D01*
X108955824Y-107217624D01*
X109041383Y-107011067D01*
X109085000Y-106791788D01*
X109085000Y-106568212D01*
X109041383Y-106348933D01*
X108955824Y-106142376D01*
X108890759Y-106045000D01*
X108955824Y-105947624D01*
X109041383Y-105741067D01*
X109085000Y-105521788D01*
X109085000Y-105298212D01*
X109041383Y-105078933D01*
X108955824Y-104872376D01*
X108890759Y-104775000D01*
X108955824Y-104677624D01*
X109041383Y-104471067D01*
X109085000Y-104251788D01*
X109085000Y-104028212D01*
X109041383Y-103808933D01*
X108955824Y-103602376D01*
X108890759Y-103505000D01*
X108955824Y-103407624D01*
X109041383Y-103201067D01*
X109085000Y-102981788D01*
X109085000Y-102758212D01*
X109041383Y-102538933D01*
X108955824Y-102332376D01*
X108890759Y-102235000D01*
X108955824Y-102137624D01*
X109041383Y-101931067D01*
X109085000Y-101711788D01*
X109085000Y-101488212D01*
X109041383Y-101268933D01*
X108955824Y-101062376D01*
X108890759Y-100965000D01*
X108955824Y-100867624D01*
X109041383Y-100661067D01*
X109085000Y-100441788D01*
X109085000Y-100218212D01*
X109041383Y-99998933D01*
X108955824Y-99792376D01*
X108890759Y-99695000D01*
X108955824Y-99597624D01*
X109041383Y-99391067D01*
X109085000Y-99171788D01*
X109085000Y-98948212D01*
X109041383Y-98728933D01*
X108955824Y-98522376D01*
X108890759Y-98425000D01*
X108955824Y-98327624D01*
X109041383Y-98121067D01*
X109085000Y-97901788D01*
X109085000Y-97678212D01*
X109041383Y-97458933D01*
X108955824Y-97252376D01*
X108890759Y-97155000D01*
X108955824Y-97057624D01*
X109041383Y-96851067D01*
X109085000Y-96631788D01*
X109085000Y-96408212D01*
X109041383Y-96188933D01*
X108955824Y-95982376D01*
X108890759Y-95885000D01*
X108955824Y-95787624D01*
X109041383Y-95581067D01*
X109085000Y-95361788D01*
X109085000Y-95138212D01*
X109041383Y-94918933D01*
X108955824Y-94712376D01*
X108890759Y-94615000D01*
X108955824Y-94517624D01*
X109041383Y-94311067D01*
X109085000Y-94091788D01*
X109085000Y-93868212D01*
X109041383Y-93648933D01*
X108955824Y-93442376D01*
X108890759Y-93345000D01*
X108955824Y-93247624D01*
X109041383Y-93041067D01*
X109085000Y-92821788D01*
X109085000Y-92649801D01*
X109552601Y-92182201D01*
X109552600Y-119691198D01*
X107340999Y-121902800D01*
X107278861Y-121902800D01*
X107078902Y-121942574D01*
X106890544Y-122020595D01*
X106721026Y-122133863D01*
X106576863Y-122278026D01*
X106463595Y-122447544D01*
X106385574Y-122635902D01*
X106345800Y-122835861D01*
X106345800Y-123039739D01*
X106385574Y-123239698D01*
X106463595Y-123428056D01*
X106576863Y-123597574D01*
X106721026Y-123741737D01*
X106890544Y-123855005D01*
X107078902Y-123933026D01*
X107172347Y-123951613D01*
X107030776Y-124010254D01*
X106712933Y-124222630D01*
X106442630Y-124492933D01*
X106230254Y-124810776D01*
X106083966Y-125163945D01*
X106009390Y-125538867D01*
X106009390Y-125921133D01*
X106083966Y-126296055D01*
X106230254Y-126649224D01*
X106442630Y-126967067D01*
X106712933Y-127237370D01*
X107030776Y-127449746D01*
X107383945Y-127596034D01*
X107454157Y-127610000D01*
X85585843Y-127610000D01*
X85656055Y-127596034D01*
X86009224Y-127449746D01*
X86327067Y-127237370D01*
X86597370Y-126967067D01*
X86809746Y-126649224D01*
X86956034Y-126296055D01*
X87030610Y-125921133D01*
X87030610Y-125538867D01*
X86956034Y-125163945D01*
X86809746Y-124810776D01*
X86597370Y-124492933D01*
X86327067Y-124222630D01*
X86009224Y-124010254D01*
X85656055Y-123863966D01*
X85281133Y-123789390D01*
X84898867Y-123789390D01*
X84523945Y-123863966D01*
X84170776Y-124010254D01*
X83852933Y-124222630D01*
X83582630Y-124492933D01*
X83370254Y-124810776D01*
X83223966Y-125163945D01*
X83149390Y-125538867D01*
X83149390Y-125921133D01*
X83223966Y-126296055D01*
X83370254Y-126649224D01*
X83582630Y-126967067D01*
X83852933Y-127237370D01*
X84170776Y-127449746D01*
X84523945Y-127596034D01*
X84594157Y-127610000D01*
X78772279Y-127610000D01*
X78375455Y-127571091D01*
X78024794Y-127465220D01*
X77701377Y-127293257D01*
X77417518Y-127061748D01*
X77184035Y-126779514D01*
X77009816Y-126457304D01*
X76901498Y-126107385D01*
X76860000Y-125712557D01*
X76860000Y-96176801D01*
X77562509Y-96879311D01*
X77424010Y-97086589D01*
X77312068Y-97356842D01*
X77255000Y-97643740D01*
X77255000Y-97936260D01*
X77312068Y-98223158D01*
X77424010Y-98493411D01*
X77586525Y-98736632D01*
X77793368Y-98943475D01*
X77967760Y-99060000D01*
X77793368Y-99176525D01*
X77586525Y-99383368D01*
X77424010Y-99626589D01*
X77312068Y-99896842D01*
X77255000Y-100183740D01*
X77255000Y-100476260D01*
X77312068Y-100763158D01*
X77424010Y-101033411D01*
X77586525Y-101276632D01*
X77793368Y-101483475D01*
X78036589Y-101645990D01*
X78306842Y-101757932D01*
X78593740Y-101815000D01*
X78886260Y-101815000D01*
X79173158Y-101757932D01*
X79443411Y-101645990D01*
X79686632Y-101483475D01*
X79893475Y-101276632D01*
X80055990Y-101033411D01*
X80167932Y-100763158D01*
X80225000Y-100476260D01*
X80225000Y-100183740D01*
X80167932Y-99896842D01*
X80055990Y-99626589D01*
X79893475Y-99383368D01*
X79686632Y-99176525D01*
X79512240Y-99060000D01*
X79686632Y-98943475D01*
X79893475Y-98736632D01*
X80055990Y-98493411D01*
X80167932Y-98223158D01*
X80225000Y-97936260D01*
X80225000Y-97809801D01*
X83955000Y-101539802D01*
X83955000Y-101711788D01*
X83998617Y-101931067D01*
X84084176Y-102137624D01*
X84208388Y-102323520D01*
X84366480Y-102481612D01*
X84552376Y-102605824D01*
X84758933Y-102691383D01*
X84978212Y-102735000D01*
X85201788Y-102735000D01*
X85421067Y-102691383D01*
X85627624Y-102605824D01*
X85813520Y-102481612D01*
X85971612Y-102323520D01*
X86095824Y-102137624D01*
X86181383Y-101931067D01*
X86225000Y-101711788D01*
X86225000Y-101488212D01*
X86181383Y-101268933D01*
X86095824Y-101062376D01*
X86030759Y-100965000D01*
X86095824Y-100867624D01*
X86181383Y-100661067D01*
X86225000Y-100441788D01*
X86225000Y-100218212D01*
X86181383Y-99998933D01*
X86095824Y-99792376D01*
X86030759Y-99695000D01*
X86095824Y-99597624D01*
X86181383Y-99391067D01*
X86225000Y-99171788D01*
X86225000Y-98948212D01*
X86181383Y-98728933D01*
X86095824Y-98522376D01*
X86030759Y-98425000D01*
X86095824Y-98327624D01*
X86181383Y-98121067D01*
X86225000Y-97901788D01*
X86225000Y-97678212D01*
X86181383Y-97458933D01*
X86095824Y-97252376D01*
X86030759Y-97155000D01*
X86095824Y-97057624D01*
X86181383Y-96851067D01*
X86225000Y-96631788D01*
X86225000Y-96408212D01*
X86181383Y-96188933D01*
X86095824Y-95982376D01*
X86030759Y-95885000D01*
X86095824Y-95787624D01*
X86181383Y-95581067D01*
X86225000Y-95361788D01*
X86225000Y-95138212D01*
X86181383Y-94918933D01*
X86095824Y-94712376D01*
X86030759Y-94615000D01*
X86095824Y-94517624D01*
X86181383Y-94311067D01*
X86225000Y-94091788D01*
X86225000Y-93868212D01*
X86181383Y-93648933D01*
X86095824Y-93442376D01*
X86030759Y-93345000D01*
X86095824Y-93247624D01*
X86181383Y-93041067D01*
X86225000Y-92821788D01*
X86225000Y-92598212D01*
X86181383Y-92378933D01*
X86095824Y-92172376D01*
X86030759Y-92075000D01*
X86095824Y-91977624D01*
X86181383Y-91771067D01*
X86225000Y-91551788D01*
X86225000Y-91328212D01*
X86181383Y-91108933D01*
X86095824Y-90902376D01*
X86030759Y-90805000D01*
X86095824Y-90707624D01*
X86181383Y-90501067D01*
X86225000Y-90281788D01*
X86225000Y-90058212D01*
X86181383Y-89838933D01*
X86095824Y-89632376D01*
X86030759Y-89535000D01*
X86095824Y-89437624D01*
X86181383Y-89231067D01*
X86225000Y-89011788D01*
X86225000Y-88788212D01*
X86181383Y-88568933D01*
X86095824Y-88362376D01*
X86030759Y-88265000D01*
X86095824Y-88167624D01*
X86181383Y-87961067D01*
X86225000Y-87741788D01*
X86225000Y-87518212D01*
X86181383Y-87298933D01*
X86095824Y-87092376D01*
X86030759Y-86995000D01*
X86095824Y-86897624D01*
X86181383Y-86691067D01*
X86225000Y-86471788D01*
X86225000Y-86248212D01*
X86181383Y-86028933D01*
X86151155Y-85955956D01*
X88495347Y-88300148D01*
G37*
X88495347Y-88300148D02*
X88495347Y-88362286D01*
X88535121Y-88562245D01*
X88613142Y-88750603D01*
X88726410Y-88920121D01*
X88870573Y-89064284D01*
X89040091Y-89177552D01*
X89228449Y-89255573D01*
X89428408Y-89295347D01*
X89490545Y-89295347D01*
X93855000Y-93659802D01*
X93855001Y-102743897D01*
X93778158Y-102712068D01*
X93491260Y-102655000D01*
X93198740Y-102655000D01*
X92911842Y-102712068D01*
X92641589Y-102824010D01*
X92398368Y-102986525D01*
X92191525Y-103193368D01*
X92075000Y-103367760D01*
X91958475Y-103193368D01*
X91751632Y-102986525D01*
X91508411Y-102824010D01*
X91238158Y-102712068D01*
X90951260Y-102655000D01*
X90658740Y-102655000D01*
X90371842Y-102712068D01*
X90101589Y-102824010D01*
X89858368Y-102986525D01*
X89651525Y-103193368D01*
X89489010Y-103436589D01*
X89377068Y-103706842D01*
X89320000Y-103993740D01*
X89320000Y-104286260D01*
X89377068Y-104573158D01*
X89489010Y-104843411D01*
X89651525Y-105086632D01*
X89858368Y-105293475D01*
X90101589Y-105455990D01*
X90371842Y-105567932D01*
X90658740Y-105625000D01*
X90951260Y-105625000D01*
X91238158Y-105567932D01*
X91508411Y-105455990D01*
X91751632Y-105293475D01*
X91958475Y-105086632D01*
X92075000Y-104912240D01*
X92191525Y-105086632D01*
X92398368Y-105293475D01*
X92641589Y-105455990D01*
X92911842Y-105567932D01*
X93198740Y-105625000D01*
X93491260Y-105625000D01*
X93778158Y-105567932D01*
X94048411Y-105455990D01*
X94280567Y-105300868D01*
X95684500Y-106704802D01*
X95693758Y-106716083D01*
X95573368Y-106796525D01*
X95366525Y-107003368D01*
X95250000Y-107177760D01*
X95133475Y-107003368D01*
X94926632Y-106796525D01*
X94683411Y-106634010D01*
X94413158Y-106522068D01*
X94126260Y-106465000D01*
X93833740Y-106465000D01*
X93546842Y-106522068D01*
X93276589Y-106634010D01*
X93033368Y-106796525D01*
X92826525Y-107003368D01*
X92710000Y-107177760D01*
X92593475Y-107003368D01*
X92386632Y-106796525D01*
X92143411Y-106634010D01*
X91873158Y-106522068D01*
X91586260Y-106465000D01*
X91293740Y-106465000D01*
X91006842Y-106522068D01*
X90736589Y-106634010D01*
X90493368Y-106796525D01*
X90286525Y-107003368D01*
X90170000Y-107177760D01*
X90053475Y-107003368D01*
X89846632Y-106796525D01*
X89603411Y-106634010D01*
X89333158Y-106522068D01*
X89046260Y-106465000D01*
X88753740Y-106465000D01*
X88466842Y-106522068D01*
X88196589Y-106634010D01*
X87953368Y-106796525D01*
X87746525Y-107003368D01*
X87630000Y-107177760D01*
X87513475Y-107003368D01*
X87306632Y-106796525D01*
X87063411Y-106634010D01*
X86793158Y-106522068D01*
X86506260Y-106465000D01*
X86213740Y-106465000D01*
X85926842Y-106522068D01*
X85656589Y-106634010D01*
X85413368Y-106796525D01*
X85206525Y-107003368D01*
X85090000Y-107177760D01*
X84973475Y-107003368D01*
X84766632Y-106796525D01*
X84523411Y-106634010D01*
X84253158Y-106522068D01*
X83966260Y-106465000D01*
X83673740Y-106465000D01*
X83386842Y-106522068D01*
X83116589Y-106634010D01*
X82873368Y-106796525D01*
X82666525Y-107003368D01*
X82550000Y-107177760D01*
X82433475Y-107003368D01*
X82226632Y-106796525D01*
X81983411Y-106634010D01*
X81713158Y-106522068D01*
X81426260Y-106465000D01*
X81133740Y-106465000D01*
X80846842Y-106522068D01*
X80576589Y-106634010D01*
X80333368Y-106796525D01*
X80201513Y-106928380D01*
X80179502Y-106855820D01*
X80120537Y-106745506D01*
X80041185Y-106648815D01*
X79944494Y-106569463D01*
X79834180Y-106510498D01*
X79714482Y-106474188D01*
X79590000Y-106461928D01*
X77890000Y-106461928D01*
X77765518Y-106474188D01*
X77645820Y-106510498D01*
X77535506Y-106569463D01*
X77438815Y-106648815D01*
X77359463Y-106745506D01*
X77300498Y-106855820D01*
X77264188Y-106975518D01*
X77251928Y-107100000D01*
X77251928Y-108800000D01*
X77264188Y-108924482D01*
X77300498Y-109044180D01*
X77359463Y-109154494D01*
X77413222Y-109220000D01*
X77359463Y-109285506D01*
X77300498Y-109395820D01*
X77264188Y-109515518D01*
X77251928Y-109640000D01*
X77251928Y-111340000D01*
X77264188Y-111464482D01*
X77300498Y-111584180D01*
X77359463Y-111694494D01*
X77413222Y-111760000D01*
X77359463Y-111825506D01*
X77300498Y-111935820D01*
X77264188Y-112055518D01*
X77251928Y-112180000D01*
X77251928Y-113880000D01*
X77264188Y-114004482D01*
X77300498Y-114124180D01*
X77359463Y-114234494D01*
X77413222Y-114300000D01*
X77359463Y-114365506D01*
X77300498Y-114475820D01*
X77264188Y-114595518D01*
X77251928Y-114720000D01*
X77251928Y-116420000D01*
X77264188Y-116544482D01*
X77300498Y-116664180D01*
X77359463Y-116774494D01*
X77413222Y-116840000D01*
X77359463Y-116905506D01*
X77300498Y-117015820D01*
X77264188Y-117135518D01*
X77251928Y-117260000D01*
X77251928Y-118960000D01*
X77264188Y-119084482D01*
X77300498Y-119204180D01*
X77359463Y-119314494D01*
X77413222Y-119380000D01*
X77359463Y-119445506D01*
X77300498Y-119555820D01*
X77264188Y-119675518D01*
X77251928Y-119800000D01*
X77251928Y-121500000D01*
X77264188Y-121624482D01*
X77300498Y-121744180D01*
X77359463Y-121854494D01*
X77438815Y-121951185D01*
X77535506Y-122030537D01*
X77645820Y-122089502D01*
X77765518Y-122125812D01*
X77890000Y-122138072D01*
X79590000Y-122138072D01*
X79714482Y-122125812D01*
X79834180Y-122089502D01*
X79944494Y-122030537D01*
X80041185Y-121951185D01*
X80120537Y-121854494D01*
X80179502Y-121744180D01*
X80201513Y-121671620D01*
X80333368Y-121803475D01*
X80576589Y-121965990D01*
X80846842Y-122077932D01*
X81133740Y-122135000D01*
X81426260Y-122135000D01*
X81713158Y-122077932D01*
X81983411Y-121965990D01*
X82226632Y-121803475D01*
X82433475Y-121596632D01*
X82550000Y-121422240D01*
X82666525Y-121596632D01*
X82873368Y-121803475D01*
X83116589Y-121965990D01*
X83386842Y-122077932D01*
X83673740Y-122135000D01*
X83966260Y-122135000D01*
X84253158Y-122077932D01*
X84523411Y-121965990D01*
X84766632Y-121803475D01*
X84973475Y-121596632D01*
X85090000Y-121422240D01*
X85206525Y-121596632D01*
X85413368Y-121803475D01*
X85656589Y-121965990D01*
X85926842Y-122077932D01*
X86213740Y-122135000D01*
X86506260Y-122135000D01*
X86793158Y-122077932D01*
X87063411Y-121965990D01*
X87306632Y-121803475D01*
X87513475Y-121596632D01*
X87630000Y-121422240D01*
X87746525Y-121596632D01*
X87953368Y-121803475D01*
X88196589Y-121965990D01*
X88466842Y-122077932D01*
X88753740Y-122135000D01*
X89046260Y-122135000D01*
X89333158Y-122077932D01*
X89603411Y-121965990D01*
X89846632Y-121803475D01*
X90053475Y-121596632D01*
X90170000Y-121422240D01*
X90286525Y-121596632D01*
X90493368Y-121803475D01*
X90736589Y-121965990D01*
X91006842Y-122077932D01*
X91293740Y-122135000D01*
X91586260Y-122135000D01*
X91873158Y-122077932D01*
X92143411Y-121965990D01*
X92386632Y-121803475D01*
X92593475Y-121596632D01*
X92710000Y-121422240D01*
X92826525Y-121596632D01*
X93033368Y-121803475D01*
X93276589Y-121965990D01*
X93546842Y-122077932D01*
X93833740Y-122135000D01*
X94126260Y-122135000D01*
X94413158Y-122077932D01*
X94683411Y-121965990D01*
X94926632Y-121803475D01*
X95133475Y-121596632D01*
X95250000Y-121422240D01*
X95366525Y-121596632D01*
X95573368Y-121803475D01*
X95816589Y-121965990D01*
X96086842Y-122077932D01*
X96373740Y-122135000D01*
X96666260Y-122135000D01*
X96953158Y-122077932D01*
X97223411Y-121965990D01*
X97466632Y-121803475D01*
X97673475Y-121596632D01*
X97835990Y-121353411D01*
X97947932Y-121083158D01*
X98005000Y-120796260D01*
X98005000Y-120503740D01*
X97947932Y-120216842D01*
X97835990Y-119946589D01*
X97673475Y-119703368D01*
X97466632Y-119496525D01*
X97292240Y-119380000D01*
X97466632Y-119263475D01*
X97673475Y-119056632D01*
X97835990Y-118813411D01*
X97947932Y-118543158D01*
X98005000Y-118256260D01*
X98005000Y-117963740D01*
X97947932Y-117676842D01*
X97835990Y-117406589D01*
X97673475Y-117163368D01*
X97466632Y-116956525D01*
X97292240Y-116840000D01*
X97466632Y-116723475D01*
X97673475Y-116516632D01*
X97835990Y-116273411D01*
X97947932Y-116003158D01*
X98005000Y-115716260D01*
X98005000Y-115423740D01*
X97947932Y-115136842D01*
X97835990Y-114866589D01*
X97673475Y-114623368D01*
X97466632Y-114416525D01*
X97292240Y-114300000D01*
X97425534Y-114210936D01*
X101689064Y-118474466D01*
X101554010Y-118676589D01*
X101442068Y-118946842D01*
X101385000Y-119233740D01*
X101385000Y-119526260D01*
X101442068Y-119813158D01*
X101554010Y-120083411D01*
X101716525Y-120326632D01*
X101848380Y-120458487D01*
X101775820Y-120480498D01*
X101665506Y-120539463D01*
X101568815Y-120618815D01*
X101489463Y-120715506D01*
X101430498Y-120825820D01*
X101394188Y-120945518D01*
X101381928Y-121070000D01*
X101381928Y-122770000D01*
X101394188Y-122894482D01*
X101430498Y-123014180D01*
X101489463Y-123124494D01*
X101568815Y-123221185D01*
X101665506Y-123300537D01*
X101775820Y-123359502D01*
X101895518Y-123395812D01*
X102020000Y-123408072D01*
X103720000Y-123408072D01*
X103844482Y-123395812D01*
X103964180Y-123359502D01*
X104074494Y-123300537D01*
X104171185Y-123221185D01*
X104250537Y-123124494D01*
X104309502Y-123014180D01*
X104345812Y-122894482D01*
X104358072Y-122770000D01*
X104358072Y-121070000D01*
X104345812Y-120945518D01*
X104309502Y-120825820D01*
X104250537Y-120715506D01*
X104171185Y-120618815D01*
X104074494Y-120539463D01*
X103964180Y-120480498D01*
X103891620Y-120458487D01*
X104023475Y-120326632D01*
X104185990Y-120083411D01*
X104297932Y-119813158D01*
X104355000Y-119526260D01*
X104355000Y-119233740D01*
X104297932Y-118946842D01*
X104185990Y-118676589D01*
X104047851Y-118469850D01*
X106237304Y-116280398D01*
X106266301Y-116256601D01*
X106361274Y-116140876D01*
X106431846Y-116008847D01*
X106475303Y-115865586D01*
X106486300Y-115753933D01*
X106486300Y-115753924D01*
X106489976Y-115716601D01*
X106486300Y-115679278D01*
X106486300Y-112061874D01*
X106855881Y-112061874D01*
X106872554Y-112116864D01*
X106962877Y-112320206D01*
X107091135Y-112502020D01*
X107252399Y-112655318D01*
X107440471Y-112774210D01*
X107648124Y-112854126D01*
X107823000Y-112729129D01*
X107823000Y-111887000D01*
X108077000Y-111887000D01*
X108077000Y-112729129D01*
X108251876Y-112854126D01*
X108459529Y-112774210D01*
X108647601Y-112655318D01*
X108808865Y-112502020D01*
X108937123Y-112320206D01*
X109027446Y-112116864D01*
X109044119Y-112061874D01*
X108917954Y-111887000D01*
X108077000Y-111887000D01*
X107823000Y-111887000D01*
X106982046Y-111887000D01*
X106855881Y-112061874D01*
X106486300Y-112061874D01*
X106486300Y-111758501D01*
X106897240Y-111347562D01*
X106872554Y-111403136D01*
X106855881Y-111458126D01*
X106982046Y-111633000D01*
X107823000Y-111633000D01*
X107823000Y-111621974D01*
X107838212Y-111625000D01*
X108061788Y-111625000D01*
X108077000Y-111621974D01*
X108077000Y-111633000D01*
X108917954Y-111633000D01*
X109044119Y-111458126D01*
X109027446Y-111403136D01*
X108937123Y-111199794D01*
X108887647Y-111129658D01*
X108955824Y-111027624D01*
X109041383Y-110821067D01*
X109085000Y-110601788D01*
X109085000Y-110378212D01*
X109041383Y-110158933D01*
X108955824Y-109952376D01*
X108890759Y-109855000D01*
X108955824Y-109757624D01*
X109041383Y-109551067D01*
X109085000Y-109331788D01*
X109085000Y-109108212D01*
X109041383Y-108888933D01*
X108955824Y-108682376D01*
X108890759Y-108585000D01*
X108955824Y-108487624D01*
X109041383Y-108281067D01*
X109085000Y-108061788D01*
X109085000Y-107838212D01*
X109041383Y-107618933D01*
X108955824Y-107412376D01*
X108890759Y-107315000D01*
X108955824Y-107217624D01*
X109041383Y-107011067D01*
X109085000Y-106791788D01*
X109085000Y-106568212D01*
X109041383Y-106348933D01*
X108955824Y-106142376D01*
X108890759Y-106045000D01*
X108955824Y-105947624D01*
X109041383Y-105741067D01*
X109085000Y-105521788D01*
X109085000Y-105298212D01*
X109041383Y-105078933D01*
X108955824Y-104872376D01*
X108890759Y-104775000D01*
X108955824Y-104677624D01*
X109041383Y-104471067D01*
X109085000Y-104251788D01*
X109085000Y-104028212D01*
X109041383Y-103808933D01*
X108955824Y-103602376D01*
X108890759Y-103505000D01*
X108955824Y-103407624D01*
X109041383Y-103201067D01*
X109085000Y-102981788D01*
X109085000Y-102758212D01*
X109041383Y-102538933D01*
X108955824Y-102332376D01*
X108890759Y-102235000D01*
X108955824Y-102137624D01*
X109041383Y-101931067D01*
X109085000Y-101711788D01*
X109085000Y-101488212D01*
X109041383Y-101268933D01*
X108955824Y-101062376D01*
X108890759Y-100965000D01*
X108955824Y-100867624D01*
X109041383Y-100661067D01*
X109085000Y-100441788D01*
X109085000Y-100218212D01*
X109041383Y-99998933D01*
X108955824Y-99792376D01*
X108890759Y-99695000D01*
X108955824Y-99597624D01*
X109041383Y-99391067D01*
X109085000Y-99171788D01*
X109085000Y-98948212D01*
X109041383Y-98728933D01*
X108955824Y-98522376D01*
X108890759Y-98425000D01*
X108955824Y-98327624D01*
X109041383Y-98121067D01*
X109085000Y-97901788D01*
X109085000Y-97678212D01*
X109041383Y-97458933D01*
X108955824Y-97252376D01*
X108890759Y-97155000D01*
X108955824Y-97057624D01*
X109041383Y-96851067D01*
X109085000Y-96631788D01*
X109085000Y-96408212D01*
X109041383Y-96188933D01*
X108955824Y-95982376D01*
X108890759Y-95885000D01*
X108955824Y-95787624D01*
X109041383Y-95581067D01*
X109085000Y-95361788D01*
X109085000Y-95138212D01*
X109041383Y-94918933D01*
X108955824Y-94712376D01*
X108890759Y-94615000D01*
X108955824Y-94517624D01*
X109041383Y-94311067D01*
X109085000Y-94091788D01*
X109085000Y-93868212D01*
X109041383Y-93648933D01*
X108955824Y-93442376D01*
X108890759Y-93345000D01*
X108955824Y-93247624D01*
X109041383Y-93041067D01*
X109085000Y-92821788D01*
X109085000Y-92649801D01*
X109552601Y-92182201D01*
X109552600Y-119691198D01*
X107340999Y-121902800D01*
X107278861Y-121902800D01*
X107078902Y-121942574D01*
X106890544Y-122020595D01*
X106721026Y-122133863D01*
X106576863Y-122278026D01*
X106463595Y-122447544D01*
X106385574Y-122635902D01*
X106345800Y-122835861D01*
X106345800Y-123039739D01*
X106385574Y-123239698D01*
X106463595Y-123428056D01*
X106576863Y-123597574D01*
X106721026Y-123741737D01*
X106890544Y-123855005D01*
X107078902Y-123933026D01*
X107172347Y-123951613D01*
X107030776Y-124010254D01*
X106712933Y-124222630D01*
X106442630Y-124492933D01*
X106230254Y-124810776D01*
X106083966Y-125163945D01*
X106009390Y-125538867D01*
X106009390Y-125921133D01*
X106083966Y-126296055D01*
X106230254Y-126649224D01*
X106442630Y-126967067D01*
X106712933Y-127237370D01*
X107030776Y-127449746D01*
X107383945Y-127596034D01*
X107454157Y-127610000D01*
X85585843Y-127610000D01*
X85656055Y-127596034D01*
X86009224Y-127449746D01*
X86327067Y-127237370D01*
X86597370Y-126967067D01*
X86809746Y-126649224D01*
X86956034Y-126296055D01*
X87030610Y-125921133D01*
X87030610Y-125538867D01*
X86956034Y-125163945D01*
X86809746Y-124810776D01*
X86597370Y-124492933D01*
X86327067Y-124222630D01*
X86009224Y-124010254D01*
X85656055Y-123863966D01*
X85281133Y-123789390D01*
X84898867Y-123789390D01*
X84523945Y-123863966D01*
X84170776Y-124010254D01*
X83852933Y-124222630D01*
X83582630Y-124492933D01*
X83370254Y-124810776D01*
X83223966Y-125163945D01*
X83149390Y-125538867D01*
X83149390Y-125921133D01*
X83223966Y-126296055D01*
X83370254Y-126649224D01*
X83582630Y-126967067D01*
X83852933Y-127237370D01*
X84170776Y-127449746D01*
X84523945Y-127596034D01*
X84594157Y-127610000D01*
X78772279Y-127610000D01*
X78375455Y-127571091D01*
X78024794Y-127465220D01*
X77701377Y-127293257D01*
X77417518Y-127061748D01*
X77184035Y-126779514D01*
X77009816Y-126457304D01*
X76901498Y-126107385D01*
X76860000Y-125712557D01*
X76860000Y-96176801D01*
X77562509Y-96879311D01*
X77424010Y-97086589D01*
X77312068Y-97356842D01*
X77255000Y-97643740D01*
X77255000Y-97936260D01*
X77312068Y-98223158D01*
X77424010Y-98493411D01*
X77586525Y-98736632D01*
X77793368Y-98943475D01*
X77967760Y-99060000D01*
X77793368Y-99176525D01*
X77586525Y-99383368D01*
X77424010Y-99626589D01*
X77312068Y-99896842D01*
X77255000Y-100183740D01*
X77255000Y-100476260D01*
X77312068Y-100763158D01*
X77424010Y-101033411D01*
X77586525Y-101276632D01*
X77793368Y-101483475D01*
X78036589Y-101645990D01*
X78306842Y-101757932D01*
X78593740Y-101815000D01*
X78886260Y-101815000D01*
X79173158Y-101757932D01*
X79443411Y-101645990D01*
X79686632Y-101483475D01*
X79893475Y-101276632D01*
X80055990Y-101033411D01*
X80167932Y-100763158D01*
X80225000Y-100476260D01*
X80225000Y-100183740D01*
X80167932Y-99896842D01*
X80055990Y-99626589D01*
X79893475Y-99383368D01*
X79686632Y-99176525D01*
X79512240Y-99060000D01*
X79686632Y-98943475D01*
X79893475Y-98736632D01*
X80055990Y-98493411D01*
X80167932Y-98223158D01*
X80225000Y-97936260D01*
X80225000Y-97809801D01*
X83955000Y-101539802D01*
X83955000Y-101711788D01*
X83998617Y-101931067D01*
X84084176Y-102137624D01*
X84208388Y-102323520D01*
X84366480Y-102481612D01*
X84552376Y-102605824D01*
X84758933Y-102691383D01*
X84978212Y-102735000D01*
X85201788Y-102735000D01*
X85421067Y-102691383D01*
X85627624Y-102605824D01*
X85813520Y-102481612D01*
X85971612Y-102323520D01*
X86095824Y-102137624D01*
X86181383Y-101931067D01*
X86225000Y-101711788D01*
X86225000Y-101488212D01*
X86181383Y-101268933D01*
X86095824Y-101062376D01*
X86030759Y-100965000D01*
X86095824Y-100867624D01*
X86181383Y-100661067D01*
X86225000Y-100441788D01*
X86225000Y-100218212D01*
X86181383Y-99998933D01*
X86095824Y-99792376D01*
X86030759Y-99695000D01*
X86095824Y-99597624D01*
X86181383Y-99391067D01*
X86225000Y-99171788D01*
X86225000Y-98948212D01*
X86181383Y-98728933D01*
X86095824Y-98522376D01*
X86030759Y-98425000D01*
X86095824Y-98327624D01*
X86181383Y-98121067D01*
X86225000Y-97901788D01*
X86225000Y-97678212D01*
X86181383Y-97458933D01*
X86095824Y-97252376D01*
X86030759Y-97155000D01*
X86095824Y-97057624D01*
X86181383Y-96851067D01*
X86225000Y-96631788D01*
X86225000Y-96408212D01*
X86181383Y-96188933D01*
X86095824Y-95982376D01*
X86030759Y-95885000D01*
X86095824Y-95787624D01*
X86181383Y-95581067D01*
X86225000Y-95361788D01*
X86225000Y-95138212D01*
X86181383Y-94918933D01*
X86095824Y-94712376D01*
X86030759Y-94615000D01*
X86095824Y-94517624D01*
X86181383Y-94311067D01*
X86225000Y-94091788D01*
X86225000Y-93868212D01*
X86181383Y-93648933D01*
X86095824Y-93442376D01*
X86030759Y-93345000D01*
X86095824Y-93247624D01*
X86181383Y-93041067D01*
X86225000Y-92821788D01*
X86225000Y-92598212D01*
X86181383Y-92378933D01*
X86095824Y-92172376D01*
X86030759Y-92075000D01*
X86095824Y-91977624D01*
X86181383Y-91771067D01*
X86225000Y-91551788D01*
X86225000Y-91328212D01*
X86181383Y-91108933D01*
X86095824Y-90902376D01*
X86030759Y-90805000D01*
X86095824Y-90707624D01*
X86181383Y-90501067D01*
X86225000Y-90281788D01*
X86225000Y-90058212D01*
X86181383Y-89838933D01*
X86095824Y-89632376D01*
X86030759Y-89535000D01*
X86095824Y-89437624D01*
X86181383Y-89231067D01*
X86225000Y-89011788D01*
X86225000Y-88788212D01*
X86181383Y-88568933D01*
X86095824Y-88362376D01*
X86030759Y-88265000D01*
X86095824Y-88167624D01*
X86181383Y-87961067D01*
X86225000Y-87741788D01*
X86225000Y-87518212D01*
X86181383Y-87298933D01*
X86095824Y-87092376D01*
X86030759Y-86995000D01*
X86095824Y-86897624D01*
X86181383Y-86691067D01*
X86225000Y-86471788D01*
X86225000Y-86248212D01*
X86181383Y-86028933D01*
X86151155Y-85955956D01*
X88495347Y-88300148D01*
G36*
X99748026Y-87313537D02*
G01*
X99917544Y-87426805D01*
X100105902Y-87504826D01*
X100305861Y-87544600D01*
X100509739Y-87544600D01*
X100533100Y-87539953D01*
X100533101Y-94185599D01*
X95490456Y-89142955D01*
X95561237Y-89072174D01*
X95674505Y-88902656D01*
X95752526Y-88714298D01*
X95792300Y-88514339D01*
X95792300Y-88452201D01*
X96974902Y-87269600D01*
X99704089Y-87269600D01*
X99748026Y-87313537D01*
G37*
X99748026Y-87313537D02*
X99917544Y-87426805D01*
X100105902Y-87504826D01*
X100305861Y-87544600D01*
X100509739Y-87544600D01*
X100533100Y-87539953D01*
X100533101Y-94185599D01*
X95490456Y-89142955D01*
X95561237Y-89072174D01*
X95674505Y-88902656D01*
X95752526Y-88714298D01*
X95792300Y-88514339D01*
X95792300Y-88452201D01*
X96974902Y-87269600D01*
X99704089Y-87269600D01*
X99748026Y-87313537D01*
G36*
X85217000Y-82423000D02*
G01*
X85237000Y-82423000D01*
X85237000Y-82677000D01*
X85217000Y-82677000D01*
X85217000Y-82688026D01*
X85201788Y-82685000D01*
X85024600Y-82685000D01*
X85024600Y-82403000D01*
X85217000Y-82403000D01*
X85217000Y-82423000D01*
G37*
X85217000Y-82423000D02*
X85237000Y-82423000D01*
X85237000Y-82677000D01*
X85217000Y-82677000D01*
X85217000Y-82688026D01*
X85201788Y-82685000D01*
X85024600Y-82685000D01*
X85024600Y-82403000D01*
X85217000Y-82403000D01*
X85217000Y-82423000D01*
G36*
X85926842Y-53751932D02*
G01*
X86213740Y-53809000D01*
X86506260Y-53809000D01*
X86775300Y-53755484D01*
X86775300Y-54964241D01*
X86716890Y-54946524D01*
X86487000Y-55067845D01*
X86487000Y-56261000D01*
X86507000Y-56261000D01*
X86507000Y-56515000D01*
X86487000Y-56515000D01*
X86487000Y-57708155D01*
X86716890Y-57829476D01*
X86775300Y-57811759D01*
X86775301Y-81064700D01*
X85850000Y-80139399D01*
X85850000Y-57782014D01*
X85855901Y-57784825D01*
X86003110Y-57829476D01*
X86233000Y-57708155D01*
X86233000Y-56515000D01*
X86213000Y-56515000D01*
X86213000Y-56261000D01*
X86233000Y-56261000D01*
X86233000Y-55067845D01*
X86003110Y-54946524D01*
X85855901Y-54991175D01*
X85850000Y-54993986D01*
X85850000Y-53720103D01*
X85926842Y-53751932D01*
G37*
X85926842Y-53751932D02*
X86213740Y-53809000D01*
X86506260Y-53809000D01*
X86775300Y-53755484D01*
X86775300Y-54964241D01*
X86716890Y-54946524D01*
X86487000Y-55067845D01*
X86487000Y-56261000D01*
X86507000Y-56261000D01*
X86507000Y-56515000D01*
X86487000Y-56515000D01*
X86487000Y-57708155D01*
X86716890Y-57829476D01*
X86775300Y-57811759D01*
X86775301Y-81064700D01*
X85850000Y-80139399D01*
X85850000Y-57782014D01*
X85855901Y-57784825D01*
X86003110Y-57829476D01*
X86233000Y-57708155D01*
X86233000Y-56515000D01*
X86213000Y-56515000D01*
X86213000Y-56261000D01*
X86233000Y-56261000D01*
X86233000Y-55067845D01*
X86003110Y-54946524D01*
X85855901Y-54991175D01*
X85850000Y-54993986D01*
X85850000Y-53720103D01*
X85926842Y-53751932D01*
G36*
X81834200Y-63712878D02*
G01*
X81830524Y-63750200D01*
X81834200Y-63787522D01*
X81834200Y-63787532D01*
X81845197Y-63899185D01*
X81881534Y-64018975D01*
X81888654Y-64042446D01*
X81955251Y-64167038D01*
X81898163Y-64224126D01*
X81784895Y-64393644D01*
X81706874Y-64582002D01*
X81667100Y-64781961D01*
X81667100Y-64844099D01*
X81411498Y-65099701D01*
X81382500Y-65123499D01*
X81358702Y-65152497D01*
X81358701Y-65152498D01*
X81349200Y-65164075D01*
X81349200Y-58460612D01*
X81423405Y-58349556D01*
X81501426Y-58161198D01*
X81541200Y-57961239D01*
X81541200Y-57778977D01*
X81636890Y-57829476D01*
X81784099Y-57784825D01*
X81834201Y-57760961D01*
X81834200Y-63712878D01*
G37*
X81834200Y-63712878D02*
X81830524Y-63750200D01*
X81834200Y-63787522D01*
X81834200Y-63787532D01*
X81845197Y-63899185D01*
X81881534Y-64018975D01*
X81888654Y-64042446D01*
X81955251Y-64167038D01*
X81898163Y-64224126D01*
X81784895Y-64393644D01*
X81706874Y-64582002D01*
X81667100Y-64781961D01*
X81667100Y-64844099D01*
X81411498Y-65099701D01*
X81382500Y-65123499D01*
X81358702Y-65152497D01*
X81358701Y-65152498D01*
X81349200Y-65164075D01*
X81349200Y-58460612D01*
X81423405Y-58349556D01*
X81501426Y-58161198D01*
X81541200Y-57961239D01*
X81541200Y-57778977D01*
X81636890Y-57829476D01*
X81784099Y-57784825D01*
X81834201Y-57760961D01*
X81834200Y-63712878D01*
G36*
X84330001Y-54993986D02*
G01*
X84324099Y-54991175D01*
X84176890Y-54946524D01*
X83947000Y-55067845D01*
X83947000Y-56261000D01*
X83967000Y-56261000D01*
X83967000Y-56515000D01*
X83947000Y-56515000D01*
X83947000Y-57708155D01*
X84176890Y-57829476D01*
X84324099Y-57784825D01*
X84330001Y-57782014D01*
X84330001Y-64411199D01*
X83354200Y-63435399D01*
X83354200Y-57796442D01*
X83463110Y-57829476D01*
X83693000Y-57708155D01*
X83693000Y-56515000D01*
X83673000Y-56515000D01*
X83673000Y-56261000D01*
X83693000Y-56261000D01*
X83693000Y-55067845D01*
X83463110Y-54946524D01*
X83440815Y-54953287D01*
X84330001Y-54064101D01*
X84330001Y-54993986D01*
G37*
X84330001Y-54993986D02*
X84324099Y-54991175D01*
X84176890Y-54946524D01*
X83947000Y-55067845D01*
X83947000Y-56261000D01*
X83967000Y-56261000D01*
X83967000Y-56515000D01*
X83947000Y-56515000D01*
X83947000Y-57708155D01*
X84176890Y-57829476D01*
X84324099Y-57784825D01*
X84330001Y-57782014D01*
X84330001Y-64411199D01*
X83354200Y-63435399D01*
X83354200Y-57796442D01*
X83463110Y-57829476D01*
X83693000Y-57708155D01*
X83693000Y-56515000D01*
X83673000Y-56515000D01*
X83673000Y-56261000D01*
X83693000Y-56261000D01*
X83693000Y-55067845D01*
X83463110Y-54946524D01*
X83440815Y-54953287D01*
X84330001Y-54064101D01*
X84330001Y-54993986D01*
G36*
X79344701Y-54901264D02*
G01*
X79025750Y-54903000D01*
X78867000Y-55061750D01*
X78867000Y-56261000D01*
X78887000Y-56261000D01*
X78887000Y-56515000D01*
X78867000Y-56515000D01*
X78867000Y-57714250D01*
X79020900Y-57868150D01*
X79020900Y-58122378D01*
X79017224Y-58159700D01*
X79020900Y-58197022D01*
X79020900Y-58197033D01*
X79031897Y-58308686D01*
X79075354Y-58451947D01*
X79093292Y-58485506D01*
X79145926Y-58583976D01*
X79210975Y-58663237D01*
X79240900Y-58699701D01*
X79269898Y-58723499D01*
X79344700Y-58798301D01*
X79344700Y-60743264D01*
X79025750Y-60745000D01*
X78867000Y-60903750D01*
X78867000Y-62103000D01*
X78887000Y-62103000D01*
X78887000Y-62357000D01*
X78867000Y-62357000D01*
X78867000Y-62377000D01*
X78613000Y-62377000D01*
X78613000Y-62357000D01*
X78593000Y-62357000D01*
X78593000Y-62103000D01*
X78613000Y-62103000D01*
X78613000Y-60903750D01*
X78454250Y-60745000D01*
X78324700Y-60744295D01*
X78324700Y-57873705D01*
X78454250Y-57873000D01*
X78613000Y-57714250D01*
X78613000Y-56515000D01*
X78593000Y-56515000D01*
X78593000Y-56261000D01*
X78613000Y-56261000D01*
X78613000Y-55061750D01*
X78454250Y-54903000D01*
X78411335Y-54902766D01*
X79251003Y-54063099D01*
X79280001Y-54039301D01*
X79344701Y-53960464D01*
X79344701Y-54901264D01*
G37*
X79344701Y-54901264D02*
X79025750Y-54903000D01*
X78867000Y-55061750D01*
X78867000Y-56261000D01*
X78887000Y-56261000D01*
X78887000Y-56515000D01*
X78867000Y-56515000D01*
X78867000Y-57714250D01*
X79020900Y-57868150D01*
X79020900Y-58122378D01*
X79017224Y-58159700D01*
X79020900Y-58197022D01*
X79020900Y-58197033D01*
X79031897Y-58308686D01*
X79075354Y-58451947D01*
X79093292Y-58485506D01*
X79145926Y-58583976D01*
X79210975Y-58663237D01*
X79240900Y-58699701D01*
X79269898Y-58723499D01*
X79344700Y-58798301D01*
X79344700Y-60743264D01*
X79025750Y-60745000D01*
X78867000Y-60903750D01*
X78867000Y-62103000D01*
X78887000Y-62103000D01*
X78887000Y-62357000D01*
X78867000Y-62357000D01*
X78867000Y-62377000D01*
X78613000Y-62377000D01*
X78613000Y-62357000D01*
X78593000Y-62357000D01*
X78593000Y-62103000D01*
X78613000Y-62103000D01*
X78613000Y-60903750D01*
X78454250Y-60745000D01*
X78324700Y-60744295D01*
X78324700Y-57873705D01*
X78454250Y-57873000D01*
X78613000Y-57714250D01*
X78613000Y-56515000D01*
X78593000Y-56515000D01*
X78593000Y-56261000D01*
X78613000Y-56261000D01*
X78613000Y-55061750D01*
X78454250Y-54903000D01*
X78411335Y-54902766D01*
X79251003Y-54063099D01*
X79280001Y-54039301D01*
X79344701Y-53960464D01*
X79344701Y-54901264D01*
G36*
X87779401Y-48676302D02*
G01*
X87803199Y-48705301D01*
X87832197Y-48729099D01*
X87918923Y-48800274D01*
X87968155Y-48826589D01*
X88050953Y-48870846D01*
X88194214Y-48914303D01*
X88305867Y-48925300D01*
X88305876Y-48925300D01*
X88343199Y-48928976D01*
X88380522Y-48925300D01*
X90546299Y-48925300D01*
X96939151Y-55318153D01*
X96894302Y-55327074D01*
X96705944Y-55405095D01*
X96536426Y-55518363D01*
X96392263Y-55662526D01*
X96278995Y-55832044D01*
X96200974Y-56020402D01*
X96161200Y-56220361D01*
X96161200Y-56282498D01*
X95346498Y-57097201D01*
X95317500Y-57120999D01*
X95293702Y-57149997D01*
X95293701Y-57149998D01*
X95222526Y-57236724D01*
X95179336Y-57317526D01*
X95151954Y-57368753D01*
X95108497Y-57512014D01*
X95099890Y-57599399D01*
X95053563Y-57645726D01*
X94940295Y-57815244D01*
X94862274Y-58003602D01*
X94822500Y-58203561D01*
X94822500Y-58407439D01*
X94862274Y-58607398D01*
X94940295Y-58795756D01*
X95053563Y-58965274D01*
X95197726Y-59109437D01*
X95367244Y-59222705D01*
X95555602Y-59300726D01*
X95755561Y-59340500D01*
X95959439Y-59340500D01*
X96159398Y-59300726D01*
X96347756Y-59222705D01*
X96517274Y-59109437D01*
X96661437Y-58965274D01*
X96774705Y-58795756D01*
X96852726Y-58607398D01*
X96892500Y-58407439D01*
X96892500Y-58203561D01*
X96852726Y-58003602D01*
X96775687Y-57817614D01*
X97236002Y-57357300D01*
X97298139Y-57357300D01*
X97498098Y-57317526D01*
X97686456Y-57239505D01*
X97855974Y-57126237D01*
X98000137Y-56982074D01*
X98113405Y-56812556D01*
X98191426Y-56624198D01*
X98200347Y-56579349D01*
X101379255Y-59758256D01*
X101161788Y-59715000D01*
X100938212Y-59715000D01*
X100718933Y-59758617D01*
X100577984Y-59817000D01*
X96525128Y-59817000D01*
X96486446Y-59796324D01*
X96432845Y-59780064D01*
X96381067Y-59758617D01*
X96326103Y-59747684D01*
X96272498Y-59731423D01*
X96216748Y-59725932D01*
X96161788Y-59715000D01*
X96105751Y-59715000D01*
X96050000Y-59709509D01*
X95994249Y-59715000D01*
X95938212Y-59715000D01*
X95883252Y-59725932D01*
X95827502Y-59731423D01*
X95773897Y-59747684D01*
X95718933Y-59758617D01*
X95667155Y-59780064D01*
X95613554Y-59796324D01*
X95574872Y-59817000D01*
X89579200Y-59817000D01*
X89579200Y-58708301D01*
X90840502Y-57447000D01*
X90902639Y-57447000D01*
X91102598Y-57407226D01*
X91290956Y-57329205D01*
X91460474Y-57215937D01*
X91604637Y-57071774D01*
X91717905Y-56902256D01*
X91795926Y-56713898D01*
X91835700Y-56513939D01*
X91835700Y-56310061D01*
X91795926Y-56110102D01*
X91717905Y-55921744D01*
X91604637Y-55752226D01*
X91460474Y-55608063D01*
X91290956Y-55494795D01*
X91102598Y-55416774D01*
X90902639Y-55377000D01*
X90698761Y-55377000D01*
X90498802Y-55416774D01*
X90310444Y-55494795D01*
X90151415Y-55601055D01*
X90095178Y-55506645D01*
X89900269Y-55290412D01*
X89666920Y-55116359D01*
X89404099Y-54991175D01*
X89256890Y-54946524D01*
X89027000Y-55067845D01*
X89027000Y-56261000D01*
X89047000Y-56261000D01*
X89047000Y-56515000D01*
X89027000Y-56515000D01*
X89027000Y-56535000D01*
X88773000Y-56535000D01*
X88773000Y-56515000D01*
X88753000Y-56515000D01*
X88753000Y-56261000D01*
X88773000Y-56261000D01*
X88773000Y-55067845D01*
X88543110Y-54946524D01*
X88395901Y-54991175D01*
X88295300Y-55039092D01*
X88295300Y-53680877D01*
X88466842Y-53751932D01*
X88753740Y-53809000D01*
X89046260Y-53809000D01*
X89333158Y-53751932D01*
X89603411Y-53639990D01*
X89846632Y-53477475D01*
X90053475Y-53270632D01*
X90215990Y-53027411D01*
X90327932Y-52757158D01*
X90385000Y-52470260D01*
X90385000Y-52177740D01*
X90327932Y-51890842D01*
X90215990Y-51620589D01*
X90053475Y-51377368D01*
X89846632Y-51170525D01*
X89603411Y-51008010D01*
X89333158Y-50896068D01*
X89046260Y-50839000D01*
X88753740Y-50839000D01*
X88466842Y-50896068D01*
X88295300Y-50967123D01*
X88295300Y-50817922D01*
X88298976Y-50780599D01*
X88295300Y-50743276D01*
X88295300Y-50743267D01*
X88284303Y-50631614D01*
X88240846Y-50488353D01*
X88170274Y-50356324D01*
X88075301Y-50240599D01*
X88046304Y-50216802D01*
X87369100Y-49539599D01*
X87369100Y-49477461D01*
X87329326Y-49277502D01*
X87251305Y-49089144D01*
X87138037Y-48919626D01*
X86993874Y-48775463D01*
X86824356Y-48662195D01*
X86635998Y-48584174D01*
X86436039Y-48544400D01*
X86232161Y-48544400D01*
X86032202Y-48584174D01*
X85944700Y-48620419D01*
X85944700Y-48421484D01*
X86213740Y-48475000D01*
X86506260Y-48475000D01*
X86793158Y-48417932D01*
X87063411Y-48305990D01*
X87270630Y-48167531D01*
X87779401Y-48676302D01*
G37*
X87779401Y-48676302D02*
X87803199Y-48705301D01*
X87832197Y-48729099D01*
X87918923Y-48800274D01*
X87968155Y-48826589D01*
X88050953Y-48870846D01*
X88194214Y-48914303D01*
X88305867Y-48925300D01*
X88305876Y-48925300D01*
X88343199Y-48928976D01*
X88380522Y-48925300D01*
X90546299Y-48925300D01*
X96939151Y-55318153D01*
X96894302Y-55327074D01*
X96705944Y-55405095D01*
X96536426Y-55518363D01*
X96392263Y-55662526D01*
X96278995Y-55832044D01*
X96200974Y-56020402D01*
X96161200Y-56220361D01*
X96161200Y-56282498D01*
X95346498Y-57097201D01*
X95317500Y-57120999D01*
X95293702Y-57149997D01*
X95293701Y-57149998D01*
X95222526Y-57236724D01*
X95179336Y-57317526D01*
X95151954Y-57368753D01*
X95108497Y-57512014D01*
X95099890Y-57599399D01*
X95053563Y-57645726D01*
X94940295Y-57815244D01*
X94862274Y-58003602D01*
X94822500Y-58203561D01*
X94822500Y-58407439D01*
X94862274Y-58607398D01*
X94940295Y-58795756D01*
X95053563Y-58965274D01*
X95197726Y-59109437D01*
X95367244Y-59222705D01*
X95555602Y-59300726D01*
X95755561Y-59340500D01*
X95959439Y-59340500D01*
X96159398Y-59300726D01*
X96347756Y-59222705D01*
X96517274Y-59109437D01*
X96661437Y-58965274D01*
X96774705Y-58795756D01*
X96852726Y-58607398D01*
X96892500Y-58407439D01*
X96892500Y-58203561D01*
X96852726Y-58003602D01*
X96775687Y-57817614D01*
X97236002Y-57357300D01*
X97298139Y-57357300D01*
X97498098Y-57317526D01*
X97686456Y-57239505D01*
X97855974Y-57126237D01*
X98000137Y-56982074D01*
X98113405Y-56812556D01*
X98191426Y-56624198D01*
X98200347Y-56579349D01*
X101379255Y-59758256D01*
X101161788Y-59715000D01*
X100938212Y-59715000D01*
X100718933Y-59758617D01*
X100577984Y-59817000D01*
X96525128Y-59817000D01*
X96486446Y-59796324D01*
X96432845Y-59780064D01*
X96381067Y-59758617D01*
X96326103Y-59747684D01*
X96272498Y-59731423D01*
X96216748Y-59725932D01*
X96161788Y-59715000D01*
X96105751Y-59715000D01*
X96050000Y-59709509D01*
X95994249Y-59715000D01*
X95938212Y-59715000D01*
X95883252Y-59725932D01*
X95827502Y-59731423D01*
X95773897Y-59747684D01*
X95718933Y-59758617D01*
X95667155Y-59780064D01*
X95613554Y-59796324D01*
X95574872Y-59817000D01*
X89579200Y-59817000D01*
X89579200Y-58708301D01*
X90840502Y-57447000D01*
X90902639Y-57447000D01*
X91102598Y-57407226D01*
X91290956Y-57329205D01*
X91460474Y-57215937D01*
X91604637Y-57071774D01*
X91717905Y-56902256D01*
X91795926Y-56713898D01*
X91835700Y-56513939D01*
X91835700Y-56310061D01*
X91795926Y-56110102D01*
X91717905Y-55921744D01*
X91604637Y-55752226D01*
X91460474Y-55608063D01*
X91290956Y-55494795D01*
X91102598Y-55416774D01*
X90902639Y-55377000D01*
X90698761Y-55377000D01*
X90498802Y-55416774D01*
X90310444Y-55494795D01*
X90151415Y-55601055D01*
X90095178Y-55506645D01*
X89900269Y-55290412D01*
X89666920Y-55116359D01*
X89404099Y-54991175D01*
X89256890Y-54946524D01*
X89027000Y-55067845D01*
X89027000Y-56261000D01*
X89047000Y-56261000D01*
X89047000Y-56515000D01*
X89027000Y-56515000D01*
X89027000Y-56535000D01*
X88773000Y-56535000D01*
X88773000Y-56515000D01*
X88753000Y-56515000D01*
X88753000Y-56261000D01*
X88773000Y-56261000D01*
X88773000Y-55067845D01*
X88543110Y-54946524D01*
X88395901Y-54991175D01*
X88295300Y-55039092D01*
X88295300Y-53680877D01*
X88466842Y-53751932D01*
X88753740Y-53809000D01*
X89046260Y-53809000D01*
X89333158Y-53751932D01*
X89603411Y-53639990D01*
X89846632Y-53477475D01*
X90053475Y-53270632D01*
X90215990Y-53027411D01*
X90327932Y-52757158D01*
X90385000Y-52470260D01*
X90385000Y-52177740D01*
X90327932Y-51890842D01*
X90215990Y-51620589D01*
X90053475Y-51377368D01*
X89846632Y-51170525D01*
X89603411Y-51008010D01*
X89333158Y-50896068D01*
X89046260Y-50839000D01*
X88753740Y-50839000D01*
X88466842Y-50896068D01*
X88295300Y-50967123D01*
X88295300Y-50817922D01*
X88298976Y-50780599D01*
X88295300Y-50743276D01*
X88295300Y-50743267D01*
X88284303Y-50631614D01*
X88240846Y-50488353D01*
X88170274Y-50356324D01*
X88075301Y-50240599D01*
X88046304Y-50216802D01*
X87369100Y-49539599D01*
X87369100Y-49477461D01*
X87329326Y-49277502D01*
X87251305Y-49089144D01*
X87138037Y-48919626D01*
X86993874Y-48775463D01*
X86824356Y-48662195D01*
X86635998Y-48584174D01*
X86436039Y-48544400D01*
X86232161Y-48544400D01*
X86032202Y-48584174D01*
X85944700Y-48620419D01*
X85944700Y-48421484D01*
X86213740Y-48475000D01*
X86506260Y-48475000D01*
X86793158Y-48417932D01*
X87063411Y-48305990D01*
X87270630Y-48167531D01*
X87779401Y-48676302D01*
G36*
X99235270Y-45644371D02*
G01*
X99187000Y-45669845D01*
X99187000Y-46863000D01*
X99207000Y-46863000D01*
X99207000Y-47117000D01*
X99187000Y-47117000D01*
X99187000Y-48310155D01*
X99416890Y-48431476D01*
X99564099Y-48386825D01*
X99826920Y-48261641D01*
X99965313Y-48158415D01*
X105503990Y-53697093D01*
X105364010Y-53906589D01*
X105252068Y-54176842D01*
X105195000Y-54463740D01*
X105195000Y-54756260D01*
X105252068Y-55043158D01*
X105364010Y-55313411D01*
X105526525Y-55556632D01*
X105733368Y-55763475D01*
X105907760Y-55880000D01*
X105733368Y-55996525D01*
X105526525Y-56203368D01*
X105364010Y-56446589D01*
X105252068Y-56716842D01*
X105195000Y-57003740D01*
X105195000Y-57296260D01*
X105252068Y-57583158D01*
X105364010Y-57853411D01*
X105526525Y-58096632D01*
X105658380Y-58228487D01*
X105585820Y-58250498D01*
X105475506Y-58309463D01*
X105378815Y-58388815D01*
X105299463Y-58485506D01*
X105240498Y-58595820D01*
X105204188Y-58715518D01*
X105191928Y-58840000D01*
X105191928Y-59670126D01*
X101365873Y-55844072D01*
X102958000Y-55844072D01*
X103082482Y-55831812D01*
X103202180Y-55795502D01*
X103312494Y-55736537D01*
X103409185Y-55657185D01*
X103488537Y-55560494D01*
X103547502Y-55450180D01*
X103583812Y-55330482D01*
X103596072Y-55206000D01*
X103596072Y-53506000D01*
X103583812Y-53381518D01*
X103547502Y-53261820D01*
X103488537Y-53151506D01*
X103409185Y-53054815D01*
X103312494Y-52975463D01*
X103202180Y-52916498D01*
X103082482Y-52880188D01*
X102958000Y-52867928D01*
X102802575Y-52867928D01*
X102742974Y-52756424D01*
X102648001Y-52640699D01*
X102532276Y-52545726D01*
X102400247Y-52475154D01*
X102256986Y-52431697D01*
X102145333Y-52420700D01*
X102108000Y-52417023D01*
X102070667Y-52420700D01*
X101987703Y-52420700D01*
X98591100Y-49024099D01*
X98591100Y-48961961D01*
X98551326Y-48762002D01*
X98473305Y-48573644D01*
X98360037Y-48404126D01*
X98215874Y-48259963D01*
X98046356Y-48146695D01*
X97857998Y-48068674D01*
X97658039Y-48028900D01*
X97581207Y-48028900D01*
X97673475Y-47936632D01*
X97795195Y-47754466D01*
X97864822Y-47871355D01*
X98059731Y-48087588D01*
X98293080Y-48261641D01*
X98555901Y-48386825D01*
X98703110Y-48431476D01*
X98933000Y-48310155D01*
X98933000Y-47117000D01*
X98913000Y-47117000D01*
X98913000Y-46863000D01*
X98933000Y-46863000D01*
X98933000Y-45669845D01*
X98703110Y-45548524D01*
X98555901Y-45593175D01*
X98293080Y-45718359D01*
X98059731Y-45892412D01*
X97864822Y-46108645D01*
X97795195Y-46225534D01*
X97673475Y-46043368D01*
X97466632Y-45836525D01*
X97280000Y-45711822D01*
X97280000Y-43689101D01*
X99235270Y-45644371D01*
G37*
X99235270Y-45644371D02*
X99187000Y-45669845D01*
X99187000Y-46863000D01*
X99207000Y-46863000D01*
X99207000Y-47117000D01*
X99187000Y-47117000D01*
X99187000Y-48310155D01*
X99416890Y-48431476D01*
X99564099Y-48386825D01*
X99826920Y-48261641D01*
X99965313Y-48158415D01*
X105503990Y-53697093D01*
X105364010Y-53906589D01*
X105252068Y-54176842D01*
X105195000Y-54463740D01*
X105195000Y-54756260D01*
X105252068Y-55043158D01*
X105364010Y-55313411D01*
X105526525Y-55556632D01*
X105733368Y-55763475D01*
X105907760Y-55880000D01*
X105733368Y-55996525D01*
X105526525Y-56203368D01*
X105364010Y-56446589D01*
X105252068Y-56716842D01*
X105195000Y-57003740D01*
X105195000Y-57296260D01*
X105252068Y-57583158D01*
X105364010Y-57853411D01*
X105526525Y-58096632D01*
X105658380Y-58228487D01*
X105585820Y-58250498D01*
X105475506Y-58309463D01*
X105378815Y-58388815D01*
X105299463Y-58485506D01*
X105240498Y-58595820D01*
X105204188Y-58715518D01*
X105191928Y-58840000D01*
X105191928Y-59670126D01*
X101365873Y-55844072D01*
X102958000Y-55844072D01*
X103082482Y-55831812D01*
X103202180Y-55795502D01*
X103312494Y-55736537D01*
X103409185Y-55657185D01*
X103488537Y-55560494D01*
X103547502Y-55450180D01*
X103583812Y-55330482D01*
X103596072Y-55206000D01*
X103596072Y-53506000D01*
X103583812Y-53381518D01*
X103547502Y-53261820D01*
X103488537Y-53151506D01*
X103409185Y-53054815D01*
X103312494Y-52975463D01*
X103202180Y-52916498D01*
X103082482Y-52880188D01*
X102958000Y-52867928D01*
X102802575Y-52867928D01*
X102742974Y-52756424D01*
X102648001Y-52640699D01*
X102532276Y-52545726D01*
X102400247Y-52475154D01*
X102256986Y-52431697D01*
X102145333Y-52420700D01*
X102108000Y-52417023D01*
X102070667Y-52420700D01*
X101987703Y-52420700D01*
X98591100Y-49024099D01*
X98591100Y-48961961D01*
X98551326Y-48762002D01*
X98473305Y-48573644D01*
X98360037Y-48404126D01*
X98215874Y-48259963D01*
X98046356Y-48146695D01*
X97857998Y-48068674D01*
X97658039Y-48028900D01*
X97581207Y-48028900D01*
X97673475Y-47936632D01*
X97795195Y-47754466D01*
X97864822Y-47871355D01*
X98059731Y-48087588D01*
X98293080Y-48261641D01*
X98555901Y-48386825D01*
X98703110Y-48431476D01*
X98933000Y-48310155D01*
X98933000Y-47117000D01*
X98913000Y-47117000D01*
X98913000Y-46863000D01*
X98933000Y-46863000D01*
X98933000Y-45669845D01*
X98703110Y-45548524D01*
X98555901Y-45593175D01*
X98293080Y-45718359D01*
X98059731Y-45892412D01*
X97864822Y-46108645D01*
X97795195Y-46225534D01*
X97673475Y-46043368D01*
X97466632Y-45836525D01*
X97280000Y-45711822D01*
X97280000Y-43689101D01*
X99235270Y-45644371D01*
G36*
X82666525Y-53270632D02*
G01*
X82820196Y-53424303D01*
X82083198Y-54161301D01*
X82054200Y-54185099D01*
X82030402Y-54214097D01*
X82030401Y-54214098D01*
X81959226Y-54300824D01*
X81888654Y-54432854D01*
X81866774Y-54504985D01*
X81846244Y-54572668D01*
X81845198Y-54576115D01*
X81830524Y-54725100D01*
X81834201Y-54762432D01*
X81834201Y-55015039D01*
X81784099Y-54991175D01*
X81636890Y-54946524D01*
X81407000Y-55067845D01*
X81407000Y-56261000D01*
X81427000Y-56261000D01*
X81427000Y-56515000D01*
X81407000Y-56515000D01*
X81407000Y-56535000D01*
X81153000Y-56535000D01*
X81153000Y-56515000D01*
X81133000Y-56515000D01*
X81133000Y-56261000D01*
X81153000Y-56261000D01*
X81153000Y-55067845D01*
X80923110Y-54946524D01*
X80864700Y-54964241D01*
X80864700Y-53755484D01*
X81133740Y-53809000D01*
X81426260Y-53809000D01*
X81713158Y-53751932D01*
X81983411Y-53639990D01*
X82226632Y-53477475D01*
X82433475Y-53270632D01*
X82550000Y-53096240D01*
X82666525Y-53270632D01*
G37*
X82666525Y-53270632D02*
X82820196Y-53424303D01*
X82083198Y-54161301D01*
X82054200Y-54185099D01*
X82030402Y-54214097D01*
X82030401Y-54214098D01*
X81959226Y-54300824D01*
X81888654Y-54432854D01*
X81866774Y-54504985D01*
X81846244Y-54572668D01*
X81845198Y-54576115D01*
X81830524Y-54725100D01*
X81834201Y-54762432D01*
X81834201Y-55015039D01*
X81784099Y-54991175D01*
X81636890Y-54946524D01*
X81407000Y-55067845D01*
X81407000Y-56261000D01*
X81427000Y-56261000D01*
X81427000Y-56515000D01*
X81407000Y-56515000D01*
X81407000Y-56535000D01*
X81153000Y-56535000D01*
X81153000Y-56515000D01*
X81133000Y-56515000D01*
X81133000Y-56261000D01*
X81153000Y-56261000D01*
X81153000Y-55067845D01*
X80923110Y-54946524D01*
X80864700Y-54964241D01*
X80864700Y-53755484D01*
X81133740Y-53809000D01*
X81426260Y-53809000D01*
X81713158Y-53751932D01*
X81983411Y-53639990D01*
X82226632Y-53477475D01*
X82433475Y-53270632D01*
X82550000Y-53096240D01*
X82666525Y-53270632D01*
G36*
X109033724Y-40099626D02*
G01*
X108917999Y-40194599D01*
X108894201Y-40223597D01*
X107984002Y-41133796D01*
X107960332Y-41153223D01*
X107833475Y-40963368D01*
X107626632Y-40756525D01*
X107383411Y-40594010D01*
X107113158Y-40482068D01*
X106826260Y-40425000D01*
X106533740Y-40425000D01*
X106246842Y-40482068D01*
X105976589Y-40594010D01*
X105733368Y-40756525D01*
X105526525Y-40963368D01*
X105364010Y-41206589D01*
X105252068Y-41476842D01*
X105195000Y-41763740D01*
X105195000Y-42056260D01*
X105252068Y-42343158D01*
X105364010Y-42613411D01*
X105487048Y-42797550D01*
X104186403Y-44098196D01*
X104157399Y-44121999D01*
X104111441Y-44178000D01*
X104062426Y-44237724D01*
X104014715Y-44326985D01*
X103991854Y-44369754D01*
X103948397Y-44513015D01*
X103937400Y-44624668D01*
X103937400Y-44624678D01*
X103933724Y-44662000D01*
X103937400Y-44699323D01*
X103937401Y-45551988D01*
X103893363Y-45596026D01*
X103780095Y-45765544D01*
X103702074Y-45953902D01*
X103662300Y-46153861D01*
X103662300Y-46357739D01*
X103702074Y-46557698D01*
X103780095Y-46746056D01*
X103893363Y-46915574D01*
X104037526Y-47059737D01*
X104207044Y-47173005D01*
X104395402Y-47251026D01*
X104595361Y-47290800D01*
X104799239Y-47290800D01*
X104999198Y-47251026D01*
X105187556Y-47173005D01*
X105200578Y-47164304D01*
X105252068Y-47423158D01*
X105364010Y-47693411D01*
X105526525Y-47936632D01*
X105733368Y-48143475D01*
X105907760Y-48260000D01*
X105733368Y-48376525D01*
X105526525Y-48583368D01*
X105364010Y-48826589D01*
X105252068Y-49096842D01*
X105195000Y-49383740D01*
X105195000Y-49676260D01*
X105252068Y-49963158D01*
X105364010Y-50233411D01*
X105526525Y-50476632D01*
X105733368Y-50683475D01*
X105907760Y-50800000D01*
X105733368Y-50916525D01*
X105526525Y-51123368D01*
X105364010Y-51366589D01*
X105352025Y-51395523D01*
X102274477Y-48317975D01*
X102303411Y-48305990D01*
X102546632Y-48143475D01*
X102753475Y-47936632D01*
X102915990Y-47693411D01*
X103027932Y-47423158D01*
X103085000Y-47136260D01*
X103085000Y-46843740D01*
X103027932Y-46556842D01*
X102915990Y-46286589D01*
X102753475Y-46043368D01*
X102546632Y-45836525D01*
X102353089Y-45707204D01*
X102349003Y-45665714D01*
X102305546Y-45522453D01*
X102234974Y-45390424D01*
X102175701Y-45318199D01*
X102163799Y-45303696D01*
X102163795Y-45303692D01*
X102140001Y-45274699D01*
X102111008Y-45250905D01*
X99956844Y-43096742D01*
X100006632Y-43063475D01*
X100213475Y-42856632D01*
X100335195Y-42674466D01*
X100404822Y-42791355D01*
X100599731Y-43007588D01*
X100833080Y-43181641D01*
X101095901Y-43306825D01*
X101243110Y-43351476D01*
X101473000Y-43230155D01*
X101473000Y-42037000D01*
X101727000Y-42037000D01*
X101727000Y-43230155D01*
X101956890Y-43351476D01*
X102104099Y-43306825D01*
X102366920Y-43181641D01*
X102600269Y-43007588D01*
X102795178Y-42791355D01*
X102944157Y-42541252D01*
X103041481Y-42266891D01*
X102920814Y-42037000D01*
X101727000Y-42037000D01*
X101473000Y-42037000D01*
X101453000Y-42037000D01*
X101453000Y-41783000D01*
X101473000Y-41783000D01*
X101473000Y-40589845D01*
X101727000Y-40589845D01*
X101727000Y-41783000D01*
X102920814Y-41783000D01*
X103041481Y-41553109D01*
X102944157Y-41278748D01*
X102795178Y-41028645D01*
X102600269Y-40812412D01*
X102366920Y-40638359D01*
X102104099Y-40513175D01*
X101956890Y-40468524D01*
X101727000Y-40589845D01*
X101473000Y-40589845D01*
X101243110Y-40468524D01*
X101095901Y-40513175D01*
X100833080Y-40638359D01*
X100599731Y-40812412D01*
X100404822Y-41028645D01*
X100335195Y-41145534D01*
X100213475Y-40963368D01*
X100006632Y-40756525D01*
X99763411Y-40594010D01*
X99493158Y-40482068D01*
X99206260Y-40425000D01*
X98913740Y-40425000D01*
X98626842Y-40482068D01*
X98356589Y-40594010D01*
X98142537Y-40737035D01*
X97607203Y-40201702D01*
X97583401Y-40172699D01*
X97467676Y-40077726D01*
X97378388Y-40030000D01*
X109163983Y-40030000D01*
X109033724Y-40099626D01*
G37*
X109033724Y-40099626D02*
X108917999Y-40194599D01*
X108894201Y-40223597D01*
X107984002Y-41133796D01*
X107960332Y-41153223D01*
X107833475Y-40963368D01*
X107626632Y-40756525D01*
X107383411Y-40594010D01*
X107113158Y-40482068D01*
X106826260Y-40425000D01*
X106533740Y-40425000D01*
X106246842Y-40482068D01*
X105976589Y-40594010D01*
X105733368Y-40756525D01*
X105526525Y-40963368D01*
X105364010Y-41206589D01*
X105252068Y-41476842D01*
X105195000Y-41763740D01*
X105195000Y-42056260D01*
X105252068Y-42343158D01*
X105364010Y-42613411D01*
X105487048Y-42797550D01*
X104186403Y-44098196D01*
X104157399Y-44121999D01*
X104111441Y-44178000D01*
X104062426Y-44237724D01*
X104014715Y-44326985D01*
X103991854Y-44369754D01*
X103948397Y-44513015D01*
X103937400Y-44624668D01*
X103937400Y-44624678D01*
X103933724Y-44662000D01*
X103937400Y-44699323D01*
X103937401Y-45551988D01*
X103893363Y-45596026D01*
X103780095Y-45765544D01*
X103702074Y-45953902D01*
X103662300Y-46153861D01*
X103662300Y-46357739D01*
X103702074Y-46557698D01*
X103780095Y-46746056D01*
X103893363Y-46915574D01*
X104037526Y-47059737D01*
X104207044Y-47173005D01*
X104395402Y-47251026D01*
X104595361Y-47290800D01*
X104799239Y-47290800D01*
X104999198Y-47251026D01*
X105187556Y-47173005D01*
X105200578Y-47164304D01*
X105252068Y-47423158D01*
X105364010Y-47693411D01*
X105526525Y-47936632D01*
X105733368Y-48143475D01*
X105907760Y-48260000D01*
X105733368Y-48376525D01*
X105526525Y-48583368D01*
X105364010Y-48826589D01*
X105252068Y-49096842D01*
X105195000Y-49383740D01*
X105195000Y-49676260D01*
X105252068Y-49963158D01*
X105364010Y-50233411D01*
X105526525Y-50476632D01*
X105733368Y-50683475D01*
X105907760Y-50800000D01*
X105733368Y-50916525D01*
X105526525Y-51123368D01*
X105364010Y-51366589D01*
X105352025Y-51395523D01*
X102274477Y-48317975D01*
X102303411Y-48305990D01*
X102546632Y-48143475D01*
X102753475Y-47936632D01*
X102915990Y-47693411D01*
X103027932Y-47423158D01*
X103085000Y-47136260D01*
X103085000Y-46843740D01*
X103027932Y-46556842D01*
X102915990Y-46286589D01*
X102753475Y-46043368D01*
X102546632Y-45836525D01*
X102353089Y-45707204D01*
X102349003Y-45665714D01*
X102305546Y-45522453D01*
X102234974Y-45390424D01*
X102175701Y-45318199D01*
X102163799Y-45303696D01*
X102163795Y-45303692D01*
X102140001Y-45274699D01*
X102111008Y-45250905D01*
X99956844Y-43096742D01*
X100006632Y-43063475D01*
X100213475Y-42856632D01*
X100335195Y-42674466D01*
X100404822Y-42791355D01*
X100599731Y-43007588D01*
X100833080Y-43181641D01*
X101095901Y-43306825D01*
X101243110Y-43351476D01*
X101473000Y-43230155D01*
X101473000Y-42037000D01*
X101727000Y-42037000D01*
X101727000Y-43230155D01*
X101956890Y-43351476D01*
X102104099Y-43306825D01*
X102366920Y-43181641D01*
X102600269Y-43007588D01*
X102795178Y-42791355D01*
X102944157Y-42541252D01*
X103041481Y-42266891D01*
X102920814Y-42037000D01*
X101727000Y-42037000D01*
X101473000Y-42037000D01*
X101453000Y-42037000D01*
X101453000Y-41783000D01*
X101473000Y-41783000D01*
X101473000Y-40589845D01*
X101727000Y-40589845D01*
X101727000Y-41783000D01*
X102920814Y-41783000D01*
X103041481Y-41553109D01*
X102944157Y-41278748D01*
X102795178Y-41028645D01*
X102600269Y-40812412D01*
X102366920Y-40638359D01*
X102104099Y-40513175D01*
X101956890Y-40468524D01*
X101727000Y-40589845D01*
X101473000Y-40589845D01*
X101243110Y-40468524D01*
X101095901Y-40513175D01*
X100833080Y-40638359D01*
X100599731Y-40812412D01*
X100404822Y-41028645D01*
X100335195Y-41145534D01*
X100213475Y-40963368D01*
X100006632Y-40756525D01*
X99763411Y-40594010D01*
X99493158Y-40482068D01*
X99206260Y-40425000D01*
X98913740Y-40425000D01*
X98626842Y-40482068D01*
X98356589Y-40594010D01*
X98142537Y-40737035D01*
X97607203Y-40201702D01*
X97583401Y-40172699D01*
X97467676Y-40077726D01*
X97378388Y-40030000D01*
X109163983Y-40030000D01*
X109033724Y-40099626D01*
G36*
X95561024Y-40077726D02*
G01*
X95445299Y-40172699D01*
X95421501Y-40201698D01*
X95125349Y-40497849D01*
X95074180Y-40470498D01*
X94954482Y-40434188D01*
X94830000Y-40421928D01*
X93130000Y-40421928D01*
X93005518Y-40434188D01*
X92885820Y-40470498D01*
X92775506Y-40529463D01*
X92678815Y-40608815D01*
X92599463Y-40705506D01*
X92540498Y-40815820D01*
X92504188Y-40935518D01*
X92491928Y-41060000D01*
X92491928Y-42760000D01*
X92504188Y-42884482D01*
X92540498Y-43004180D01*
X92599463Y-43114494D01*
X92678815Y-43211185D01*
X92775506Y-43290537D01*
X92885820Y-43349502D01*
X93005518Y-43385812D01*
X93130000Y-43398072D01*
X93220001Y-43398072D01*
X93220000Y-45501928D01*
X93130000Y-45501928D01*
X93005518Y-45514188D01*
X92885820Y-45550498D01*
X92775506Y-45609463D01*
X92678815Y-45688815D01*
X92599463Y-45785506D01*
X92540498Y-45895820D01*
X92504188Y-46015518D01*
X92491928Y-46140000D01*
X92491928Y-47695527D01*
X91275404Y-46479003D01*
X91251601Y-46449999D01*
X91135876Y-46355026D01*
X91003847Y-46284454D01*
X90860586Y-46240997D01*
X90748933Y-46230000D01*
X90748922Y-46230000D01*
X90711600Y-46226324D01*
X90674278Y-46230000D01*
X90178178Y-46230000D01*
X90053475Y-46043368D01*
X89846632Y-45836525D01*
X89603411Y-45674010D01*
X89333158Y-45562068D01*
X89046260Y-45505000D01*
X88753740Y-45505000D01*
X88466842Y-45562068D01*
X88196589Y-45674010D01*
X87953368Y-45836525D01*
X87746525Y-46043368D01*
X87630000Y-46217760D01*
X87513475Y-46043368D01*
X87306632Y-45836525D01*
X87063411Y-45674010D01*
X86793158Y-45562068D01*
X86506260Y-45505000D01*
X86213740Y-45505000D01*
X85944700Y-45558516D01*
X85944700Y-44575401D01*
X86871003Y-43649099D01*
X86900001Y-43625301D01*
X86994974Y-43509576D01*
X87065546Y-43377547D01*
X87109003Y-43234286D01*
X87113089Y-43192796D01*
X87306632Y-43063475D01*
X87513475Y-42856632D01*
X87635195Y-42674466D01*
X87704822Y-42791355D01*
X87899731Y-43007588D01*
X88133080Y-43181641D01*
X88395901Y-43306825D01*
X88543110Y-43351476D01*
X88773000Y-43230155D01*
X88773000Y-42037000D01*
X89027000Y-42037000D01*
X89027000Y-43230155D01*
X89256890Y-43351476D01*
X89404099Y-43306825D01*
X89666920Y-43181641D01*
X89900269Y-43007588D01*
X90095178Y-42791355D01*
X90244157Y-42541252D01*
X90341481Y-42266891D01*
X90220814Y-42037000D01*
X89027000Y-42037000D01*
X88773000Y-42037000D01*
X88753000Y-42037000D01*
X88753000Y-41783000D01*
X88773000Y-41783000D01*
X88773000Y-40589845D01*
X89027000Y-40589845D01*
X89027000Y-41783000D01*
X90220814Y-41783000D01*
X90341481Y-41553109D01*
X90244157Y-41278748D01*
X90095178Y-41028645D01*
X89900269Y-40812412D01*
X89666920Y-40638359D01*
X89404099Y-40513175D01*
X89256890Y-40468524D01*
X89027000Y-40589845D01*
X88773000Y-40589845D01*
X88543110Y-40468524D01*
X88395901Y-40513175D01*
X88133080Y-40638359D01*
X87899731Y-40812412D01*
X87704822Y-41028645D01*
X87635195Y-41145534D01*
X87513475Y-40963368D01*
X87306632Y-40756525D01*
X87063411Y-40594010D01*
X86793158Y-40482068D01*
X86506260Y-40425000D01*
X86213740Y-40425000D01*
X85926842Y-40482068D01*
X85656589Y-40594010D01*
X85413368Y-40756525D01*
X85206525Y-40963368D01*
X85090000Y-41137760D01*
X84973475Y-40963368D01*
X84766632Y-40756525D01*
X84523411Y-40594010D01*
X84253158Y-40482068D01*
X83966260Y-40425000D01*
X83673740Y-40425000D01*
X83386842Y-40482068D01*
X83116589Y-40594010D01*
X82909311Y-40732509D01*
X82394003Y-40217202D01*
X82370201Y-40188199D01*
X82254476Y-40093226D01*
X82136190Y-40030000D01*
X95650312Y-40030000D01*
X95561024Y-40077726D01*
G37*
X95561024Y-40077726D02*
X95445299Y-40172699D01*
X95421501Y-40201698D01*
X95125349Y-40497849D01*
X95074180Y-40470498D01*
X94954482Y-40434188D01*
X94830000Y-40421928D01*
X93130000Y-40421928D01*
X93005518Y-40434188D01*
X92885820Y-40470498D01*
X92775506Y-40529463D01*
X92678815Y-40608815D01*
X92599463Y-40705506D01*
X92540498Y-40815820D01*
X92504188Y-40935518D01*
X92491928Y-41060000D01*
X92491928Y-42760000D01*
X92504188Y-42884482D01*
X92540498Y-43004180D01*
X92599463Y-43114494D01*
X92678815Y-43211185D01*
X92775506Y-43290537D01*
X92885820Y-43349502D01*
X93005518Y-43385812D01*
X93130000Y-43398072D01*
X93220001Y-43398072D01*
X93220000Y-45501928D01*
X93130000Y-45501928D01*
X93005518Y-45514188D01*
X92885820Y-45550498D01*
X92775506Y-45609463D01*
X92678815Y-45688815D01*
X92599463Y-45785506D01*
X92540498Y-45895820D01*
X92504188Y-46015518D01*
X92491928Y-46140000D01*
X92491928Y-47695527D01*
X91275404Y-46479003D01*
X91251601Y-46449999D01*
X91135876Y-46355026D01*
X91003847Y-46284454D01*
X90860586Y-46240997D01*
X90748933Y-46230000D01*
X90748922Y-46230000D01*
X90711600Y-46226324D01*
X90674278Y-46230000D01*
X90178178Y-46230000D01*
X90053475Y-46043368D01*
X89846632Y-45836525D01*
X89603411Y-45674010D01*
X89333158Y-45562068D01*
X89046260Y-45505000D01*
X88753740Y-45505000D01*
X88466842Y-45562068D01*
X88196589Y-45674010D01*
X87953368Y-45836525D01*
X87746525Y-46043368D01*
X87630000Y-46217760D01*
X87513475Y-46043368D01*
X87306632Y-45836525D01*
X87063411Y-45674010D01*
X86793158Y-45562068D01*
X86506260Y-45505000D01*
X86213740Y-45505000D01*
X85944700Y-45558516D01*
X85944700Y-44575401D01*
X86871003Y-43649099D01*
X86900001Y-43625301D01*
X86994974Y-43509576D01*
X87065546Y-43377547D01*
X87109003Y-43234286D01*
X87113089Y-43192796D01*
X87306632Y-43063475D01*
X87513475Y-42856632D01*
X87635195Y-42674466D01*
X87704822Y-42791355D01*
X87899731Y-43007588D01*
X88133080Y-43181641D01*
X88395901Y-43306825D01*
X88543110Y-43351476D01*
X88773000Y-43230155D01*
X88773000Y-42037000D01*
X89027000Y-42037000D01*
X89027000Y-43230155D01*
X89256890Y-43351476D01*
X89404099Y-43306825D01*
X89666920Y-43181641D01*
X89900269Y-43007588D01*
X90095178Y-42791355D01*
X90244157Y-42541252D01*
X90341481Y-42266891D01*
X90220814Y-42037000D01*
X89027000Y-42037000D01*
X88773000Y-42037000D01*
X88753000Y-42037000D01*
X88753000Y-41783000D01*
X88773000Y-41783000D01*
X88773000Y-40589845D01*
X89027000Y-40589845D01*
X89027000Y-41783000D01*
X90220814Y-41783000D01*
X90341481Y-41553109D01*
X90244157Y-41278748D01*
X90095178Y-41028645D01*
X89900269Y-40812412D01*
X89666920Y-40638359D01*
X89404099Y-40513175D01*
X89256890Y-40468524D01*
X89027000Y-40589845D01*
X88773000Y-40589845D01*
X88543110Y-40468524D01*
X88395901Y-40513175D01*
X88133080Y-40638359D01*
X87899731Y-40812412D01*
X87704822Y-41028645D01*
X87635195Y-41145534D01*
X87513475Y-40963368D01*
X87306632Y-40756525D01*
X87063411Y-40594010D01*
X86793158Y-40482068D01*
X86506260Y-40425000D01*
X86213740Y-40425000D01*
X85926842Y-40482068D01*
X85656589Y-40594010D01*
X85413368Y-40756525D01*
X85206525Y-40963368D01*
X85090000Y-41137760D01*
X84973475Y-40963368D01*
X84766632Y-40756525D01*
X84523411Y-40594010D01*
X84253158Y-40482068D01*
X83966260Y-40425000D01*
X83673740Y-40425000D01*
X83386842Y-40482068D01*
X83116589Y-40594010D01*
X82909311Y-40732509D01*
X82394003Y-40217202D01*
X82370201Y-40188199D01*
X82254476Y-40093226D01*
X82136190Y-40030000D01*
X95650312Y-40030000D01*
X95561024Y-40077726D01*
%TD*%
M02*
