<?xml version="1.0" standalone="no"?>
 <!DOCTYPE svg PUBLIC "-//W3C//DTD SVG 1.1//EN" 
 "http://www.w3.org/Graphics/SVG/1.1/DTD/svg11.dtd"> 
<svg
  xmlns:svg="http://www.w3.org/2000/svg"
  xmlns="http://www.w3.org/2000/svg"
  xmlns:xlink="http://www.w3.org/1999/xlink"
  version="1.1"
  width="4.000500cm" height="9.603740cm" viewBox="0 0 15750 37810">
<title>SVG Picture created as coqueplexy-morphesp240-brd.svg date 2021/09/21 09:43:33 </title>
  <desc>Picture generated by PCBNEW </desc>
<g style="fill:#000000; fill-opacity:1;stroke:#000000; stroke-opacity:1;
stroke-linecap:round; stroke-linejoin:round;"
 transform="translate(0 0) scale(1 1)">
</g>
<g style="fill:#000000; fill-opacity:0.0; 
stroke:#000000; stroke-width:-0.000393701; stroke-opacity:1; 
stroke-linecap:round; stroke-linejoin:round;">
<g >
</g>
<g >
</g>
<g >
</g>
</g>
<g style="fill:#000000; fill-opacity:0.0; 
stroke:#000000; stroke-width:-0.000393701; stroke-opacity:1; 
stroke-linecap:round; stroke-linejoin:round;">
<g >
</g>
</g>
<g style="fill:#000000; fill-opacity:0.0; 
stroke:#000000; stroke-width:-0.000393701; stroke-opacity:1; 
stroke-linecap:round; stroke-linejoin:round;">
<g >
</g>
</g>
<g style="fill:#000000; fill-opacity:0.0; 
stroke:#000000; stroke-width:-0.000393701; stroke-opacity:1; 
stroke-linecap:round; stroke-linejoin:round;">
</g>
<g style="fill:#000000; fill-opacity:0.0; 
stroke:#000000; stroke-width:19.685; stroke-opacity:1; 
stroke-linecap:round; stroke-linejoin:round;">
<path d="M11009 31810
L11009 36810
" />
<path d="M11009 19310
L9259 19310
" />
<path d="M11009 3810
L11009 19310
" />
<path d="M9 19310
L9 3810
" />
<path d="M9 36810
L9 27810
" />
<path d="M9259 31810
L11009 31810
" />
<path d="M9259 19310
L9259 31810
" />
<path d="M1759 27810
L9 27810
" />
<path d="M1759 19310
L1759 27810
" />
<path d="M9 19310
L1759 19310
" />
<path d="M11009.8 2310.04 A1000 1000 0.0 0 0 10009.8 1310.04" />
<path d="M1009.84 1310.04 A1000 1000 0.0 0 0 9.84291 2310.04" />
<path d="M9 3310
L9 2310
" />
<path d="M11009 3310
L11009 2310
" />
<path d="M1009 1310
L10009 1310
" />
<circle cx="10009.8" cy="2310.04" r="500" /> 
<circle cx="1009.84" cy="2310.04" r="500" /> 
<circle cx="1009.84" cy="36810" r="500" /> 
<circle cx="10009.8" cy="36810" r="500" /> 
<path d="M10009.8 37810 A1000 1000 0.0 0 0 11009.8 36810" />
<path d="M9.84291 36810 A1000 1000 0.0 0 0 1009.84 37810" />
<path d="M9 3810
L9 3310
" />
<path d="M11009 3810
L11009 3310
" />
<path d="M1009 37810
L10009 37810
" />
<g >
</g>
</g> 
</svg>
