  0
SECTION
  2
HEADER
  9
$ACADVER
  1
AC1014
  9
$HANDSEED
  5
FFFF
  9
$MEASUREMENT
 70
     1
  0
ENDSEC
  0
SECTION
  2
TABLES
  0
TABLE
  2
VPORT
  5
8
330
0
100
AcDbSymbolTable
 70
     4
  0
VPORT
  5
2E
330
8
100
AcDbSymbolTableRecord
100
AcDbViewportTableRecord
  2
*ACTIVE
 70
     0
 10
0.0
 20
0.0
 11
1.0
 21
1.0
 12
210.0
 22
148.5
 13
0.0
 23
0.0
 14
10.0
 24
10.0
 15
10.0
 25
10.0
 16
0.0
 26
0.0
 36
1.0
 17
0.0
 27
0.0
 37
0.0
 40
341.0
 41
1.24
 42
50.0
 43
0.0
 44
0.0
 50
0.0
 51
0.0
 71
     0
 72
   100
 73
     1
 74
     3
 75
     0
 76
     0
 77
     0
 78
     0
  0
ENDTAB
  0
TABLE
  2
LTYPE
  5
5
330
0
100
AcDbSymbolTable
 70
     1
  0
LTYPE
  5
14
330
5
100
AcDbSymbolTableRecord
100
AcDbLinetypeTableRecord
  2
BYBLOCK
 70
     0
  3

 72
    65
 73
     0
 40
0.0
  0
LTYPE
  5
15
330
5
100
AcDbSymbolTableRecord
100
AcDbLinetypeTableRecord
  2
BYLAYER
 70
     0
  3

 72
    65
 73
     0
 40
0.0
  0
LTYPE
  5
16
330
5
100
AcDbSymbolTableRecord
100
AcDbLinetypeTableRecord
  2
CONTINUOUS
 70
     0
  3
Solid line
 72
    65
 73
     0
 40
0.0
  0
ENDTAB
  0
TABLE
  2
LAYER
  5
2
100
AcDbSymbolTable
 70
1
  0
LAYER
  5
50
100
AcDbSymbolTableRecord
100
AcDbLayerTableRecord
  2
0
 70
0
  6
CONTINUOUS
  0
ENDTAB
  0
TABLE
  2
STYLE
  5
3
330
0
100
AcDbSymbolTable
 70
     1
  0
STYLE
  5
11
330
3
100
AcDbSymbolTableRecord
100
AcDbTextStyleTableRecord
  2
STANDARD
 70
     0
 40
0.0
 41
1.0
 50
0.0
 71
     0
 42
2.5
  3
txt
  4

  0
ENDTAB
  0
TABLE
  2
VIEW
  5
6
330
0
100
AcDbSymbolTable
 70
     0
  0
ENDTAB
  0
TABLE
  2
UCS
  5
7
330
0
100
AcDbSymbolTable
 70
     0
  0
ENDTAB
  0
TABLE
  2
APPID
  5
9
330
0
100
AcDbSymbolTable
 70
     2
  0
APPID
  5
12
330
9
100
AcDbSymbolTableRecord
100
AcDbRegAppTableRecord
  2
ACAD
 70
     0
  0
ENDTAB
  0
TABLE
  2
DIMSTYLE
  5
A
330
0
100
AcDbSymbolTable
 70
     1
  0
DIMSTYLE
105
27
330
A
100
AcDbSymbolTableRecord
100
AcDbDimStyleTableRecord
  2
ISO-25
 70
     0
  3

  4

  5

  6

  7

 40
1.0
 41
2.5
 42
0.625
 43
3.75
 44
1.25
 45
0.0
 46
0.0
 47
0.0
 48
0.0
140
2.5
141
2.5
142
0.0
143
0.03937007874016
144
1.0
145
0.0
146
1.0
147
0.625
 71
     0
 72
     0
 73
     0
 74
     0
 75
     0
 76
     0
 77
     1
 78
     8
170
     0
171
     3
172
     1
173
     0
174
     0
175
     0
176
     0
177
     0
178
     0
270
     2
271
     2
272
     2
273
     2
274
     3
340
11
275
     0
280
     0
281
     0
282
     0
283
     0
284
     8
285
     0
286
     0
287
     3
288
     0
  0
ENDTAB
  0
TABLE
  2
BLOCK_RECORD
  5
1
330
0
100
AcDbSymbolTable
 70
     1
  0
BLOCK_RECORD
  5
1F
330
1
100
AcDbSymbolTableRecord
100
AcDbBlockTableRecord
  2
*MODEL_SPACE
  0
BLOCK_RECORD
  5
1B
330
1
100
AcDbSymbolTableRecord
100
AcDbBlockTableRecord
  2
*PAPER_SPACE
  0
ENDTAB
  0
ENDSEC
  0
SECTION
  2
BLOCKS
  0
BLOCK
  5
20
330
1F
100
AcDbEntity
  8
0
100
AcDbBlockBegin
  2
*MODEL_SPACE
 70
     0
 10
0.0
 20
0.0
 30
0.0
  3
*MODEL_SPACE
  1

  0
ENDBLK
  5
21
330
1F
100
AcDbEntity
  8
0
100
AcDbBlockEnd
  0
BLOCK
  5
1C
330
1B
100
AcDbEntity
 67
     1
  8
0
100
AcDbBlockBegin
  2
*PAPER_SPACE
  1

  0
ENDBLK
  5
1D
330
1B
100
AcDbEntity
 67
     1
  8
0
100
AcDbBlockEnd
  0
ENDSEC
  0
SECTION
  2
ENTITIES
  0
SPLINE
  5
100
100
AcDbEntity
  8
0
 62
1
100
AcDbSpline
 70
8
 71
3
 72
8
 73
4
 74
0
 40
0
 40
0
 40
0
 40
0
 40
1
 40
1
 40
1
 40
1
 10
27.964891
 20
-4.945542
 30
0.0
 10
27.964891
 20
-4.271893
 30
0.0
 10
27.697285
 20
-3.625834
 30
0.0
 10
27.220942
 20
-3.149491
 30
0.0
  0
SPLINE
  5
101
100
AcDbEntity
  8
0
 62
1
100
AcDbSpline
 70
8
 71
3
 72
8
 73
4
 74
0
 40
0
 40
0
 40
0
 40
0
 40
1
 40
1
 40
1
 40
1
 10
27.220942
 20
-3.149491
 30
0.0
 10
26.744600
 20
-2.673149
 30
0.0
 10
26.098541
 20
-2.405543
 30
0.0
 10
25.424891
 20
-2.405543
 30
0.0
  0
SPLINE
  5
102
100
AcDbEntity
  8
0
 62
1
100
AcDbSpline
 70
8
 71
3
 72
8
 73
4
 74
0
 40
0
 40
0
 40
0
 40
0
 40
1
 40
1
 40
1
 40
1
 10
2.564994
 20
-2.405543
 30
0.0
 10
1.162193
 20
-2.405547
 30
0.0
 10
0.025001
 20
-3.542742
 30
0.0
 10
0.025001
 20
-4.945542
 30
0.0
  0
LINE
  5
103
100
AcDbEntity
  8
0
 62
1
100
AcDbLine
 10
0.022860
 20
-7.485441
 30
0.0
 11
0.022860
 21
-4.945441
 31
0.0
  0
LINE
  5
104
100
AcDbEntity
  8
0
 62
1
100
AcDbLine
 10
27.962859
 20
-7.485441
 30
0.0
 11
27.962859
 21
-4.945441
 31
0.0
  0
LINE
  5
105
100
AcDbEntity
  8
0
 62
1
100
AcDbLine
 10
2.562860
 20
-2.405441
 30
0.0
 11
25.422859
 21
-2.405441
 31
0.0
  0
SPLINE
  5
106
100
AcDbEntity
  8
0
 62
1
100
AcDbSpline
 70
8
 71
3
 72
8
 73
4
 74
0
 40
0
 40
0
 40
0
 40
0
 40
1
 40
1
 40
1
 40
1
 10
26.694891
 20
-4.945542
 30
0.0
 10
26.694891
 20
-5.399270
 30
0.0
 10
26.452831
 20
-5.818531
 30
0.0
 10
26.059891
 20
-6.045395
 30
0.0
  0
SPLINE
  5
107
100
AcDbEntity
  8
0
 62
1
100
AcDbSpline
 70
8
 71
3
 72
8
 73
4
 74
0
 40
0
 40
0
 40
0
 40
0
 40
1
 40
1
 40
1
 40
1
 10
26.059891
 20
-6.045395
 30
0.0
 10
25.666952
 20
-6.272258
 30
0.0
 10
25.182831
 20
-6.272258
 30
0.0
 10
24.789891
 20
-6.045395
 30
0.0
  0
SPLINE
  5
108
100
AcDbEntity
  8
0
 62
1
100
AcDbSpline
 70
8
 71
3
 72
8
 73
4
 74
0
 40
0
 40
0
 40
0
 40
0
 40
1
 40
1
 40
1
 40
1
 10
24.789891
 20
-6.045395
 30
0.0
 10
24.396952
 20
-5.818531
 30
0.0
 10
24.154891
 20
-5.399270
 30
0.0
 10
24.154891
 20
-4.945542
 30
0.0
  0
SPLINE
  5
109
100
AcDbEntity
  8
0
 62
1
100
AcDbSpline
 70
8
 71
3
 72
8
 73
4
 74
0
 40
0
 40
0
 40
0
 40
0
 40
1
 40
1
 40
1
 40
1
 10
24.154891
 20
-4.945542
 30
0.0
 10
24.154891
 20
-4.244141
 30
0.0
 10
24.723490
 20
-3.675543
 30
0.0
 10
25.424891
 20
-3.675543
 30
0.0
  0
SPLINE
  5
10a
100
AcDbEntity
  8
0
 62
1
100
AcDbSpline
 70
8
 71
3
 72
8
 73
4
 74
0
 40
0
 40
0
 40
0
 40
0
 40
1
 40
1
 40
1
 40
1
 10
25.424891
 20
-3.675543
 30
0.0
 10
26.126293
 20
-3.675543
 30
0.0
 10
26.694891
 20
-4.244141
 30
0.0
 10
26.694891
 20
-4.945542
 30
0.0
  0
LINE
  5
10b
100
AcDbEntity
  8
0
 62
1
100
AcDbLine
 10
26.694891
 20
-4.945542
 30
0.0
 11
26.694891
 21
-4.945542
 31
0.0
  0
SPLINE
  5
10c
100
AcDbEntity
  8
0
 62
1
100
AcDbSpline
 70
8
 71
3
 72
8
 73
4
 74
0
 40
0
 40
0
 40
0
 40
0
 40
1
 40
1
 40
1
 40
1
 10
3.834993
 20
-4.945542
 30
0.0
 10
3.834993
 20
-5.646944
 30
0.0
 10
3.266395
 20
-6.215542
 30
0.0
 10
2.564994
 20
-6.215542
 30
0.0
  0
SPLINE
  5
10d
100
AcDbEntity
  8
0
 62
1
100
AcDbSpline
 70
8
 71
3
 72
8
 73
4
 74
0
 40
0
 40
0
 40
0
 40
0
 40
1
 40
1
 40
1
 40
1
 10
2.564994
 20
-6.215542
 30
0.0
 10
1.863592
 20
-6.215542
 30
0.0
 10
1.294994
 20
-5.646944
 30
0.0
 10
1.294994
 20
-4.945542
 30
0.0
  0
SPLINE
  5
10e
100
AcDbEntity
  8
0
 62
1
100
AcDbSpline
 70
8
 71
3
 72
8
 73
4
 74
0
 40
0
 40
0
 40
0
 40
0
 40
1
 40
1
 40
1
 40
1
 10
1.294994
 20
-4.945542
 30
0.0
 10
1.294994
 20
-4.491815
 30
0.0
 10
1.537054
 20
-4.072554
 30
0.0
 10
1.929994
 20
-3.845690
 30
0.0
  0
SPLINE
  5
10f
100
AcDbEntity
  8
0
 62
1
100
AcDbSpline
 70
8
 71
3
 72
8
 73
4
 74
0
 40
0
 40
0
 40
0
 40
0
 40
1
 40
1
 40
1
 40
1
 10
1.929994
 20
-3.845690
 30
0.0
 10
2.322933
 20
-3.618827
 30
0.0
 10
2.807054
 20
-3.618827
 30
0.0
 10
3.199994
 20
-3.845690
 30
0.0
  0
SPLINE
  5
110
100
AcDbEntity
  8
0
 62
1
100
AcDbSpline
 70
8
 71
3
 72
8
 73
4
 74
0
 40
0
 40
0
 40
0
 40
0
 40
1
 40
1
 40
1
 40
1
 10
3.199994
 20
-3.845690
 30
0.0
 10
3.592933
 20
-4.072554
 30
0.0
 10
3.834993
 20
-4.491815
 30
0.0
 10
3.834993
 20
-4.945542
 30
0.0
  0
LINE
  5
111
100
AcDbEntity
  8
0
 62
1
100
AcDbLine
 10
3.834993
 20
-4.945542
 30
0.0
 11
3.834993
 21
-4.945542
 31
0.0
  0
SPLINE
  5
112
100
AcDbEntity
  8
0
 62
1
100
AcDbSpline
 70
8
 71
3
 72
8
 73
4
 74
0
 40
0
 40
0
 40
0
 40
0
 40
1
 40
1
 40
1
 40
1
 10
3.834993
 20
-92.575438
 30
0.0
 10
3.834993
 20
-93.276840
 30
0.0
 10
3.266395
 20
-93.845438
 30
0.0
 10
2.564994
 20
-93.845438
 30
0.0
  0
SPLINE
  5
113
100
AcDbEntity
  8
0
 62
1
100
AcDbSpline
 70
8
 71
3
 72
8
 73
4
 74
0
 40
0
 40
0
 40
0
 40
0
 40
1
 40
1
 40
1
 40
1
 10
2.564994
 20
-93.845438
 30
0.0
 10
1.863592
 20
-93.845438
 30
0.0
 10
1.294994
 20
-93.276840
 30
0.0
 10
1.294994
 20
-92.575438
 30
0.0
  0
SPLINE
  5
114
100
AcDbEntity
  8
0
 62
1
100
AcDbSpline
 70
8
 71
3
 72
8
 73
4
 74
0
 40
0
 40
0
 40
0
 40
0
 40
1
 40
1
 40
1
 40
1
 10
1.294994
 20
-92.575438
 30
0.0
 10
1.294994
 20
-92.121711
 30
0.0
 10
1.537054
 20
-91.702450
 30
0.0
 10
1.929994
 20
-91.475586
 30
0.0
  0
SPLINE
  5
115
100
AcDbEntity
  8
0
 62
1
100
AcDbSpline
 70
8
 71
3
 72
8
 73
4
 74
0
 40
0
 40
0
 40
0
 40
0
 40
1
 40
1
 40
1
 40
1
 10
1.929994
 20
-91.475586
 30
0.0
 10
2.322933
 20
-91.248722
 30
0.0
 10
2.807054
 20
-91.248722
 30
0.0
 10
3.199994
 20
-91.475586
 30
0.0
  0
SPLINE
  5
116
100
AcDbEntity
  8
0
 62
1
100
AcDbSpline
 70
8
 71
3
 72
8
 73
4
 74
0
 40
0
 40
0
 40
0
 40
0
 40
1
 40
1
 40
1
 40
1
 10
3.199994
 20
-91.475586
 30
0.0
 10
3.592933
 20
-91.702450
 30
0.0
 10
3.834993
 20
-92.121711
 30
0.0
 10
3.834993
 20
-92.575438
 30
0.0
  0
LINE
  5
117
100
AcDbEntity
  8
0
 62
1
100
AcDbLine
 10
3.834993
 20
-92.575438
 30
0.0
 11
3.834993
 21
-92.575438
 31
0.0
  0
SPLINE
  5
118
100
AcDbEntity
  8
0
 62
1
100
AcDbSpline
 70
8
 71
3
 72
8
 73
4
 74
0
 40
0
 40
0
 40
0
 40
0
 40
1
 40
1
 40
1
 40
1
 10
26.694891
 20
-92.575438
 30
0.0
 10
26.694891
 20
-93.029165
 30
0.0
 10
26.452831
 20
-93.448427
 30
0.0
 10
26.059891
 20
-93.675290
 30
0.0
  0
SPLINE
  5
119
100
AcDbEntity
  8
0
 62
1
100
AcDbSpline
 70
8
 71
3
 72
8
 73
4
 74
0
 40
0
 40
0
 40
0
 40
0
 40
1
 40
1
 40
1
 40
1
 10
26.059891
 20
-93.675290
 30
0.0
 10
25.666952
 20
-93.902154
 30
0.0
 10
25.182831
 20
-93.902154
 30
0.0
 10
24.789891
 20
-93.675290
 30
0.0
  0
SPLINE
  5
11a
100
AcDbEntity
  8
0
 62
1
100
AcDbSpline
 70
8
 71
3
 72
8
 73
4
 74
0
 40
0
 40
0
 40
0
 40
0
 40
1
 40
1
 40
1
 40
1
 10
24.789891
 20
-93.675290
 30
0.0
 10
24.396952
 20
-93.448427
 30
0.0
 10
24.154891
 20
-93.029165
 30
0.0
 10
24.154891
 20
-92.575438
 30
0.0
  0
SPLINE
  5
11b
100
AcDbEntity
  8
0
 62
1
100
AcDbSpline
 70
8
 71
3
 72
8
 73
4
 74
0
 40
0
 40
0
 40
0
 40
0
 40
1
 40
1
 40
1
 40
1
 10
24.154891
 20
-92.575438
 30
0.0
 10
24.154891
 20
-91.874037
 30
0.0
 10
24.723490
 20
-91.305438
 30
0.0
 10
25.424891
 20
-91.305438
 30
0.0
  0
SPLINE
  5
11c
100
AcDbEntity
  8
0
 62
1
100
AcDbSpline
 70
8
 71
3
 72
8
 73
4
 74
0
 40
0
 40
0
 40
0
 40
0
 40
1
 40
1
 40
1
 40
1
 10
25.424891
 20
-91.305438
 30
0.0
 10
26.126293
 20
-91.305438
 30
0.0
 10
26.694891
 20
-91.874037
 30
0.0
 10
26.694891
 20
-92.575438
 30
0.0
  0
LINE
  5
11d
100
AcDbEntity
  8
0
 62
1
100
AcDbLine
 10
26.694891
 20
-92.575438
 30
0.0
 11
26.694891
 21
-92.575438
 31
0.0
  0
SPLINE
  5
11e
100
AcDbEntity
  8
0
 62
1
100
AcDbSpline
 70
8
 71
3
 72
8
 73
4
 74
0
 40
0
 40
0
 40
0
 40
0
 40
1
 40
1
 40
1
 40
1
 10
25.424891
 20
-95.115438
 30
0.0
 10
26.098541
 20
-95.115438
 30
0.0
 10
26.744600
 20
-94.847832
 30
0.0
 10
27.220942
 20
-94.371489
 30
0.0
  0
SPLINE
  5
11f
100
AcDbEntity
  8
0
 62
1
100
AcDbSpline
 70
8
 71
3
 72
8
 73
4
 74
0
 40
0
 40
0
 40
0
 40
0
 40
1
 40
1
 40
1
 40
1
 10
27.220942
 20
-94.371489
 30
0.0
 10
27.697285
 20
-93.895147
 30
0.0
 10
27.964891
 20
-93.249088
 30
0.0
 10
27.964891
 20
-92.575438
 30
0.0
  0
SPLINE
  5
120
100
AcDbEntity
  8
0
 62
1
100
AcDbSpline
 70
8
 71
3
 72
8
 73
4
 74
0
 40
0
 40
0
 40
0
 40
0
 40
1
 40
1
 40
1
 40
1
 10
0.025001
 20
-92.575438
 30
0.0
 10
0.025001
 20
-93.978238
 30
0.0
 10
1.162193
 20
-95.115434
 30
0.0
 10
2.564994
 20
-95.115438
 30
0.0
  0
LINE
  5
121
100
AcDbEntity
  8
0
 62
1
100
AcDbLine
 10
0.022860
 20
-8.755441
 30
0.0
 11
0.022860
 21
-7.485441
 31
0.0
  0
LINE
  5
122
100
AcDbEntity
  8
0
 62
1
100
AcDbLine
 10
27.962859
 20
-8.755441
 30
0.0
 11
27.962859
 21
-7.485441
 31
0.0
  0
LINE
  5
123
100
AcDbEntity
  8
0
 62
1
100
AcDbLine
 10
2.562860
 20
-95.115438
 30
0.0
 11
25.422859
 21
-95.115438
 31
0.0
  0
LINE
  5
124
100
AcDbEntity
  8
0
 62
1
100
AcDbLine
 10
0.022860
 20
-8.755441
 30
0.0
 11
0.022860
 21
-92.575438
 31
0.0
  0
LINE
  5
125
100
AcDbEntity
  8
0
 62
1
100
AcDbLine
 10
27.962859
 20
-8.755441
 30
0.0
 11
27.962859
 21
-92.575438
 31
0.0
  0
LINE
  5
126
100
AcDbEntity
  8
0
 62
1
100
AcDbLine
 10
30.360576
 20
-47.990377
 30
0.0
 11
30.360576
 21
-69.580377
 31
0.0
  0
LINE
  5
127
100
AcDbEntity
  8
0
 62
1
100
AcDbLine
 10
58.300575
 20
-79.740376
 30
0.0
 11
58.300575
 21
-47.990377
 31
0.0
  0
LINE
  5
128
100
AcDbEntity
  8
0
 62
1
100
AcDbLine
 10
58.300575
 20
-79.740376
 30
0.0
 11
58.300575
 21
-92.440376
 31
0.0
  0
LINE
  5
129
100
AcDbEntity
  8
0
 62
1
100
AcDbLine
 10
58.300575
 20
-8.620379
 30
0.0
 11
58.300575
 21
-47.990377
 31
0.0
  0
LINE
  5
12a
100
AcDbEntity
  8
0
 62
1
100
AcDbLine
 10
30.360576
 20
-47.990377
 30
0.0
 11
30.360576
 21
-8.620379
 31
0.0
  0
LINE
  5
12b
100
AcDbEntity
  8
0
 62
1
100
AcDbLine
 10
30.360576
 20
-92.440376
 30
0.0
 11
30.360576
 21
-69.580377
 31
0.0
  0
SPLINE
  5
12c
100
AcDbEntity
  8
0
 62
1
100
AcDbSpline
 70
8
 71
3
 72
8
 73
4
 74
0
 40
0
 40
0
 40
0
 40
0
 40
1
 40
1
 40
1
 40
1
 10
58.302607
 20
-4.810480
 30
0.0
 10
58.302607
 20
-4.136830
 30
0.0
 10
58.035001
 20
-3.490771
 30
0.0
 10
57.558658
 20
-3.014429
 30
0.0
  0
SPLINE
  5
12d
100
AcDbEntity
  8
0
 62
1
100
AcDbSpline
 70
8
 71
3
 72
8
 73
4
 74
0
 40
0
 40
0
 40
0
 40
0
 40
1
 40
1
 40
1
 40
1
 10
57.558658
 20
-3.014429
 30
0.0
 10
57.082316
 20
-2.538087
 30
0.0
 10
56.436257
 20
-2.270480
 30
0.0
 10
55.762607
 20
-2.270480
 30
0.0
  0
SPLINE
  5
12e
100
AcDbEntity
  8
0
 62
1
100
AcDbSpline
 70
8
 71
3
 72
8
 73
4
 74
0
 40
0
 40
0
 40
0
 40
0
 40
1
 40
1
 40
1
 40
1
 10
32.902709
 20
-2.270480
 30
0.0
 10
31.499909
 20
-2.270484
 30
0.0
 10
30.362717
 20
-3.407680
 30
0.0
 10
30.362717
 20
-4.810480
 30
0.0
  0
LINE
  5
12f
100
AcDbEntity
  8
0
 62
1
100
AcDbLine
 10
30.360576
 20
-7.350379
 30
0.0
 11
30.360576
 21
-4.810379
 31
0.0
  0
LINE
  5
130
100
AcDbEntity
  8
0
 62
1
100
AcDbLine
 10
58.300575
 20
-7.350379
 30
0.0
 11
58.300575
 21
-4.810379
 31
0.0
  0
LINE
  5
131
100
AcDbEntity
  8
0
 62
1
100
AcDbLine
 10
32.900576
 20
-2.270379
 30
0.0
 11
55.760575
 21
-2.270379
 31
0.0
  0
SPLINE
  5
132
100
AcDbEntity
  8
0
 62
1
100
AcDbSpline
 70
8
 71
3
 72
8
 73
4
 74
0
 40
0
 40
0
 40
0
 40
0
 40
1
 40
1
 40
1
 40
1
 10
57.032607
 20
-4.810480
 30
0.0
 10
57.032607
 20
-5.264208
 30
0.0
 10
56.790546
 20
-5.683469
 30
0.0
 10
56.397607
 20
-5.910332
 30
0.0
  0
SPLINE
  5
133
100
AcDbEntity
  8
0
 62
1
100
AcDbSpline
 70
8
 71
3
 72
8
 73
4
 74
0
 40
0
 40
0
 40
0
 40
0
 40
1
 40
1
 40
1
 40
1
 10
56.397607
 20
-5.910332
 30
0.0
 10
56.004668
 20
-6.137196
 30
0.0
 10
55.520546
 20
-6.137196
 30
0.0
 10
55.127607
 20
-5.910332
 30
0.0
  0
SPLINE
  5
134
100
AcDbEntity
  8
0
 62
1
100
AcDbSpline
 70
8
 71
3
 72
8
 73
4
 74
0
 40
0
 40
0
 40
0
 40
0
 40
1
 40
1
 40
1
 40
1
 10
55.127607
 20
-5.910332
 30
0.0
 10
54.734668
 20
-5.683469
 30
0.0
 10
54.492607
 20
-5.264208
 30
0.0
 10
54.492607
 20
-4.810480
 30
0.0
  0
SPLINE
  5
135
100
AcDbEntity
  8
0
 62
1
100
AcDbSpline
 70
8
 71
3
 72
8
 73
4
 74
0
 40
0
 40
0
 40
0
 40
0
 40
1
 40
1
 40
1
 40
1
 10
54.492607
 20
-4.810480
 30
0.0
 10
54.492607
 20
-4.109079
 30
0.0
 10
55.061205
 20
-3.540480
 30
0.0
 10
55.762607
 20
-3.540480
 30
0.0
  0
SPLINE
  5
136
100
AcDbEntity
  8
0
 62
1
100
AcDbSpline
 70
8
 71
3
 72
8
 73
4
 74
0
 40
0
 40
0
 40
0
 40
0
 40
1
 40
1
 40
1
 40
1
 10
55.762607
 20
-3.540480
 30
0.0
 10
56.464009
 20
-3.540480
 30
0.0
 10
57.032607
 20
-4.109079
 30
0.0
 10
57.032607
 20
-4.810480
 30
0.0
  0
LINE
  5
137
100
AcDbEntity
  8
0
 62
1
100
AcDbLine
 10
57.032607
 20
-4.810480
 30
0.0
 11
57.032607
 21
-4.810480
 31
0.0
  0
SPLINE
  5
138
100
AcDbEntity
  8
0
 62
1
100
AcDbSpline
 70
8
 71
3
 72
8
 73
4
 74
0
 40
0
 40
0
 40
0
 40
0
 40
1
 40
1
 40
1
 40
1
 10
34.172709
 20
-4.810480
 30
0.0
 10
34.172709
 20
-5.511882
 30
0.0
 10
33.604111
 20
-6.080480
 30
0.0
 10
32.902709
 20
-6.080480
 30
0.0
  0
SPLINE
  5
139
100
AcDbEntity
  8
0
 62
1
100
AcDbSpline
 70
8
 71
3
 72
8
 73
4
 74
0
 40
0
 40
0
 40
0
 40
0
 40
1
 40
1
 40
1
 40
1
 10
32.902709
 20
-6.080480
 30
0.0
 10
32.201308
 20
-6.080480
 30
0.0
 10
31.632709
 20
-5.511882
 30
0.0
 10
31.632709
 20
-4.810480
 30
0.0
  0
SPLINE
  5
13a
100
AcDbEntity
  8
0
 62
1
100
AcDbSpline
 70
8
 71
3
 72
8
 73
4
 74
0
 40
0
 40
0
 40
0
 40
0
 40
1
 40
1
 40
1
 40
1
 10
31.632709
 20
-4.810480
 30
0.0
 10
31.632709
 20
-4.356753
 30
0.0
 10
31.874770
 20
-3.937492
 30
0.0
 10
32.267709
 20
-3.710628
 30
0.0
  0
SPLINE
  5
13b
100
AcDbEntity
  8
0
 62
1
100
AcDbSpline
 70
8
 71
3
 72
8
 73
4
 74
0
 40
0
 40
0
 40
0
 40
0
 40
1
 40
1
 40
1
 40
1
 10
32.267709
 20
-3.710628
 30
0.0
 10
32.660649
 20
-3.483764
 30
0.0
 10
33.144770
 20
-3.483764
 30
0.0
 10
33.537709
 20
-3.710628
 30
0.0
  0
SPLINE
  5
13c
100
AcDbEntity
  8
0
 62
1
100
AcDbSpline
 70
8
 71
3
 72
8
 73
4
 74
0
 40
0
 40
0
 40
0
 40
0
 40
1
 40
1
 40
1
 40
1
 10
33.537709
 20
-3.710628
 30
0.0
 10
33.930649
 20
-3.937492
 30
0.0
 10
34.172709
 20
-4.356753
 30
0.0
 10
34.172709
 20
-4.810480
 30
0.0
  0
LINE
  5
13d
100
AcDbEntity
  8
0
 62
1
100
AcDbLine
 10
34.172709
 20
-4.810480
 30
0.0
 11
34.172709
 21
-4.810480
 31
0.0
  0
SPLINE
  5
13e
100
AcDbEntity
  8
0
 62
1
100
AcDbSpline
 70
8
 71
3
 72
8
 73
4
 74
0
 40
0
 40
0
 40
0
 40
0
 40
1
 40
1
 40
1
 40
1
 10
34.172709
 20
-92.440376
 30
0.0
 10
34.172709
 20
-93.141778
 30
0.0
 10
33.604111
 20
-93.710376
 30
0.0
 10
32.902709
 20
-93.710376
 30
0.0
  0
SPLINE
  5
13f
100
AcDbEntity
  8
0
 62
1
100
AcDbSpline
 70
8
 71
3
 72
8
 73
4
 74
0
 40
0
 40
0
 40
0
 40
0
 40
1
 40
1
 40
1
 40
1
 10
32.902709
 20
-93.710376
 30
0.0
 10
32.201308
 20
-93.710376
 30
0.0
 10
31.632709
 20
-93.141778
 30
0.0
 10
31.632709
 20
-92.440376
 30
0.0
  0
SPLINE
  5
140
100
AcDbEntity
  8
0
 62
1
100
AcDbSpline
 70
8
 71
3
 72
8
 73
4
 74
0
 40
0
 40
0
 40
0
 40
0
 40
1
 40
1
 40
1
 40
1
 10
31.632709
 20
-92.440376
 30
0.0
 10
31.632709
 20
-91.986649
 30
0.0
 10
31.874770
 20
-91.567387
 30
0.0
 10
32.267709
 20
-91.340524
 30
0.0
  0
SPLINE
  5
141
100
AcDbEntity
  8
0
 62
1
100
AcDbSpline
 70
8
 71
3
 72
8
 73
4
 74
0
 40
0
 40
0
 40
0
 40
0
 40
1
 40
1
 40
1
 40
1
 10
32.267709
 20
-91.340524
 30
0.0
 10
32.660649
 20
-91.113660
 30
0.0
 10
33.144770
 20
-91.113660
 30
0.0
 10
33.537709
 20
-91.340524
 30
0.0
  0
SPLINE
  5
142
100
AcDbEntity
  8
0
 62
1
100
AcDbSpline
 70
8
 71
3
 72
8
 73
4
 74
0
 40
0
 40
0
 40
0
 40
0
 40
1
 40
1
 40
1
 40
1
 10
33.537709
 20
-91.340524
 30
0.0
 10
33.930649
 20
-91.567387
 30
0.0
 10
34.172709
 20
-91.986649
 30
0.0
 10
34.172709
 20
-92.440376
 30
0.0
  0
LINE
  5
143
100
AcDbEntity
  8
0
 62
1
100
AcDbLine
 10
34.172709
 20
-92.440376
 30
0.0
 11
34.172709
 21
-92.440376
 31
0.0
  0
SPLINE
  5
144
100
AcDbEntity
  8
0
 62
1
100
AcDbSpline
 70
8
 71
3
 72
8
 73
4
 74
0
 40
0
 40
0
 40
0
 40
0
 40
1
 40
1
 40
1
 40
1
 10
57.032607
 20
-92.440376
 30
0.0
 10
57.032607
 20
-92.894103
 30
0.0
 10
56.790546
 20
-93.313365
 30
0.0
 10
56.397607
 20
-93.540228
 30
0.0
  0
SPLINE
  5
145
100
AcDbEntity
  8
0
 62
1
100
AcDbSpline
 70
8
 71
3
 72
8
 73
4
 74
0
 40
0
 40
0
 40
0
 40
0
 40
1
 40
1
 40
1
 40
1
 10
56.397607
 20
-93.540228
 30
0.0
 10
56.004668
 20
-93.767092
 30
0.0
 10
55.520546
 20
-93.767092
 30
0.0
 10
55.127607
 20
-93.540228
 30
0.0
  0
SPLINE
  5
146
100
AcDbEntity
  8
0
 62
1
100
AcDbSpline
 70
8
 71
3
 72
8
 73
4
 74
0
 40
0
 40
0
 40
0
 40
0
 40
1
 40
1
 40
1
 40
1
 10
55.127607
 20
-93.540228
 30
0.0
 10
54.734668
 20
-93.313365
 30
0.0
 10
54.492607
 20
-92.894103
 30
0.0
 10
54.492607
 20
-92.440376
 30
0.0
  0
SPLINE
  5
147
100
AcDbEntity
  8
0
 62
1
100
AcDbSpline
 70
8
 71
3
 72
8
 73
4
 74
0
 40
0
 40
0
 40
0
 40
0
 40
1
 40
1
 40
1
 40
1
 10
54.492607
 20
-92.440376
 30
0.0
 10
54.492607
 20
-91.738974
 30
0.0
 10
55.061205
 20
-91.170376
 30
0.0
 10
55.762607
 20
-91.170376
 30
0.0
  0
SPLINE
  5
148
100
AcDbEntity
  8
0
 62
1
100
AcDbSpline
 70
8
 71
3
 72
8
 73
4
 74
0
 40
0
 40
0
 40
0
 40
0
 40
1
 40
1
 40
1
 40
1
 10
55.762607
 20
-91.170376
 30
0.0
 10
56.464009
 20
-91.170376
 30
0.0
 10
57.032607
 20
-91.738974
 30
0.0
 10
57.032607
 20
-92.440376
 30
0.0
  0
LINE
  5
149
100
AcDbEntity
  8
0
 62
1
100
AcDbLine
 10
57.032607
 20
-92.440376
 30
0.0
 11
57.032607
 21
-92.440376
 31
0.0
  0
SPLINE
  5
14a
100
AcDbEntity
  8
0
 62
1
100
AcDbSpline
 70
8
 71
3
 72
8
 73
4
 74
0
 40
0
 40
0
 40
0
 40
0
 40
1
 40
1
 40
1
 40
1
 10
55.762607
 20
-94.980376
 30
0.0
 10
56.436257
 20
-94.980376
 30
0.0
 10
57.082316
 20
-94.712769
 30
0.0
 10
57.558658
 20
-94.236427
 30
0.0
  0
SPLINE
  5
14b
100
AcDbEntity
  8
0
 62
1
100
AcDbSpline
 70
8
 71
3
 72
8
 73
4
 74
0
 40
0
 40
0
 40
0
 40
0
 40
1
 40
1
 40
1
 40
1
 10
57.558658
 20
-94.236427
 30
0.0
 10
58.035001
 20
-93.760085
 30
0.0
 10
58.302607
 20
-93.114026
 30
0.0
 10
58.302607
 20
-92.440376
 30
0.0
  0
SPLINE
  5
14c
100
AcDbEntity
  8
0
 62
1
100
AcDbSpline
 70
8
 71
3
 72
8
 73
4
 74
0
 40
0
 40
0
 40
0
 40
0
 40
1
 40
1
 40
1
 40
1
 10
30.362717
 20
-92.440376
 30
0.0
 10
30.362717
 20
-93.843176
 30
0.0
 10
31.499909
 20
-94.980372
 30
0.0
 10
32.902709
 20
-94.980376
 30
0.0
  0
LINE
  5
14d
100
AcDbEntity
  8
0
 62
1
100
AcDbLine
 10
30.360576
 20
-8.620379
 30
0.0
 11
30.360576
 21
-7.350379
 31
0.0
  0
LINE
  5
14e
100
AcDbEntity
  8
0
 62
1
100
AcDbLine
 10
58.300575
 20
-8.620379
 30
0.0
 11
58.300575
 21
-7.350379
 31
0.0
  0
LINE
  5
14f
100
AcDbEntity
  8
0
 62
1
100
AcDbLine
 10
32.900576
 20
-94.980376
 30
0.0
 11
55.760575
 21
-94.980376
 31
0.0
  0
LINE
  5
150
100
AcDbEntity
  8
0
 62
1
100
AcDbLine
 10
89.183436
 20
-79.740376
 30
0.0
 11
89.183436
 21
-92.440376
 31
0.0
  0
LINE
  5
151
100
AcDbEntity
  8
0
 62
1
100
AcDbLine
 10
89.183436
 20
-47.990377
 30
0.0
 11
84.738436
 21
-47.990377
 31
0.0
  0
LINE
  5
152
100
AcDbEntity
  8
0
 62
1
100
AcDbLine
 10
89.183436
 20
-8.620378
 30
0.0
 11
89.183436
 21
-47.990377
 31
0.0
  0
LINE
  5
153
100
AcDbEntity
  8
0
 62
1
100
AcDbLine
 10
61.243437
 20
-47.990377
 30
0.0
 11
61.243437
 21
-8.620378
 31
0.0
  0
LINE
  5
154
100
AcDbEntity
  8
0
 62
1
100
AcDbLine
 10
61.243437
 20
-92.440376
 30
0.0
 11
61.243437
 21
-69.580377
 31
0.0
  0
LINE
  5
155
100
AcDbEntity
  8
0
 62
1
100
AcDbLine
 10
84.738436
 20
-79.740376
 30
0.0
 11
89.183436
 21
-79.740376
 31
0.0
  0
LINE
  5
156
100
AcDbEntity
  8
0
 62
1
100
AcDbLine
 10
84.738436
 20
-47.990377
 30
0.0
 11
84.738436
 21
-79.740376
 31
0.0
  0
LINE
  5
157
100
AcDbEntity
  8
0
 62
1
100
AcDbLine
 10
65.688437
 20
-69.580377
 30
0.0
 11
61.243437
 21
-69.580377
 31
0.0
  0
LINE
  5
158
100
AcDbEntity
  8
0
 62
1
100
AcDbLine
 10
65.688437
 20
-47.990377
 30
0.0
 11
65.688437
 21
-69.580377
 31
0.0
  0
LINE
  5
159
100
AcDbEntity
  8
0
 62
1
100
AcDbLine
 10
61.243437
 20
-47.990377
 30
0.0
 11
65.688437
 21
-47.990377
 31
0.0
  0
SPLINE
  5
15a
100
AcDbEntity
  8
0
 62
1
100
AcDbSpline
 70
8
 71
3
 72
8
 73
4
 74
0
 40
0
 40
0
 40
0
 40
0
 40
1
 40
1
 40
1
 40
1
 10
89.185468
 20
-4.810480
 30
0.0
 10
89.185468
 20
-4.136830
 30
0.0
 10
88.917861
 20
-3.490771
 30
0.0
 10
88.441519
 20
-3.014429
 30
0.0
  0
SPLINE
  5
15b
100
AcDbEntity
  8
0
 62
1
100
AcDbSpline
 70
8
 71
3
 72
8
 73
4
 74
0
 40
0
 40
0
 40
0
 40
0
 40
1
 40
1
 40
1
 40
1
 10
88.441519
 20
-3.014429
 30
0.0
 10
87.965177
 20
-2.538087
 30
0.0
 10
87.319118
 20
-2.270480
 30
0.0
 10
86.645468
 20
-2.270480
 30
0.0
  0
SPLINE
  5
15c
100
AcDbEntity
  8
0
 62
1
100
AcDbSpline
 70
8
 71
3
 72
8
 73
4
 74
0
 40
0
 40
0
 40
0
 40
0
 40
1
 40
1
 40
1
 40
1
 10
63.785570
 20
-2.270480
 30
0.0
 10
62.382770
 20
-2.270484
 30
0.0
 10
61.245578
 20
-3.407680
 30
0.0
 10
61.245578
 20
-4.810480
 30
0.0
  0
LINE
  5
15d
100
AcDbEntity
  8
0
 62
1
100
AcDbLine
 10
61.243437
 20
-7.350379
 30
0.0
 11
61.243437
 21
-4.810379
 31
0.0
  0
LINE
  5
15e
100
AcDbEntity
  8
0
 62
1
100
AcDbLine
 10
89.183436
 20
-7.350379
 30
0.0
 11
89.183436
 21
-4.810379
 31
0.0
  0
LINE
  5
15f
100
AcDbEntity
  8
0
 62
1
100
AcDbLine
 10
63.783437
 20
-2.270379
 30
0.0
 11
86.643436
 21
-2.270379
 31
0.0
  0
SPLINE
  5
160
100
AcDbEntity
  8
0
 62
1
100
AcDbSpline
 70
8
 71
3
 72
8
 73
4
 74
0
 40
0
 40
0
 40
0
 40
0
 40
1
 40
1
 40
1
 40
1
 10
87.915468
 20
-4.810480
 30
0.0
 10
87.915468
 20
-5.264207
 30
0.0
 10
87.673407
 20
-5.683469
 30
0.0
 10
87.280468
 20
-5.910332
 30
0.0
  0
SPLINE
  5
161
100
AcDbEntity
  8
0
 62
1
100
AcDbSpline
 70
8
 71
3
 72
8
 73
4
 74
0
 40
0
 40
0
 40
0
 40
0
 40
1
 40
1
 40
1
 40
1
 10
87.280468
 20
-5.910332
 30
0.0
 10
86.887529
 20
-6.137196
 30
0.0
 10
86.403407
 20
-6.137196
 30
0.0
 10
86.010468
 20
-5.910332
 30
0.0
  0
SPLINE
  5
162
100
AcDbEntity
  8
0
 62
1
100
AcDbSpline
 70
8
 71
3
 72
8
 73
4
 74
0
 40
0
 40
0
 40
0
 40
0
 40
1
 40
1
 40
1
 40
1
 10
86.010468
 20
-5.910332
 30
0.0
 10
85.617529
 20
-5.683469
 30
0.0
 10
85.375468
 20
-5.264207
 30
0.0
 10
85.375468
 20
-4.810480
 30
0.0
  0
SPLINE
  5
163
100
AcDbEntity
  8
0
 62
1
100
AcDbSpline
 70
8
 71
3
 72
8
 73
4
 74
0
 40
0
 40
0
 40
0
 40
0
 40
1
 40
1
 40
1
 40
1
 10
85.375468
 20
-4.810480
 30
0.0
 10
85.375468
 20
-4.109079
 30
0.0
 10
85.944066
 20
-3.540480
 30
0.0
 10
86.645468
 20
-3.540480
 30
0.0
  0
SPLINE
  5
164
100
AcDbEntity
  8
0
 62
1
100
AcDbSpline
 70
8
 71
3
 72
8
 73
4
 74
0
 40
0
 40
0
 40
0
 40
0
 40
1
 40
1
 40
1
 40
1
 10
86.645468
 20
-3.540480
 30
0.0
 10
87.346869
 20
-3.540480
 30
0.0
 10
87.915468
 20
-4.109079
 30
0.0
 10
87.915468
 20
-4.810480
 30
0.0
  0
LINE
  5
165
100
AcDbEntity
  8
0
 62
1
100
AcDbLine
 10
87.915468
 20
-4.810480
 30
0.0
 11
87.915468
 21
-4.810480
 31
0.0
  0
SPLINE
  5
166
100
AcDbEntity
  8
0
 62
1
100
AcDbSpline
 70
8
 71
3
 72
8
 73
4
 74
0
 40
0
 40
0
 40
0
 40
0
 40
1
 40
1
 40
1
 40
1
 10
65.055570
 20
-4.810480
 30
0.0
 10
65.055570
 20
-5.511882
 30
0.0
 10
64.486972
 20
-6.080480
 30
0.0
 10
63.785570
 20
-6.080480
 30
0.0
  0
SPLINE
  5
167
100
AcDbEntity
  8
0
 62
1
100
AcDbSpline
 70
8
 71
3
 72
8
 73
4
 74
0
 40
0
 40
0
 40
0
 40
0
 40
1
 40
1
 40
1
 40
1
 10
63.785570
 20
-6.080480
 30
0.0
 10
63.084169
 20
-6.080480
 30
0.0
 10
62.515570
 20
-5.511882
 30
0.0
 10
62.515570
 20
-4.810480
 30
0.0
  0
SPLINE
  5
168
100
AcDbEntity
  8
0
 62
1
100
AcDbSpline
 70
8
 71
3
 72
8
 73
4
 74
0
 40
0
 40
0
 40
0
 40
0
 40
1
 40
1
 40
1
 40
1
 10
62.515570
 20
-4.810480
 30
0.0
 10
62.515570
 20
-4.356753
 30
0.0
 10
62.757631
 20
-3.937492
 30
0.0
 10
63.150570
 20
-3.710628
 30
0.0
  0
SPLINE
  5
169
100
AcDbEntity
  8
0
 62
1
100
AcDbSpline
 70
8
 71
3
 72
8
 73
4
 74
0
 40
0
 40
0
 40
0
 40
0
 40
1
 40
1
 40
1
 40
1
 10
63.150570
 20
-3.710628
 30
0.0
 10
63.543510
 20
-3.483764
 30
0.0
 10
64.027631
 20
-3.483764
 30
0.0
 10
64.420570
 20
-3.710628
 30
0.0
  0
SPLINE
  5
16a
100
AcDbEntity
  8
0
 62
1
100
AcDbSpline
 70
8
 71
3
 72
8
 73
4
 74
0
 40
0
 40
0
 40
0
 40
0
 40
1
 40
1
 40
1
 40
1
 10
64.420570
 20
-3.710628
 30
0.0
 10
64.813510
 20
-3.937492
 30
0.0
 10
65.055570
 20
-4.356753
 30
0.0
 10
65.055570
 20
-4.810480
 30
0.0
  0
LINE
  5
16b
100
AcDbEntity
  8
0
 62
1
100
AcDbLine
 10
65.055570
 20
-4.810480
 30
0.0
 11
65.055570
 21
-4.810480
 31
0.0
  0
SPLINE
  5
16c
100
AcDbEntity
  8
0
 62
1
100
AcDbSpline
 70
8
 71
3
 72
8
 73
4
 74
0
 40
0
 40
0
 40
0
 40
0
 40
1
 40
1
 40
1
 40
1
 10
65.055570
 20
-92.440376
 30
0.0
 10
65.055570
 20
-93.141777
 30
0.0
 10
64.486972
 20
-93.710376
 30
0.0
 10
63.785570
 20
-93.710376
 30
0.0
  0
SPLINE
  5
16d
100
AcDbEntity
  8
0
 62
1
100
AcDbSpline
 70
8
 71
3
 72
8
 73
4
 74
0
 40
0
 40
0
 40
0
 40
0
 40
1
 40
1
 40
1
 40
1
 10
63.785570
 20
-93.710376
 30
0.0
 10
63.084169
 20
-93.710376
 30
0.0
 10
62.515570
 20
-93.141777
 30
0.0
 10
62.515570
 20
-92.440376
 30
0.0
  0
SPLINE
  5
16e
100
AcDbEntity
  8
0
 62
1
100
AcDbSpline
 70
8
 71
3
 72
8
 73
4
 74
0
 40
0
 40
0
 40
0
 40
0
 40
1
 40
1
 40
1
 40
1
 10
62.515570
 20
-92.440376
 30
0.0
 10
62.515570
 20
-91.986649
 30
0.0
 10
62.757631
 20
-91.567387
 30
0.0
 10
63.150570
 20
-91.340524
 30
0.0
  0
SPLINE
  5
16f
100
AcDbEntity
  8
0
 62
1
100
AcDbSpline
 70
8
 71
3
 72
8
 73
4
 74
0
 40
0
 40
0
 40
0
 40
0
 40
1
 40
1
 40
1
 40
1
 10
63.150570
 20
-91.340524
 30
0.0
 10
63.543510
 20
-91.113660
 30
0.0
 10
64.027631
 20
-91.113660
 30
0.0
 10
64.420570
 20
-91.340524
 30
0.0
  0
SPLINE
  5
170
100
AcDbEntity
  8
0
 62
1
100
AcDbSpline
 70
8
 71
3
 72
8
 73
4
 74
0
 40
0
 40
0
 40
0
 40
0
 40
1
 40
1
 40
1
 40
1
 10
64.420570
 20
-91.340524
 30
0.0
 10
64.813510
 20
-91.567387
 30
0.0
 10
65.055570
 20
-91.986649
 30
0.0
 10
65.055570
 20
-92.440376
 30
0.0
  0
LINE
  5
171
100
AcDbEntity
  8
0
 62
1
100
AcDbLine
 10
65.055570
 20
-92.440376
 30
0.0
 11
65.055570
 21
-92.440376
 31
0.0
  0
SPLINE
  5
172
100
AcDbEntity
  8
0
 62
1
100
AcDbSpline
 70
8
 71
3
 72
8
 73
4
 74
0
 40
0
 40
0
 40
0
 40
0
 40
1
 40
1
 40
1
 40
1
 10
87.915468
 20
-92.440376
 30
0.0
 10
87.915468
 20
-92.894103
 30
0.0
 10
87.673407
 20
-93.313364
 30
0.0
 10
87.280468
 20
-93.540228
 30
0.0
  0
SPLINE
  5
173
100
AcDbEntity
  8
0
 62
1
100
AcDbSpline
 70
8
 71
3
 72
8
 73
4
 74
0
 40
0
 40
0
 40
0
 40
0
 40
1
 40
1
 40
1
 40
1
 10
87.280468
 20
-93.540228
 30
0.0
 10
86.887529
 20
-93.767092
 30
0.0
 10
86.403407
 20
-93.767092
 30
0.0
 10
86.010468
 20
-93.540228
 30
0.0
  0
SPLINE
  5
174
100
AcDbEntity
  8
0
 62
1
100
AcDbSpline
 70
8
 71
3
 72
8
 73
4
 74
0
 40
0
 40
0
 40
0
 40
0
 40
1
 40
1
 40
1
 40
1
 10
86.010468
 20
-93.540228
 30
0.0
 10
85.617529
 20
-93.313364
 30
0.0
 10
85.375468
 20
-92.894103
 30
0.0
 10
85.375468
 20
-92.440376
 30
0.0
  0
SPLINE
  5
175
100
AcDbEntity
  8
0
 62
1
100
AcDbSpline
 70
8
 71
3
 72
8
 73
4
 74
0
 40
0
 40
0
 40
0
 40
0
 40
1
 40
1
 40
1
 40
1
 10
85.375468
 20
-92.440376
 30
0.0
 10
85.375468
 20
-91.738974
 30
0.0
 10
85.944066
 20
-91.170376
 30
0.0
 10
86.645468
 20
-91.170376
 30
0.0
  0
SPLINE
  5
176
100
AcDbEntity
  8
0
 62
1
100
AcDbSpline
 70
8
 71
3
 72
8
 73
4
 74
0
 40
0
 40
0
 40
0
 40
0
 40
1
 40
1
 40
1
 40
1
 10
86.645468
 20
-91.170376
 30
0.0
 10
87.346869
 20
-91.170376
 30
0.0
 10
87.915468
 20
-91.738974
 30
0.0
 10
87.915468
 20
-92.440376
 30
0.0
  0
LINE
  5
177
100
AcDbEntity
  8
0
 62
1
100
AcDbLine
 10
87.915468
 20
-92.440376
 30
0.0
 11
87.915468
 21
-92.440376
 31
0.0
  0
SPLINE
  5
178
100
AcDbEntity
  8
0
 62
1
100
AcDbSpline
 70
8
 71
3
 72
8
 73
4
 74
0
 40
0
 40
0
 40
0
 40
0
 40
1
 40
1
 40
1
 40
1
 10
86.645468
 20
-94.980376
 30
0.0
 10
87.319118
 20
-94.980376
 30
0.0
 10
87.965177
 20
-94.712769
 30
0.0
 10
88.441519
 20
-94.236427
 30
0.0
  0
SPLINE
  5
179
100
AcDbEntity
  8
0
 62
1
100
AcDbSpline
 70
8
 71
3
 72
8
 73
4
 74
0
 40
0
 40
0
 40
0
 40
0
 40
1
 40
1
 40
1
 40
1
 10
88.441519
 20
-94.236427
 30
0.0
 10
88.917861
 20
-93.760085
 30
0.0
 10
89.185468
 20
-93.114026
 30
0.0
 10
89.185468
 20
-92.440376
 30
0.0
  0
SPLINE
  5
17a
100
AcDbEntity
  8
0
 62
1
100
AcDbSpline
 70
8
 71
3
 72
8
 73
4
 74
0
 40
0
 40
0
 40
0
 40
0
 40
1
 40
1
 40
1
 40
1
 10
61.245578
 20
-92.440376
 30
0.0
 10
61.245578
 20
-93.843176
 30
0.0
 10
62.382770
 20
-94.980372
 30
0.0
 10
63.785570
 20
-94.980376
 30
0.0
  0
LINE
  5
17b
100
AcDbEntity
  8
0
 62
1
100
AcDbLine
 10
61.243437
 20
-8.620378
 30
0.0
 11
61.243437
 21
-7.350379
 31
0.0
  0
LINE
  5
17c
100
AcDbEntity
  8
0
 62
1
100
AcDbLine
 10
89.183436
 20
-8.620378
 30
0.0
 11
89.183436
 21
-7.350379
 31
0.0
  0
LINE
  5
17d
100
AcDbEntity
  8
0
 62
1
100
AcDbLine
 10
63.783437
 20
-94.980376
 30
0.0
 11
86.643436
 21
-94.980376
 31
0.0
  0
ENDSEC
  0
SECTION
  2
OBJECTS
  0
DICTIONARY
  5
C
330
0
100
AcDbDictionary
  3
ACAD_GROUP
350
D
  3
ACAD_MLINESTYLE
350
17
  0
DICTIONARY
  5
D
330
C
100
AcDbDictionary
  0
DICTIONARY
  5
1A
330
C
100
AcDbDictionary
  0
DICTIONARY
  5
17
330
C
100
AcDbDictionary
  3
STANDARD
350
18
  0
DICTIONARY
  5
19
330
C
100
AcDbDictionary
  0
ENDSEC
  0
EOF
