%TF.GenerationSoftware,KiCad,Pcbnew,(5.1.6)-1*%
%TF.CreationDate,2020-08-18T23:06:57+02:00*%
%TF.ProjectId,ESP32-S2-WROOM,45535033-322d-4533-922d-57524f4f4d2e,1.2*%
%TF.SameCoordinates,Original*%
%TF.FileFunction,Paste,Top*%
%TF.FilePolarity,Positive*%
%FSLAX46Y46*%
G04 Gerber Fmt 4.6, Leading zero omitted, Abs format (unit mm)*
G04 Created by KiCad (PCBNEW (5.1.6)-1) date 2020-08-18 23:06:57*
%MOMM*%
%LPD*%
G01*
G04 APERTURE LIST*
%ADD10R,1.250000X1.000000*%
%ADD11R,0.400000X2.000000*%
%ADD12R,1.300000X0.700000*%
%ADD13R,1.700000X0.900000*%
%ADD14R,0.800000X1.000000*%
%ADD15R,1.500000X0.700000*%
%ADD16R,1.500000X2.000000*%
%ADD17R,3.800000X2.000000*%
%ADD18R,1.000000X1.250000*%
%ADD19R,1.000000X1.600000*%
%ADD20R,0.900000X0.800000*%
%ADD21R,1.500000X1.300000*%
%ADD22R,1.560000X0.650000*%
%ADD23R,0.350000X2.000000*%
G04 APERTURE END LIST*
D10*
%TO.C,C1*%
X102616000Y-121428000D03*
X102616000Y-123428000D03*
%TD*%
%TO.C,C2*%
X90424000Y-121428000D03*
X90424000Y-123428000D03*
%TD*%
%TO.C,C3*%
X85344000Y-76184000D03*
X85344000Y-74184000D03*
%TD*%
%TO.C,C4*%
X85344000Y-79740000D03*
X85344000Y-77740000D03*
%TD*%
%TO.C,C5*%
X87884000Y-121428000D03*
X87884000Y-123428000D03*
%TD*%
%TO.C,C6*%
X108902000Y-80311500D03*
X108902000Y-78311500D03*
%TD*%
D11*
%TO.C,J1*%
X95229680Y-123802140D03*
X95862140Y-123802140D03*
X96507300Y-123794520D03*
X97165160Y-123807220D03*
X97815400Y-123807220D03*
%TD*%
D12*
%TO.C,R1*%
X102616000Y-117922000D03*
X102616000Y-119822000D03*
%TD*%
%TO.C,R2*%
X92456000Y-117922000D03*
X92456000Y-119822000D03*
%TD*%
%TO.C,R3*%
X95250000Y-113350000D03*
X95250000Y-115250000D03*
%TD*%
%TO.C,R4*%
X92456000Y-113350000D03*
X92456000Y-115250000D03*
%TD*%
D13*
%TO.C,SW1*%
X87630000Y-115140000D03*
X87630000Y-118540000D03*
%TD*%
D14*
%TO.C,SW2*%
X86695500Y-105634000D03*
X86695500Y-112934000D03*
X84485500Y-112934000D03*
X84485500Y-105634000D03*
D15*
X87345500Y-111534000D03*
X87345500Y-110034000D03*
X87345500Y-107034000D03*
%TD*%
D16*
%TO.C,U1*%
X99300000Y-114910000D03*
X103900000Y-114910000D03*
X101600000Y-114910000D03*
D17*
X101600000Y-108610000D03*
%TD*%
%TO.C,U2*%
G36*
G01*
X86970000Y-78838900D02*
X86970000Y-78081100D01*
G75*
G02*
X87041100Y-78010000I71100J0D01*
G01*
X88398900Y-78010000D01*
G75*
G02*
X88470000Y-78081100I0J-71100D01*
G01*
X88470000Y-78838900D01*
G75*
G02*
X88398900Y-78910000I-71100J0D01*
G01*
X87041100Y-78910000D01*
G75*
G02*
X86970000Y-78838900I0J71100D01*
G01*
G37*
G36*
G01*
X86970000Y-80338900D02*
X86970000Y-79581100D01*
G75*
G02*
X87041100Y-79510000I71100J0D01*
G01*
X88398900Y-79510000D01*
G75*
G02*
X88470000Y-79581100I0J-71100D01*
G01*
X88470000Y-80338900D01*
G75*
G02*
X88398900Y-80410000I-71100J0D01*
G01*
X87041100Y-80410000D01*
G75*
G02*
X86970000Y-80338900I0J71100D01*
G01*
G37*
G36*
G01*
X86970000Y-81838900D02*
X86970000Y-81081100D01*
G75*
G02*
X87041100Y-81010000I71100J0D01*
G01*
X88398900Y-81010000D01*
G75*
G02*
X88470000Y-81081100I0J-71100D01*
G01*
X88470000Y-81838900D01*
G75*
G02*
X88398900Y-81910000I-71100J0D01*
G01*
X87041100Y-81910000D01*
G75*
G02*
X86970000Y-81838900I0J71100D01*
G01*
G37*
G36*
G01*
X86970000Y-83338900D02*
X86970000Y-82581100D01*
G75*
G02*
X87041100Y-82510000I71100J0D01*
G01*
X88398900Y-82510000D01*
G75*
G02*
X88470000Y-82581100I0J-71100D01*
G01*
X88470000Y-83338900D01*
G75*
G02*
X88398900Y-83410000I-71100J0D01*
G01*
X87041100Y-83410000D01*
G75*
G02*
X86970000Y-83338900I0J71100D01*
G01*
G37*
G36*
G01*
X86970000Y-84838900D02*
X86970000Y-84081100D01*
G75*
G02*
X87041100Y-84010000I71100J0D01*
G01*
X88398900Y-84010000D01*
G75*
G02*
X88470000Y-84081100I0J-71100D01*
G01*
X88470000Y-84838900D01*
G75*
G02*
X88398900Y-84910000I-71100J0D01*
G01*
X87041100Y-84910000D01*
G75*
G02*
X86970000Y-84838900I0J71100D01*
G01*
G37*
G36*
G01*
X86970000Y-86338900D02*
X86970000Y-85581100D01*
G75*
G02*
X87041100Y-85510000I71100J0D01*
G01*
X88398900Y-85510000D01*
G75*
G02*
X88470000Y-85581100I0J-71100D01*
G01*
X88470000Y-86338900D01*
G75*
G02*
X88398900Y-86410000I-71100J0D01*
G01*
X87041100Y-86410000D01*
G75*
G02*
X86970000Y-86338900I0J71100D01*
G01*
G37*
G36*
G01*
X86970000Y-87838900D02*
X86970000Y-87081100D01*
G75*
G02*
X87041100Y-87010000I71100J0D01*
G01*
X88398900Y-87010000D01*
G75*
G02*
X88470000Y-87081100I0J-71100D01*
G01*
X88470000Y-87838900D01*
G75*
G02*
X88398900Y-87910000I-71100J0D01*
G01*
X87041100Y-87910000D01*
G75*
G02*
X86970000Y-87838900I0J71100D01*
G01*
G37*
G36*
G01*
X86970000Y-89338900D02*
X86970000Y-88581100D01*
G75*
G02*
X87041100Y-88510000I71100J0D01*
G01*
X88398900Y-88510000D01*
G75*
G02*
X88470000Y-88581100I0J-71100D01*
G01*
X88470000Y-89338900D01*
G75*
G02*
X88398900Y-89410000I-71100J0D01*
G01*
X87041100Y-89410000D01*
G75*
G02*
X86970000Y-89338900I0J71100D01*
G01*
G37*
G36*
G01*
X86970000Y-90838900D02*
X86970000Y-90081100D01*
G75*
G02*
X87041100Y-90010000I71100J0D01*
G01*
X88398900Y-90010000D01*
G75*
G02*
X88470000Y-90081100I0J-71100D01*
G01*
X88470000Y-90838900D01*
G75*
G02*
X88398900Y-90910000I-71100J0D01*
G01*
X87041100Y-90910000D01*
G75*
G02*
X86970000Y-90838900I0J71100D01*
G01*
G37*
G36*
G01*
X86970000Y-92338900D02*
X86970000Y-91581100D01*
G75*
G02*
X87041100Y-91510000I71100J0D01*
G01*
X88398900Y-91510000D01*
G75*
G02*
X88470000Y-91581100I0J-71100D01*
G01*
X88470000Y-92338900D01*
G75*
G02*
X88398900Y-92410000I-71100J0D01*
G01*
X87041100Y-92410000D01*
G75*
G02*
X86970000Y-92338900I0J71100D01*
G01*
G37*
G36*
G01*
X86970000Y-93838900D02*
X86970000Y-93081100D01*
G75*
G02*
X87041100Y-93010000I71100J0D01*
G01*
X88398900Y-93010000D01*
G75*
G02*
X88470000Y-93081100I0J-71100D01*
G01*
X88470000Y-93838900D01*
G75*
G02*
X88398900Y-93910000I-71100J0D01*
G01*
X87041100Y-93910000D01*
G75*
G02*
X86970000Y-93838900I0J71100D01*
G01*
G37*
G36*
G01*
X86970000Y-95338900D02*
X86970000Y-94581100D01*
G75*
G02*
X87041100Y-94510000I71100J0D01*
G01*
X88398900Y-94510000D01*
G75*
G02*
X88470000Y-94581100I0J-71100D01*
G01*
X88470000Y-95338900D01*
G75*
G02*
X88398900Y-95410000I-71100J0D01*
G01*
X87041100Y-95410000D01*
G75*
G02*
X86970000Y-95338900I0J71100D01*
G01*
G37*
G36*
G01*
X86970000Y-96838900D02*
X86970000Y-96081100D01*
G75*
G02*
X87041100Y-96010000I71100J0D01*
G01*
X88398900Y-96010000D01*
G75*
G02*
X88470000Y-96081100I0J-71100D01*
G01*
X88470000Y-96838900D01*
G75*
G02*
X88398900Y-96910000I-71100J0D01*
G01*
X87041100Y-96910000D01*
G75*
G02*
X86970000Y-96838900I0J71100D01*
G01*
G37*
G36*
G01*
X86970000Y-98338900D02*
X86970000Y-97581100D01*
G75*
G02*
X87041100Y-97510000I71100J0D01*
G01*
X88398900Y-97510000D01*
G75*
G02*
X88470000Y-97581100I0J-71100D01*
G01*
X88470000Y-98338900D01*
G75*
G02*
X88398900Y-98410000I-71100J0D01*
G01*
X87041100Y-98410000D01*
G75*
G02*
X86970000Y-98338900I0J71100D01*
G01*
G37*
G36*
G01*
X86970000Y-99838900D02*
X86970000Y-99081100D01*
G75*
G02*
X87041100Y-99010000I71100J0D01*
G01*
X88398900Y-99010000D01*
G75*
G02*
X88470000Y-99081100I0J-71100D01*
G01*
X88470000Y-99838900D01*
G75*
G02*
X88398900Y-99910000I-71100J0D01*
G01*
X87041100Y-99910000D01*
G75*
G02*
X86970000Y-99838900I0J71100D01*
G01*
G37*
G36*
G01*
X86970000Y-101338900D02*
X86970000Y-100581100D01*
G75*
G02*
X87041100Y-100510000I71100J0D01*
G01*
X88398900Y-100510000D01*
G75*
G02*
X88470000Y-100581100I0J-71100D01*
G01*
X88470000Y-101338900D01*
G75*
G02*
X88398900Y-101410000I-71100J0D01*
G01*
X87041100Y-101410000D01*
G75*
G02*
X86970000Y-101338900I0J71100D01*
G01*
G37*
G36*
G01*
X90098900Y-102460000D02*
X89341100Y-102460000D01*
G75*
G02*
X89270000Y-102388900I0J71100D01*
G01*
X89270000Y-101031100D01*
G75*
G02*
X89341100Y-100960000I71100J0D01*
G01*
X90098900Y-100960000D01*
G75*
G02*
X90170000Y-101031100I0J-71100D01*
G01*
X90170000Y-102388900D01*
G75*
G02*
X90098900Y-102460000I-71100J0D01*
G01*
G37*
G36*
G01*
X91598900Y-102460000D02*
X90841100Y-102460000D01*
G75*
G02*
X90770000Y-102388900I0J71100D01*
G01*
X90770000Y-101031100D01*
G75*
G02*
X90841100Y-100960000I71100J0D01*
G01*
X91598900Y-100960000D01*
G75*
G02*
X91670000Y-101031100I0J-71100D01*
G01*
X91670000Y-102388900D01*
G75*
G02*
X91598900Y-102460000I-71100J0D01*
G01*
G37*
G36*
G01*
X93098900Y-102460000D02*
X92341100Y-102460000D01*
G75*
G02*
X92270000Y-102388900I0J71100D01*
G01*
X92270000Y-101031100D01*
G75*
G02*
X92341100Y-100960000I71100J0D01*
G01*
X93098900Y-100960000D01*
G75*
G02*
X93170000Y-101031100I0J-71100D01*
G01*
X93170000Y-102388900D01*
G75*
G02*
X93098900Y-102460000I-71100J0D01*
G01*
G37*
G36*
G01*
X94598900Y-102460000D02*
X93841100Y-102460000D01*
G75*
G02*
X93770000Y-102388900I0J71100D01*
G01*
X93770000Y-101031100D01*
G75*
G02*
X93841100Y-100960000I71100J0D01*
G01*
X94598900Y-100960000D01*
G75*
G02*
X94670000Y-101031100I0J-71100D01*
G01*
X94670000Y-102388900D01*
G75*
G02*
X94598900Y-102460000I-71100J0D01*
G01*
G37*
G36*
G01*
X96098900Y-102460000D02*
X95341100Y-102460000D01*
G75*
G02*
X95270000Y-102388900I0J71100D01*
G01*
X95270000Y-101031100D01*
G75*
G02*
X95341100Y-100960000I71100J0D01*
G01*
X96098900Y-100960000D01*
G75*
G02*
X96170000Y-101031100I0J-71100D01*
G01*
X96170000Y-102388900D01*
G75*
G02*
X96098900Y-102460000I-71100J0D01*
G01*
G37*
G36*
G01*
X97598900Y-102460000D02*
X96841100Y-102460000D01*
G75*
G02*
X96770000Y-102388900I0J71100D01*
G01*
X96770000Y-101031100D01*
G75*
G02*
X96841100Y-100960000I71100J0D01*
G01*
X97598900Y-100960000D01*
G75*
G02*
X97670000Y-101031100I0J-71100D01*
G01*
X97670000Y-102388900D01*
G75*
G02*
X97598900Y-102460000I-71100J0D01*
G01*
G37*
G36*
G01*
X99098900Y-102460000D02*
X98341100Y-102460000D01*
G75*
G02*
X98270000Y-102388900I0J71100D01*
G01*
X98270000Y-101031100D01*
G75*
G02*
X98341100Y-100960000I71100J0D01*
G01*
X99098900Y-100960000D01*
G75*
G02*
X99170000Y-101031100I0J-71100D01*
G01*
X99170000Y-102388900D01*
G75*
G02*
X99098900Y-102460000I-71100J0D01*
G01*
G37*
G36*
G01*
X100598900Y-102460000D02*
X99841100Y-102460000D01*
G75*
G02*
X99770000Y-102388900I0J71100D01*
G01*
X99770000Y-101031100D01*
G75*
G02*
X99841100Y-100960000I71100J0D01*
G01*
X100598900Y-100960000D01*
G75*
G02*
X100670000Y-101031100I0J-71100D01*
G01*
X100670000Y-102388900D01*
G75*
G02*
X100598900Y-102460000I-71100J0D01*
G01*
G37*
G36*
G01*
X102098900Y-102460000D02*
X101341100Y-102460000D01*
G75*
G02*
X101270000Y-102388900I0J71100D01*
G01*
X101270000Y-101031100D01*
G75*
G02*
X101341100Y-100960000I71100J0D01*
G01*
X102098900Y-100960000D01*
G75*
G02*
X102170000Y-101031100I0J-71100D01*
G01*
X102170000Y-102388900D01*
G75*
G02*
X102098900Y-102460000I-71100J0D01*
G01*
G37*
G36*
G01*
X103598900Y-102460000D02*
X102841100Y-102460000D01*
G75*
G02*
X102770000Y-102388900I0J71100D01*
G01*
X102770000Y-101031100D01*
G75*
G02*
X102841100Y-100960000I71100J0D01*
G01*
X103598900Y-100960000D01*
G75*
G02*
X103670000Y-101031100I0J-71100D01*
G01*
X103670000Y-102388900D01*
G75*
G02*
X103598900Y-102460000I-71100J0D01*
G01*
G37*
G36*
G01*
X105970000Y-100581100D02*
X105970000Y-101338900D01*
G75*
G02*
X105898900Y-101410000I-71100J0D01*
G01*
X104541100Y-101410000D01*
G75*
G02*
X104470000Y-101338900I0J71100D01*
G01*
X104470000Y-100581100D01*
G75*
G02*
X104541100Y-100510000I71100J0D01*
G01*
X105898900Y-100510000D01*
G75*
G02*
X105970000Y-100581100I0J-71100D01*
G01*
G37*
G36*
G01*
X105970000Y-99081100D02*
X105970000Y-99838900D01*
G75*
G02*
X105898900Y-99910000I-71100J0D01*
G01*
X104541100Y-99910000D01*
G75*
G02*
X104470000Y-99838900I0J71100D01*
G01*
X104470000Y-99081100D01*
G75*
G02*
X104541100Y-99010000I71100J0D01*
G01*
X105898900Y-99010000D01*
G75*
G02*
X105970000Y-99081100I0J-71100D01*
G01*
G37*
G36*
G01*
X105970000Y-97581100D02*
X105970000Y-98338900D01*
G75*
G02*
X105898900Y-98410000I-71100J0D01*
G01*
X104541100Y-98410000D01*
G75*
G02*
X104470000Y-98338900I0J71100D01*
G01*
X104470000Y-97581100D01*
G75*
G02*
X104541100Y-97510000I71100J0D01*
G01*
X105898900Y-97510000D01*
G75*
G02*
X105970000Y-97581100I0J-71100D01*
G01*
G37*
G36*
G01*
X105970000Y-96081100D02*
X105970000Y-96838900D01*
G75*
G02*
X105898900Y-96910000I-71100J0D01*
G01*
X104541100Y-96910000D01*
G75*
G02*
X104470000Y-96838900I0J71100D01*
G01*
X104470000Y-96081100D01*
G75*
G02*
X104541100Y-96010000I71100J0D01*
G01*
X105898900Y-96010000D01*
G75*
G02*
X105970000Y-96081100I0J-71100D01*
G01*
G37*
G36*
G01*
X105970000Y-94581100D02*
X105970000Y-95338900D01*
G75*
G02*
X105898900Y-95410000I-71100J0D01*
G01*
X104541100Y-95410000D01*
G75*
G02*
X104470000Y-95338900I0J71100D01*
G01*
X104470000Y-94581100D01*
G75*
G02*
X104541100Y-94510000I71100J0D01*
G01*
X105898900Y-94510000D01*
G75*
G02*
X105970000Y-94581100I0J-71100D01*
G01*
G37*
G36*
G01*
X105970000Y-93081100D02*
X105970000Y-93838900D01*
G75*
G02*
X105898900Y-93910000I-71100J0D01*
G01*
X104541100Y-93910000D01*
G75*
G02*
X104470000Y-93838900I0J71100D01*
G01*
X104470000Y-93081100D01*
G75*
G02*
X104541100Y-93010000I71100J0D01*
G01*
X105898900Y-93010000D01*
G75*
G02*
X105970000Y-93081100I0J-71100D01*
G01*
G37*
G36*
G01*
X105970000Y-91581100D02*
X105970000Y-92338900D01*
G75*
G02*
X105898900Y-92410000I-71100J0D01*
G01*
X104541100Y-92410000D01*
G75*
G02*
X104470000Y-92338900I0J71100D01*
G01*
X104470000Y-91581100D01*
G75*
G02*
X104541100Y-91510000I71100J0D01*
G01*
X105898900Y-91510000D01*
G75*
G02*
X105970000Y-91581100I0J-71100D01*
G01*
G37*
G36*
G01*
X105970000Y-90081100D02*
X105970000Y-90838900D01*
G75*
G02*
X105898900Y-90910000I-71100J0D01*
G01*
X104541100Y-90910000D01*
G75*
G02*
X104470000Y-90838900I0J71100D01*
G01*
X104470000Y-90081100D01*
G75*
G02*
X104541100Y-90010000I71100J0D01*
G01*
X105898900Y-90010000D01*
G75*
G02*
X105970000Y-90081100I0J-71100D01*
G01*
G37*
G36*
G01*
X105970000Y-88581100D02*
X105970000Y-89338900D01*
G75*
G02*
X105898900Y-89410000I-71100J0D01*
G01*
X104541100Y-89410000D01*
G75*
G02*
X104470000Y-89338900I0J71100D01*
G01*
X104470000Y-88581100D01*
G75*
G02*
X104541100Y-88510000I71100J0D01*
G01*
X105898900Y-88510000D01*
G75*
G02*
X105970000Y-88581100I0J-71100D01*
G01*
G37*
G36*
G01*
X105970000Y-87081100D02*
X105970000Y-87838900D01*
G75*
G02*
X105898900Y-87910000I-71100J0D01*
G01*
X104541100Y-87910000D01*
G75*
G02*
X104470000Y-87838900I0J71100D01*
G01*
X104470000Y-87081100D01*
G75*
G02*
X104541100Y-87010000I71100J0D01*
G01*
X105898900Y-87010000D01*
G75*
G02*
X105970000Y-87081100I0J-71100D01*
G01*
G37*
G36*
G01*
X105970000Y-85581100D02*
X105970000Y-86338900D01*
G75*
G02*
X105898900Y-86410000I-71100J0D01*
G01*
X104541100Y-86410000D01*
G75*
G02*
X104470000Y-86338900I0J71100D01*
G01*
X104470000Y-85581100D01*
G75*
G02*
X104541100Y-85510000I71100J0D01*
G01*
X105898900Y-85510000D01*
G75*
G02*
X105970000Y-85581100I0J-71100D01*
G01*
G37*
G36*
G01*
X105970000Y-84081100D02*
X105970000Y-84838900D01*
G75*
G02*
X105898900Y-84910000I-71100J0D01*
G01*
X104541100Y-84910000D01*
G75*
G02*
X104470000Y-84838900I0J71100D01*
G01*
X104470000Y-84081100D01*
G75*
G02*
X104541100Y-84010000I71100J0D01*
G01*
X105898900Y-84010000D01*
G75*
G02*
X105970000Y-84081100I0J-71100D01*
G01*
G37*
G36*
G01*
X105970000Y-82581100D02*
X105970000Y-83338900D01*
G75*
G02*
X105898900Y-83410000I-71100J0D01*
G01*
X104541100Y-83410000D01*
G75*
G02*
X104470000Y-83338900I0J71100D01*
G01*
X104470000Y-82581100D01*
G75*
G02*
X104541100Y-82510000I71100J0D01*
G01*
X105898900Y-82510000D01*
G75*
G02*
X105970000Y-82581100I0J-71100D01*
G01*
G37*
G36*
G01*
X105970000Y-81081100D02*
X105970000Y-81838900D01*
G75*
G02*
X105898900Y-81910000I-71100J0D01*
G01*
X104541100Y-81910000D01*
G75*
G02*
X104470000Y-81838900I0J71100D01*
G01*
X104470000Y-81081100D01*
G75*
G02*
X104541100Y-81010000I71100J0D01*
G01*
X105898900Y-81010000D01*
G75*
G02*
X105970000Y-81081100I0J-71100D01*
G01*
G37*
G36*
G01*
X105970000Y-79581100D02*
X105970000Y-80338900D01*
G75*
G02*
X105898900Y-80410000I-71100J0D01*
G01*
X104541100Y-80410000D01*
G75*
G02*
X104470000Y-80338900I0J71100D01*
G01*
X104470000Y-79581100D01*
G75*
G02*
X104541100Y-79510000I71100J0D01*
G01*
X105898900Y-79510000D01*
G75*
G02*
X105970000Y-79581100I0J-71100D01*
G01*
G37*
G36*
G01*
X105970000Y-78081100D02*
X105970000Y-78838900D01*
G75*
G02*
X105898900Y-78910000I-71100J0D01*
G01*
X104541100Y-78910000D01*
G75*
G02*
X104470000Y-78838900I0J71100D01*
G01*
X104470000Y-78081100D01*
G75*
G02*
X104541100Y-78010000I71100J0D01*
G01*
X105898900Y-78010000D01*
G75*
G02*
X105970000Y-78081100I0J-71100D01*
G01*
G37*
G36*
G01*
X94380000Y-84571900D02*
X94380000Y-85498100D01*
G75*
G02*
X94293100Y-85585000I-86900J0D01*
G01*
X93366900Y-85585000D01*
G75*
G02*
X93280000Y-85498100I0J86900D01*
G01*
X93280000Y-84571900D01*
G75*
G02*
X93366900Y-84485000I86900J0D01*
G01*
X94293100Y-84485000D01*
G75*
G02*
X94380000Y-84571900I0J-86900D01*
G01*
G37*
G36*
G01*
X95880000Y-84571900D02*
X95880000Y-85498100D01*
G75*
G02*
X95793100Y-85585000I-86900J0D01*
G01*
X94866900Y-85585000D01*
G75*
G02*
X94780000Y-85498100I0J86900D01*
G01*
X94780000Y-84571900D01*
G75*
G02*
X94866900Y-84485000I86900J0D01*
G01*
X95793100Y-84485000D01*
G75*
G02*
X95880000Y-84571900I0J-86900D01*
G01*
G37*
G36*
G01*
X97380000Y-84571900D02*
X97380000Y-85498100D01*
G75*
G02*
X97293100Y-85585000I-86900J0D01*
G01*
X96366900Y-85585000D01*
G75*
G02*
X96280000Y-85498100I0J86900D01*
G01*
X96280000Y-84571900D01*
G75*
G02*
X96366900Y-84485000I86900J0D01*
G01*
X97293100Y-84485000D01*
G75*
G02*
X97380000Y-84571900I0J-86900D01*
G01*
G37*
G36*
G01*
X94380000Y-86071900D02*
X94380000Y-86998100D01*
G75*
G02*
X94293100Y-87085000I-86900J0D01*
G01*
X93366900Y-87085000D01*
G75*
G02*
X93280000Y-86998100I0J86900D01*
G01*
X93280000Y-86071900D01*
G75*
G02*
X93366900Y-85985000I86900J0D01*
G01*
X94293100Y-85985000D01*
G75*
G02*
X94380000Y-86071900I0J-86900D01*
G01*
G37*
G36*
G01*
X95880000Y-86071900D02*
X95880000Y-86998100D01*
G75*
G02*
X95793100Y-87085000I-86900J0D01*
G01*
X94866900Y-87085000D01*
G75*
G02*
X94780000Y-86998100I0J86900D01*
G01*
X94780000Y-86071900D01*
G75*
G02*
X94866900Y-85985000I86900J0D01*
G01*
X95793100Y-85985000D01*
G75*
G02*
X95880000Y-86071900I0J-86900D01*
G01*
G37*
G36*
G01*
X97380000Y-86071900D02*
X97380000Y-86998100D01*
G75*
G02*
X97293100Y-87085000I-86900J0D01*
G01*
X96366900Y-87085000D01*
G75*
G02*
X96280000Y-86998100I0J86900D01*
G01*
X96280000Y-86071900D01*
G75*
G02*
X96366900Y-85985000I86900J0D01*
G01*
X97293100Y-85985000D01*
G75*
G02*
X97380000Y-86071900I0J-86900D01*
G01*
G37*
G36*
G01*
X94380000Y-87571900D02*
X94380000Y-88498100D01*
G75*
G02*
X94293100Y-88585000I-86900J0D01*
G01*
X93366900Y-88585000D01*
G75*
G02*
X93280000Y-88498100I0J86900D01*
G01*
X93280000Y-87571900D01*
G75*
G02*
X93366900Y-87485000I86900J0D01*
G01*
X94293100Y-87485000D01*
G75*
G02*
X94380000Y-87571900I0J-86900D01*
G01*
G37*
G36*
G01*
X95880000Y-87571900D02*
X95880000Y-88498100D01*
G75*
G02*
X95793100Y-88585000I-86900J0D01*
G01*
X94866900Y-88585000D01*
G75*
G02*
X94780000Y-88498100I0J86900D01*
G01*
X94780000Y-87571900D01*
G75*
G02*
X94866900Y-87485000I86900J0D01*
G01*
X95793100Y-87485000D01*
G75*
G02*
X95880000Y-87571900I0J-86900D01*
G01*
G37*
G36*
G01*
X97380000Y-87571900D02*
X97380000Y-88498100D01*
G75*
G02*
X97293100Y-88585000I-86900J0D01*
G01*
X96366900Y-88585000D01*
G75*
G02*
X96280000Y-88498100I0J86900D01*
G01*
X96280000Y-87571900D01*
G75*
G02*
X96366900Y-87485000I86900J0D01*
G01*
X97293100Y-87485000D01*
G75*
G02*
X97380000Y-87571900I0J-86900D01*
G01*
G37*
%TD*%
D18*
%TO.C,C7*%
X100568000Y-120396000D03*
X98568000Y-120396000D03*
%TD*%
%TO.C,C8*%
X96504000Y-118872000D03*
X94504000Y-118872000D03*
%TD*%
D19*
%TO.C,D1*%
X92380000Y-110450000D03*
X95580000Y-110450000D03*
X92380000Y-105450000D03*
X95580000Y-105450000D03*
%TD*%
D12*
%TO.C,R5*%
X89662000Y-104968000D03*
X89662000Y-106868000D03*
%TD*%
D18*
%TO.C,C9*%
X103330000Y-125666000D03*
X105330000Y-125666000D03*
%TD*%
D20*
%TO.C,D2*%
X107426000Y-118554000D03*
X105426000Y-119504000D03*
X105426000Y-117604000D03*
%TD*%
D21*
%TO.C,D3*%
X87931000Y-125666000D03*
X90631000Y-125666000D03*
%TD*%
D12*
%TO.C,R6*%
X104584000Y-106233000D03*
X104584000Y-104333000D03*
%TD*%
%TO.C,R7*%
X85534500Y-123759000D03*
X85534500Y-121859000D03*
%TD*%
D22*
%TO.C,U3*%
X107649000Y-121414000D03*
X107649000Y-123314000D03*
X104949000Y-123314000D03*
X104949000Y-122364000D03*
X104949000Y-121414000D03*
%TD*%
D10*
%TO.C,C10*%
X107061000Y-113935000D03*
X107061000Y-115935000D03*
%TD*%
D23*
%TO.C,U4*%
X95312000Y-57658000D03*
X96012000Y-57658000D03*
X96712000Y-57658000D03*
X97412000Y-57658000D03*
X98112000Y-57658000D03*
X98812000Y-57658000D03*
X99512000Y-57658000D03*
X100212000Y-57658000D03*
X100912000Y-57658000D03*
X101612000Y-57658000D03*
X102312000Y-57658000D03*
X103012000Y-57658000D03*
%TD*%
M02*
