%TF.GenerationSoftware,KiCad,Pcbnew,(5.1.6)-1*%
%TF.CreationDate,2020-08-18T23:06:57+02:00*%
%TF.ProjectId,ESP32-S2-WROOM,45535033-322d-4533-922d-57524f4f4d2e,1.2*%
%TF.SameCoordinates,Original*%
%TF.FileFunction,Legend,Top*%
%TF.FilePolarity,Positive*%
%FSLAX46Y46*%
G04 Gerber Fmt 4.6, Leading zero omitted, Abs format (unit mm)*
G04 Created by KiCad (PCBNEW (5.1.6)-1) date 2020-08-18 23:06:57*
%MOMM*%
%LPD*%
G01*
G04 APERTURE LIST*
%ADD10C,0.120000*%
%ADD11C,0.150000*%
%ADD12C,0.100000*%
G04 APERTURE END LIST*
D10*
%TO.C,C1*%
X103466000Y-122928000D02*
X103466000Y-121928000D01*
X101766000Y-121928000D02*
X101766000Y-122928000D01*
%TO.C,C2*%
X91274000Y-122928000D02*
X91274000Y-121928000D01*
X89574000Y-121928000D02*
X89574000Y-122928000D01*
%TO.C,C3*%
X84494000Y-74684000D02*
X84494000Y-75684000D01*
X86194000Y-75684000D02*
X86194000Y-74684000D01*
%TO.C,C4*%
X84494000Y-78240000D02*
X84494000Y-79240000D01*
X86194000Y-79240000D02*
X86194000Y-78240000D01*
%TO.C,C5*%
X88734000Y-122928000D02*
X88734000Y-121928000D01*
X87034000Y-121928000D02*
X87034000Y-122928000D01*
%TO.C,C6*%
X108052000Y-78811500D02*
X108052000Y-79811500D01*
X109752000Y-79811500D02*
X109752000Y-78811500D01*
D11*
%TO.C,J1*%
X100870000Y-123126000D02*
X100870000Y-122426000D01*
X100870000Y-122426000D02*
X92170000Y-122426000D01*
X92170000Y-122426000D02*
X92170000Y-123126000D01*
D10*
X92170000Y-129506000D02*
X100870000Y-129506000D01*
X100870000Y-123096000D02*
X100870000Y-129506000D01*
X100870000Y-128276000D02*
X92170000Y-128276000D01*
X92170000Y-129506000D02*
X92170000Y-123096000D01*
%TO.C,R1*%
X101736000Y-119472000D02*
X101736000Y-118272000D01*
X103496000Y-118272000D02*
X103496000Y-119472000D01*
%TO.C,R2*%
X91576000Y-119472000D02*
X91576000Y-118272000D01*
X93336000Y-118272000D02*
X93336000Y-119472000D01*
%TO.C,R3*%
X94370000Y-114900000D02*
X94370000Y-113700000D01*
X96130000Y-113700000D02*
X96130000Y-114900000D01*
%TO.C,R4*%
X91576000Y-114900000D02*
X91576000Y-113700000D01*
X93336000Y-113700000D02*
X93336000Y-114900000D01*
%TO.C,SW1*%
X86230000Y-115190000D02*
X86530000Y-115190000D01*
X86230000Y-118490000D02*
X86230000Y-115190000D01*
X86530000Y-118490000D02*
X86230000Y-118490000D01*
X89030000Y-115190000D02*
X88730000Y-115190000D01*
X89030000Y-118490000D02*
X89030000Y-115190000D01*
X88730000Y-118490000D02*
X89030000Y-118490000D01*
%TO.C,SW2*%
X85195500Y-112734000D02*
X85985500Y-112734000D01*
X85985500Y-105834000D02*
X85195500Y-105834000D01*
X87035500Y-107684000D02*
X87035500Y-109384000D01*
X84185500Y-106434000D02*
X84185500Y-112134000D01*
X82895500Y-109184000D02*
X84185500Y-109184000D01*
X82685500Y-108084000D02*
X82685500Y-108984000D01*
X84185500Y-107884000D02*
X82895500Y-107884000D01*
X82895500Y-109184000D02*
X82685500Y-108984000D01*
X82895500Y-107884000D02*
X82685500Y-108084000D01*
X87035500Y-110684000D02*
X87035500Y-110884000D01*
%TO.C,U1*%
X98190000Y-115860000D02*
X98190000Y-109850000D01*
X105010000Y-113610000D02*
X105010000Y-109850000D01*
X98190000Y-109850000D02*
X99450000Y-109850000D01*
X105010000Y-109850000D02*
X103750000Y-109850000D01*
%TO.C,U2*%
X105470000Y-77270000D02*
X87470000Y-77290000D01*
X105470000Y-101710000D02*
X105470000Y-101960000D01*
X87470000Y-101710000D02*
X87470000Y-101960000D01*
X105470000Y-70960000D02*
X87470000Y-70960000D01*
X105470000Y-77710000D02*
X105470000Y-70960000D01*
X87470000Y-101960000D02*
X105470000Y-101960000D01*
X87470000Y-70960000D02*
X87470000Y-77710000D01*
%TO.C,C7*%
X99068000Y-121246000D02*
X100068000Y-121246000D01*
X100068000Y-119546000D02*
X99068000Y-119546000D01*
%TO.C,C8*%
X95004000Y-119722000D02*
X96004000Y-119722000D01*
X96004000Y-118022000D02*
X95004000Y-118022000D01*
%TO.C,J2*%
X83760000Y-81855000D02*
X85090000Y-81855000D01*
X83760000Y-82550000D02*
X83760000Y-81855000D01*
X86420000Y-83185000D02*
X83760000Y-83185000D01*
X86420000Y-102295000D02*
X86420000Y-83185000D01*
X83760000Y-102295000D02*
X86420000Y-102295000D01*
X83760000Y-83185000D02*
X83760000Y-102295000D01*
%TO.C,J3*%
X106620000Y-81855000D02*
X107950000Y-81855000D01*
X106620000Y-82550000D02*
X106620000Y-81855000D01*
X109280000Y-83185000D02*
X106620000Y-83185000D01*
X109280000Y-112455000D02*
X109280000Y-83185000D01*
X106620000Y-112455000D02*
X109280000Y-112455000D01*
X106620000Y-83185000D02*
X106620000Y-112455000D01*
%TO.C,D1*%
X96580000Y-104450000D02*
X95580000Y-104450000D01*
X96580000Y-111450000D02*
X96580000Y-104450000D01*
X91380000Y-111450000D02*
X91380000Y-104450000D01*
%TO.C,R5*%
X88782000Y-106518000D02*
X88782000Y-105318000D01*
X90542000Y-105318000D02*
X90542000Y-106518000D01*
%TO.C,C9*%
X103830000Y-126516000D02*
X104830000Y-126516000D01*
X104830000Y-124816000D02*
X103830000Y-124816000D01*
%TO.C,D2*%
X107186000Y-120134000D02*
X107186000Y-119204000D01*
X107186000Y-116974000D02*
X107186000Y-117904000D01*
X107186000Y-116974000D02*
X105026000Y-116974000D01*
X107186000Y-120134000D02*
X105726000Y-120134000D01*
%TO.C,D3*%
X88281000Y-124916000D02*
X91481000Y-124916000D01*
X91481000Y-126416000D02*
X88281000Y-126416000D01*
X91481000Y-126416000D02*
X91481000Y-124916000D01*
%TO.C,R6*%
X103704000Y-105883000D02*
X103704000Y-104683000D01*
X105464000Y-104683000D02*
X105464000Y-105883000D01*
%TO.C,R7*%
X84654500Y-123409000D02*
X84654500Y-122209000D01*
X86414500Y-122209000D02*
X86414500Y-123409000D01*
%TO.C,U3*%
X105399000Y-123974000D02*
X107199000Y-123974000D01*
X107199000Y-120754000D02*
X104749000Y-120754000D01*
%TO.C,C10*%
X106211000Y-114435000D02*
X106211000Y-115435000D01*
X107911000Y-115435000D02*
X107911000Y-114435000D01*
D11*
%TO.C,U4*%
X109462000Y-70358000D02*
X83312000Y-70358000D01*
X109462000Y-41058000D02*
X109462000Y-70358000D01*
X83312000Y-41098000D02*
X109462000Y-41058000D01*
X83312000Y-70358000D02*
X83312000Y-41098000D01*
X93812000Y-64358000D02*
X84312000Y-69358000D01*
X93812000Y-56358000D02*
X93812000Y-64358000D01*
X104812000Y-56358000D02*
X93812000Y-56358000D01*
X104812000Y-64358000D02*
X104812000Y-56358000D01*
X106312000Y-67858000D02*
X104812000Y-64358000D01*
X106312000Y-69858000D02*
X106312000Y-67858000D01*
X106312000Y-69858000D02*
X106312000Y-70358000D01*
X84312000Y-69358000D02*
X84312000Y-70358000D01*
%TO.C,C1*%
D12*
X102550133Y-122678000D02*
X102516800Y-122711333D01*
X102416800Y-122744666D01*
X102350133Y-122744666D01*
X102250133Y-122711333D01*
X102183466Y-122644666D01*
X102150133Y-122578000D01*
X102116800Y-122444666D01*
X102116800Y-122344666D01*
X102150133Y-122211333D01*
X102183466Y-122144666D01*
X102250133Y-122078000D01*
X102350133Y-122044666D01*
X102416800Y-122044666D01*
X102516800Y-122078000D01*
X102550133Y-122111333D01*
X103216800Y-122744666D02*
X102816800Y-122744666D01*
X103016800Y-122744666D02*
X103016800Y-122044666D01*
X102950133Y-122144666D01*
X102883466Y-122211333D01*
X102816800Y-122244666D01*
%TO.C,C2*%
D11*
X90206533Y-120499142D02*
X90158914Y-120546761D01*
X90016057Y-120594380D01*
X89920819Y-120594380D01*
X89777961Y-120546761D01*
X89682723Y-120451523D01*
X89635104Y-120356285D01*
X89587485Y-120165809D01*
X89587485Y-120022952D01*
X89635104Y-119832476D01*
X89682723Y-119737238D01*
X89777961Y-119642000D01*
X89920819Y-119594380D01*
X90016057Y-119594380D01*
X90158914Y-119642000D01*
X90206533Y-119689619D01*
X90587485Y-119689619D02*
X90635104Y-119642000D01*
X90730342Y-119594380D01*
X90968438Y-119594380D01*
X91063676Y-119642000D01*
X91111295Y-119689619D01*
X91158914Y-119784857D01*
X91158914Y-119880095D01*
X91111295Y-120022952D01*
X90539866Y-120594380D01*
X91158914Y-120594380D01*
%TO.C,C3*%
X85701142Y-72556666D02*
X85748761Y-72604285D01*
X85796380Y-72747142D01*
X85796380Y-72842380D01*
X85748761Y-72985238D01*
X85653523Y-73080476D01*
X85558285Y-73128095D01*
X85367809Y-73175714D01*
X85224952Y-73175714D01*
X85034476Y-73128095D01*
X84939238Y-73080476D01*
X84844000Y-72985238D01*
X84796380Y-72842380D01*
X84796380Y-72747142D01*
X84844000Y-72604285D01*
X84891619Y-72556666D01*
X84796380Y-72223333D02*
X84796380Y-71604285D01*
X85177333Y-71937619D01*
X85177333Y-71794761D01*
X85224952Y-71699523D01*
X85272571Y-71651904D01*
X85367809Y-71604285D01*
X85605904Y-71604285D01*
X85701142Y-71651904D01*
X85748761Y-71699523D01*
X85796380Y-71794761D01*
X85796380Y-72080476D01*
X85748761Y-72175714D01*
X85701142Y-72223333D01*
%TO.C,C4*%
X85113833Y-81637142D02*
X85066214Y-81684761D01*
X84923357Y-81732380D01*
X84828119Y-81732380D01*
X84685261Y-81684761D01*
X84590023Y-81589523D01*
X84542404Y-81494285D01*
X84494785Y-81303809D01*
X84494785Y-81160952D01*
X84542404Y-80970476D01*
X84590023Y-80875238D01*
X84685261Y-80780000D01*
X84828119Y-80732380D01*
X84923357Y-80732380D01*
X85066214Y-80780000D01*
X85113833Y-80827619D01*
X85970976Y-81065714D02*
X85970976Y-81732380D01*
X85732880Y-80684761D02*
X85494785Y-81399047D01*
X86113833Y-81399047D01*
%TO.C,C5*%
X87717333Y-120397542D02*
X87669714Y-120445161D01*
X87526857Y-120492780D01*
X87431619Y-120492780D01*
X87288761Y-120445161D01*
X87193523Y-120349923D01*
X87145904Y-120254685D01*
X87098285Y-120064209D01*
X87098285Y-119921352D01*
X87145904Y-119730876D01*
X87193523Y-119635638D01*
X87288761Y-119540400D01*
X87431619Y-119492780D01*
X87526857Y-119492780D01*
X87669714Y-119540400D01*
X87717333Y-119588019D01*
X88622095Y-119492780D02*
X88145904Y-119492780D01*
X88098285Y-119968971D01*
X88145904Y-119921352D01*
X88241142Y-119873733D01*
X88479238Y-119873733D01*
X88574476Y-119921352D01*
X88622095Y-119968971D01*
X88669714Y-120064209D01*
X88669714Y-120302304D01*
X88622095Y-120397542D01*
X88574476Y-120445161D01*
X88479238Y-120492780D01*
X88241142Y-120492780D01*
X88145904Y-120445161D01*
X88098285Y-120397542D01*
%TO.C,C6*%
X109259142Y-76684166D02*
X109306761Y-76731785D01*
X109354380Y-76874642D01*
X109354380Y-76969880D01*
X109306761Y-77112738D01*
X109211523Y-77207976D01*
X109116285Y-77255595D01*
X108925809Y-77303214D01*
X108782952Y-77303214D01*
X108592476Y-77255595D01*
X108497238Y-77207976D01*
X108402000Y-77112738D01*
X108354380Y-76969880D01*
X108354380Y-76874642D01*
X108402000Y-76731785D01*
X108449619Y-76684166D01*
X108354380Y-75827023D02*
X108354380Y-76017500D01*
X108402000Y-76112738D01*
X108449619Y-76160357D01*
X108592476Y-76255595D01*
X108782952Y-76303214D01*
X109163904Y-76303214D01*
X109259142Y-76255595D01*
X109306761Y-76207976D01*
X109354380Y-76112738D01*
X109354380Y-75922261D01*
X109306761Y-75827023D01*
X109259142Y-75779404D01*
X109163904Y-75731785D01*
X108925809Y-75731785D01*
X108830571Y-75779404D01*
X108782952Y-75827023D01*
X108735333Y-75922261D01*
X108735333Y-76112738D01*
X108782952Y-76207976D01*
X108830571Y-76255595D01*
X108925809Y-76303214D01*
%TO.C,R1*%
X102449333Y-117190780D02*
X102116000Y-116714590D01*
X101877904Y-117190780D02*
X101877904Y-116190780D01*
X102258857Y-116190780D01*
X102354095Y-116238400D01*
X102401714Y-116286019D01*
X102449333Y-116381257D01*
X102449333Y-116524114D01*
X102401714Y-116619352D01*
X102354095Y-116666971D01*
X102258857Y-116714590D01*
X101877904Y-116714590D01*
X103401714Y-117190780D02*
X102830285Y-117190780D01*
X103116000Y-117190780D02*
X103116000Y-116190780D01*
X103020761Y-116333638D01*
X102925523Y-116428876D01*
X102830285Y-116476495D01*
%TO.C,R2*%
X92187733Y-117139980D02*
X91854400Y-116663790D01*
X91616304Y-117139980D02*
X91616304Y-116139980D01*
X91997257Y-116139980D01*
X92092495Y-116187600D01*
X92140114Y-116235219D01*
X92187733Y-116330457D01*
X92187733Y-116473314D01*
X92140114Y-116568552D01*
X92092495Y-116616171D01*
X91997257Y-116663790D01*
X91616304Y-116663790D01*
X92568685Y-116235219D02*
X92616304Y-116187600D01*
X92711542Y-116139980D01*
X92949638Y-116139980D01*
X93044876Y-116187600D01*
X93092495Y-116235219D01*
X93140114Y-116330457D01*
X93140114Y-116425695D01*
X93092495Y-116568552D01*
X92521066Y-117139980D01*
X93140114Y-117139980D01*
%TO.C,R3*%
X97416880Y-115101666D02*
X96940690Y-115435000D01*
X97416880Y-115673095D02*
X96416880Y-115673095D01*
X96416880Y-115292142D01*
X96464500Y-115196904D01*
X96512119Y-115149285D01*
X96607357Y-115101666D01*
X96750214Y-115101666D01*
X96845452Y-115149285D01*
X96893071Y-115196904D01*
X96940690Y-115292142D01*
X96940690Y-115673095D01*
X96416880Y-114768333D02*
X96416880Y-114149285D01*
X96797833Y-114482619D01*
X96797833Y-114339761D01*
X96845452Y-114244523D01*
X96893071Y-114196904D01*
X96988309Y-114149285D01*
X97226404Y-114149285D01*
X97321642Y-114196904D01*
X97369261Y-114244523D01*
X97416880Y-114339761D01*
X97416880Y-114625476D01*
X97369261Y-114720714D01*
X97321642Y-114768333D01*
%TO.C,R4*%
X91320880Y-115228666D02*
X90844690Y-115562000D01*
X91320880Y-115800095D02*
X90320880Y-115800095D01*
X90320880Y-115419142D01*
X90368500Y-115323904D01*
X90416119Y-115276285D01*
X90511357Y-115228666D01*
X90654214Y-115228666D01*
X90749452Y-115276285D01*
X90797071Y-115323904D01*
X90844690Y-115419142D01*
X90844690Y-115800095D01*
X90654214Y-114371523D02*
X91320880Y-114371523D01*
X90273261Y-114609619D02*
X90987547Y-114847714D01*
X90987547Y-114228666D01*
%TO.C,U1*%
X100838095Y-111275880D02*
X100838095Y-112085404D01*
X100885714Y-112180642D01*
X100933333Y-112228261D01*
X101028571Y-112275880D01*
X101219047Y-112275880D01*
X101314285Y-112228261D01*
X101361904Y-112180642D01*
X101409523Y-112085404D01*
X101409523Y-111275880D01*
X102409523Y-112275880D02*
X101838095Y-112275880D01*
X102123809Y-112275880D02*
X102123809Y-111275880D01*
X102028571Y-111418738D01*
X101933333Y-111513976D01*
X101838095Y-111561595D01*
%TO.C,U2*%
X98742595Y-84415380D02*
X98742595Y-85224904D01*
X98790214Y-85320142D01*
X98837833Y-85367761D01*
X98933071Y-85415380D01*
X99123547Y-85415380D01*
X99218785Y-85367761D01*
X99266404Y-85320142D01*
X99314023Y-85224904D01*
X99314023Y-84415380D01*
X99742595Y-84510619D02*
X99790214Y-84463000D01*
X99885452Y-84415380D01*
X100123547Y-84415380D01*
X100218785Y-84463000D01*
X100266404Y-84510619D01*
X100314023Y-84605857D01*
X100314023Y-84701095D01*
X100266404Y-84843952D01*
X99694976Y-85415380D01*
X100314023Y-85415380D01*
X89533714Y-78905380D02*
X88962285Y-78905380D01*
X89248000Y-78905380D02*
X89248000Y-77905380D01*
X89152761Y-78048238D01*
X89057523Y-78143476D01*
X88962285Y-78191095D01*
X89565523Y-100749380D02*
X88994095Y-100749380D01*
X89279809Y-100749380D02*
X89279809Y-99749380D01*
X89184571Y-99892238D01*
X89089333Y-99987476D01*
X88994095Y-100035095D01*
X89898857Y-99749380D02*
X90565523Y-99749380D01*
X90136952Y-100749380D01*
X102456095Y-99844619D02*
X102503714Y-99797000D01*
X102598952Y-99749380D01*
X102837047Y-99749380D01*
X102932285Y-99797000D01*
X102979904Y-99844619D01*
X103027523Y-99939857D01*
X103027523Y-100035095D01*
X102979904Y-100177952D01*
X102408476Y-100749380D01*
X103027523Y-100749380D01*
X103884666Y-99749380D02*
X103694190Y-99749380D01*
X103598952Y-99797000D01*
X103551333Y-99844619D01*
X103456095Y-99987476D01*
X103408476Y-100177952D01*
X103408476Y-100558904D01*
X103456095Y-100654142D01*
X103503714Y-100701761D01*
X103598952Y-100749380D01*
X103789428Y-100749380D01*
X103884666Y-100701761D01*
X103932285Y-100654142D01*
X103979904Y-100558904D01*
X103979904Y-100320809D01*
X103932285Y-100225571D01*
X103884666Y-100177952D01*
X103789428Y-100130333D01*
X103598952Y-100130333D01*
X103503714Y-100177952D01*
X103456095Y-100225571D01*
X103408476Y-100320809D01*
X102932285Y-78238714D02*
X102932285Y-78905380D01*
X102694190Y-77857761D02*
X102456095Y-78572047D01*
X103075142Y-78572047D01*
X103408476Y-78000619D02*
X103456095Y-77953000D01*
X103551333Y-77905380D01*
X103789428Y-77905380D01*
X103884666Y-77953000D01*
X103932285Y-78000619D01*
X103979904Y-78095857D01*
X103979904Y-78191095D01*
X103932285Y-78333952D01*
X103360857Y-78905380D01*
X103979904Y-78905380D01*
X91888095Y-74566666D02*
X92364285Y-74566666D01*
X91792857Y-74852380D02*
X92126190Y-73852380D01*
X92459523Y-74852380D01*
X92792857Y-74852380D02*
X92792857Y-73852380D01*
X93364285Y-74852380D01*
X93364285Y-73852380D01*
X93697619Y-73852380D02*
X94269047Y-73852380D01*
X93983333Y-74852380D02*
X93983333Y-73852380D01*
X94602380Y-74328571D02*
X94935714Y-74328571D01*
X95078571Y-74852380D02*
X94602380Y-74852380D01*
X94602380Y-73852380D01*
X95078571Y-73852380D01*
X95507142Y-74852380D02*
X95507142Y-73852380D01*
X96078571Y-74852380D01*
X96078571Y-73852380D01*
X96554761Y-74852380D02*
X96554761Y-73852380D01*
X97126190Y-74852380D01*
X97126190Y-73852380D01*
X97554761Y-74566666D02*
X98030952Y-74566666D01*
X97459523Y-74852380D02*
X97792857Y-73852380D01*
X98126190Y-74852380D01*
X99173809Y-74566666D02*
X99650000Y-74566666D01*
X99078571Y-74852380D02*
X99411904Y-73852380D01*
X99745238Y-74852380D01*
X100650000Y-74852380D02*
X100316666Y-74376190D01*
X100078571Y-74852380D02*
X100078571Y-73852380D01*
X100459523Y-73852380D01*
X100554761Y-73900000D01*
X100602380Y-73947619D01*
X100650000Y-74042857D01*
X100650000Y-74185714D01*
X100602380Y-74280952D01*
X100554761Y-74328571D01*
X100459523Y-74376190D01*
X100078571Y-74376190D01*
X101078571Y-74328571D02*
X101411904Y-74328571D01*
X101554761Y-74852380D02*
X101078571Y-74852380D01*
X101078571Y-73852380D01*
X101554761Y-73852380D01*
X101935714Y-74566666D02*
X102411904Y-74566666D01*
X101840476Y-74852380D02*
X102173809Y-73852380D01*
X102507142Y-74852380D01*
%TO.C,C7*%
X100480833Y-119292642D02*
X100433214Y-119340261D01*
X100290357Y-119387880D01*
X100195119Y-119387880D01*
X100052261Y-119340261D01*
X99957023Y-119245023D01*
X99909404Y-119149785D01*
X99861785Y-118959309D01*
X99861785Y-118816452D01*
X99909404Y-118625976D01*
X99957023Y-118530738D01*
X100052261Y-118435500D01*
X100195119Y-118387880D01*
X100290357Y-118387880D01*
X100433214Y-118435500D01*
X100480833Y-118483119D01*
X100814166Y-118387880D02*
X101480833Y-118387880D01*
X101052261Y-119387880D01*
%TO.C,C8*%
X95337333Y-117729142D02*
X95289714Y-117776761D01*
X95146857Y-117824380D01*
X95051619Y-117824380D01*
X94908761Y-117776761D01*
X94813523Y-117681523D01*
X94765904Y-117586285D01*
X94718285Y-117395809D01*
X94718285Y-117252952D01*
X94765904Y-117062476D01*
X94813523Y-116967238D01*
X94908761Y-116872000D01*
X95051619Y-116824380D01*
X95146857Y-116824380D01*
X95289714Y-116872000D01*
X95337333Y-116919619D01*
X95908761Y-117252952D02*
X95813523Y-117205333D01*
X95765904Y-117157714D01*
X95718285Y-117062476D01*
X95718285Y-117014857D01*
X95765904Y-116919619D01*
X95813523Y-116872000D01*
X95908761Y-116824380D01*
X96099238Y-116824380D01*
X96194476Y-116872000D01*
X96242095Y-116919619D01*
X96289714Y-117014857D01*
X96289714Y-117062476D01*
X96242095Y-117157714D01*
X96194476Y-117205333D01*
X96099238Y-117252952D01*
X95908761Y-117252952D01*
X95813523Y-117300571D01*
X95765904Y-117348190D01*
X95718285Y-117443428D01*
X95718285Y-117633904D01*
X95765904Y-117729142D01*
X95813523Y-117776761D01*
X95908761Y-117824380D01*
X96099238Y-117824380D01*
X96194476Y-117776761D01*
X96242095Y-117729142D01*
X96289714Y-117633904D01*
X96289714Y-117443428D01*
X96242095Y-117348190D01*
X96194476Y-117300571D01*
X96099238Y-117252952D01*
%TO.C,D1*%
X92543404Y-109227880D02*
X92543404Y-108227880D01*
X92781500Y-108227880D01*
X92924357Y-108275500D01*
X93019595Y-108370738D01*
X93067214Y-108465976D01*
X93114833Y-108656452D01*
X93114833Y-108799309D01*
X93067214Y-108989785D01*
X93019595Y-109085023D01*
X92924357Y-109180261D01*
X92781500Y-109227880D01*
X92543404Y-109227880D01*
X94067214Y-109227880D02*
X93495785Y-109227880D01*
X93781500Y-109227880D02*
X93781500Y-108227880D01*
X93686261Y-108370738D01*
X93591023Y-108465976D01*
X93495785Y-108513595D01*
%TO.C,R5*%
X90177880Y-108624666D02*
X89701690Y-108958000D01*
X90177880Y-109196095D02*
X89177880Y-109196095D01*
X89177880Y-108815142D01*
X89225500Y-108719904D01*
X89273119Y-108672285D01*
X89368357Y-108624666D01*
X89511214Y-108624666D01*
X89606452Y-108672285D01*
X89654071Y-108719904D01*
X89701690Y-108815142D01*
X89701690Y-109196095D01*
X89177880Y-107719904D02*
X89177880Y-108196095D01*
X89654071Y-108243714D01*
X89606452Y-108196095D01*
X89558833Y-108100857D01*
X89558833Y-107862761D01*
X89606452Y-107767523D01*
X89654071Y-107719904D01*
X89749309Y-107672285D01*
X89987404Y-107672285D01*
X90082642Y-107719904D01*
X90130261Y-107767523D01*
X90177880Y-107862761D01*
X90177880Y-108100857D01*
X90130261Y-108196095D01*
X90082642Y-108243714D01*
%TO.C,C9*%
X104163333Y-127523142D02*
X104115714Y-127570761D01*
X103972857Y-127618380D01*
X103877619Y-127618380D01*
X103734761Y-127570761D01*
X103639523Y-127475523D01*
X103591904Y-127380285D01*
X103544285Y-127189809D01*
X103544285Y-127046952D01*
X103591904Y-126856476D01*
X103639523Y-126761238D01*
X103734761Y-126666000D01*
X103877619Y-126618380D01*
X103972857Y-126618380D01*
X104115714Y-126666000D01*
X104163333Y-126713619D01*
X104639523Y-127618380D02*
X104830000Y-127618380D01*
X104925238Y-127570761D01*
X104972857Y-127523142D01*
X105068095Y-127380285D01*
X105115714Y-127189809D01*
X105115714Y-126808857D01*
X105068095Y-126713619D01*
X105020476Y-126666000D01*
X104925238Y-126618380D01*
X104734761Y-126618380D01*
X104639523Y-126666000D01*
X104591904Y-126713619D01*
X104544285Y-126808857D01*
X104544285Y-127046952D01*
X104591904Y-127142190D01*
X104639523Y-127189809D01*
X104734761Y-127237428D01*
X104925238Y-127237428D01*
X105020476Y-127189809D01*
X105068095Y-127142190D01*
X105115714Y-127046952D01*
%TO.C,D2*%
X108707180Y-117882895D02*
X107707180Y-117882895D01*
X107707180Y-117644800D01*
X107754800Y-117501942D01*
X107850038Y-117406704D01*
X107945276Y-117359085D01*
X108135752Y-117311466D01*
X108278609Y-117311466D01*
X108469085Y-117359085D01*
X108564323Y-117406704D01*
X108659561Y-117501942D01*
X108707180Y-117644800D01*
X108707180Y-117882895D01*
X107802419Y-116930514D02*
X107754800Y-116882895D01*
X107707180Y-116787657D01*
X107707180Y-116549561D01*
X107754800Y-116454323D01*
X107802419Y-116406704D01*
X107897657Y-116359085D01*
X107992895Y-116359085D01*
X108135752Y-116406704D01*
X108707180Y-116978133D01*
X108707180Y-116359085D01*
%TO.C,D3*%
D12*
X89579571Y-126217142D02*
X88919571Y-126217142D01*
X88919571Y-126060000D01*
X88951000Y-125965714D01*
X89013857Y-125902857D01*
X89076714Y-125871428D01*
X89202428Y-125840000D01*
X89296714Y-125840000D01*
X89422428Y-125871428D01*
X89485285Y-125902857D01*
X89548142Y-125965714D01*
X89579571Y-126060000D01*
X89579571Y-126217142D01*
X88919571Y-125620000D02*
X88919571Y-125211428D01*
X89171000Y-125431428D01*
X89171000Y-125337142D01*
X89202428Y-125274285D01*
X89233857Y-125242857D01*
X89296714Y-125211428D01*
X89453857Y-125211428D01*
X89516714Y-125242857D01*
X89548142Y-125274285D01*
X89579571Y-125337142D01*
X89579571Y-125525714D01*
X89548142Y-125588571D01*
X89516714Y-125620000D01*
%TO.C,R6*%
D11*
X103386380Y-105449666D02*
X102910190Y-105783000D01*
X103386380Y-106021095D02*
X102386380Y-106021095D01*
X102386380Y-105640142D01*
X102434000Y-105544904D01*
X102481619Y-105497285D01*
X102576857Y-105449666D01*
X102719714Y-105449666D01*
X102814952Y-105497285D01*
X102862571Y-105544904D01*
X102910190Y-105640142D01*
X102910190Y-106021095D01*
X102386380Y-104592523D02*
X102386380Y-104783000D01*
X102434000Y-104878238D01*
X102481619Y-104925857D01*
X102624476Y-105021095D01*
X102814952Y-105068714D01*
X103195904Y-105068714D01*
X103291142Y-105021095D01*
X103338761Y-104973476D01*
X103386380Y-104878238D01*
X103386380Y-104687761D01*
X103338761Y-104592523D01*
X103291142Y-104544904D01*
X103195904Y-104497285D01*
X102957809Y-104497285D01*
X102862571Y-104544904D01*
X102814952Y-104592523D01*
X102767333Y-104687761D01*
X102767333Y-104878238D01*
X102814952Y-104973476D01*
X102862571Y-105021095D01*
X102957809Y-105068714D01*
%TO.C,R7*%
X85796380Y-120461066D02*
X85320190Y-120794400D01*
X85796380Y-121032495D02*
X84796380Y-121032495D01*
X84796380Y-120651542D01*
X84844000Y-120556304D01*
X84891619Y-120508685D01*
X84986857Y-120461066D01*
X85129714Y-120461066D01*
X85224952Y-120508685D01*
X85272571Y-120556304D01*
X85320190Y-120651542D01*
X85320190Y-121032495D01*
X84796380Y-120127733D02*
X84796380Y-119461066D01*
X85796380Y-119889638D01*
%TO.C,U3*%
X105918095Y-121880380D02*
X105918095Y-122689904D01*
X105965714Y-122785142D01*
X106013333Y-122832761D01*
X106108571Y-122880380D01*
X106299047Y-122880380D01*
X106394285Y-122832761D01*
X106441904Y-122785142D01*
X106489523Y-122689904D01*
X106489523Y-121880380D01*
X106870476Y-121880380D02*
X107489523Y-121880380D01*
X107156190Y-122261333D01*
X107299047Y-122261333D01*
X107394285Y-122308952D01*
X107441904Y-122356571D01*
X107489523Y-122451809D01*
X107489523Y-122689904D01*
X107441904Y-122785142D01*
X107394285Y-122832761D01*
X107299047Y-122880380D01*
X107013333Y-122880380D01*
X106918095Y-122832761D01*
X106870476Y-122785142D01*
%TO.C,C10*%
X105918142Y-115577857D02*
X105965761Y-115625476D01*
X106013380Y-115768333D01*
X106013380Y-115863571D01*
X105965761Y-116006428D01*
X105870523Y-116101666D01*
X105775285Y-116149285D01*
X105584809Y-116196904D01*
X105441952Y-116196904D01*
X105251476Y-116149285D01*
X105156238Y-116101666D01*
X105061000Y-116006428D01*
X105013380Y-115863571D01*
X105013380Y-115768333D01*
X105061000Y-115625476D01*
X105108619Y-115577857D01*
X106013380Y-114625476D02*
X106013380Y-115196904D01*
X106013380Y-114911190D02*
X105013380Y-114911190D01*
X105156238Y-115006428D01*
X105251476Y-115101666D01*
X105299095Y-115196904D01*
X105013380Y-114006428D02*
X105013380Y-113911190D01*
X105061000Y-113815952D01*
X105108619Y-113768333D01*
X105203857Y-113720714D01*
X105394333Y-113673095D01*
X105632428Y-113673095D01*
X105822904Y-113720714D01*
X105918142Y-113768333D01*
X105965761Y-113815952D01*
X106013380Y-113911190D01*
X106013380Y-114006428D01*
X105965761Y-114101666D01*
X105918142Y-114149285D01*
X105822904Y-114196904D01*
X105632428Y-114244523D01*
X105394333Y-114244523D01*
X105203857Y-114196904D01*
X105108619Y-114149285D01*
X105061000Y-114101666D01*
X105013380Y-114006428D01*
%TO.C,U4*%
X89725595Y-67333880D02*
X89725595Y-68143404D01*
X89773214Y-68238642D01*
X89820833Y-68286261D01*
X89916071Y-68333880D01*
X90106547Y-68333880D01*
X90201785Y-68286261D01*
X90249404Y-68238642D01*
X90297023Y-68143404D01*
X90297023Y-67333880D01*
X91201785Y-67667214D02*
X91201785Y-68333880D01*
X90963690Y-67286261D02*
X90725595Y-68000547D01*
X91344642Y-68000547D01*
X91990095Y-43525619D02*
X92037714Y-43478000D01*
X92132952Y-43430380D01*
X92371047Y-43430380D01*
X92466285Y-43478000D01*
X92513904Y-43525619D01*
X92561523Y-43620857D01*
X92561523Y-43716095D01*
X92513904Y-43858952D01*
X91942476Y-44430380D01*
X92561523Y-44430380D01*
X93418666Y-43763714D02*
X93418666Y-44430380D01*
X93180571Y-43382761D02*
X92942476Y-44097047D01*
X93561523Y-44097047D01*
X94132952Y-43430380D02*
X94228190Y-43430380D01*
X94323428Y-43478000D01*
X94371047Y-43525619D01*
X94418666Y-43620857D01*
X94466285Y-43811333D01*
X94466285Y-44049428D01*
X94418666Y-44239904D01*
X94371047Y-44335142D01*
X94323428Y-44382761D01*
X94228190Y-44430380D01*
X94132952Y-44430380D01*
X94037714Y-44382761D01*
X93990095Y-44335142D01*
X93942476Y-44239904D01*
X93894857Y-44049428D01*
X93894857Y-43811333D01*
X93942476Y-43620857D01*
X93990095Y-43525619D01*
X94037714Y-43478000D01*
X94132952Y-43430380D01*
X94799619Y-44430380D02*
X95323428Y-43763714D01*
X94799619Y-43763714D02*
X95323428Y-44430380D01*
X95656761Y-43525619D02*
X95704380Y-43478000D01*
X95799619Y-43430380D01*
X96037714Y-43430380D01*
X96132952Y-43478000D01*
X96180571Y-43525619D01*
X96228190Y-43620857D01*
X96228190Y-43716095D01*
X96180571Y-43858952D01*
X95609142Y-44430380D01*
X96228190Y-44430380D01*
X97085333Y-43763714D02*
X97085333Y-44430380D01*
X96847238Y-43382761D02*
X96609142Y-44097047D01*
X97228190Y-44097047D01*
X97799619Y-43430380D02*
X97894857Y-43430380D01*
X97990095Y-43478000D01*
X98037714Y-43525619D01*
X98085333Y-43620857D01*
X98132952Y-43811333D01*
X98132952Y-44049428D01*
X98085333Y-44239904D01*
X98037714Y-44335142D01*
X97990095Y-44382761D01*
X97894857Y-44430380D01*
X97799619Y-44430380D01*
X97704380Y-44382761D01*
X97656761Y-44335142D01*
X97609142Y-44239904D01*
X97561523Y-44049428D01*
X97561523Y-43811333D01*
X97609142Y-43620857D01*
X97656761Y-43525619D01*
X97704380Y-43478000D01*
X97799619Y-43430380D01*
X98418666Y-43430380D02*
X98990095Y-43430380D01*
X98704380Y-44430380D02*
X98704380Y-43430380D01*
X99656761Y-43906571D02*
X99323428Y-43906571D01*
X99323428Y-44430380D02*
X99323428Y-43430380D01*
X99799619Y-43430380D01*
X100037714Y-43430380D02*
X100609142Y-43430380D01*
X100323428Y-44430380D02*
X100323428Y-43430380D01*
%TD*%
M02*
