%TF.GenerationSoftware,KiCad,Pcbnew,(5.1.6)-1*%
%TF.CreationDate,2020-08-18T23:06:57+02:00*%
%TF.ProjectId,ESP32-S2-WROOM,45535033-322d-4533-922d-57524f4f4d2e,1.2*%
%TF.SameCoordinates,Original*%
%TF.FileFunction,Legend,Bot*%
%TF.FilePolarity,Positive*%
%FSLAX46Y46*%
G04 Gerber Fmt 4.6, Leading zero omitted, Abs format (unit mm)*
G04 Created by KiCad (PCBNEW (5.1.6)-1) date 2020-08-18 23:06:57*
%MOMM*%
%LPD*%
G01*
G04 APERTURE LIST*
%ADD10C,0.100000*%
%ADD11C,0.150000*%
%ADD12C,0.120000*%
G04 APERTURE END LIST*
D10*
X89302714Y-60247571D02*
X89195571Y-60283285D01*
X89017000Y-60283285D01*
X88945571Y-60247571D01*
X88909857Y-60211857D01*
X88874142Y-60140428D01*
X88874142Y-60069000D01*
X88909857Y-59997571D01*
X88945571Y-59961857D01*
X89017000Y-59926142D01*
X89159857Y-59890428D01*
X89231285Y-59854714D01*
X89267000Y-59819000D01*
X89302714Y-59747571D01*
X89302714Y-59676142D01*
X89267000Y-59604714D01*
X89231285Y-59569000D01*
X89159857Y-59533285D01*
X88981285Y-59533285D01*
X88874142Y-59569000D01*
X88552714Y-60283285D02*
X88552714Y-59533285D01*
X88374142Y-59533285D01*
X88267000Y-59569000D01*
X88195571Y-59640428D01*
X88159857Y-59711857D01*
X88124142Y-59854714D01*
X88124142Y-59961857D01*
X88159857Y-60104714D01*
X88195571Y-60176142D01*
X88267000Y-60247571D01*
X88374142Y-60283285D01*
X88552714Y-60283285D01*
X87838428Y-60069000D02*
X87481285Y-60069000D01*
X87909857Y-60283285D02*
X87659857Y-59533285D01*
X87409857Y-60283285D01*
X89284857Y-57707571D02*
X89177714Y-57743285D01*
X88999142Y-57743285D01*
X88927714Y-57707571D01*
X88892000Y-57671857D01*
X88856285Y-57600428D01*
X88856285Y-57529000D01*
X88892000Y-57457571D01*
X88927714Y-57421857D01*
X88999142Y-57386142D01*
X89142000Y-57350428D01*
X89213428Y-57314714D01*
X89249142Y-57279000D01*
X89284857Y-57207571D01*
X89284857Y-57136142D01*
X89249142Y-57064714D01*
X89213428Y-57029000D01*
X89142000Y-56993285D01*
X88963428Y-56993285D01*
X88856285Y-57029000D01*
X88106285Y-57671857D02*
X88142000Y-57707571D01*
X88249142Y-57743285D01*
X88320571Y-57743285D01*
X88427714Y-57707571D01*
X88499142Y-57636142D01*
X88534857Y-57564714D01*
X88570571Y-57421857D01*
X88570571Y-57314714D01*
X88534857Y-57171857D01*
X88499142Y-57100428D01*
X88427714Y-57029000D01*
X88320571Y-56993285D01*
X88249142Y-56993285D01*
X88142000Y-57029000D01*
X88106285Y-57064714D01*
X87427714Y-57743285D02*
X87784857Y-57743285D01*
X87784857Y-56993285D01*
X89463428Y-54453285D02*
X88999142Y-54453285D01*
X89249142Y-54739000D01*
X89142000Y-54739000D01*
X89070571Y-54774714D01*
X89034857Y-54810428D01*
X88999142Y-54881857D01*
X88999142Y-55060428D01*
X89034857Y-55131857D01*
X89070571Y-55167571D01*
X89142000Y-55203285D01*
X89356285Y-55203285D01*
X89427714Y-55167571D01*
X89463428Y-55131857D01*
X88677714Y-55131857D02*
X88642000Y-55167571D01*
X88677714Y-55203285D01*
X88713428Y-55167571D01*
X88677714Y-55131857D01*
X88677714Y-55203285D01*
X88392000Y-54453285D02*
X87927714Y-54453285D01*
X88177714Y-54739000D01*
X88070571Y-54739000D01*
X87999142Y-54774714D01*
X87963428Y-54810428D01*
X87927714Y-54881857D01*
X87927714Y-55060428D01*
X87963428Y-55131857D01*
X87999142Y-55167571D01*
X88070571Y-55203285D01*
X88284857Y-55203285D01*
X88356285Y-55167571D01*
X88392000Y-55131857D01*
X87677714Y-54703285D02*
X87499142Y-55203285D01*
X87320571Y-54703285D01*
X88963428Y-51949000D02*
X89034857Y-51913285D01*
X89142000Y-51913285D01*
X89249142Y-51949000D01*
X89320571Y-52020428D01*
X89356285Y-52091857D01*
X89392000Y-52234714D01*
X89392000Y-52341857D01*
X89356285Y-52484714D01*
X89320571Y-52556142D01*
X89249142Y-52627571D01*
X89142000Y-52663285D01*
X89070571Y-52663285D01*
X88963428Y-52627571D01*
X88927714Y-52591857D01*
X88927714Y-52341857D01*
X89070571Y-52341857D01*
X88606285Y-52663285D02*
X88606285Y-51913285D01*
X88177714Y-52663285D01*
X88177714Y-51913285D01*
X87820571Y-52663285D02*
X87820571Y-51913285D01*
X87642000Y-51913285D01*
X87534857Y-51949000D01*
X87463428Y-52020428D01*
X87427714Y-52091857D01*
X87392000Y-52234714D01*
X87392000Y-52341857D01*
X87427714Y-52484714D01*
X87463428Y-52556142D01*
X87534857Y-52627571D01*
X87642000Y-52663285D01*
X87820571Y-52663285D01*
D11*
X104043809Y-45505714D02*
X103853333Y-46172380D01*
X103662857Y-45696190D01*
X103472380Y-46172380D01*
X103281904Y-45505714D01*
X102996190Y-45505714D02*
X102805714Y-46172380D01*
X102615238Y-45696190D01*
X102424761Y-46172380D01*
X102234285Y-45505714D01*
X101948571Y-45505714D02*
X101758095Y-46172380D01*
X101567619Y-45696190D01*
X101377142Y-46172380D01*
X101186666Y-45505714D01*
X100805714Y-46077142D02*
X100758095Y-46124761D01*
X100805714Y-46172380D01*
X100853333Y-46124761D01*
X100805714Y-46077142D01*
X100805714Y-46172380D01*
X100329523Y-46172380D02*
X100329523Y-45505714D01*
X100329523Y-45600952D02*
X100281904Y-45553333D01*
X100186666Y-45505714D01*
X100043809Y-45505714D01*
X99948571Y-45553333D01*
X99900952Y-45648571D01*
X99900952Y-46172380D01*
X99900952Y-45648571D02*
X99853333Y-45553333D01*
X99758095Y-45505714D01*
X99615238Y-45505714D01*
X99520000Y-45553333D01*
X99472380Y-45648571D01*
X99472380Y-46172380D01*
X98853333Y-46172380D02*
X98948571Y-46124761D01*
X98996190Y-46077142D01*
X99043809Y-45981904D01*
X99043809Y-45696190D01*
X98996190Y-45600952D01*
X98948571Y-45553333D01*
X98853333Y-45505714D01*
X98710476Y-45505714D01*
X98615238Y-45553333D01*
X98567619Y-45600952D01*
X98520000Y-45696190D01*
X98520000Y-45981904D01*
X98567619Y-46077142D01*
X98615238Y-46124761D01*
X98710476Y-46172380D01*
X98853333Y-46172380D01*
X98091428Y-46172380D02*
X98091428Y-45505714D01*
X98091428Y-45696190D02*
X98043809Y-45600952D01*
X97996190Y-45553333D01*
X97900952Y-45505714D01*
X97805714Y-45505714D01*
X97472380Y-45505714D02*
X97472380Y-46505714D01*
X97472380Y-45553333D02*
X97377142Y-45505714D01*
X97186666Y-45505714D01*
X97091428Y-45553333D01*
X97043809Y-45600952D01*
X96996190Y-45696190D01*
X96996190Y-45981904D01*
X97043809Y-46077142D01*
X97091428Y-46124761D01*
X97186666Y-46172380D01*
X97377142Y-46172380D01*
X97472380Y-46124761D01*
X96567619Y-46172380D02*
X96567619Y-45172380D01*
X96139047Y-46172380D02*
X96139047Y-45648571D01*
X96186666Y-45553333D01*
X96281904Y-45505714D01*
X96424761Y-45505714D01*
X96520000Y-45553333D01*
X96567619Y-45600952D01*
X95281904Y-46124761D02*
X95377142Y-46172380D01*
X95567619Y-46172380D01*
X95662857Y-46124761D01*
X95710476Y-46029523D01*
X95710476Y-45648571D01*
X95662857Y-45553333D01*
X95567619Y-45505714D01*
X95377142Y-45505714D01*
X95281904Y-45553333D01*
X95234285Y-45648571D01*
X95234285Y-45743809D01*
X95710476Y-45839047D01*
X94377142Y-46172380D02*
X94377142Y-45648571D01*
X94424761Y-45553333D01*
X94520000Y-45505714D01*
X94710476Y-45505714D01*
X94805714Y-45553333D01*
X94377142Y-46124761D02*
X94472380Y-46172380D01*
X94710476Y-46172380D01*
X94805714Y-46124761D01*
X94853333Y-46029523D01*
X94853333Y-45934285D01*
X94805714Y-45839047D01*
X94710476Y-45791428D01*
X94472380Y-45791428D01*
X94377142Y-45743809D01*
X93900952Y-45505714D02*
X93900952Y-46172380D01*
X93900952Y-45600952D02*
X93853333Y-45553333D01*
X93758095Y-45505714D01*
X93615238Y-45505714D01*
X93520000Y-45553333D01*
X93472380Y-45648571D01*
X93472380Y-46172380D01*
X93043809Y-46124761D02*
X92948571Y-46172380D01*
X92758095Y-46172380D01*
X92662857Y-46124761D01*
X92615238Y-46029523D01*
X92615238Y-45981904D01*
X92662857Y-45886666D01*
X92758095Y-45839047D01*
X92900952Y-45839047D01*
X92996190Y-45791428D01*
X93043809Y-45696190D01*
X93043809Y-45648571D01*
X92996190Y-45553333D01*
X92900952Y-45505714D01*
X92758095Y-45505714D01*
X92662857Y-45553333D01*
X92186666Y-46077142D02*
X92139047Y-46124761D01*
X92186666Y-46172380D01*
X92234285Y-46124761D01*
X92186666Y-46077142D01*
X92186666Y-46172380D01*
X91281904Y-46124761D02*
X91377142Y-46172380D01*
X91567619Y-46172380D01*
X91662857Y-46124761D01*
X91710476Y-46077142D01*
X91758095Y-45981904D01*
X91758095Y-45696190D01*
X91710476Y-45600952D01*
X91662857Y-45553333D01*
X91567619Y-45505714D01*
X91377142Y-45505714D01*
X91281904Y-45553333D01*
X90710476Y-46172380D02*
X90805714Y-46124761D01*
X90853333Y-46077142D01*
X90900952Y-45981904D01*
X90900952Y-45696190D01*
X90853333Y-45600952D01*
X90805714Y-45553333D01*
X90710476Y-45505714D01*
X90567619Y-45505714D01*
X90472380Y-45553333D01*
X90424761Y-45600952D01*
X90377142Y-45696190D01*
X90377142Y-45981904D01*
X90424761Y-46077142D01*
X90472380Y-46124761D01*
X90567619Y-46172380D01*
X90710476Y-46172380D01*
X89948571Y-46172380D02*
X89948571Y-45505714D01*
X89948571Y-45600952D02*
X89900952Y-45553333D01*
X89805714Y-45505714D01*
X89662857Y-45505714D01*
X89567619Y-45553333D01*
X89520000Y-45648571D01*
X89520000Y-46172380D01*
X89520000Y-45648571D02*
X89472380Y-45553333D01*
X89377142Y-45505714D01*
X89234285Y-45505714D01*
X89139047Y-45553333D01*
X89091428Y-45648571D01*
X89091428Y-46172380D01*
X99827885Y-48188571D02*
X99494552Y-48188571D01*
X99351695Y-48712380D02*
X99827885Y-48712380D01*
X99827885Y-47712380D01*
X99351695Y-47712380D01*
X98970742Y-48664761D02*
X98827885Y-48712380D01*
X98589790Y-48712380D01*
X98494552Y-48664761D01*
X98446933Y-48617142D01*
X98399314Y-48521904D01*
X98399314Y-48426666D01*
X98446933Y-48331428D01*
X98494552Y-48283809D01*
X98589790Y-48236190D01*
X98780266Y-48188571D01*
X98875504Y-48140952D01*
X98923123Y-48093333D01*
X98970742Y-47998095D01*
X98970742Y-47902857D01*
X98923123Y-47807619D01*
X98875504Y-47760000D01*
X98780266Y-47712380D01*
X98542171Y-47712380D01*
X98399314Y-47760000D01*
X97970742Y-48712380D02*
X97970742Y-47712380D01*
X97589790Y-47712380D01*
X97494552Y-47760000D01*
X97446933Y-47807619D01*
X97399314Y-47902857D01*
X97399314Y-48045714D01*
X97446933Y-48140952D01*
X97494552Y-48188571D01*
X97589790Y-48236190D01*
X97970742Y-48236190D01*
X97065980Y-47712380D02*
X96446933Y-47712380D01*
X96780266Y-48093333D01*
X96637409Y-48093333D01*
X96542171Y-48140952D01*
X96494552Y-48188571D01*
X96446933Y-48283809D01*
X96446933Y-48521904D01*
X96494552Y-48617142D01*
X96542171Y-48664761D01*
X96637409Y-48712380D01*
X96923123Y-48712380D01*
X97018361Y-48664761D01*
X97065980Y-48617142D01*
X96065980Y-47807619D02*
X96018361Y-47760000D01*
X95923123Y-47712380D01*
X95685028Y-47712380D01*
X95589790Y-47760000D01*
X95542171Y-47807619D01*
X95494552Y-47902857D01*
X95494552Y-47998095D01*
X95542171Y-48140952D01*
X96113600Y-48712380D01*
X95494552Y-48712380D01*
X95065980Y-48331428D02*
X94304076Y-48331428D01*
X93875504Y-48664761D02*
X93732647Y-48712380D01*
X93494552Y-48712380D01*
X93399314Y-48664761D01*
X93351695Y-48617142D01*
X93304076Y-48521904D01*
X93304076Y-48426666D01*
X93351695Y-48331428D01*
X93399314Y-48283809D01*
X93494552Y-48236190D01*
X93685028Y-48188571D01*
X93780266Y-48140952D01*
X93827885Y-48093333D01*
X93875504Y-47998095D01*
X93875504Y-47902857D01*
X93827885Y-47807619D01*
X93780266Y-47760000D01*
X93685028Y-47712380D01*
X93446933Y-47712380D01*
X93304076Y-47760000D01*
X92923123Y-47807619D02*
X92875504Y-47760000D01*
X92780266Y-47712380D01*
X92542171Y-47712380D01*
X92446933Y-47760000D01*
X92399314Y-47807619D01*
X92351695Y-47902857D01*
X92351695Y-47998095D01*
X92399314Y-48140952D01*
X92970742Y-48712380D01*
X92351695Y-48712380D01*
D12*
%TO.C,J4*%
X87238500Y-115446000D02*
X87238500Y-114171000D01*
X87238500Y-114171000D02*
X85638500Y-114171000D01*
X85638500Y-114171000D02*
X85638500Y-113171000D01*
X85638500Y-113171000D02*
X89863500Y-113171000D01*
X89863500Y-121271000D02*
X85638500Y-121271000D01*
X85638500Y-121271000D02*
X85638500Y-120271000D01*
X85638500Y-120271000D02*
X87238500Y-120271000D01*
X87238500Y-120271000D02*
X87238500Y-118996000D01*
X93438500Y-114896000D02*
X93438500Y-119546000D01*
X87238500Y-115446000D02*
X84338500Y-115446000D01*
%TO.C,SW3*%
X107211000Y-74488500D02*
X107211000Y-74688500D01*
X111351000Y-71688500D02*
X111561000Y-71888500D01*
X111351000Y-72988500D02*
X111561000Y-72788500D01*
X110061000Y-71688500D02*
X111351000Y-71688500D01*
X111561000Y-71888500D02*
X111561000Y-72788500D01*
X111351000Y-72988500D02*
X110061000Y-72988500D01*
X110061000Y-70238500D02*
X110061000Y-75938500D01*
X107211000Y-71488500D02*
X107211000Y-73188500D01*
X108261000Y-69638500D02*
X109051000Y-69638500D01*
X109051000Y-76538500D02*
X108261000Y-76538500D01*
%TO.C,JP1*%
X97551520Y-51051000D02*
X96951520Y-51051000D01*
X98251520Y-53151000D02*
X98251520Y-51751000D01*
X96951520Y-53851000D02*
X97551520Y-53851000D01*
X96251520Y-51751000D02*
X96251520Y-53151000D01*
X96251520Y-53151000D02*
G75*
G03*
X96951520Y-53851000I700000J0D01*
G01*
X97551520Y-53851000D02*
G75*
G03*
X98251520Y-53151000I0J700000D01*
G01*
X98251520Y-51751000D02*
G75*
G03*
X97551520Y-51051000I-700000J0D01*
G01*
X96951520Y-51051000D02*
G75*
G03*
X96251520Y-51751000I0J-700000D01*
G01*
%TO.C,JP2*%
X104007160Y-53186560D02*
X104007160Y-51786560D01*
X103307160Y-51086560D02*
X102707160Y-51086560D01*
X102007160Y-51786560D02*
X102007160Y-53186560D01*
X102707160Y-53886560D02*
X103307160Y-53886560D01*
X103307160Y-53886560D02*
G75*
G03*
X104007160Y-53186560I0J700000D01*
G01*
X102007160Y-53186560D02*
G75*
G03*
X102707160Y-53886560I700000J0D01*
G01*
X102707160Y-51086560D02*
G75*
G03*
X102007160Y-51786560I0J-700000D01*
G01*
X104007160Y-51786560D02*
G75*
G03*
X103307160Y-51086560I-700000J0D01*
G01*
%TO.C,JP3*%
X100543640Y-51091640D02*
X99943640Y-51091640D01*
X101243640Y-53191640D02*
X101243640Y-51791640D01*
X99943640Y-53891640D02*
X100543640Y-53891640D01*
X99243640Y-51791640D02*
X99243640Y-53191640D01*
X99243640Y-53191640D02*
G75*
G03*
X99943640Y-53891640I700000J0D01*
G01*
X100543640Y-53891640D02*
G75*
G03*
X101243640Y-53191640I0J700000D01*
G01*
X101243640Y-51791640D02*
G75*
G03*
X100543640Y-51091640I-700000J0D01*
G01*
X99943640Y-51091640D02*
G75*
G03*
X99243640Y-51791640I0J-700000D01*
G01*
%TO.C,JP4*%
X106912920Y-53176400D02*
X106912920Y-51776400D01*
X106212920Y-51076400D02*
X105612920Y-51076400D01*
X104912920Y-51776400D02*
X104912920Y-53176400D01*
X105612920Y-53876400D02*
X106212920Y-53876400D01*
X106212920Y-53876400D02*
G75*
G03*
X106912920Y-53176400I0J700000D01*
G01*
X104912920Y-53176400D02*
G75*
G03*
X105612920Y-53876400I700000J0D01*
G01*
X105612920Y-51076400D02*
G75*
G03*
X104912920Y-51776400I0J-700000D01*
G01*
X106912920Y-51776400D02*
G75*
G03*
X106212920Y-51076400I-700000J0D01*
G01*
%TO.C,JP5*%
X95514920Y-93381600D02*
X95514920Y-94781600D01*
X96214920Y-95481600D02*
X96814920Y-95481600D01*
X97514920Y-94781600D02*
X97514920Y-93381600D01*
X96814920Y-92681600D02*
X96214920Y-92681600D01*
X96214920Y-92681600D02*
G75*
G03*
X95514920Y-93381600I0J-700000D01*
G01*
X97514920Y-93381600D02*
G75*
G03*
X96814920Y-92681600I-700000J0D01*
G01*
X96814920Y-95481600D02*
G75*
G03*
X97514920Y-94781600I0J700000D01*
G01*
X95514920Y-94781600D02*
G75*
G03*
X96214920Y-95481600I700000J0D01*
G01*
%TO.C,SW2*%
D11*
X87761771Y-108202552D02*
X87809390Y-108345409D01*
X87857009Y-108393028D01*
X87952247Y-108440647D01*
X88095104Y-108440647D01*
X88190342Y-108393028D01*
X88237961Y-108345409D01*
X88285580Y-108250171D01*
X88285580Y-107869219D01*
X87285580Y-107869219D01*
X87285580Y-108202552D01*
X87333200Y-108297790D01*
X87380819Y-108345409D01*
X87476057Y-108393028D01*
X87571295Y-108393028D01*
X87666533Y-108345409D01*
X87714152Y-108297790D01*
X87761771Y-108202552D01*
X87761771Y-107869219D01*
X88285580Y-109012076D02*
X88237961Y-108916838D01*
X88190342Y-108869219D01*
X88095104Y-108821600D01*
X87809390Y-108821600D01*
X87714152Y-108869219D01*
X87666533Y-108916838D01*
X87618914Y-109012076D01*
X87618914Y-109154933D01*
X87666533Y-109250171D01*
X87714152Y-109297790D01*
X87809390Y-109345409D01*
X88095104Y-109345409D01*
X88190342Y-109297790D01*
X88237961Y-109250171D01*
X88285580Y-109154933D01*
X88285580Y-109012076D01*
X88285580Y-109916838D02*
X88237961Y-109821600D01*
X88190342Y-109773980D01*
X88095104Y-109726361D01*
X87809390Y-109726361D01*
X87714152Y-109773980D01*
X87666533Y-109821600D01*
X87618914Y-109916838D01*
X87618914Y-110059695D01*
X87666533Y-110154933D01*
X87714152Y-110202552D01*
X87809390Y-110250171D01*
X88095104Y-110250171D01*
X88190342Y-110202552D01*
X88237961Y-110154933D01*
X88285580Y-110059695D01*
X88285580Y-109916838D01*
X87618914Y-110535885D02*
X87618914Y-110916838D01*
X87285580Y-110678742D02*
X88142723Y-110678742D01*
X88237961Y-110726361D01*
X88285580Y-110821600D01*
X88285580Y-110916838D01*
%TO.C,SW3*%
X104481380Y-69294452D02*
X104481380Y-69484928D01*
X104529000Y-69580166D01*
X104624238Y-69675404D01*
X104814714Y-69723023D01*
X105148047Y-69723023D01*
X105338523Y-69675404D01*
X105433761Y-69580166D01*
X105481380Y-69484928D01*
X105481380Y-69294452D01*
X105433761Y-69199214D01*
X105338523Y-69103976D01*
X105148047Y-69056357D01*
X104814714Y-69056357D01*
X104624238Y-69103976D01*
X104529000Y-69199214D01*
X104481380Y-69294452D01*
X105481380Y-70151595D02*
X104481380Y-70151595D01*
X105481380Y-70723023D01*
X104481380Y-70723023D01*
%TO.C,JP1*%
D10*
X97422857Y-54925571D02*
X97458571Y-54889857D01*
X97494285Y-54782714D01*
X97494285Y-54711285D01*
X97458571Y-54604142D01*
X97387142Y-54532714D01*
X97315714Y-54497000D01*
X97172857Y-54461285D01*
X97065714Y-54461285D01*
X96922857Y-54497000D01*
X96851428Y-54532714D01*
X96780000Y-54604142D01*
X96744285Y-54711285D01*
X96744285Y-54782714D01*
X96780000Y-54889857D01*
X96815714Y-54925571D01*
X97494285Y-55604142D02*
X97494285Y-55247000D01*
X96744285Y-55247000D01*
X97494285Y-55854142D02*
X96744285Y-55854142D01*
X97494285Y-56282714D02*
X97065714Y-55961285D01*
X96744285Y-56282714D02*
X97172857Y-55854142D01*
%TO.C,JP2*%
X103386777Y-55150480D02*
X103422491Y-55114765D01*
X103458205Y-55007622D01*
X103458205Y-54936194D01*
X103422491Y-54829051D01*
X103351062Y-54757622D01*
X103279634Y-54721908D01*
X103136777Y-54686194D01*
X103029634Y-54686194D01*
X102886777Y-54721908D01*
X102815348Y-54757622D01*
X102743920Y-54829051D01*
X102708205Y-54936194D01*
X102708205Y-55007622D01*
X102743920Y-55114765D01*
X102779634Y-55150480D01*
X103422491Y-55436194D02*
X103458205Y-55543337D01*
X103458205Y-55721908D01*
X103422491Y-55793337D01*
X103386777Y-55829051D01*
X103315348Y-55864765D01*
X103243920Y-55864765D01*
X103172491Y-55829051D01*
X103136777Y-55793337D01*
X103101062Y-55721908D01*
X103065348Y-55579051D01*
X103029634Y-55507622D01*
X102993920Y-55471908D01*
X102922491Y-55436194D01*
X102851062Y-55436194D01*
X102779634Y-55471908D01*
X102743920Y-55507622D01*
X102708205Y-55579051D01*
X102708205Y-55757622D01*
X102743920Y-55864765D01*
%TO.C,JP3*%
X100669285Y-54673571D02*
X99919285Y-54673571D01*
X99919285Y-54852142D01*
X99955000Y-54959285D01*
X100026428Y-55030714D01*
X100097857Y-55066428D01*
X100240714Y-55102142D01*
X100347857Y-55102142D01*
X100490714Y-55066428D01*
X100562142Y-55030714D01*
X100633571Y-54959285D01*
X100669285Y-54852142D01*
X100669285Y-54673571D01*
X100597857Y-55852142D02*
X100633571Y-55816428D01*
X100669285Y-55709285D01*
X100669285Y-55637857D01*
X100633571Y-55530714D01*
X100562142Y-55459285D01*
X100490714Y-55423571D01*
X100347857Y-55387857D01*
X100240714Y-55387857D01*
X100097857Y-55423571D01*
X100026428Y-55459285D01*
X99955000Y-55530714D01*
X99919285Y-55637857D01*
X99919285Y-55709285D01*
X99955000Y-55816428D01*
X99990714Y-55852142D01*
%TO.C,JP4*%
X106282685Y-54808108D02*
X105532685Y-54808108D01*
X106068400Y-55058108D01*
X105532685Y-55308108D01*
X106282685Y-55308108D01*
X105532685Y-55808108D02*
X105532685Y-55950965D01*
X105568400Y-56022394D01*
X105639828Y-56093822D01*
X105782685Y-56129537D01*
X106032685Y-56129537D01*
X106175542Y-56093822D01*
X106246971Y-56022394D01*
X106282685Y-55950965D01*
X106282685Y-55808108D01*
X106246971Y-55736680D01*
X106175542Y-55665251D01*
X106032685Y-55629537D01*
X105782685Y-55629537D01*
X105639828Y-55665251D01*
X105568400Y-55736680D01*
X105532685Y-55808108D01*
X106246971Y-56415251D02*
X106282685Y-56522394D01*
X106282685Y-56700965D01*
X106246971Y-56772394D01*
X106211257Y-56808108D01*
X106139828Y-56843822D01*
X106068400Y-56843822D01*
X105996971Y-56808108D01*
X105961257Y-56772394D01*
X105925542Y-56700965D01*
X105889828Y-56558108D01*
X105854114Y-56486680D01*
X105818400Y-56450965D01*
X105746971Y-56415251D01*
X105675542Y-56415251D01*
X105604114Y-56450965D01*
X105568400Y-56486680D01*
X105532685Y-56558108D01*
X105532685Y-56736680D01*
X105568400Y-56843822D01*
X106282685Y-57165251D02*
X105532685Y-57165251D01*
%TO.C,JP5*%
D11*
X98581586Y-91605409D02*
X98581586Y-92081600D01*
X98867300Y-91510171D02*
X97867300Y-91843504D01*
X98867300Y-92176838D01*
X98200634Y-92938742D02*
X98867300Y-92938742D01*
X98200634Y-92510171D02*
X98724443Y-92510171D01*
X98819681Y-92557790D01*
X98867300Y-92653028D01*
X98867300Y-92795885D01*
X98819681Y-92891123D01*
X98772062Y-92938742D01*
X98200634Y-93272076D02*
X98200634Y-93653028D01*
X97867300Y-93414933D02*
X98724443Y-93414933D01*
X98819681Y-93462552D01*
X98867300Y-93557790D01*
X98867300Y-93653028D01*
X98867300Y-94129219D02*
X98819681Y-94033980D01*
X98772062Y-93986361D01*
X98676824Y-93938742D01*
X98391110Y-93938742D01*
X98295872Y-93986361D01*
X98248253Y-94033980D01*
X98200634Y-94129219D01*
X98200634Y-94272076D01*
X98248253Y-94367314D01*
X98295872Y-94414933D01*
X98391110Y-94462552D01*
X98676824Y-94462552D01*
X98772062Y-94414933D01*
X98819681Y-94367314D01*
X98867300Y-94272076D01*
X98867300Y-94129219D01*
X97867300Y-95081600D02*
X97867300Y-95272076D01*
X97914920Y-95367314D01*
X98010158Y-95462552D01*
X98200634Y-95510171D01*
X98533967Y-95510171D01*
X98724443Y-95462552D01*
X98819681Y-95367314D01*
X98867300Y-95272076D01*
X98867300Y-95081600D01*
X98819681Y-94986361D01*
X98724443Y-94891123D01*
X98533967Y-94843504D01*
X98200634Y-94843504D01*
X98010158Y-94891123D01*
X97914920Y-94986361D01*
X97867300Y-95081600D01*
X98867300Y-95938742D02*
X97867300Y-95938742D01*
X98867300Y-96510171D01*
X97867300Y-96510171D01*
%TD*%
M02*
