%TF.GenerationSoftware,KiCad,Pcbnew,(5.1.6)-1*%
%TF.CreationDate,2020-08-18T23:06:57+02:00*%
%TF.ProjectId,ESP32-S2-WROOM,45535033-322d-4533-922d-57524f4f4d2e,1.2*%
%TF.SameCoordinates,Original*%
%TF.FileFunction,Copper,L1,Top*%
%TF.FilePolarity,Positive*%
%FSLAX46Y46*%
G04 Gerber Fmt 4.6, Leading zero omitted, Abs format (unit mm)*
G04 Created by KiCad (PCBNEW (5.1.6)-1) date 2020-08-18 23:06:57*
%MOMM*%
%LPD*%
G01*
G04 APERTURE LIST*
%TA.AperFunction,SMDPad,CuDef*%
%ADD10R,1.250000X1.000000*%
%TD*%
%TA.AperFunction,SMDPad,CuDef*%
%ADD11R,0.400000X2.000000*%
%TD*%
%TA.AperFunction,ComponentPad*%
%ADD12O,1.250000X0.950000*%
%TD*%
%TA.AperFunction,ComponentPad*%
%ADD13O,1.000000X1.550000*%
%TD*%
%TA.AperFunction,SMDPad,CuDef*%
%ADD14R,1.300000X0.700000*%
%TD*%
%TA.AperFunction,SMDPad,CuDef*%
%ADD15R,1.700000X0.900000*%
%TD*%
%TA.AperFunction,SMDPad,CuDef*%
%ADD16R,0.800000X1.000000*%
%TD*%
%TA.AperFunction,SMDPad,CuDef*%
%ADD17R,1.500000X0.700000*%
%TD*%
%TA.AperFunction,SMDPad,CuDef*%
%ADD18R,1.500000X2.000000*%
%TD*%
%TA.AperFunction,SMDPad,CuDef*%
%ADD19R,3.800000X2.000000*%
%TD*%
%TA.AperFunction,ComponentPad*%
%ADD20C,0.400000*%
%TD*%
%TA.AperFunction,SMDPad,CuDef*%
%ADD21R,1.000000X1.250000*%
%TD*%
%TA.AperFunction,ComponentPad*%
%ADD22O,1.000000X1.000000*%
%TD*%
%TA.AperFunction,ComponentPad*%
%ADD23R,1.000000X1.000000*%
%TD*%
%TA.AperFunction,SMDPad,CuDef*%
%ADD24R,1.000000X1.600000*%
%TD*%
%TA.AperFunction,SMDPad,CuDef*%
%ADD25R,0.900000X0.800000*%
%TD*%
%TA.AperFunction,SMDPad,CuDef*%
%ADD26R,1.500000X1.300000*%
%TD*%
%TA.AperFunction,SMDPad,CuDef*%
%ADD27R,1.560000X0.650000*%
%TD*%
%TA.AperFunction,SMDPad,CuDef*%
%ADD28R,0.350000X2.000000*%
%TD*%
%TA.AperFunction,ViaPad*%
%ADD29C,0.800000*%
%TD*%
%TA.AperFunction,Conductor*%
%ADD30C,0.250000*%
%TD*%
%TA.AperFunction,Conductor*%
%ADD31C,0.254000*%
%TD*%
G04 APERTURE END LIST*
D10*
%TO.P,C1,2*%
%TO.N,GND*%
X102616000Y-121428000D03*
%TO.P,C1,1*%
%TO.N,Net-(C1-Pad1)*%
X102616000Y-123428000D03*
%TD*%
%TO.P,C2,1*%
%TO.N,Net-(C2-Pad1)*%
X90424000Y-121428000D03*
%TO.P,C2,2*%
%TO.N,GND*%
X90424000Y-123428000D03*
%TD*%
%TO.P,C3,1*%
%TO.N,GND*%
X85344000Y-76184000D03*
%TO.P,C3,2*%
%TO.N,/3.3v*%
X85344000Y-74184000D03*
%TD*%
%TO.P,C4,2*%
%TO.N,/3.3v*%
X85344000Y-79740000D03*
%TO.P,C4,1*%
%TO.N,GND*%
X85344000Y-77740000D03*
%TD*%
%TO.P,C5,1*%
%TO.N,Net-(C5-Pad1)*%
X87884000Y-121428000D03*
%TO.P,C5,2*%
%TO.N,GND*%
X87884000Y-123428000D03*
%TD*%
%TO.P,C6,2*%
%TO.N,/EN*%
X108902000Y-80311500D03*
%TO.P,C6,1*%
%TO.N,GND*%
X108902000Y-78311500D03*
%TD*%
D11*
%TO.P,J1,1*%
%TO.N,/VUSB*%
X95229680Y-123802140D03*
%TO.P,J1,2*%
%TO.N,Net-(C2-Pad1)*%
X95862140Y-123802140D03*
%TO.P,J1,3*%
%TO.N,Net-(C1-Pad1)*%
X96507300Y-123794520D03*
%TO.P,J1,4*%
%TO.N,N/C*%
X97165160Y-123807220D03*
%TO.P,J1,5*%
%TO.N,GND*%
X97815400Y-123807220D03*
D12*
%TO.P,J1,6*%
X94020000Y-124126000D03*
X99020000Y-124126000D03*
D13*
X93020000Y-126826000D03*
X100020000Y-126826000D03*
%TD*%
D14*
%TO.P,R1,2*%
%TO.N,Net-(C1-Pad1)*%
X102616000Y-117922000D03*
%TO.P,R1,1*%
%TO.N,/D+*%
X102616000Y-119822000D03*
%TD*%
%TO.P,R2,1*%
%TO.N,/D-*%
X92456000Y-117922000D03*
%TO.P,R2,2*%
%TO.N,Net-(C2-Pad1)*%
X92456000Y-119822000D03*
%TD*%
%TO.P,R3,2*%
%TO.N,/EN*%
X95250000Y-113350000D03*
%TO.P,R3,1*%
%TO.N,/3.3v*%
X95250000Y-115250000D03*
%TD*%
%TO.P,R4,1*%
%TO.N,/EN*%
X92456000Y-113350000D03*
%TO.P,R4,2*%
%TO.N,Net-(C5-Pad1)*%
X92456000Y-115250000D03*
%TD*%
D15*
%TO.P,SW1,2*%
%TO.N,Net-(C5-Pad1)*%
X87630000Y-115140000D03*
%TO.P,SW1,1*%
%TO.N,GND*%
X87630000Y-118540000D03*
%TD*%
D16*
%TO.P,SW2,*%
%TO.N,*%
X86695500Y-105634000D03*
X86695500Y-112934000D03*
X84485500Y-112934000D03*
X84485500Y-105634000D03*
D17*
%TO.P,SW2,3*%
%TO.N,N/C*%
X87345500Y-111534000D03*
%TO.P,SW2,2*%
%TO.N,GND*%
X87345500Y-110034000D03*
%TO.P,SW2,1*%
%TO.N,/IO0*%
X87345500Y-107034000D03*
%TD*%
D18*
%TO.P,U1,1*%
%TO.N,GND*%
X99300000Y-114910000D03*
%TO.P,U1,3*%
%TO.N,Net-(C7-Pad2)*%
X103900000Y-114910000D03*
%TO.P,U1,2*%
%TO.N,/3.3v*%
X101600000Y-114910000D03*
D19*
X101600000Y-108610000D03*
%TD*%
%TO.P,U2,1*%
%TO.N,GND*%
%TA.AperFunction,SMDPad,CuDef*%
G36*
G01*
X86970000Y-78838900D02*
X86970000Y-78081100D01*
G75*
G02*
X87041100Y-78010000I71100J0D01*
G01*
X88398900Y-78010000D01*
G75*
G02*
X88470000Y-78081100I0J-71100D01*
G01*
X88470000Y-78838900D01*
G75*
G02*
X88398900Y-78910000I-71100J0D01*
G01*
X87041100Y-78910000D01*
G75*
G02*
X86970000Y-78838900I0J71100D01*
G01*
G37*
%TD.AperFunction*%
%TO.P,U2,2*%
%TO.N,/3.3v*%
%TA.AperFunction,SMDPad,CuDef*%
G36*
G01*
X86970000Y-80338900D02*
X86970000Y-79581100D01*
G75*
G02*
X87041100Y-79510000I71100J0D01*
G01*
X88398900Y-79510000D01*
G75*
G02*
X88470000Y-79581100I0J-71100D01*
G01*
X88470000Y-80338900D01*
G75*
G02*
X88398900Y-80410000I-71100J0D01*
G01*
X87041100Y-80410000D01*
G75*
G02*
X86970000Y-80338900I0J71100D01*
G01*
G37*
%TD.AperFunction*%
%TO.P,U2,3*%
%TO.N,/IO0*%
%TA.AperFunction,SMDPad,CuDef*%
G36*
G01*
X86970000Y-81838900D02*
X86970000Y-81081100D01*
G75*
G02*
X87041100Y-81010000I71100J0D01*
G01*
X88398900Y-81010000D01*
G75*
G02*
X88470000Y-81081100I0J-71100D01*
G01*
X88470000Y-81838900D01*
G75*
G02*
X88398900Y-81910000I-71100J0D01*
G01*
X87041100Y-81910000D01*
G75*
G02*
X86970000Y-81838900I0J71100D01*
G01*
G37*
%TD.AperFunction*%
%TO.P,U2,4*%
%TO.N,Net-(J2-Pad4)*%
%TA.AperFunction,SMDPad,CuDef*%
G36*
G01*
X86970000Y-83338900D02*
X86970000Y-82581100D01*
G75*
G02*
X87041100Y-82510000I71100J0D01*
G01*
X88398900Y-82510000D01*
G75*
G02*
X88470000Y-82581100I0J-71100D01*
G01*
X88470000Y-83338900D01*
G75*
G02*
X88398900Y-83410000I-71100J0D01*
G01*
X87041100Y-83410000D01*
G75*
G02*
X86970000Y-83338900I0J71100D01*
G01*
G37*
%TD.AperFunction*%
%TO.P,U2,5*%
%TO.N,Net-(J2-Pad5)*%
%TA.AperFunction,SMDPad,CuDef*%
G36*
G01*
X86970000Y-84838900D02*
X86970000Y-84081100D01*
G75*
G02*
X87041100Y-84010000I71100J0D01*
G01*
X88398900Y-84010000D01*
G75*
G02*
X88470000Y-84081100I0J-71100D01*
G01*
X88470000Y-84838900D01*
G75*
G02*
X88398900Y-84910000I-71100J0D01*
G01*
X87041100Y-84910000D01*
G75*
G02*
X86970000Y-84838900I0J71100D01*
G01*
G37*
%TD.AperFunction*%
%TO.P,U2,6*%
%TO.N,Net-(J2-Pad6)*%
%TA.AperFunction,SMDPad,CuDef*%
G36*
G01*
X86970000Y-86338900D02*
X86970000Y-85581100D01*
G75*
G02*
X87041100Y-85510000I71100J0D01*
G01*
X88398900Y-85510000D01*
G75*
G02*
X88470000Y-85581100I0J-71100D01*
G01*
X88470000Y-86338900D01*
G75*
G02*
X88398900Y-86410000I-71100J0D01*
G01*
X87041100Y-86410000D01*
G75*
G02*
X86970000Y-86338900I0J71100D01*
G01*
G37*
%TD.AperFunction*%
%TO.P,U2,7*%
%TO.N,Net-(J2-Pad7)*%
%TA.AperFunction,SMDPad,CuDef*%
G36*
G01*
X86970000Y-87838900D02*
X86970000Y-87081100D01*
G75*
G02*
X87041100Y-87010000I71100J0D01*
G01*
X88398900Y-87010000D01*
G75*
G02*
X88470000Y-87081100I0J-71100D01*
G01*
X88470000Y-87838900D01*
G75*
G02*
X88398900Y-87910000I-71100J0D01*
G01*
X87041100Y-87910000D01*
G75*
G02*
X86970000Y-87838900I0J71100D01*
G01*
G37*
%TD.AperFunction*%
%TO.P,U2,8*%
%TO.N,Net-(J2-Pad8)*%
%TA.AperFunction,SMDPad,CuDef*%
G36*
G01*
X86970000Y-89338900D02*
X86970000Y-88581100D01*
G75*
G02*
X87041100Y-88510000I71100J0D01*
G01*
X88398900Y-88510000D01*
G75*
G02*
X88470000Y-88581100I0J-71100D01*
G01*
X88470000Y-89338900D01*
G75*
G02*
X88398900Y-89410000I-71100J0D01*
G01*
X87041100Y-89410000D01*
G75*
G02*
X86970000Y-89338900I0J71100D01*
G01*
G37*
%TD.AperFunction*%
%TO.P,U2,9*%
%TO.N,Net-(J2-Pad9)*%
%TA.AperFunction,SMDPad,CuDef*%
G36*
G01*
X86970000Y-90838900D02*
X86970000Y-90081100D01*
G75*
G02*
X87041100Y-90010000I71100J0D01*
G01*
X88398900Y-90010000D01*
G75*
G02*
X88470000Y-90081100I0J-71100D01*
G01*
X88470000Y-90838900D01*
G75*
G02*
X88398900Y-90910000I-71100J0D01*
G01*
X87041100Y-90910000D01*
G75*
G02*
X86970000Y-90838900I0J71100D01*
G01*
G37*
%TD.AperFunction*%
%TO.P,U2,10*%
%TO.N,Net-(J2-Pad10)*%
%TA.AperFunction,SMDPad,CuDef*%
G36*
G01*
X86970000Y-92338900D02*
X86970000Y-91581100D01*
G75*
G02*
X87041100Y-91510000I71100J0D01*
G01*
X88398900Y-91510000D01*
G75*
G02*
X88470000Y-91581100I0J-71100D01*
G01*
X88470000Y-92338900D01*
G75*
G02*
X88398900Y-92410000I-71100J0D01*
G01*
X87041100Y-92410000D01*
G75*
G02*
X86970000Y-92338900I0J71100D01*
G01*
G37*
%TD.AperFunction*%
%TO.P,U2,11*%
%TO.N,Net-(J2-Pad11)*%
%TA.AperFunction,SMDPad,CuDef*%
G36*
G01*
X86970000Y-93838900D02*
X86970000Y-93081100D01*
G75*
G02*
X87041100Y-93010000I71100J0D01*
G01*
X88398900Y-93010000D01*
G75*
G02*
X88470000Y-93081100I0J-71100D01*
G01*
X88470000Y-93838900D01*
G75*
G02*
X88398900Y-93910000I-71100J0D01*
G01*
X87041100Y-93910000D01*
G75*
G02*
X86970000Y-93838900I0J71100D01*
G01*
G37*
%TD.AperFunction*%
%TO.P,U2,12*%
%TO.N,/TFT_RESET*%
%TA.AperFunction,SMDPad,CuDef*%
G36*
G01*
X86970000Y-95338900D02*
X86970000Y-94581100D01*
G75*
G02*
X87041100Y-94510000I71100J0D01*
G01*
X88398900Y-94510000D01*
G75*
G02*
X88470000Y-94581100I0J-71100D01*
G01*
X88470000Y-95338900D01*
G75*
G02*
X88398900Y-95410000I-71100J0D01*
G01*
X87041100Y-95410000D01*
G75*
G02*
X86970000Y-95338900I0J71100D01*
G01*
G37*
%TD.AperFunction*%
%TO.P,U2,13*%
%TO.N,/SPI_CS*%
%TA.AperFunction,SMDPad,CuDef*%
G36*
G01*
X86970000Y-96838900D02*
X86970000Y-96081100D01*
G75*
G02*
X87041100Y-96010000I71100J0D01*
G01*
X88398900Y-96010000D01*
G75*
G02*
X88470000Y-96081100I0J-71100D01*
G01*
X88470000Y-96838900D01*
G75*
G02*
X88398900Y-96910000I-71100J0D01*
G01*
X87041100Y-96910000D01*
G75*
G02*
X86970000Y-96838900I0J71100D01*
G01*
G37*
%TD.AperFunction*%
%TO.P,U2,14*%
%TO.N,/SPI_MOSI*%
%TA.AperFunction,SMDPad,CuDef*%
G36*
G01*
X86970000Y-98338900D02*
X86970000Y-97581100D01*
G75*
G02*
X87041100Y-97510000I71100J0D01*
G01*
X88398900Y-97510000D01*
G75*
G02*
X88470000Y-97581100I0J-71100D01*
G01*
X88470000Y-98338900D01*
G75*
G02*
X88398900Y-98410000I-71100J0D01*
G01*
X87041100Y-98410000D01*
G75*
G02*
X86970000Y-98338900I0J71100D01*
G01*
G37*
%TD.AperFunction*%
%TO.P,U2,15*%
%TO.N,/SPI_CLK*%
%TA.AperFunction,SMDPad,CuDef*%
G36*
G01*
X86970000Y-99838900D02*
X86970000Y-99081100D01*
G75*
G02*
X87041100Y-99010000I71100J0D01*
G01*
X88398900Y-99010000D01*
G75*
G02*
X88470000Y-99081100I0J-71100D01*
G01*
X88470000Y-99838900D01*
G75*
G02*
X88398900Y-99910000I-71100J0D01*
G01*
X87041100Y-99910000D01*
G75*
G02*
X86970000Y-99838900I0J71100D01*
G01*
G37*
%TD.AperFunction*%
%TO.P,U2,16*%
%TO.N,/SPI_MISO*%
%TA.AperFunction,SMDPad,CuDef*%
G36*
G01*
X86970000Y-101338900D02*
X86970000Y-100581100D01*
G75*
G02*
X87041100Y-100510000I71100J0D01*
G01*
X88398900Y-100510000D01*
G75*
G02*
X88470000Y-100581100I0J-71100D01*
G01*
X88470000Y-101338900D01*
G75*
G02*
X88398900Y-101410000I-71100J0D01*
G01*
X87041100Y-101410000D01*
G75*
G02*
X86970000Y-101338900I0J71100D01*
G01*
G37*
%TD.AperFunction*%
%TO.P,U2,17*%
%TO.N,/DC_DISP*%
%TA.AperFunction,SMDPad,CuDef*%
G36*
G01*
X90098900Y-102460000D02*
X89341100Y-102460000D01*
G75*
G02*
X89270000Y-102388900I0J71100D01*
G01*
X89270000Y-101031100D01*
G75*
G02*
X89341100Y-100960000I71100J0D01*
G01*
X90098900Y-100960000D01*
G75*
G02*
X90170000Y-101031100I0J-71100D01*
G01*
X90170000Y-102388900D01*
G75*
G02*
X90098900Y-102460000I-71100J0D01*
G01*
G37*
%TD.AperFunction*%
%TO.P,U2,18*%
%TO.N,Net-(J3-Pad20)*%
%TA.AperFunction,SMDPad,CuDef*%
G36*
G01*
X91598900Y-102460000D02*
X90841100Y-102460000D01*
G75*
G02*
X90770000Y-102388900I0J71100D01*
G01*
X90770000Y-101031100D01*
G75*
G02*
X90841100Y-100960000I71100J0D01*
G01*
X91598900Y-100960000D01*
G75*
G02*
X91670000Y-101031100I0J-71100D01*
G01*
X91670000Y-102388900D01*
G75*
G02*
X91598900Y-102460000I-71100J0D01*
G01*
G37*
%TD.AperFunction*%
%TO.P,U2,19*%
%TO.N,/RGBLED*%
%TA.AperFunction,SMDPad,CuDef*%
G36*
G01*
X93098900Y-102460000D02*
X92341100Y-102460000D01*
G75*
G02*
X92270000Y-102388900I0J71100D01*
G01*
X92270000Y-101031100D01*
G75*
G02*
X92341100Y-100960000I71100J0D01*
G01*
X93098900Y-100960000D01*
G75*
G02*
X93170000Y-101031100I0J-71100D01*
G01*
X93170000Y-102388900D01*
G75*
G02*
X93098900Y-102460000I-71100J0D01*
G01*
G37*
%TD.AperFunction*%
%TO.P,U2,20*%
%TO.N,/U1TXD*%
%TA.AperFunction,SMDPad,CuDef*%
G36*
G01*
X94598900Y-102460000D02*
X93841100Y-102460000D01*
G75*
G02*
X93770000Y-102388900I0J71100D01*
G01*
X93770000Y-101031100D01*
G75*
G02*
X93841100Y-100960000I71100J0D01*
G01*
X94598900Y-100960000D01*
G75*
G02*
X94670000Y-101031100I0J-71100D01*
G01*
X94670000Y-102388900D01*
G75*
G02*
X94598900Y-102460000I-71100J0D01*
G01*
G37*
%TD.AperFunction*%
%TO.P,U2,21*%
%TO.N,/U1RXD*%
%TA.AperFunction,SMDPad,CuDef*%
G36*
G01*
X96098900Y-102460000D02*
X95341100Y-102460000D01*
G75*
G02*
X95270000Y-102388900I0J71100D01*
G01*
X95270000Y-101031100D01*
G75*
G02*
X95341100Y-100960000I71100J0D01*
G01*
X96098900Y-100960000D01*
G75*
G02*
X96170000Y-101031100I0J-71100D01*
G01*
X96170000Y-102388900D01*
G75*
G02*
X96098900Y-102460000I-71100J0D01*
G01*
G37*
%TD.AperFunction*%
%TO.P,U2,22*%
%TO.N,/D-*%
%TA.AperFunction,SMDPad,CuDef*%
G36*
G01*
X97598900Y-102460000D02*
X96841100Y-102460000D01*
G75*
G02*
X96770000Y-102388900I0J71100D01*
G01*
X96770000Y-101031100D01*
G75*
G02*
X96841100Y-100960000I71100J0D01*
G01*
X97598900Y-100960000D01*
G75*
G02*
X97670000Y-101031100I0J-71100D01*
G01*
X97670000Y-102388900D01*
G75*
G02*
X97598900Y-102460000I-71100J0D01*
G01*
G37*
%TD.AperFunction*%
%TO.P,U2,23*%
%TO.N,/D+*%
%TA.AperFunction,SMDPad,CuDef*%
G36*
G01*
X99098900Y-102460000D02*
X98341100Y-102460000D01*
G75*
G02*
X98270000Y-102388900I0J71100D01*
G01*
X98270000Y-101031100D01*
G75*
G02*
X98341100Y-100960000I71100J0D01*
G01*
X99098900Y-100960000D01*
G75*
G02*
X99170000Y-101031100I0J-71100D01*
G01*
X99170000Y-102388900D01*
G75*
G02*
X99098900Y-102460000I-71100J0D01*
G01*
G37*
%TD.AperFunction*%
%TO.P,U2,24*%
%TO.N,Net-(J3-Pad16)*%
%TA.AperFunction,SMDPad,CuDef*%
G36*
G01*
X100598900Y-102460000D02*
X99841100Y-102460000D01*
G75*
G02*
X99770000Y-102388900I0J71100D01*
G01*
X99770000Y-101031100D01*
G75*
G02*
X99841100Y-100960000I71100J0D01*
G01*
X100598900Y-100960000D01*
G75*
G02*
X100670000Y-101031100I0J-71100D01*
G01*
X100670000Y-102388900D01*
G75*
G02*
X100598900Y-102460000I-71100J0D01*
G01*
G37*
%TD.AperFunction*%
%TO.P,U2,25*%
%TO.N,Net-(J3-Pad15)*%
%TA.AperFunction,SMDPad,CuDef*%
G36*
G01*
X102098900Y-102460000D02*
X101341100Y-102460000D01*
G75*
G02*
X101270000Y-102388900I0J71100D01*
G01*
X101270000Y-101031100D01*
G75*
G02*
X101341100Y-100960000I71100J0D01*
G01*
X102098900Y-100960000D01*
G75*
G02*
X102170000Y-101031100I0J-71100D01*
G01*
X102170000Y-102388900D01*
G75*
G02*
X102098900Y-102460000I-71100J0D01*
G01*
G37*
%TD.AperFunction*%
%TO.P,U2,26*%
%TO.N,GND*%
%TA.AperFunction,SMDPad,CuDef*%
G36*
G01*
X103598900Y-102460000D02*
X102841100Y-102460000D01*
G75*
G02*
X102770000Y-102388900I0J71100D01*
G01*
X102770000Y-101031100D01*
G75*
G02*
X102841100Y-100960000I71100J0D01*
G01*
X103598900Y-100960000D01*
G75*
G02*
X103670000Y-101031100I0J-71100D01*
G01*
X103670000Y-102388900D01*
G75*
G02*
X103598900Y-102460000I-71100J0D01*
G01*
G37*
%TD.AperFunction*%
%TO.P,U2,27*%
%TO.N,Net-(J3-Pad14)*%
%TA.AperFunction,SMDPad,CuDef*%
G36*
G01*
X105970000Y-100581100D02*
X105970000Y-101338900D01*
G75*
G02*
X105898900Y-101410000I-71100J0D01*
G01*
X104541100Y-101410000D01*
G75*
G02*
X104470000Y-101338900I0J71100D01*
G01*
X104470000Y-100581100D01*
G75*
G02*
X104541100Y-100510000I71100J0D01*
G01*
X105898900Y-100510000D01*
G75*
G02*
X105970000Y-100581100I0J-71100D01*
G01*
G37*
%TD.AperFunction*%
%TO.P,U2,28*%
%TO.N,Net-(J3-Pad13)*%
%TA.AperFunction,SMDPad,CuDef*%
G36*
G01*
X105970000Y-99081100D02*
X105970000Y-99838900D01*
G75*
G02*
X105898900Y-99910000I-71100J0D01*
G01*
X104541100Y-99910000D01*
G75*
G02*
X104470000Y-99838900I0J71100D01*
G01*
X104470000Y-99081100D01*
G75*
G02*
X104541100Y-99010000I71100J0D01*
G01*
X105898900Y-99010000D01*
G75*
G02*
X105970000Y-99081100I0J-71100D01*
G01*
G37*
%TD.AperFunction*%
%TO.P,U2,29*%
%TO.N,Net-(J3-Pad12)*%
%TA.AperFunction,SMDPad,CuDef*%
G36*
G01*
X105970000Y-97581100D02*
X105970000Y-98338900D01*
G75*
G02*
X105898900Y-98410000I-71100J0D01*
G01*
X104541100Y-98410000D01*
G75*
G02*
X104470000Y-98338900I0J71100D01*
G01*
X104470000Y-97581100D01*
G75*
G02*
X104541100Y-97510000I71100J0D01*
G01*
X105898900Y-97510000D01*
G75*
G02*
X105970000Y-97581100I0J-71100D01*
G01*
G37*
%TD.AperFunction*%
%TO.P,U2,30*%
%TO.N,Net-(J3-Pad11)*%
%TA.AperFunction,SMDPad,CuDef*%
G36*
G01*
X105970000Y-96081100D02*
X105970000Y-96838900D01*
G75*
G02*
X105898900Y-96910000I-71100J0D01*
G01*
X104541100Y-96910000D01*
G75*
G02*
X104470000Y-96838900I0J71100D01*
G01*
X104470000Y-96081100D01*
G75*
G02*
X104541100Y-96010000I71100J0D01*
G01*
X105898900Y-96010000D01*
G75*
G02*
X105970000Y-96081100I0J-71100D01*
G01*
G37*
%TD.AperFunction*%
%TO.P,U2,31*%
%TO.N,Net-(J3-Pad10)*%
%TA.AperFunction,SMDPad,CuDef*%
G36*
G01*
X105970000Y-94581100D02*
X105970000Y-95338900D01*
G75*
G02*
X105898900Y-95410000I-71100J0D01*
G01*
X104541100Y-95410000D01*
G75*
G02*
X104470000Y-95338900I0J71100D01*
G01*
X104470000Y-94581100D01*
G75*
G02*
X104541100Y-94510000I71100J0D01*
G01*
X105898900Y-94510000D01*
G75*
G02*
X105970000Y-94581100I0J-71100D01*
G01*
G37*
%TD.AperFunction*%
%TO.P,U2,32*%
%TO.N,Net-(J3-Pad9)*%
%TA.AperFunction,SMDPad,CuDef*%
G36*
G01*
X105970000Y-93081100D02*
X105970000Y-93838900D01*
G75*
G02*
X105898900Y-93910000I-71100J0D01*
G01*
X104541100Y-93910000D01*
G75*
G02*
X104470000Y-93838900I0J71100D01*
G01*
X104470000Y-93081100D01*
G75*
G02*
X104541100Y-93010000I71100J0D01*
G01*
X105898900Y-93010000D01*
G75*
G02*
X105970000Y-93081100I0J-71100D01*
G01*
G37*
%TD.AperFunction*%
%TO.P,U2,33*%
%TO.N,Net-(J3-Pad8)*%
%TA.AperFunction,SMDPad,CuDef*%
G36*
G01*
X105970000Y-91581100D02*
X105970000Y-92338900D01*
G75*
G02*
X105898900Y-92410000I-71100J0D01*
G01*
X104541100Y-92410000D01*
G75*
G02*
X104470000Y-92338900I0J71100D01*
G01*
X104470000Y-91581100D01*
G75*
G02*
X104541100Y-91510000I71100J0D01*
G01*
X105898900Y-91510000D01*
G75*
G02*
X105970000Y-91581100I0J-71100D01*
G01*
G37*
%TD.AperFunction*%
%TO.P,U2,34*%
%TO.N,/SCL*%
%TA.AperFunction,SMDPad,CuDef*%
G36*
G01*
X105970000Y-90081100D02*
X105970000Y-90838900D01*
G75*
G02*
X105898900Y-90910000I-71100J0D01*
G01*
X104541100Y-90910000D01*
G75*
G02*
X104470000Y-90838900I0J71100D01*
G01*
X104470000Y-90081100D01*
G75*
G02*
X104541100Y-90010000I71100J0D01*
G01*
X105898900Y-90010000D01*
G75*
G02*
X105970000Y-90081100I0J-71100D01*
G01*
G37*
%TD.AperFunction*%
%TO.P,U2,35*%
%TO.N,/SDA*%
%TA.AperFunction,SMDPad,CuDef*%
G36*
G01*
X105970000Y-88581100D02*
X105970000Y-89338900D01*
G75*
G02*
X105898900Y-89410000I-71100J0D01*
G01*
X104541100Y-89410000D01*
G75*
G02*
X104470000Y-89338900I0J71100D01*
G01*
X104470000Y-88581100D01*
G75*
G02*
X104541100Y-88510000I71100J0D01*
G01*
X105898900Y-88510000D01*
G75*
G02*
X105970000Y-88581100I0J-71100D01*
G01*
G37*
%TD.AperFunction*%
%TO.P,U2,36*%
%TO.N,Net-(J3-Pad5)*%
%TA.AperFunction,SMDPad,CuDef*%
G36*
G01*
X105970000Y-87081100D02*
X105970000Y-87838900D01*
G75*
G02*
X105898900Y-87910000I-71100J0D01*
G01*
X104541100Y-87910000D01*
G75*
G02*
X104470000Y-87838900I0J71100D01*
G01*
X104470000Y-87081100D01*
G75*
G02*
X104541100Y-87010000I71100J0D01*
G01*
X105898900Y-87010000D01*
G75*
G02*
X105970000Y-87081100I0J-71100D01*
G01*
G37*
%TD.AperFunction*%
%TO.P,U2,37*%
%TO.N,Net-(J3-Pad4)*%
%TA.AperFunction,SMDPad,CuDef*%
G36*
G01*
X105970000Y-85581100D02*
X105970000Y-86338900D01*
G75*
G02*
X105898900Y-86410000I-71100J0D01*
G01*
X104541100Y-86410000D01*
G75*
G02*
X104470000Y-86338900I0J71100D01*
G01*
X104470000Y-85581100D01*
G75*
G02*
X104541100Y-85510000I71100J0D01*
G01*
X105898900Y-85510000D01*
G75*
G02*
X105970000Y-85581100I0J-71100D01*
G01*
G37*
%TD.AperFunction*%
%TO.P,U2,38*%
%TO.N,Net-(J3-Pad3)*%
%TA.AperFunction,SMDPad,CuDef*%
G36*
G01*
X105970000Y-84081100D02*
X105970000Y-84838900D01*
G75*
G02*
X105898900Y-84910000I-71100J0D01*
G01*
X104541100Y-84910000D01*
G75*
G02*
X104470000Y-84838900I0J71100D01*
G01*
X104470000Y-84081100D01*
G75*
G02*
X104541100Y-84010000I71100J0D01*
G01*
X105898900Y-84010000D01*
G75*
G02*
X105970000Y-84081100I0J-71100D01*
G01*
G37*
%TD.AperFunction*%
%TO.P,U2,39*%
%TO.N,Net-(J3-Pad2)*%
%TA.AperFunction,SMDPad,CuDef*%
G36*
G01*
X105970000Y-82581100D02*
X105970000Y-83338900D01*
G75*
G02*
X105898900Y-83410000I-71100J0D01*
G01*
X104541100Y-83410000D01*
G75*
G02*
X104470000Y-83338900I0J71100D01*
G01*
X104470000Y-82581100D01*
G75*
G02*
X104541100Y-82510000I71100J0D01*
G01*
X105898900Y-82510000D01*
G75*
G02*
X105970000Y-82581100I0J-71100D01*
G01*
G37*
%TD.AperFunction*%
%TO.P,U2,40*%
%TO.N,Net-(J3-Pad1)*%
%TA.AperFunction,SMDPad,CuDef*%
G36*
G01*
X105970000Y-81081100D02*
X105970000Y-81838900D01*
G75*
G02*
X105898900Y-81910000I-71100J0D01*
G01*
X104541100Y-81910000D01*
G75*
G02*
X104470000Y-81838900I0J71100D01*
G01*
X104470000Y-81081100D01*
G75*
G02*
X104541100Y-81010000I71100J0D01*
G01*
X105898900Y-81010000D01*
G75*
G02*
X105970000Y-81081100I0J-71100D01*
G01*
G37*
%TD.AperFunction*%
%TO.P,U2,41*%
%TO.N,/EN*%
%TA.AperFunction,SMDPad,CuDef*%
G36*
G01*
X105970000Y-79581100D02*
X105970000Y-80338900D01*
G75*
G02*
X105898900Y-80410000I-71100J0D01*
G01*
X104541100Y-80410000D01*
G75*
G02*
X104470000Y-80338900I0J71100D01*
G01*
X104470000Y-79581100D01*
G75*
G02*
X104541100Y-79510000I71100J0D01*
G01*
X105898900Y-79510000D01*
G75*
G02*
X105970000Y-79581100I0J-71100D01*
G01*
G37*
%TD.AperFunction*%
%TO.P,U2,42*%
%TO.N,GND*%
%TA.AperFunction,SMDPad,CuDef*%
G36*
G01*
X105970000Y-78081100D02*
X105970000Y-78838900D01*
G75*
G02*
X105898900Y-78910000I-71100J0D01*
G01*
X104541100Y-78910000D01*
G75*
G02*
X104470000Y-78838900I0J71100D01*
G01*
X104470000Y-78081100D01*
G75*
G02*
X104541100Y-78010000I71100J0D01*
G01*
X105898900Y-78010000D01*
G75*
G02*
X105970000Y-78081100I0J-71100D01*
G01*
G37*
%TD.AperFunction*%
%TO.P,U2,43*%
%TA.AperFunction,SMDPad,CuDef*%
G36*
G01*
X94380000Y-84571900D02*
X94380000Y-85498100D01*
G75*
G02*
X94293100Y-85585000I-86900J0D01*
G01*
X93366900Y-85585000D01*
G75*
G02*
X93280000Y-85498100I0J86900D01*
G01*
X93280000Y-84571900D01*
G75*
G02*
X93366900Y-84485000I86900J0D01*
G01*
X94293100Y-84485000D01*
G75*
G02*
X94380000Y-84571900I0J-86900D01*
G01*
G37*
%TD.AperFunction*%
%TA.AperFunction,SMDPad,CuDef*%
G36*
G01*
X95880000Y-84571900D02*
X95880000Y-85498100D01*
G75*
G02*
X95793100Y-85585000I-86900J0D01*
G01*
X94866900Y-85585000D01*
G75*
G02*
X94780000Y-85498100I0J86900D01*
G01*
X94780000Y-84571900D01*
G75*
G02*
X94866900Y-84485000I86900J0D01*
G01*
X95793100Y-84485000D01*
G75*
G02*
X95880000Y-84571900I0J-86900D01*
G01*
G37*
%TD.AperFunction*%
%TA.AperFunction,SMDPad,CuDef*%
G36*
G01*
X97380000Y-84571900D02*
X97380000Y-85498100D01*
G75*
G02*
X97293100Y-85585000I-86900J0D01*
G01*
X96366900Y-85585000D01*
G75*
G02*
X96280000Y-85498100I0J86900D01*
G01*
X96280000Y-84571900D01*
G75*
G02*
X96366900Y-84485000I86900J0D01*
G01*
X97293100Y-84485000D01*
G75*
G02*
X97380000Y-84571900I0J-86900D01*
G01*
G37*
%TD.AperFunction*%
%TA.AperFunction,SMDPad,CuDef*%
G36*
G01*
X94380000Y-86071900D02*
X94380000Y-86998100D01*
G75*
G02*
X94293100Y-87085000I-86900J0D01*
G01*
X93366900Y-87085000D01*
G75*
G02*
X93280000Y-86998100I0J86900D01*
G01*
X93280000Y-86071900D01*
G75*
G02*
X93366900Y-85985000I86900J0D01*
G01*
X94293100Y-85985000D01*
G75*
G02*
X94380000Y-86071900I0J-86900D01*
G01*
G37*
%TD.AperFunction*%
%TA.AperFunction,SMDPad,CuDef*%
G36*
G01*
X95880000Y-86071900D02*
X95880000Y-86998100D01*
G75*
G02*
X95793100Y-87085000I-86900J0D01*
G01*
X94866900Y-87085000D01*
G75*
G02*
X94780000Y-86998100I0J86900D01*
G01*
X94780000Y-86071900D01*
G75*
G02*
X94866900Y-85985000I86900J0D01*
G01*
X95793100Y-85985000D01*
G75*
G02*
X95880000Y-86071900I0J-86900D01*
G01*
G37*
%TD.AperFunction*%
%TA.AperFunction,SMDPad,CuDef*%
G36*
G01*
X97380000Y-86071900D02*
X97380000Y-86998100D01*
G75*
G02*
X97293100Y-87085000I-86900J0D01*
G01*
X96366900Y-87085000D01*
G75*
G02*
X96280000Y-86998100I0J86900D01*
G01*
X96280000Y-86071900D01*
G75*
G02*
X96366900Y-85985000I86900J0D01*
G01*
X97293100Y-85985000D01*
G75*
G02*
X97380000Y-86071900I0J-86900D01*
G01*
G37*
%TD.AperFunction*%
%TA.AperFunction,SMDPad,CuDef*%
G36*
G01*
X94380000Y-87571900D02*
X94380000Y-88498100D01*
G75*
G02*
X94293100Y-88585000I-86900J0D01*
G01*
X93366900Y-88585000D01*
G75*
G02*
X93280000Y-88498100I0J86900D01*
G01*
X93280000Y-87571900D01*
G75*
G02*
X93366900Y-87485000I86900J0D01*
G01*
X94293100Y-87485000D01*
G75*
G02*
X94380000Y-87571900I0J-86900D01*
G01*
G37*
%TD.AperFunction*%
%TA.AperFunction,SMDPad,CuDef*%
G36*
G01*
X95880000Y-87571900D02*
X95880000Y-88498100D01*
G75*
G02*
X95793100Y-88585000I-86900J0D01*
G01*
X94866900Y-88585000D01*
G75*
G02*
X94780000Y-88498100I0J86900D01*
G01*
X94780000Y-87571900D01*
G75*
G02*
X94866900Y-87485000I86900J0D01*
G01*
X95793100Y-87485000D01*
G75*
G02*
X95880000Y-87571900I0J-86900D01*
G01*
G37*
%TD.AperFunction*%
%TA.AperFunction,SMDPad,CuDef*%
G36*
G01*
X97380000Y-87571900D02*
X97380000Y-88498100D01*
G75*
G02*
X97293100Y-88585000I-86900J0D01*
G01*
X96366900Y-88585000D01*
G75*
G02*
X96280000Y-88498100I0J86900D01*
G01*
X96280000Y-87571900D01*
G75*
G02*
X96366900Y-87485000I86900J0D01*
G01*
X97293100Y-87485000D01*
G75*
G02*
X97380000Y-87571900I0J-86900D01*
G01*
G37*
%TD.AperFunction*%
D20*
%TO.P,U2,*%
%TO.N,*%
X93820000Y-85793600D03*
X94582000Y-84980800D03*
X96106000Y-84980800D03*
X96817200Y-85793600D03*
X96817200Y-87266800D03*
X96055200Y-87978000D03*
X94582000Y-87978000D03*
X93820000Y-87266800D03*
X94582000Y-86504800D03*
X96106000Y-86454000D03*
X95344000Y-85793600D03*
X95293200Y-87266800D03*
%TD*%
D21*
%TO.P,C7,1*%
%TO.N,GND*%
X100568000Y-120396000D03*
%TO.P,C7,2*%
%TO.N,Net-(C7-Pad2)*%
X98568000Y-120396000D03*
%TD*%
%TO.P,C8,2*%
%TO.N,/3.3v*%
X96504000Y-118872000D03*
%TO.P,C8,1*%
%TO.N,GND*%
X94504000Y-118872000D03*
%TD*%
D22*
%TO.P,J2,16*%
%TO.N,/SPI_MISO*%
X85090000Y-101600000D03*
%TO.P,J2,15*%
%TO.N,/SPI_CLK*%
X85090000Y-100330000D03*
%TO.P,J2,14*%
%TO.N,/SPI_MOSI*%
X85090000Y-99060000D03*
%TO.P,J2,13*%
%TO.N,/SPI_CS*%
X85090000Y-97790000D03*
%TO.P,J2,12*%
%TO.N,/TFT_RESET*%
X85090000Y-96520000D03*
%TO.P,J2,11*%
%TO.N,Net-(J2-Pad11)*%
X85090000Y-95250000D03*
%TO.P,J2,10*%
%TO.N,Net-(J2-Pad10)*%
X85090000Y-93980000D03*
%TO.P,J2,9*%
%TO.N,Net-(J2-Pad9)*%
X85090000Y-92710000D03*
%TO.P,J2,8*%
%TO.N,Net-(J2-Pad8)*%
X85090000Y-91440000D03*
%TO.P,J2,7*%
%TO.N,Net-(J2-Pad7)*%
X85090000Y-90170000D03*
%TO.P,J2,6*%
%TO.N,Net-(J2-Pad6)*%
X85090000Y-88900000D03*
%TO.P,J2,5*%
%TO.N,Net-(J2-Pad5)*%
X85090000Y-87630000D03*
%TO.P,J2,4*%
%TO.N,Net-(J2-Pad4)*%
X85090000Y-86360000D03*
%TO.P,J2,3*%
%TO.N,/IO0*%
X85090000Y-85090000D03*
%TO.P,J2,2*%
%TO.N,/3.3v*%
X85090000Y-83820000D03*
D23*
%TO.P,J2,1*%
%TO.N,GND*%
X85090000Y-82550000D03*
%TD*%
D22*
%TO.P,J3,24*%
%TO.N,GND*%
X107950000Y-111760000D03*
%TO.P,J3,23*%
%TO.N,/VUSB*%
X107950000Y-110490000D03*
%TO.P,J3,22*%
%TO.N,/3.3v*%
X107950000Y-109220000D03*
%TO.P,J3,21*%
%TO.N,/DC_DISP*%
X107950000Y-107950000D03*
%TO.P,J3,20*%
%TO.N,Net-(J3-Pad20)*%
X107950000Y-106680000D03*
%TO.P,J3,19*%
%TO.N,/RGBLED*%
X107950000Y-105410000D03*
%TO.P,J3,18*%
%TO.N,/U1TXD*%
X107950000Y-104140000D03*
%TO.P,J3,17*%
%TO.N,/U1RXD*%
X107950000Y-102870000D03*
%TO.P,J3,16*%
%TO.N,Net-(J3-Pad16)*%
X107950000Y-101600000D03*
%TO.P,J3,15*%
%TO.N,Net-(J3-Pad15)*%
X107950000Y-100330000D03*
%TO.P,J3,14*%
%TO.N,Net-(J3-Pad14)*%
X107950000Y-99060000D03*
%TO.P,J3,13*%
%TO.N,Net-(J3-Pad13)*%
X107950000Y-97790000D03*
%TO.P,J3,12*%
%TO.N,Net-(J3-Pad12)*%
X107950000Y-96520000D03*
%TO.P,J3,11*%
%TO.N,Net-(J3-Pad11)*%
X107950000Y-95250000D03*
%TO.P,J3,10*%
%TO.N,Net-(J3-Pad10)*%
X107950000Y-93980000D03*
%TO.P,J3,9*%
%TO.N,Net-(J3-Pad9)*%
X107950000Y-92710000D03*
%TO.P,J3,8*%
%TO.N,Net-(J3-Pad8)*%
X107950000Y-91440000D03*
%TO.P,J3,7*%
%TO.N,/SCL*%
X107950000Y-90170000D03*
%TO.P,J3,6*%
%TO.N,/SDA*%
X107950000Y-88900000D03*
%TO.P,J3,5*%
%TO.N,Net-(J3-Pad5)*%
X107950000Y-87630000D03*
%TO.P,J3,4*%
%TO.N,Net-(J3-Pad4)*%
X107950000Y-86360000D03*
%TO.P,J3,3*%
%TO.N,Net-(J3-Pad3)*%
X107950000Y-85090000D03*
%TO.P,J3,2*%
%TO.N,Net-(J3-Pad2)*%
X107950000Y-83820000D03*
D23*
%TO.P,J3,1*%
%TO.N,Net-(J3-Pad1)*%
X107950000Y-82550000D03*
%TD*%
D24*
%TO.P,D1,1*%
%TO.N,/VBAT*%
X92380000Y-110450000D03*
%TO.P,D1,2*%
%TO.N,N/C*%
X95580000Y-110450000D03*
%TO.P,D1,4*%
%TO.N,Net-(D1-Pad4)*%
X92380000Y-105450000D03*
%TO.P,D1,3*%
%TO.N,GND*%
X95580000Y-105450000D03*
%TD*%
D14*
%TO.P,R5,2*%
%TO.N,/RGBLED*%
X89662000Y-104968000D03*
%TO.P,R5,1*%
%TO.N,Net-(D1-Pad4)*%
X89662000Y-106868000D03*
%TD*%
D21*
%TO.P,C9,2*%
%TO.N,GND*%
X103330000Y-125666000D03*
%TO.P,C9,1*%
%TO.N,/VUSB*%
X105330000Y-125666000D03*
%TD*%
D25*
%TO.P,D2,3*%
%TO.N,Net-(C7-Pad2)*%
X107426000Y-118554000D03*
%TO.P,D2,2*%
%TO.N,Net-(D2-Pad2)*%
X105426000Y-119504000D03*
%TO.P,D2,1*%
%TO.N,/VUSB*%
X105426000Y-117604000D03*
%TD*%
D26*
%TO.P,D3,2*%
%TO.N,Net-(D3-Pad2)*%
X87931000Y-125666000D03*
%TO.P,D3,1*%
%TO.N,Net-(D3-Pad1)*%
X90631000Y-125666000D03*
%TD*%
D14*
%TO.P,R6,1*%
%TO.N,Net-(R6-Pad1)*%
X104584000Y-106233000D03*
%TO.P,R6,2*%
%TO.N,GND*%
X104584000Y-104333000D03*
%TD*%
%TO.P,R7,2*%
%TO.N,Net-(D3-Pad2)*%
X85534500Y-123759000D03*
%TO.P,R7,1*%
%TO.N,/VUSB*%
X85534500Y-121859000D03*
%TD*%
D27*
%TO.P,U3,5*%
%TO.N,Net-(R6-Pad1)*%
X107649000Y-121414000D03*
%TO.P,U3,4*%
%TO.N,/VUSB*%
X107649000Y-123314000D03*
%TO.P,U3,3*%
%TO.N,/VBAT*%
X104949000Y-123314000D03*
%TO.P,U3,2*%
%TO.N,GND*%
X104949000Y-122364000D03*
%TO.P,U3,1*%
%TO.N,Net-(D3-Pad1)*%
X104949000Y-121414000D03*
%TD*%
D10*
%TO.P,C10,2*%
%TO.N,GND*%
X107061000Y-113935000D03*
%TO.P,C10,1*%
%TO.N,/VBAT*%
X107061000Y-115935000D03*
%TD*%
D28*
%TO.P,U4,12*%
%TO.N,GND*%
X95312000Y-57658000D03*
%TO.P,U4,11*%
%TO.N,/TFT_RESET*%
X96012000Y-57658000D03*
%TO.P,U4,10*%
%TO.N,Net-(JP4-Pad2)*%
X96712000Y-57658000D03*
%TO.P,U4,9*%
%TO.N,Net-(JP1-Pad2)*%
X97412000Y-57658000D03*
%TO.P,U4,8*%
%TO.N,Net-(JP2-Pad2)*%
X98112000Y-57658000D03*
%TO.P,U4,7*%
%TO.N,Net-(JP3-Pad2)*%
X98812000Y-57658000D03*
%TO.P,U4,6*%
%TO.N,GND*%
X99512000Y-57658000D03*
%TO.P,U4,5*%
X100212000Y-57658000D03*
%TO.P,U4,4*%
%TO.N,/3.3v*%
X100912000Y-57658000D03*
%TO.P,U4,3*%
X101612000Y-57658000D03*
%TO.P,U4,2*%
%TO.N,GND*%
X102312000Y-57658000D03*
%TO.P,U4,1*%
X103012000Y-57658000D03*
%TD*%
D29*
%TO.N,GND*%
X104902000Y-122388998D03*
X102616000Y-121428000D03*
X85324800Y-77740000D03*
X95250000Y-54483000D03*
X103251000Y-79883000D03*
X108839000Y-78359000D03*
X107061000Y-113919000D03*
X87884000Y-123444000D03*
X90424000Y-123428000D03*
X93091000Y-123317000D03*
X94504000Y-118872000D03*
X87630000Y-118540000D03*
X106680000Y-109093000D03*
X103378000Y-98806000D03*
X100330000Y-103176900D03*
X103632000Y-111633000D03*
X102362000Y-112776000D03*
X100838000Y-112268000D03*
X99300000Y-114910000D03*
X89217500Y-53594000D03*
X106934000Y-81153000D03*
X101473000Y-86614000D03*
X101473000Y-81788000D03*
%TO.N,/3.3v*%
X84963000Y-56007000D03*
%TO.N,/EN*%
X103115000Y-83885300D03*
X97970000Y-103144000D03*
%TO.N,Net-(J3-Pad20)*%
X90637700Y-103281400D03*
%TO.N,Net-(J3-Pad15)*%
X102403600Y-100281700D03*
%TO.N,/RGBLED*%
X92331100Y-103828100D03*
%TO.N,/VBAT*%
X104234500Y-117177700D03*
X93972600Y-104607100D03*
X92480700Y-111867300D03*
%TO.N,/DC_DISP*%
X89248500Y-103596800D03*
%TO.N,/U1TXD*%
X94831100Y-103333700D03*
%TO.N,/U1RXD*%
X96068900Y-103545600D03*
%TO.N,/SCL*%
X86042500Y-57531000D03*
%TO.N,/SDA*%
X87820500Y-60134500D03*
%TO.N,/D+*%
X101184600Y-119091900D03*
X98897500Y-109305000D03*
%TO.N,Net-(D2-Pad2)*%
X106505600Y-117482400D03*
X106887200Y-72638600D03*
X106621400Y-79526800D03*
%TO.N,Net-(JP1-Pad2)*%
X97273800Y-55593100D03*
%TO.N,Net-(JP2-Pad2)*%
X98820700Y-55390500D03*
X102870000Y-50419000D03*
%TO.N,Net-(JP3-Pad2)*%
X99704680Y-53680600D03*
%TO.N,Net-(JP4-Pad2)*%
X105727500Y-50228500D03*
%TO.N,/TFT_RESET*%
X84226400Y-103936800D03*
X87020400Y-104321800D03*
%TD*%
D30*
%TO.N,GND*%
X99512000Y-57658000D02*
X100212000Y-57658000D01*
X102312000Y-57658000D02*
X103012000Y-57658000D01*
X100203000Y-56515000D02*
X100212000Y-56524000D01*
X103012000Y-57658000D02*
X103012000Y-56022000D01*
X101600000Y-54610000D02*
X100838000Y-54610000D01*
X100838000Y-54610000D02*
X100203000Y-55245000D01*
X103012000Y-56022000D02*
X101600000Y-54610000D01*
X100212000Y-56524000D02*
X100212000Y-57658000D01*
X100203000Y-55245000D02*
X100203000Y-56515000D01*
X104949000Y-122364000D02*
X104926998Y-122364000D01*
X104926998Y-122364000D02*
X104902000Y-122388998D01*
X102616000Y-121428000D02*
X101362000Y-121428000D01*
X100568000Y-120634000D02*
X100568000Y-120396000D01*
X101362000Y-121428000D02*
X100568000Y-120634000D01*
X98701220Y-123807220D02*
X99020000Y-124126000D01*
X97815400Y-123807220D02*
X98701220Y-123807220D01*
X95302002Y-88035000D02*
X95330000Y-88035000D01*
X94329999Y-88503001D02*
X94834001Y-88503001D01*
X93830000Y-88035000D02*
X93861998Y-88035000D01*
X94834001Y-88503001D02*
X95302002Y-88035000D01*
X93861998Y-88035000D02*
X94329999Y-88503001D01*
X96361999Y-88503001D02*
X96830000Y-88035000D01*
X95798001Y-88503001D02*
X96361999Y-88503001D01*
X95330000Y-88035000D02*
X95798001Y-88503001D01*
X97342201Y-87047201D02*
X96830000Y-86535000D01*
X97342201Y-87522799D02*
X97342201Y-87047201D01*
X96830000Y-88035000D02*
X97342201Y-87522799D01*
X97342201Y-85547201D02*
X96830000Y-85035000D01*
X97342201Y-86022799D02*
X97342201Y-85547201D01*
X96830000Y-86535000D02*
X97342201Y-86022799D01*
X95800801Y-85505801D02*
X95330000Y-85035000D01*
X96359199Y-85505801D02*
X95800801Y-85505801D01*
X96830000Y-85035000D02*
X96359199Y-85505801D01*
X94859199Y-85505801D02*
X94300801Y-85505801D01*
X94300801Y-85505801D02*
X93830000Y-85035000D01*
X95330000Y-85035000D02*
X94859199Y-85505801D01*
X93294999Y-86045601D02*
X93784398Y-86535000D01*
X93294999Y-85541599D02*
X93294999Y-86045601D01*
X93801598Y-85035000D02*
X93294999Y-85541599D01*
X93784398Y-86535000D02*
X93830000Y-86535000D01*
X93830000Y-85035000D02*
X93801598Y-85035000D01*
X95774001Y-86979001D02*
X95330000Y-86535000D01*
X96358001Y-86979001D02*
X95774001Y-86979001D01*
X96631001Y-86706001D02*
X96358001Y-86979001D01*
X96681801Y-86706001D02*
X96631001Y-86706001D01*
X97342201Y-86045601D02*
X96681801Y-86706001D01*
X97342201Y-85541599D02*
X97342201Y-86045601D01*
X97069201Y-85268599D02*
X97342201Y-85541599D01*
X96292199Y-85541599D02*
X96565199Y-85268599D01*
X95869001Y-85541599D02*
X96292199Y-85541599D01*
X96565199Y-85268599D02*
X97069201Y-85268599D01*
X95362402Y-85035000D02*
X95869001Y-85541599D01*
X95330000Y-85035000D02*
X95362402Y-85035000D01*
X86064000Y-78460000D02*
X87720000Y-78460000D01*
X85344000Y-77740000D02*
X86064000Y-78460000D01*
X85090000Y-82550000D02*
X85090000Y-82169000D01*
X85090000Y-82169000D02*
X85217000Y-82042000D01*
X95312000Y-57658000D02*
X95312000Y-54545000D01*
X95312000Y-54545000D02*
X95250000Y-54483000D01*
X105220000Y-78460000D02*
X104674000Y-78460000D01*
X104674000Y-78460000D02*
X103251000Y-79883000D01*
X108902000Y-78311500D02*
X108886500Y-78311500D01*
X108886500Y-78311500D02*
X108839000Y-78359000D01*
X107061000Y-113935000D02*
X107061000Y-113919000D01*
X89681002Y-110034000D02*
X87345500Y-110034000D01*
X93205001Y-106510001D02*
X89681002Y-110034000D01*
X93205001Y-104301697D02*
X93205001Y-106510001D01*
X93624599Y-103882099D02*
X93205001Y-104301697D01*
X94312099Y-103882099D02*
X93624599Y-103882099D01*
X95580000Y-105150000D02*
X94312099Y-103882099D01*
X95580000Y-105450000D02*
X95580000Y-105150000D01*
X87884000Y-123428000D02*
X87884000Y-123444000D01*
X103220000Y-98964000D02*
X103378000Y-98806000D01*
X103220000Y-101710000D02*
X103220000Y-98964000D01*
X104584000Y-104333000D02*
X101486100Y-104333000D01*
X101486100Y-104333000D02*
X100330000Y-103176900D01*
X103632000Y-111633000D02*
X103505000Y-111633000D01*
X103505000Y-111633000D02*
X102362000Y-112776000D01*
X100838000Y-112268000D02*
X100838000Y-113372000D01*
X100838000Y-113372000D02*
X99300000Y-114910000D01*
X89217500Y-53594000D02*
X91821000Y-56197500D01*
X91821000Y-56197500D02*
X93281500Y-56197500D01*
X94996000Y-54483000D02*
X95250000Y-54483000D01*
X93281500Y-56197500D02*
X94996000Y-54483000D01*
X99695000Y-83566000D02*
X101473000Y-81788000D01*
X99695000Y-84836000D02*
X99695000Y-83566000D01*
X101473000Y-86614000D02*
X99695000Y-84836000D01*
%TO.N,Net-(C1-Pad1)*%
X96507300Y-123794500D02*
X96507300Y-122469200D01*
X99742600Y-121504900D02*
X101665700Y-123428000D01*
X102616000Y-117922000D02*
X101318400Y-117922000D01*
X101318400Y-117922000D02*
X99742600Y-119497800D01*
X99742600Y-119497800D02*
X99742600Y-121504900D01*
X96507300Y-122469200D02*
X98778300Y-122469200D01*
X98778300Y-122469200D02*
X99742600Y-121504900D01*
X102616000Y-123428000D02*
X101665700Y-123428000D01*
%TO.N,Net-(C2-Pad1)*%
X92456000Y-119822000D02*
X93431300Y-119822000D01*
X93431300Y-119822000D02*
X95862100Y-122252800D01*
X95862100Y-122252800D02*
X95862100Y-123802100D01*
X91968400Y-119822000D02*
X92456000Y-119822000D01*
X91968400Y-119822000D02*
X91480700Y-119822000D01*
X90424000Y-121428000D02*
X90424000Y-120602700D01*
X91480700Y-119822000D02*
X90700000Y-120602700D01*
X90700000Y-120602700D02*
X90424000Y-120602700D01*
%TO.N,/3.3v*%
X100530900Y-59003300D02*
X100912000Y-58622200D01*
X100912000Y-58622200D02*
X100912000Y-58320600D01*
X100530900Y-59003300D02*
X109852400Y-68324800D01*
X109852400Y-68324800D02*
X109852400Y-107317600D01*
X109852400Y-107317600D02*
X107950000Y-109220000D01*
X84377300Y-83820000D02*
X84264700Y-83707400D01*
X84264700Y-83707400D02*
X84264700Y-81644600D01*
X84264700Y-81644600D02*
X85344000Y-80565300D01*
X84562200Y-57653600D02*
X84562200Y-72576900D01*
X84562200Y-72576900D02*
X85344000Y-73358700D01*
X107950000Y-109220000D02*
X106357600Y-107627600D01*
X106357600Y-107627600D02*
X106357600Y-106536000D01*
X106357600Y-106536000D02*
X105379200Y-105557600D01*
X105379200Y-105557600D02*
X103787500Y-105557600D01*
X103787500Y-105557600D02*
X102099800Y-107245300D01*
X102099800Y-107245300D02*
X102099800Y-108610000D01*
X85090000Y-83820000D02*
X84377300Y-83820000D01*
X85344000Y-79740000D02*
X85344000Y-80565300D01*
X85344000Y-79740000D02*
X85344000Y-78914700D01*
X85344000Y-73974100D02*
X84393600Y-74924500D01*
X84393600Y-74924500D02*
X84393600Y-78376900D01*
X84393600Y-78376900D02*
X84931400Y-78914700D01*
X84931400Y-78914700D02*
X85344000Y-78914700D01*
X85344000Y-73771300D02*
X85344000Y-73358700D01*
X85344000Y-74184000D02*
X85344000Y-73974100D01*
X85344000Y-73771300D02*
X85344000Y-73974100D01*
X96504000Y-117179300D02*
X95250000Y-115925300D01*
X96504000Y-117921700D02*
X96504000Y-117179300D01*
X101600000Y-114359900D02*
X101600000Y-114849500D01*
X101600000Y-114849500D02*
X99270200Y-117179300D01*
X99270200Y-117179300D02*
X96504000Y-117179300D01*
X101600000Y-114359900D02*
X101600000Y-114910000D01*
X102099800Y-108610000D02*
X101600000Y-109109800D01*
X101600000Y-109109800D02*
X101600000Y-114359900D01*
X101600000Y-108610000D02*
X102099800Y-108610000D01*
X85819200Y-79740000D02*
X85344000Y-79740000D01*
X85819200Y-79740000D02*
X86294300Y-79740000D01*
X87720000Y-79960000D02*
X86514300Y-79960000D01*
X86514300Y-79960000D02*
X86294300Y-79740000D01*
X95250000Y-115250000D02*
X95250000Y-115925300D01*
X101612000Y-57658000D02*
X101612000Y-58320600D01*
X100912000Y-57658000D02*
X100912000Y-58320600D01*
X101612000Y-58320600D02*
X100912000Y-58320600D01*
X96504000Y-118872000D02*
X96504000Y-117921700D01*
X84562200Y-57653600D02*
X84562200Y-56407800D01*
X84562200Y-56407800D02*
X84963000Y-56007000D01*
X88328500Y-57594500D02*
X88328500Y-56642000D01*
X87693500Y-56007000D02*
X84963000Y-56007000D01*
X100530900Y-59003300D02*
X89737300Y-59003300D01*
X88328500Y-56642000D02*
X87693500Y-56007000D01*
X89737300Y-59003300D02*
X88328500Y-57594500D01*
%TO.N,Net-(C5-Pad1)*%
X88915300Y-115250000D02*
X88805300Y-115140000D01*
X92456000Y-115250000D02*
X88915300Y-115250000D01*
X88915300Y-115250000D02*
X88915300Y-119571400D01*
X88915300Y-119571400D02*
X87884000Y-120602700D01*
X87884000Y-121428000D02*
X87884000Y-120602700D01*
X87630000Y-115140000D02*
X88805300Y-115140000D01*
%TO.N,/EN*%
X92456000Y-113350000D02*
X93431300Y-113350000D01*
X95250000Y-113237500D02*
X93543800Y-113237500D01*
X93543800Y-113237500D02*
X93431300Y-113350000D01*
X95250000Y-113237500D02*
X95250000Y-113125000D01*
X95250000Y-113350000D02*
X95250000Y-113237500D01*
X95250000Y-112878200D02*
X95250000Y-112674700D01*
X95250000Y-113124800D02*
X95250000Y-112899700D01*
X95250000Y-112899700D02*
X95250000Y-112878200D01*
X95250000Y-113124800D02*
X95250000Y-113125000D01*
X103115000Y-83885300D02*
X103115000Y-81937800D01*
X103115000Y-81937800D02*
X105092800Y-79960000D01*
X105092800Y-79960000D02*
X105220000Y-79960000D01*
X95250000Y-112674700D02*
X97970000Y-109954700D01*
X97970000Y-109954700D02*
X97970000Y-103144000D01*
X105220000Y-79960000D02*
X105571500Y-80311500D01*
X105571500Y-80311500D02*
X108902000Y-80311500D01*
%TO.N,/VUSB*%
X107558300Y-123314000D02*
X109240000Y-121632300D01*
X109240000Y-121632300D02*
X109240000Y-111780000D01*
X109240000Y-111780000D02*
X107950000Y-110490000D01*
X107558300Y-123314000D02*
X106543700Y-123314000D01*
X107649000Y-123314000D02*
X107558300Y-123314000D01*
X105426000Y-118329300D02*
X105244700Y-118329300D01*
X105244700Y-118329300D02*
X104609000Y-118965000D01*
X104609000Y-118965000D02*
X104609000Y-120022900D01*
X104609000Y-120022900D02*
X104823600Y-120237500D01*
X104823600Y-120237500D02*
X105524100Y-120237500D01*
X105524100Y-120237500D02*
X106543700Y-121257100D01*
X106543700Y-121257100D02*
X106543700Y-123314000D01*
X105423300Y-125666000D02*
X106543700Y-124545600D01*
X106543700Y-124545600D02*
X106543700Y-123314000D01*
X89473600Y-122476800D02*
X95229700Y-122476800D01*
X86509800Y-121859000D02*
X87127600Y-122476800D01*
X87127600Y-122476800D02*
X89473600Y-122476800D01*
X105341700Y-125666000D02*
X103081300Y-127926400D01*
X103081300Y-127926400D02*
X91012800Y-127926400D01*
X91012800Y-127926400D02*
X89473600Y-126387200D01*
X89473600Y-126387200D02*
X89473600Y-122476800D01*
X105341700Y-125666000D02*
X105423300Y-125666000D01*
X105330000Y-125666000D02*
X105341700Y-125666000D01*
X95229700Y-123802100D02*
X95229700Y-122476800D01*
X85534500Y-121859000D02*
X86509800Y-121859000D01*
X105426000Y-117604000D02*
X105426000Y-118329300D01*
%TO.N,/IO0*%
X85090000Y-85090000D02*
X86120600Y-84059400D01*
X86120600Y-84059400D02*
X86120600Y-82840500D01*
X86120600Y-82840500D02*
X87501100Y-81460000D01*
X87501100Y-81460000D02*
X87720000Y-81460000D01*
X86270200Y-107034000D02*
X85210900Y-105974700D01*
X85210900Y-105974700D02*
X85210900Y-103617000D01*
X85210900Y-103617000D02*
X84234900Y-102641000D01*
X84234900Y-102641000D02*
X84234900Y-85945100D01*
X84234900Y-85945100D02*
X85090000Y-85090000D01*
X87345500Y-107034000D02*
X86270200Y-107034000D01*
%TO.N,Net-(J2-Pad11)*%
X85090000Y-95250000D02*
X85915300Y-95250000D01*
X85915300Y-95250000D02*
X85915300Y-95133100D01*
X85915300Y-95133100D02*
X87588400Y-93460000D01*
X87588400Y-93460000D02*
X87720000Y-93460000D01*
%TO.N,Net-(J2-Pad10)*%
X85090000Y-93980000D02*
X85915300Y-93980000D01*
X85915300Y-93980000D02*
X85915300Y-93584200D01*
X85915300Y-93584200D02*
X87539500Y-91960000D01*
X87539500Y-91960000D02*
X87720000Y-91960000D01*
%TO.N,Net-(J2-Pad9)*%
X85090000Y-92710000D02*
X85915300Y-92710000D01*
X85915300Y-92710000D02*
X85915300Y-92146000D01*
X85915300Y-92146000D02*
X87601300Y-90460000D01*
X87601300Y-90460000D02*
X87720000Y-90460000D01*
%TO.N,Net-(J2-Pad8)*%
X85090000Y-91440000D02*
X85915300Y-91440000D01*
X85915300Y-91440000D02*
X85915300Y-90614700D01*
X85915300Y-90614700D02*
X87570000Y-88960000D01*
X87570000Y-88960000D02*
X87720000Y-88960000D01*
%TO.N,Net-(J2-Pad7)*%
X85090000Y-90170000D02*
X86120500Y-89139500D01*
X86120500Y-89139500D02*
X86120500Y-88907800D01*
X86120500Y-88907800D02*
X87568300Y-87460000D01*
X87568300Y-87460000D02*
X87720000Y-87460000D01*
%TO.N,Net-(J2-Pad6)*%
X85090000Y-88900000D02*
X86120500Y-87869500D01*
X86120500Y-87869500D02*
X86120500Y-87380600D01*
X86120500Y-87380600D02*
X87541100Y-85960000D01*
X87541100Y-85960000D02*
X87720000Y-85960000D01*
%TO.N,Net-(J2-Pad5)*%
X85090000Y-87630000D02*
X86120500Y-86599500D01*
X86120500Y-86599500D02*
X86120500Y-85909000D01*
X86120500Y-85909000D02*
X87569500Y-84460000D01*
X87569500Y-84460000D02*
X87720000Y-84460000D01*
%TO.N,Net-(J2-Pad4)*%
X85090000Y-86360000D02*
X85090000Y-86270700D01*
X85090000Y-86270700D02*
X86571000Y-84789700D01*
X86571000Y-84789700D02*
X86571000Y-83896600D01*
X86571000Y-83896600D02*
X87507600Y-82960000D01*
X87507600Y-82960000D02*
X87720000Y-82960000D01*
%TO.N,Net-(J3-Pad20)*%
X90637700Y-103281400D02*
X91220000Y-102699100D01*
X91220000Y-102699100D02*
X91220000Y-101710000D01*
%TO.N,Net-(J3-Pad16)*%
X107950000Y-101600000D02*
X107124700Y-101600000D01*
X107124700Y-101600000D02*
X105919400Y-102805300D01*
X105919400Y-102805300D02*
X101109400Y-102805300D01*
X101109400Y-102805300D02*
X100220000Y-101915900D01*
X100220000Y-101915900D02*
X100220000Y-101710000D01*
%TO.N,Net-(J3-Pad15)*%
X102403600Y-100281700D02*
X101720000Y-100965300D01*
X101720000Y-100965300D02*
X101720000Y-101710000D01*
%TO.N,Net-(J3-Pad14)*%
X107950000Y-99060000D02*
X107124700Y-99060000D01*
X107124700Y-99060000D02*
X107124700Y-99266300D01*
X107124700Y-99266300D02*
X105431000Y-100960000D01*
X105431000Y-100960000D02*
X105220000Y-100960000D01*
%TO.N,Net-(J3-Pad13)*%
X107950000Y-97790000D02*
X107124700Y-97790000D01*
X107124700Y-97790000D02*
X105454700Y-99460000D01*
X105454700Y-99460000D02*
X105220000Y-99460000D01*
%TO.N,Net-(J3-Pad12)*%
X107950000Y-96520000D02*
X107124700Y-96520000D01*
X107124700Y-96520000D02*
X105684700Y-97960000D01*
X105684700Y-97960000D02*
X105220000Y-97960000D01*
%TO.N,Net-(J3-Pad11)*%
X107950000Y-95250000D02*
X107124700Y-95250000D01*
X107124700Y-95250000D02*
X105914700Y-96460000D01*
X105914700Y-96460000D02*
X105220000Y-96460000D01*
%TO.N,Net-(J3-Pad10)*%
X107950000Y-93980000D02*
X107124700Y-93980000D01*
X107124700Y-93980000D02*
X106144700Y-94960000D01*
X106144700Y-94960000D02*
X105220000Y-94960000D01*
%TO.N,Net-(J3-Pad9)*%
X107950000Y-92710000D02*
X107124700Y-92710000D01*
X107124700Y-92710000D02*
X106374700Y-93460000D01*
X106374700Y-93460000D02*
X105220000Y-93460000D01*
%TO.N,Net-(J3-Pad8)*%
X107950000Y-91440000D02*
X105740000Y-91440000D01*
X105740000Y-91440000D02*
X105220000Y-91960000D01*
%TO.N,Net-(J3-Pad5)*%
X107950000Y-87630000D02*
X105390000Y-87630000D01*
X105390000Y-87630000D02*
X105220000Y-87460000D01*
%TO.N,Net-(J3-Pad4)*%
X107950000Y-86360000D02*
X105620000Y-86360000D01*
X105620000Y-86360000D02*
X105220000Y-85960000D01*
%TO.N,Net-(J3-Pad3)*%
X107950000Y-85090000D02*
X105850000Y-85090000D01*
X105850000Y-85090000D02*
X105220000Y-84460000D01*
%TO.N,Net-(J3-Pad2)*%
X107950000Y-83820000D02*
X107124700Y-83820000D01*
X107124700Y-83820000D02*
X106264700Y-82960000D01*
X106264700Y-82960000D02*
X105220000Y-82960000D01*
%TO.N,Net-(J3-Pad1)*%
X107950000Y-82550000D02*
X107124700Y-82550000D01*
X107124700Y-82550000D02*
X106034700Y-81460000D01*
X106034700Y-81460000D02*
X105220000Y-81460000D01*
%TO.N,Net-(D1-Pad4)*%
X90637300Y-106868000D02*
X92087300Y-106868000D01*
X92087300Y-106868000D02*
X92380000Y-106575300D01*
X89662000Y-106868000D02*
X90637300Y-106868000D01*
X92380000Y-105450000D02*
X92380000Y-106575300D01*
%TO.N,/RGBLED*%
X92100900Y-103597900D02*
X92720000Y-102978800D01*
X92720000Y-102978800D02*
X92720000Y-101710000D01*
X90637300Y-104968000D02*
X90730800Y-104968000D01*
X90730800Y-104968000D02*
X92100900Y-103597900D01*
X92331100Y-103828100D02*
X92100900Y-103597900D01*
X89662000Y-104968000D02*
X90637300Y-104968000D01*
%TO.N,Net-(C7-Pad2)*%
X98568000Y-120396000D02*
X98568000Y-119445700D01*
X103900000Y-114910000D02*
X104975300Y-114910000D01*
X107426000Y-118554000D02*
X107426000Y-117828700D01*
X107426000Y-117828700D02*
X108011400Y-117243300D01*
X108011400Y-117243300D02*
X108011400Y-115297200D01*
X108011400Y-115297200D02*
X107624200Y-114910000D01*
X107624200Y-114910000D02*
X104975300Y-114910000D01*
X103900000Y-114910000D02*
X102824700Y-114910000D01*
X102824700Y-114910000D02*
X102824700Y-115985300D01*
X102824700Y-115985300D02*
X101666000Y-117144000D01*
X101666000Y-117144000D02*
X100869700Y-117144000D01*
X100869700Y-117144000D02*
X98568000Y-119445700D01*
%TO.N,/VBAT*%
X92380000Y-110450000D02*
X92380000Y-111766600D01*
X92380000Y-111766600D02*
X92480700Y-111867300D01*
X104949000Y-123314000D02*
X103843700Y-123314000D01*
X103843700Y-123314000D02*
X103843700Y-117568500D01*
X103843700Y-117568500D02*
X104234500Y-117177700D01*
X104234500Y-117177700D02*
X105477200Y-115935000D01*
X105477200Y-115935000D02*
X107061000Y-115935000D01*
X93972600Y-104607100D02*
X93972600Y-107732100D01*
X93972600Y-107732100D02*
X92380000Y-109324700D01*
X92380000Y-110450000D02*
X92380000Y-109324700D01*
%TO.N,Net-(D3-Pad2)*%
X87931000Y-125666000D02*
X86855700Y-125666000D01*
X85534500Y-123759000D02*
X86855700Y-125080200D01*
X86855700Y-125080200D02*
X86855700Y-125666000D01*
%TO.N,Net-(D3-Pad1)*%
X104949000Y-121414000D02*
X106054300Y-121414000D01*
X106054300Y-121414000D02*
X106054300Y-123798900D01*
X106054300Y-123798900D02*
X105281200Y-124572000D01*
X105281200Y-124572000D02*
X100831700Y-124572000D01*
X100831700Y-124572000D02*
X99737700Y-125666000D01*
X99737700Y-125666000D02*
X90631000Y-125666000D01*
%TO.N,Net-(R6-Pad1)*%
X107649000Y-121414000D02*
X108754300Y-121414000D01*
X108754300Y-121414000D02*
X108754300Y-114025100D01*
X108754300Y-114025100D02*
X104584000Y-109854800D01*
X104584000Y-109854800D02*
X104584000Y-106233000D01*
%TO.N,/SPI_MISO*%
X85090000Y-101600000D02*
X87080000Y-101600000D01*
X87080000Y-101600000D02*
X87720000Y-100960000D01*
%TO.N,/SPI_CLK*%
X85090000Y-100330000D02*
X85915300Y-100330000D01*
X85915300Y-100330000D02*
X86785300Y-99460000D01*
X86785300Y-99460000D02*
X87720000Y-99460000D01*
%TO.N,/SPI_MOSI*%
X85090000Y-99060000D02*
X85915300Y-99060000D01*
X85915300Y-99060000D02*
X87015300Y-97960000D01*
X87015300Y-97960000D02*
X87720000Y-97960000D01*
%TO.N,/SPI_CS*%
X85090000Y-97790000D02*
X85915300Y-97790000D01*
X85915300Y-97790000D02*
X87245300Y-96460000D01*
X87245300Y-96460000D02*
X87720000Y-96460000D01*
%TO.N,/DC_DISP*%
X89248500Y-103596800D02*
X89720000Y-103125300D01*
X89720000Y-103125300D02*
X89720000Y-101710000D01*
%TO.N,/U1TXD*%
X94831100Y-103333700D02*
X94220000Y-102722600D01*
X94220000Y-102722600D02*
X94220000Y-101710000D01*
%TO.N,/U1RXD*%
X95720000Y-101710000D02*
X95720000Y-103196700D01*
X95720000Y-103196700D02*
X96068900Y-103545600D01*
%TO.N,/SCL*%
X107124700Y-90170000D02*
X105510000Y-90170000D01*
X105510000Y-90170000D02*
X105220000Y-90460000D01*
X107950000Y-90170000D02*
X107124700Y-90170000D01*
X85013700Y-70065700D02*
X85013700Y-58559800D01*
X86489900Y-71541900D02*
X85013700Y-70065700D01*
X86489900Y-77310400D02*
X86489900Y-71541900D01*
X85013700Y-58559800D02*
X86042500Y-57531000D01*
X105220000Y-90460000D02*
X103834300Y-90460000D01*
X103834300Y-90460000D02*
X90987100Y-77612800D01*
X86792300Y-77612800D02*
X86489900Y-77310400D01*
X90987100Y-77612800D02*
X86792300Y-77612800D01*
%TO.N,/SDA*%
X107950000Y-88900000D02*
X107124700Y-88900000D01*
X105220000Y-88960000D02*
X107064700Y-88960000D01*
X107064700Y-88960000D02*
X107124700Y-88900000D01*
X95732600Y-60198000D02*
X105989400Y-70454800D01*
X105989400Y-70454800D02*
X105989400Y-77379400D01*
X105989400Y-77379400D02*
X105756000Y-77612800D01*
X105756000Y-77612800D02*
X104446500Y-77612800D01*
X104446500Y-77612800D02*
X102389700Y-79669600D01*
X102389700Y-79669600D02*
X102389700Y-86286800D01*
X102389700Y-86286800D02*
X105062900Y-88960000D01*
X105062900Y-88960000D02*
X105220000Y-88960000D01*
X95732600Y-60198000D02*
X95669100Y-60134500D01*
X95669100Y-60134500D02*
X87820500Y-60134500D01*
%TO.N,/D+*%
X102616000Y-119822000D02*
X102616000Y-119146700D01*
X101184600Y-119091900D02*
X102561200Y-119091900D01*
X102561200Y-119091900D02*
X102616000Y-119146700D01*
X98720000Y-101710000D02*
X98720000Y-109127500D01*
X98720000Y-109127500D02*
X98897500Y-109305000D01*
%TO.N,/D-*%
X92456000Y-117922000D02*
X92456000Y-117246700D01*
X97220000Y-101710000D02*
X97220000Y-105699100D01*
X97220000Y-105699100D02*
X93206100Y-109713000D01*
X93206100Y-109713000D02*
X93206100Y-112201100D01*
X93206100Y-112201100D02*
X92732600Y-112674600D01*
X92732600Y-112674600D02*
X91671000Y-112674600D01*
X91671000Y-112674600D02*
X91456900Y-112888700D01*
X91456900Y-112888700D02*
X91456900Y-113932500D01*
X91456900Y-113932500D02*
X91877700Y-114353300D01*
X91877700Y-114353300D02*
X93040000Y-114353300D01*
X93040000Y-114353300D02*
X93431400Y-114744700D01*
X93431400Y-114744700D02*
X93431400Y-116271300D01*
X93431400Y-116271300D02*
X92456000Y-117246700D01*
%TO.N,Net-(D2-Pad2)*%
X106505600Y-117482400D02*
X106505600Y-118424400D01*
X106505600Y-118424400D02*
X105426000Y-119504000D01*
X106887200Y-72638600D02*
X106887200Y-79261000D01*
X106887200Y-79261000D02*
X106621400Y-79526800D01*
%TO.N,Net-(JP1-Pad2)*%
X97273800Y-55593100D02*
X97412000Y-55731300D01*
X97412000Y-55731300D02*
X97412000Y-57658000D01*
%TO.N,Net-(JP2-Pad2)*%
X98112000Y-57658000D02*
X98112000Y-56332700D01*
X98820700Y-55390500D02*
X98820700Y-55624000D01*
X98820700Y-55624000D02*
X98112000Y-56332700D01*
X98820700Y-53491578D02*
X98742500Y-53413378D01*
X98820700Y-55390500D02*
X98820700Y-53491578D01*
X98742500Y-53413378D02*
X98742500Y-50863500D01*
X98742500Y-50863500D02*
X99504500Y-50101500D01*
X99504500Y-50101500D02*
X102552500Y-50101500D01*
X102552500Y-50101500D02*
X102870000Y-50419000D01*
%TO.N,Net-(JP3-Pad2)*%
X99577800Y-53807480D02*
X99704680Y-53680600D01*
X99577800Y-55705300D02*
X99577800Y-53807480D01*
X98812000Y-57658000D02*
X98812000Y-56332700D01*
X98812000Y-56332700D02*
X98950400Y-56332700D01*
X98950400Y-56332700D02*
X99577800Y-55705300D01*
%TO.N,Net-(JP4-Pad2)*%
X96712000Y-57658000D02*
X96712000Y-56332700D01*
X96543400Y-54837800D02*
X96543400Y-56164100D01*
X96543400Y-56164100D02*
X96712000Y-56332700D01*
X96543400Y-54837800D02*
X96543400Y-51411600D01*
X96543400Y-51411600D02*
X98679000Y-49276000D01*
X98679000Y-49276000D02*
X104775000Y-49276000D01*
X104775000Y-49276000D02*
X105727500Y-50228500D01*
%TO.N,/TFT_RESET*%
X85090000Y-96520000D02*
X85915300Y-96520000D01*
X85915300Y-96520000D02*
X87475300Y-94960000D01*
X87475300Y-94960000D02*
X87720000Y-94960000D01*
X87720000Y-94960000D02*
X88732800Y-94960000D01*
X96012000Y-54171998D02*
X95078402Y-53238400D01*
X96012000Y-57658000D02*
X96012000Y-54171998D01*
X94169399Y-52868999D02*
X87027999Y-52868999D01*
X95078402Y-53238400D02*
X94538800Y-53238400D01*
X87027999Y-52868999D02*
X83210400Y-56686598D01*
X94538800Y-53238400D02*
X94169399Y-52868999D01*
X83210400Y-56686598D02*
X83210400Y-102920800D01*
X83210400Y-102920800D02*
X84226400Y-103936800D01*
X88795010Y-102547190D02*
X88795010Y-100333390D01*
X87020400Y-104321800D02*
X88795010Y-102547190D01*
X88795010Y-100333390D02*
X89966800Y-99161600D01*
X89966800Y-96194000D02*
X88732800Y-94960000D01*
X89966800Y-99161600D02*
X89966800Y-96194000D01*
%TD*%
D31*
%TO.N,GND*%
G36*
X102195000Y-125380250D02*
G01*
X102353750Y-125539000D01*
X103203000Y-125539000D01*
X103203000Y-125519000D01*
X103457000Y-125519000D01*
X103457000Y-125539000D01*
X103477000Y-125539000D01*
X103477000Y-125793000D01*
X103457000Y-125793000D01*
X103457000Y-125813000D01*
X103203000Y-125813000D01*
X103203000Y-125793000D01*
X102353750Y-125793000D01*
X102195000Y-125951750D01*
X102191928Y-126291000D01*
X102204188Y-126415482D01*
X102240498Y-126535180D01*
X102299463Y-126645494D01*
X102378815Y-126742185D01*
X102475506Y-126821537D01*
X102585820Y-126880502D01*
X102705518Y-126916812D01*
X102830000Y-126929072D01*
X103006355Y-126926543D01*
X102766499Y-127166400D01*
X101155000Y-127166400D01*
X101155000Y-126953000D01*
X100147000Y-126953000D01*
X100147000Y-126973000D01*
X99893000Y-126973000D01*
X99893000Y-126953000D01*
X98885000Y-126953000D01*
X98885000Y-127166400D01*
X94155000Y-127166400D01*
X94155000Y-126953000D01*
X93147000Y-126953000D01*
X93147000Y-126973000D01*
X92893000Y-126973000D01*
X92893000Y-126953000D01*
X91885000Y-126953000D01*
X91885000Y-127166400D01*
X91327602Y-127166400D01*
X91115274Y-126954072D01*
X91381000Y-126954072D01*
X91505482Y-126941812D01*
X91625180Y-126905502D01*
X91735494Y-126846537D01*
X91832185Y-126767185D01*
X91888143Y-126699000D01*
X92893000Y-126699000D01*
X92893000Y-126679000D01*
X93147000Y-126679000D01*
X93147000Y-126699000D01*
X94155000Y-126699000D01*
X94155000Y-126426000D01*
X98885000Y-126426000D01*
X98885000Y-126699000D01*
X99893000Y-126699000D01*
X99893000Y-126679000D01*
X100147000Y-126679000D01*
X100147000Y-126699000D01*
X101155000Y-126699000D01*
X101155000Y-126424000D01*
X101108415Y-126205013D01*
X101020003Y-125999322D01*
X100893161Y-125814831D01*
X100776895Y-125701607D01*
X101146502Y-125332000D01*
X102194563Y-125332000D01*
X102195000Y-125380250D01*
G37*
X102195000Y-125380250D02*
X102353750Y-125539000D01*
X103203000Y-125539000D01*
X103203000Y-125519000D01*
X103457000Y-125519000D01*
X103457000Y-125539000D01*
X103477000Y-125539000D01*
X103477000Y-125793000D01*
X103457000Y-125793000D01*
X103457000Y-125813000D01*
X103203000Y-125813000D01*
X103203000Y-125793000D01*
X102353750Y-125793000D01*
X102195000Y-125951750D01*
X102191928Y-126291000D01*
X102204188Y-126415482D01*
X102240498Y-126535180D01*
X102299463Y-126645494D01*
X102378815Y-126742185D01*
X102475506Y-126821537D01*
X102585820Y-126880502D01*
X102705518Y-126916812D01*
X102830000Y-126929072D01*
X103006355Y-126926543D01*
X102766499Y-127166400D01*
X101155000Y-127166400D01*
X101155000Y-126953000D01*
X100147000Y-126953000D01*
X100147000Y-126973000D01*
X99893000Y-126973000D01*
X99893000Y-126953000D01*
X98885000Y-126953000D01*
X98885000Y-127166400D01*
X94155000Y-127166400D01*
X94155000Y-126953000D01*
X93147000Y-126953000D01*
X93147000Y-126973000D01*
X92893000Y-126973000D01*
X92893000Y-126953000D01*
X91885000Y-126953000D01*
X91885000Y-127166400D01*
X91327602Y-127166400D01*
X91115274Y-126954072D01*
X91381000Y-126954072D01*
X91505482Y-126941812D01*
X91625180Y-126905502D01*
X91735494Y-126846537D01*
X91832185Y-126767185D01*
X91888143Y-126699000D01*
X92893000Y-126699000D01*
X92893000Y-126679000D01*
X93147000Y-126679000D01*
X93147000Y-126699000D01*
X94155000Y-126699000D01*
X94155000Y-126426000D01*
X98885000Y-126426000D01*
X98885000Y-126699000D01*
X99893000Y-126699000D01*
X99893000Y-126679000D01*
X100147000Y-126679000D01*
X100147000Y-126699000D01*
X101155000Y-126699000D01*
X101155000Y-126424000D01*
X101108415Y-126205013D01*
X101020003Y-125999322D01*
X100893161Y-125814831D01*
X100776895Y-125701607D01*
X101146502Y-125332000D01*
X102194563Y-125332000D01*
X102195000Y-125380250D01*
G36*
X83231174Y-104238698D02*
G01*
X83309195Y-104427056D01*
X83422463Y-104596574D01*
X83566626Y-104740737D01*
X83579642Y-104749434D01*
X83554963Y-104779506D01*
X83495998Y-104889820D01*
X83459688Y-105009518D01*
X83447428Y-105134000D01*
X83447428Y-106134000D01*
X83459688Y-106258482D01*
X83495998Y-106378180D01*
X83554963Y-106488494D01*
X83634315Y-106585185D01*
X83731006Y-106664537D01*
X83841320Y-106723502D01*
X83961018Y-106759812D01*
X84085500Y-106772072D01*
X84885500Y-106772072D01*
X84929170Y-106767771D01*
X85019002Y-106857603D01*
X84893853Y-106941225D01*
X84742725Y-107092353D01*
X84623985Y-107270060D01*
X84542196Y-107467517D01*
X84500500Y-107677137D01*
X84500500Y-107890863D01*
X84542196Y-108100483D01*
X84623985Y-108297940D01*
X84742725Y-108475647D01*
X84893853Y-108626775D01*
X85071560Y-108745515D01*
X85269017Y-108827304D01*
X85478637Y-108869000D01*
X85692363Y-108869000D01*
X85901983Y-108827304D01*
X86099440Y-108745515D01*
X86277147Y-108626775D01*
X86428275Y-108475647D01*
X86547015Y-108297940D01*
X86628804Y-108100483D01*
X86644401Y-108022072D01*
X88095500Y-108022072D01*
X88219982Y-108009812D01*
X88339680Y-107973502D01*
X88449994Y-107914537D01*
X88546685Y-107835185D01*
X88626037Y-107738494D01*
X88631901Y-107727524D01*
X88657506Y-107748537D01*
X88767820Y-107807502D01*
X88887518Y-107843812D01*
X89012000Y-107856072D01*
X90312000Y-107856072D01*
X90436482Y-107843812D01*
X90556180Y-107807502D01*
X90666494Y-107748537D01*
X90763185Y-107669185D01*
X90796985Y-107628000D01*
X92049978Y-107628000D01*
X92087300Y-107631676D01*
X92124622Y-107628000D01*
X92124633Y-107628000D01*
X92236286Y-107617003D01*
X92379547Y-107573546D01*
X92511576Y-107502974D01*
X92627301Y-107408001D01*
X92651104Y-107378997D01*
X92890997Y-107139104D01*
X92920001Y-107115301D01*
X93014974Y-106999576D01*
X93085546Y-106867547D01*
X93091000Y-106849567D01*
X93124180Y-106839502D01*
X93212601Y-106792239D01*
X93212601Y-107417297D01*
X91868998Y-108760901D01*
X91840000Y-108784699D01*
X91816202Y-108813697D01*
X91816201Y-108813698D01*
X91745026Y-108900424D01*
X91674454Y-109032454D01*
X91669000Y-109050433D01*
X91635820Y-109060498D01*
X91525506Y-109119463D01*
X91428815Y-109198815D01*
X91349463Y-109295506D01*
X91290498Y-109405820D01*
X91254188Y-109525518D01*
X91241928Y-109650000D01*
X91241928Y-111250000D01*
X91254188Y-111374482D01*
X91290498Y-111494180D01*
X91349463Y-111604494D01*
X91428815Y-111701185D01*
X91454304Y-111722104D01*
X91445700Y-111765361D01*
X91445700Y-111948746D01*
X91378753Y-111969054D01*
X91246724Y-112039626D01*
X91130999Y-112134599D01*
X91107196Y-112163603D01*
X90945903Y-112324896D01*
X90916899Y-112348699D01*
X90873506Y-112401574D01*
X90821926Y-112464424D01*
X90789166Y-112525714D01*
X90751354Y-112596454D01*
X90707897Y-112739715D01*
X90696900Y-112851368D01*
X90696900Y-112851378D01*
X90693224Y-112888700D01*
X90696900Y-112926023D01*
X90696901Y-113895168D01*
X90693224Y-113932500D01*
X90696901Y-113969833D01*
X90707898Y-114081486D01*
X90717663Y-114113676D01*
X90751354Y-114224746D01*
X90821926Y-114356776D01*
X90886124Y-114435000D01*
X90916900Y-114472501D01*
X90938223Y-114490000D01*
X89201465Y-114490000D01*
X89097547Y-114434454D01*
X89056824Y-114422101D01*
X89010537Y-114335506D01*
X88931185Y-114238815D01*
X88834494Y-114159463D01*
X88724180Y-114100498D01*
X88604482Y-114064188D01*
X88480000Y-114051928D01*
X87245972Y-114051928D01*
X87339680Y-114023502D01*
X87449994Y-113964537D01*
X87546685Y-113885185D01*
X87626037Y-113788494D01*
X87685002Y-113678180D01*
X87721312Y-113558482D01*
X87733572Y-113434000D01*
X87733572Y-112522072D01*
X88095500Y-112522072D01*
X88219982Y-112509812D01*
X88339680Y-112473502D01*
X88449994Y-112414537D01*
X88546685Y-112335185D01*
X88626037Y-112238494D01*
X88685002Y-112128180D01*
X88721312Y-112008482D01*
X88733572Y-111884000D01*
X88733572Y-111184000D01*
X88721312Y-111059518D01*
X88685002Y-110939820D01*
X88626037Y-110829506D01*
X88588691Y-110784000D01*
X88626037Y-110738494D01*
X88685002Y-110628180D01*
X88721312Y-110508482D01*
X88733572Y-110384000D01*
X88730500Y-110319750D01*
X88571750Y-110161000D01*
X87472500Y-110161000D01*
X87472500Y-110181000D01*
X87218500Y-110181000D01*
X87218500Y-110161000D01*
X87198500Y-110161000D01*
X87198500Y-109907000D01*
X87218500Y-109907000D01*
X87218500Y-109207750D01*
X87472500Y-109207750D01*
X87472500Y-109907000D01*
X88571750Y-109907000D01*
X88730500Y-109748250D01*
X88733572Y-109684000D01*
X88721312Y-109559518D01*
X88685002Y-109439820D01*
X88626037Y-109329506D01*
X88546685Y-109232815D01*
X88449994Y-109153463D01*
X88339680Y-109094498D01*
X88219982Y-109058188D01*
X88095500Y-109045928D01*
X87631250Y-109049000D01*
X87472500Y-109207750D01*
X87218500Y-109207750D01*
X87059750Y-109049000D01*
X86595500Y-109045928D01*
X86471018Y-109058188D01*
X86351320Y-109094498D01*
X86241006Y-109153463D01*
X86144315Y-109232815D01*
X86064963Y-109329506D01*
X86005998Y-109439820D01*
X85969688Y-109559518D01*
X85957428Y-109684000D01*
X85960500Y-109748250D01*
X85988982Y-109776732D01*
X85901983Y-109740696D01*
X85692363Y-109699000D01*
X85478637Y-109699000D01*
X85269017Y-109740696D01*
X85071560Y-109822485D01*
X84893853Y-109941225D01*
X84742725Y-110092353D01*
X84623985Y-110270060D01*
X84542196Y-110467517D01*
X84500500Y-110677137D01*
X84500500Y-110890863D01*
X84542196Y-111100483D01*
X84623985Y-111297940D01*
X84742725Y-111475647D01*
X84893853Y-111626775D01*
X85071560Y-111745515D01*
X85269017Y-111827304D01*
X85478637Y-111869000D01*
X85692363Y-111869000D01*
X85901983Y-111827304D01*
X85957428Y-111804338D01*
X85957428Y-111884000D01*
X85958428Y-111894151D01*
X85941006Y-111903463D01*
X85844315Y-111982815D01*
X85764963Y-112079506D01*
X85705998Y-112189820D01*
X85669688Y-112309518D01*
X85657428Y-112434000D01*
X85657428Y-113434000D01*
X85669688Y-113558482D01*
X85705998Y-113678180D01*
X85764963Y-113788494D01*
X85844315Y-113885185D01*
X85941006Y-113964537D01*
X86051320Y-114023502D01*
X86171018Y-114059812D01*
X86295500Y-114072072D01*
X86629528Y-114072072D01*
X86535820Y-114100498D01*
X86425506Y-114159463D01*
X86328815Y-114238815D01*
X86249463Y-114335506D01*
X86190498Y-114445820D01*
X86154188Y-114565518D01*
X86141928Y-114690000D01*
X86141928Y-115590000D01*
X86154188Y-115714482D01*
X86190498Y-115834180D01*
X86249463Y-115944494D01*
X86328815Y-116041185D01*
X86425506Y-116120537D01*
X86535820Y-116179502D01*
X86655518Y-116215812D01*
X86780000Y-116228072D01*
X88155300Y-116228072D01*
X88155301Y-117453696D01*
X87915750Y-117455000D01*
X87757000Y-117613750D01*
X87757000Y-118413000D01*
X87777000Y-118413000D01*
X87777000Y-118667000D01*
X87757000Y-118667000D01*
X87757000Y-119466250D01*
X87851324Y-119560574D01*
X87372998Y-120038901D01*
X87344000Y-120062699D01*
X87320202Y-120091697D01*
X87320201Y-120091698D01*
X87249026Y-120178424D01*
X87185559Y-120297161D01*
X87134518Y-120302188D01*
X87014820Y-120338498D01*
X86904506Y-120397463D01*
X86807815Y-120476815D01*
X86728463Y-120573506D01*
X86669498Y-120683820D01*
X86633188Y-120803518D01*
X86620928Y-120928000D01*
X86620928Y-121045704D01*
X86538994Y-120978463D01*
X86428680Y-120919498D01*
X86308982Y-120883188D01*
X86184500Y-120870928D01*
X84884500Y-120870928D01*
X84760018Y-120883188D01*
X84640320Y-120919498D01*
X84530006Y-120978463D01*
X84433315Y-121057815D01*
X84353963Y-121154506D01*
X84294998Y-121264820D01*
X84258688Y-121384518D01*
X84246428Y-121509000D01*
X84246428Y-122209000D01*
X84258688Y-122333482D01*
X84294998Y-122453180D01*
X84353963Y-122563494D01*
X84433315Y-122660185D01*
X84530006Y-122739537D01*
X84640320Y-122798502D01*
X84674927Y-122809000D01*
X84640320Y-122819498D01*
X84530006Y-122878463D01*
X84433315Y-122957815D01*
X84353963Y-123054506D01*
X84294998Y-123164820D01*
X84258688Y-123284518D01*
X84246428Y-123409000D01*
X84246428Y-123978918D01*
X84170776Y-124010254D01*
X83852933Y-124222630D01*
X83582630Y-124492933D01*
X83370254Y-124810776D01*
X83223966Y-125163945D01*
X83210000Y-125234157D01*
X83210000Y-118990000D01*
X86141928Y-118990000D01*
X86154188Y-119114482D01*
X86190498Y-119234180D01*
X86249463Y-119344494D01*
X86328815Y-119441185D01*
X86425506Y-119520537D01*
X86535820Y-119579502D01*
X86655518Y-119615812D01*
X86780000Y-119628072D01*
X87344250Y-119625000D01*
X87503000Y-119466250D01*
X87503000Y-118667000D01*
X86303750Y-118667000D01*
X86145000Y-118825750D01*
X86141928Y-118990000D01*
X83210000Y-118990000D01*
X83210000Y-118090000D01*
X86141928Y-118090000D01*
X86145000Y-118254250D01*
X86303750Y-118413000D01*
X87503000Y-118413000D01*
X87503000Y-117613750D01*
X87344250Y-117455000D01*
X86780000Y-117451928D01*
X86655518Y-117464188D01*
X86535820Y-117500498D01*
X86425506Y-117559463D01*
X86328815Y-117638815D01*
X86249463Y-117735506D01*
X86190498Y-117845820D01*
X86154188Y-117965518D01*
X86141928Y-118090000D01*
X83210000Y-118090000D01*
X83210000Y-112434000D01*
X83447428Y-112434000D01*
X83447428Y-113434000D01*
X83459688Y-113558482D01*
X83495998Y-113678180D01*
X83554963Y-113788494D01*
X83634315Y-113885185D01*
X83731006Y-113964537D01*
X83841320Y-114023502D01*
X83961018Y-114059812D01*
X84085500Y-114072072D01*
X84885500Y-114072072D01*
X85009982Y-114059812D01*
X85129680Y-114023502D01*
X85239994Y-113964537D01*
X85336685Y-113885185D01*
X85416037Y-113788494D01*
X85475002Y-113678180D01*
X85511312Y-113558482D01*
X85523572Y-113434000D01*
X85523572Y-112434000D01*
X85511312Y-112309518D01*
X85475002Y-112189820D01*
X85416037Y-112079506D01*
X85336685Y-111982815D01*
X85239994Y-111903463D01*
X85129680Y-111844498D01*
X85009982Y-111808188D01*
X84885500Y-111795928D01*
X84085500Y-111795928D01*
X83961018Y-111808188D01*
X83841320Y-111844498D01*
X83731006Y-111903463D01*
X83634315Y-111982815D01*
X83554963Y-112079506D01*
X83495998Y-112189820D01*
X83459688Y-112309518D01*
X83447428Y-112434000D01*
X83210000Y-112434000D01*
X83210000Y-104132248D01*
X83231174Y-104238698D01*
G37*
X83231174Y-104238698D02*
X83309195Y-104427056D01*
X83422463Y-104596574D01*
X83566626Y-104740737D01*
X83579642Y-104749434D01*
X83554963Y-104779506D01*
X83495998Y-104889820D01*
X83459688Y-105009518D01*
X83447428Y-105134000D01*
X83447428Y-106134000D01*
X83459688Y-106258482D01*
X83495998Y-106378180D01*
X83554963Y-106488494D01*
X83634315Y-106585185D01*
X83731006Y-106664537D01*
X83841320Y-106723502D01*
X83961018Y-106759812D01*
X84085500Y-106772072D01*
X84885500Y-106772072D01*
X84929170Y-106767771D01*
X85019002Y-106857603D01*
X84893853Y-106941225D01*
X84742725Y-107092353D01*
X84623985Y-107270060D01*
X84542196Y-107467517D01*
X84500500Y-107677137D01*
X84500500Y-107890863D01*
X84542196Y-108100483D01*
X84623985Y-108297940D01*
X84742725Y-108475647D01*
X84893853Y-108626775D01*
X85071560Y-108745515D01*
X85269017Y-108827304D01*
X85478637Y-108869000D01*
X85692363Y-108869000D01*
X85901983Y-108827304D01*
X86099440Y-108745515D01*
X86277147Y-108626775D01*
X86428275Y-108475647D01*
X86547015Y-108297940D01*
X86628804Y-108100483D01*
X86644401Y-108022072D01*
X88095500Y-108022072D01*
X88219982Y-108009812D01*
X88339680Y-107973502D01*
X88449994Y-107914537D01*
X88546685Y-107835185D01*
X88626037Y-107738494D01*
X88631901Y-107727524D01*
X88657506Y-107748537D01*
X88767820Y-107807502D01*
X88887518Y-107843812D01*
X89012000Y-107856072D01*
X90312000Y-107856072D01*
X90436482Y-107843812D01*
X90556180Y-107807502D01*
X90666494Y-107748537D01*
X90763185Y-107669185D01*
X90796985Y-107628000D01*
X92049978Y-107628000D01*
X92087300Y-107631676D01*
X92124622Y-107628000D01*
X92124633Y-107628000D01*
X92236286Y-107617003D01*
X92379547Y-107573546D01*
X92511576Y-107502974D01*
X92627301Y-107408001D01*
X92651104Y-107378997D01*
X92890997Y-107139104D01*
X92920001Y-107115301D01*
X93014974Y-106999576D01*
X93085546Y-106867547D01*
X93091000Y-106849567D01*
X93124180Y-106839502D01*
X93212601Y-106792239D01*
X93212601Y-107417297D01*
X91868998Y-108760901D01*
X91840000Y-108784699D01*
X91816202Y-108813697D01*
X91816201Y-108813698D01*
X91745026Y-108900424D01*
X91674454Y-109032454D01*
X91669000Y-109050433D01*
X91635820Y-109060498D01*
X91525506Y-109119463D01*
X91428815Y-109198815D01*
X91349463Y-109295506D01*
X91290498Y-109405820D01*
X91254188Y-109525518D01*
X91241928Y-109650000D01*
X91241928Y-111250000D01*
X91254188Y-111374482D01*
X91290498Y-111494180D01*
X91349463Y-111604494D01*
X91428815Y-111701185D01*
X91454304Y-111722104D01*
X91445700Y-111765361D01*
X91445700Y-111948746D01*
X91378753Y-111969054D01*
X91246724Y-112039626D01*
X91130999Y-112134599D01*
X91107196Y-112163603D01*
X90945903Y-112324896D01*
X90916899Y-112348699D01*
X90873506Y-112401574D01*
X90821926Y-112464424D01*
X90789166Y-112525714D01*
X90751354Y-112596454D01*
X90707897Y-112739715D01*
X90696900Y-112851368D01*
X90696900Y-112851378D01*
X90693224Y-112888700D01*
X90696900Y-112926023D01*
X90696901Y-113895168D01*
X90693224Y-113932500D01*
X90696901Y-113969833D01*
X90707898Y-114081486D01*
X90717663Y-114113676D01*
X90751354Y-114224746D01*
X90821926Y-114356776D01*
X90886124Y-114435000D01*
X90916900Y-114472501D01*
X90938223Y-114490000D01*
X89201465Y-114490000D01*
X89097547Y-114434454D01*
X89056824Y-114422101D01*
X89010537Y-114335506D01*
X88931185Y-114238815D01*
X88834494Y-114159463D01*
X88724180Y-114100498D01*
X88604482Y-114064188D01*
X88480000Y-114051928D01*
X87245972Y-114051928D01*
X87339680Y-114023502D01*
X87449994Y-113964537D01*
X87546685Y-113885185D01*
X87626037Y-113788494D01*
X87685002Y-113678180D01*
X87721312Y-113558482D01*
X87733572Y-113434000D01*
X87733572Y-112522072D01*
X88095500Y-112522072D01*
X88219982Y-112509812D01*
X88339680Y-112473502D01*
X88449994Y-112414537D01*
X88546685Y-112335185D01*
X88626037Y-112238494D01*
X88685002Y-112128180D01*
X88721312Y-112008482D01*
X88733572Y-111884000D01*
X88733572Y-111184000D01*
X88721312Y-111059518D01*
X88685002Y-110939820D01*
X88626037Y-110829506D01*
X88588691Y-110784000D01*
X88626037Y-110738494D01*
X88685002Y-110628180D01*
X88721312Y-110508482D01*
X88733572Y-110384000D01*
X88730500Y-110319750D01*
X88571750Y-110161000D01*
X87472500Y-110161000D01*
X87472500Y-110181000D01*
X87218500Y-110181000D01*
X87218500Y-110161000D01*
X87198500Y-110161000D01*
X87198500Y-109907000D01*
X87218500Y-109907000D01*
X87218500Y-109207750D01*
X87472500Y-109207750D01*
X87472500Y-109907000D01*
X88571750Y-109907000D01*
X88730500Y-109748250D01*
X88733572Y-109684000D01*
X88721312Y-109559518D01*
X88685002Y-109439820D01*
X88626037Y-109329506D01*
X88546685Y-109232815D01*
X88449994Y-109153463D01*
X88339680Y-109094498D01*
X88219982Y-109058188D01*
X88095500Y-109045928D01*
X87631250Y-109049000D01*
X87472500Y-109207750D01*
X87218500Y-109207750D01*
X87059750Y-109049000D01*
X86595500Y-109045928D01*
X86471018Y-109058188D01*
X86351320Y-109094498D01*
X86241006Y-109153463D01*
X86144315Y-109232815D01*
X86064963Y-109329506D01*
X86005998Y-109439820D01*
X85969688Y-109559518D01*
X85957428Y-109684000D01*
X85960500Y-109748250D01*
X85988982Y-109776732D01*
X85901983Y-109740696D01*
X85692363Y-109699000D01*
X85478637Y-109699000D01*
X85269017Y-109740696D01*
X85071560Y-109822485D01*
X84893853Y-109941225D01*
X84742725Y-110092353D01*
X84623985Y-110270060D01*
X84542196Y-110467517D01*
X84500500Y-110677137D01*
X84500500Y-110890863D01*
X84542196Y-111100483D01*
X84623985Y-111297940D01*
X84742725Y-111475647D01*
X84893853Y-111626775D01*
X85071560Y-111745515D01*
X85269017Y-111827304D01*
X85478637Y-111869000D01*
X85692363Y-111869000D01*
X85901983Y-111827304D01*
X85957428Y-111804338D01*
X85957428Y-111884000D01*
X85958428Y-111894151D01*
X85941006Y-111903463D01*
X85844315Y-111982815D01*
X85764963Y-112079506D01*
X85705998Y-112189820D01*
X85669688Y-112309518D01*
X85657428Y-112434000D01*
X85657428Y-113434000D01*
X85669688Y-113558482D01*
X85705998Y-113678180D01*
X85764963Y-113788494D01*
X85844315Y-113885185D01*
X85941006Y-113964537D01*
X86051320Y-114023502D01*
X86171018Y-114059812D01*
X86295500Y-114072072D01*
X86629528Y-114072072D01*
X86535820Y-114100498D01*
X86425506Y-114159463D01*
X86328815Y-114238815D01*
X86249463Y-114335506D01*
X86190498Y-114445820D01*
X86154188Y-114565518D01*
X86141928Y-114690000D01*
X86141928Y-115590000D01*
X86154188Y-115714482D01*
X86190498Y-115834180D01*
X86249463Y-115944494D01*
X86328815Y-116041185D01*
X86425506Y-116120537D01*
X86535820Y-116179502D01*
X86655518Y-116215812D01*
X86780000Y-116228072D01*
X88155300Y-116228072D01*
X88155301Y-117453696D01*
X87915750Y-117455000D01*
X87757000Y-117613750D01*
X87757000Y-118413000D01*
X87777000Y-118413000D01*
X87777000Y-118667000D01*
X87757000Y-118667000D01*
X87757000Y-119466250D01*
X87851324Y-119560574D01*
X87372998Y-120038901D01*
X87344000Y-120062699D01*
X87320202Y-120091697D01*
X87320201Y-120091698D01*
X87249026Y-120178424D01*
X87185559Y-120297161D01*
X87134518Y-120302188D01*
X87014820Y-120338498D01*
X86904506Y-120397463D01*
X86807815Y-120476815D01*
X86728463Y-120573506D01*
X86669498Y-120683820D01*
X86633188Y-120803518D01*
X86620928Y-120928000D01*
X86620928Y-121045704D01*
X86538994Y-120978463D01*
X86428680Y-120919498D01*
X86308982Y-120883188D01*
X86184500Y-120870928D01*
X84884500Y-120870928D01*
X84760018Y-120883188D01*
X84640320Y-120919498D01*
X84530006Y-120978463D01*
X84433315Y-121057815D01*
X84353963Y-121154506D01*
X84294998Y-121264820D01*
X84258688Y-121384518D01*
X84246428Y-121509000D01*
X84246428Y-122209000D01*
X84258688Y-122333482D01*
X84294998Y-122453180D01*
X84353963Y-122563494D01*
X84433315Y-122660185D01*
X84530006Y-122739537D01*
X84640320Y-122798502D01*
X84674927Y-122809000D01*
X84640320Y-122819498D01*
X84530006Y-122878463D01*
X84433315Y-122957815D01*
X84353963Y-123054506D01*
X84294998Y-123164820D01*
X84258688Y-123284518D01*
X84246428Y-123409000D01*
X84246428Y-123978918D01*
X84170776Y-124010254D01*
X83852933Y-124222630D01*
X83582630Y-124492933D01*
X83370254Y-124810776D01*
X83223966Y-125163945D01*
X83210000Y-125234157D01*
X83210000Y-118990000D01*
X86141928Y-118990000D01*
X86154188Y-119114482D01*
X86190498Y-119234180D01*
X86249463Y-119344494D01*
X86328815Y-119441185D01*
X86425506Y-119520537D01*
X86535820Y-119579502D01*
X86655518Y-119615812D01*
X86780000Y-119628072D01*
X87344250Y-119625000D01*
X87503000Y-119466250D01*
X87503000Y-118667000D01*
X86303750Y-118667000D01*
X86145000Y-118825750D01*
X86141928Y-118990000D01*
X83210000Y-118990000D01*
X83210000Y-118090000D01*
X86141928Y-118090000D01*
X86145000Y-118254250D01*
X86303750Y-118413000D01*
X87503000Y-118413000D01*
X87503000Y-117613750D01*
X87344250Y-117455000D01*
X86780000Y-117451928D01*
X86655518Y-117464188D01*
X86535820Y-117500498D01*
X86425506Y-117559463D01*
X86328815Y-117638815D01*
X86249463Y-117735506D01*
X86190498Y-117845820D01*
X86154188Y-117965518D01*
X86141928Y-118090000D01*
X83210000Y-118090000D01*
X83210000Y-112434000D01*
X83447428Y-112434000D01*
X83447428Y-113434000D01*
X83459688Y-113558482D01*
X83495998Y-113678180D01*
X83554963Y-113788494D01*
X83634315Y-113885185D01*
X83731006Y-113964537D01*
X83841320Y-114023502D01*
X83961018Y-114059812D01*
X84085500Y-114072072D01*
X84885500Y-114072072D01*
X85009982Y-114059812D01*
X85129680Y-114023502D01*
X85239994Y-113964537D01*
X85336685Y-113885185D01*
X85416037Y-113788494D01*
X85475002Y-113678180D01*
X85511312Y-113558482D01*
X85523572Y-113434000D01*
X85523572Y-112434000D01*
X85511312Y-112309518D01*
X85475002Y-112189820D01*
X85416037Y-112079506D01*
X85336685Y-111982815D01*
X85239994Y-111903463D01*
X85129680Y-111844498D01*
X85009982Y-111808188D01*
X84885500Y-111795928D01*
X84085500Y-111795928D01*
X83961018Y-111808188D01*
X83841320Y-111844498D01*
X83731006Y-111903463D01*
X83634315Y-111982815D01*
X83554963Y-112079506D01*
X83495998Y-112189820D01*
X83459688Y-112309518D01*
X83447428Y-112434000D01*
X83210000Y-112434000D01*
X83210000Y-104132248D01*
X83231174Y-104238698D01*
G36*
X93132529Y-123294324D02*
G01*
X92984447Y-123454178D01*
X92870397Y-123639850D01*
X92800732Y-123828062D01*
X92927266Y-123999000D01*
X93893000Y-123999000D01*
X93893000Y-123979000D01*
X94147000Y-123979000D01*
X94147000Y-123999000D01*
X94167000Y-123999000D01*
X94167000Y-124253000D01*
X94147000Y-124253000D01*
X94147000Y-124273000D01*
X93893000Y-124273000D01*
X93893000Y-124253000D01*
X92927266Y-124253000D01*
X92800732Y-124423938D01*
X92870397Y-124612150D01*
X92984447Y-124797822D01*
X93084659Y-124906000D01*
X92008238Y-124906000D01*
X92006812Y-124891518D01*
X91970502Y-124771820D01*
X91911537Y-124661506D01*
X91832185Y-124564815D01*
X91735494Y-124485463D01*
X91625180Y-124426498D01*
X91505482Y-124390188D01*
X91488782Y-124388543D01*
X91500185Y-124379185D01*
X91579537Y-124282494D01*
X91638502Y-124172180D01*
X91674812Y-124052482D01*
X91687072Y-123928000D01*
X91684000Y-123713750D01*
X91525250Y-123555000D01*
X90551000Y-123555000D01*
X90551000Y-123575000D01*
X90297000Y-123575000D01*
X90297000Y-123555000D01*
X90277000Y-123555000D01*
X90277000Y-123301000D01*
X90297000Y-123301000D01*
X90297000Y-123281000D01*
X90551000Y-123281000D01*
X90551000Y-123301000D01*
X91525250Y-123301000D01*
X91589450Y-123236800D01*
X93211880Y-123236800D01*
X93132529Y-123294324D01*
G37*
X93132529Y-123294324D02*
X92984447Y-123454178D01*
X92870397Y-123639850D01*
X92800732Y-123828062D01*
X92927266Y-123999000D01*
X93893000Y-123999000D01*
X93893000Y-123979000D01*
X94147000Y-123979000D01*
X94147000Y-123999000D01*
X94167000Y-123999000D01*
X94167000Y-124253000D01*
X94147000Y-124253000D01*
X94147000Y-124273000D01*
X93893000Y-124273000D01*
X93893000Y-124253000D01*
X92927266Y-124253000D01*
X92800732Y-124423938D01*
X92870397Y-124612150D01*
X92984447Y-124797822D01*
X93084659Y-124906000D01*
X92008238Y-124906000D01*
X92006812Y-124891518D01*
X91970502Y-124771820D01*
X91911537Y-124661506D01*
X91832185Y-124564815D01*
X91735494Y-124485463D01*
X91625180Y-124426498D01*
X91505482Y-124390188D01*
X91488782Y-124388543D01*
X91500185Y-124379185D01*
X91579537Y-124282494D01*
X91638502Y-124172180D01*
X91674812Y-124052482D01*
X91687072Y-123928000D01*
X91684000Y-123713750D01*
X91525250Y-123555000D01*
X90551000Y-123555000D01*
X90551000Y-123575000D01*
X90297000Y-123575000D01*
X90297000Y-123555000D01*
X90277000Y-123555000D01*
X90277000Y-123301000D01*
X90297000Y-123301000D01*
X90297000Y-123281000D01*
X90551000Y-123281000D01*
X90551000Y-123301000D01*
X91525250Y-123301000D01*
X91589450Y-123236800D01*
X93211880Y-123236800D01*
X93132529Y-123294324D01*
G36*
X99147000Y-123999000D02*
G01*
X99167000Y-123999000D01*
X99167000Y-124253000D01*
X99147000Y-124253000D01*
X99147000Y-124273000D01*
X98893000Y-124273000D01*
X98893000Y-124253000D01*
X98873000Y-124253000D01*
X98873000Y-123999000D01*
X98893000Y-123999000D01*
X98893000Y-123979000D01*
X99147000Y-123979000D01*
X99147000Y-123999000D01*
G37*
X99147000Y-123999000D02*
X99167000Y-123999000D01*
X99167000Y-124253000D01*
X99147000Y-124253000D01*
X99147000Y-124273000D01*
X98893000Y-124273000D01*
X98893000Y-124253000D01*
X98873000Y-124253000D01*
X98873000Y-123999000D01*
X98893000Y-123999000D01*
X98893000Y-123979000D01*
X99147000Y-123979000D01*
X99147000Y-123999000D01*
G36*
X88011000Y-123301000D02*
G01*
X88031000Y-123301000D01*
X88031000Y-123555000D01*
X88011000Y-123555000D01*
X88011000Y-123575000D01*
X87757000Y-123575000D01*
X87757000Y-123555000D01*
X87737000Y-123555000D01*
X87737000Y-123301000D01*
X87757000Y-123301000D01*
X87757000Y-123281000D01*
X88011000Y-123281000D01*
X88011000Y-123301000D01*
G37*
X88011000Y-123301000D02*
X88031000Y-123301000D01*
X88031000Y-123555000D01*
X88011000Y-123555000D01*
X88011000Y-123575000D01*
X87757000Y-123575000D01*
X87757000Y-123555000D01*
X87737000Y-123555000D01*
X87737000Y-123301000D01*
X87757000Y-123301000D01*
X87757000Y-123281000D01*
X88011000Y-123281000D01*
X88011000Y-123301000D01*
G36*
X102743000Y-121301000D02*
G01*
X102763000Y-121301000D01*
X102763000Y-121555000D01*
X102743000Y-121555000D01*
X102743000Y-121575000D01*
X102489000Y-121575000D01*
X102489000Y-121555000D01*
X102469000Y-121555000D01*
X102469000Y-121301000D01*
X102489000Y-121301000D01*
X102489000Y-121281000D01*
X102743000Y-121281000D01*
X102743000Y-121301000D01*
G37*
X102743000Y-121301000D02*
X102763000Y-121301000D01*
X102763000Y-121555000D01*
X102743000Y-121555000D01*
X102743000Y-121575000D01*
X102489000Y-121575000D01*
X102489000Y-121555000D01*
X102469000Y-121555000D01*
X102469000Y-121301000D01*
X102489000Y-121301000D01*
X102489000Y-121281000D01*
X102743000Y-121281000D01*
X102743000Y-121301000D01*
G36*
X100695000Y-120269000D02*
G01*
X100715000Y-120269000D01*
X100715000Y-120523000D01*
X100695000Y-120523000D01*
X100695000Y-120543000D01*
X100502600Y-120543000D01*
X100502600Y-120249000D01*
X100695000Y-120249000D01*
X100695000Y-120269000D01*
G37*
X100695000Y-120269000D02*
X100715000Y-120269000D01*
X100715000Y-120523000D01*
X100695000Y-120523000D01*
X100695000Y-120543000D01*
X100502600Y-120543000D01*
X100502600Y-120249000D01*
X100695000Y-120249000D01*
X100695000Y-120269000D01*
G36*
X94245506Y-116130537D02*
G01*
X94355820Y-116189502D01*
X94475518Y-116225812D01*
X94552949Y-116233438D01*
X94615026Y-116349576D01*
X94686201Y-116436302D01*
X94710000Y-116465301D01*
X94738998Y-116489099D01*
X95744000Y-117494102D01*
X95744000Y-117665954D01*
X95649506Y-117716463D01*
X95552815Y-117795815D01*
X95504000Y-117855296D01*
X95455185Y-117795815D01*
X95358494Y-117716463D01*
X95248180Y-117657498D01*
X95128482Y-117621188D01*
X95004000Y-117608928D01*
X94789750Y-117612000D01*
X94631000Y-117770750D01*
X94631000Y-118745000D01*
X94651000Y-118745000D01*
X94651000Y-118999000D01*
X94631000Y-118999000D01*
X94631000Y-119019000D01*
X94377000Y-119019000D01*
X94377000Y-118999000D01*
X93530603Y-118999000D01*
X93460494Y-118941463D01*
X93350180Y-118882498D01*
X93315573Y-118872000D01*
X93350180Y-118861502D01*
X93460494Y-118802537D01*
X93530603Y-118745000D01*
X94377000Y-118745000D01*
X94377000Y-117770750D01*
X94218250Y-117612000D01*
X94004000Y-117608928D01*
X93879518Y-117621188D01*
X93759820Y-117657498D01*
X93744072Y-117665916D01*
X93744072Y-117572000D01*
X93731812Y-117447518D01*
X93695502Y-117327820D01*
X93636537Y-117217506D01*
X93602036Y-117175466D01*
X93942403Y-116835099D01*
X93971401Y-116811301D01*
X93999671Y-116776854D01*
X94066374Y-116695577D01*
X94136946Y-116563547D01*
X94142572Y-116545000D01*
X94180403Y-116420286D01*
X94191400Y-116308633D01*
X94191400Y-116308623D01*
X94195076Y-116271300D01*
X94191400Y-116233977D01*
X94191400Y-116086133D01*
X94245506Y-116130537D01*
G37*
X94245506Y-116130537D02*
X94355820Y-116189502D01*
X94475518Y-116225812D01*
X94552949Y-116233438D01*
X94615026Y-116349576D01*
X94686201Y-116436302D01*
X94710000Y-116465301D01*
X94738998Y-116489099D01*
X95744000Y-117494102D01*
X95744000Y-117665954D01*
X95649506Y-117716463D01*
X95552815Y-117795815D01*
X95504000Y-117855296D01*
X95455185Y-117795815D01*
X95358494Y-117716463D01*
X95248180Y-117657498D01*
X95128482Y-117621188D01*
X95004000Y-117608928D01*
X94789750Y-117612000D01*
X94631000Y-117770750D01*
X94631000Y-118745000D01*
X94651000Y-118745000D01*
X94651000Y-118999000D01*
X94631000Y-118999000D01*
X94631000Y-119019000D01*
X94377000Y-119019000D01*
X94377000Y-118999000D01*
X93530603Y-118999000D01*
X93460494Y-118941463D01*
X93350180Y-118882498D01*
X93315573Y-118872000D01*
X93350180Y-118861502D01*
X93460494Y-118802537D01*
X93530603Y-118745000D01*
X94377000Y-118745000D01*
X94377000Y-117770750D01*
X94218250Y-117612000D01*
X94004000Y-117608928D01*
X93879518Y-117621188D01*
X93759820Y-117657498D01*
X93744072Y-117665916D01*
X93744072Y-117572000D01*
X93731812Y-117447518D01*
X93695502Y-117327820D01*
X93636537Y-117217506D01*
X93602036Y-117175466D01*
X93942403Y-116835099D01*
X93971401Y-116811301D01*
X93999671Y-116776854D01*
X94066374Y-116695577D01*
X94136946Y-116563547D01*
X94142572Y-116545000D01*
X94180403Y-116420286D01*
X94191400Y-116308633D01*
X94191400Y-116308623D01*
X94195076Y-116271300D01*
X94191400Y-116233977D01*
X94191400Y-116086133D01*
X94245506Y-116130537D01*
G36*
X99455820Y-110199502D02*
G01*
X99575518Y-110235812D01*
X99700000Y-110248072D01*
X100840000Y-110248072D01*
X100840001Y-113272913D01*
X100725518Y-113284188D01*
X100605820Y-113320498D01*
X100495506Y-113379463D01*
X100450000Y-113416809D01*
X100404494Y-113379463D01*
X100294180Y-113320498D01*
X100174482Y-113284188D01*
X100050000Y-113271928D01*
X99585750Y-113275000D01*
X99427000Y-113433750D01*
X99427000Y-114783000D01*
X99447000Y-114783000D01*
X99447000Y-115037000D01*
X99427000Y-115037000D01*
X99427000Y-115057000D01*
X99173000Y-115057000D01*
X99173000Y-115037000D01*
X98073750Y-115037000D01*
X97915000Y-115195750D01*
X97911928Y-115910000D01*
X97924188Y-116034482D01*
X97960498Y-116154180D01*
X98019463Y-116264494D01*
X98098815Y-116361185D01*
X98169629Y-116419300D01*
X96818802Y-116419300D01*
X96396036Y-115996534D01*
X96430537Y-115954494D01*
X96489502Y-115844180D01*
X96525812Y-115724482D01*
X96538072Y-115600000D01*
X96538072Y-114900000D01*
X96525812Y-114775518D01*
X96489502Y-114655820D01*
X96430537Y-114545506D01*
X96351185Y-114448815D01*
X96254494Y-114369463D01*
X96144180Y-114310498D01*
X96109573Y-114300000D01*
X96144180Y-114289502D01*
X96254494Y-114230537D01*
X96351185Y-114151185D01*
X96430537Y-114054494D01*
X96489502Y-113944180D01*
X96499870Y-113910000D01*
X97911928Y-113910000D01*
X97915000Y-114624250D01*
X98073750Y-114783000D01*
X99173000Y-114783000D01*
X99173000Y-113433750D01*
X99014250Y-113275000D01*
X98550000Y-113271928D01*
X98425518Y-113284188D01*
X98305820Y-113320498D01*
X98195506Y-113379463D01*
X98098815Y-113458815D01*
X98019463Y-113555506D01*
X97960498Y-113665820D01*
X97924188Y-113785518D01*
X97911928Y-113910000D01*
X96499870Y-113910000D01*
X96525812Y-113824482D01*
X96538072Y-113700000D01*
X96538072Y-113000000D01*
X96525812Y-112875518D01*
X96489502Y-112755820D01*
X96430537Y-112645506D01*
X96396036Y-112603466D01*
X98481004Y-110518498D01*
X98510001Y-110494701D01*
X98591987Y-110394801D01*
X98604974Y-110378977D01*
X98642122Y-110309479D01*
X98795561Y-110340000D01*
X98999439Y-110340000D01*
X99199398Y-110300226D01*
X99387756Y-110222205D01*
X99436883Y-110189380D01*
X99455820Y-110199502D01*
G37*
X99455820Y-110199502D02*
X99575518Y-110235812D01*
X99700000Y-110248072D01*
X100840000Y-110248072D01*
X100840001Y-113272913D01*
X100725518Y-113284188D01*
X100605820Y-113320498D01*
X100495506Y-113379463D01*
X100450000Y-113416809D01*
X100404494Y-113379463D01*
X100294180Y-113320498D01*
X100174482Y-113284188D01*
X100050000Y-113271928D01*
X99585750Y-113275000D01*
X99427000Y-113433750D01*
X99427000Y-114783000D01*
X99447000Y-114783000D01*
X99447000Y-115037000D01*
X99427000Y-115037000D01*
X99427000Y-115057000D01*
X99173000Y-115057000D01*
X99173000Y-115037000D01*
X98073750Y-115037000D01*
X97915000Y-115195750D01*
X97911928Y-115910000D01*
X97924188Y-116034482D01*
X97960498Y-116154180D01*
X98019463Y-116264494D01*
X98098815Y-116361185D01*
X98169629Y-116419300D01*
X96818802Y-116419300D01*
X96396036Y-115996534D01*
X96430537Y-115954494D01*
X96489502Y-115844180D01*
X96525812Y-115724482D01*
X96538072Y-115600000D01*
X96538072Y-114900000D01*
X96525812Y-114775518D01*
X96489502Y-114655820D01*
X96430537Y-114545506D01*
X96351185Y-114448815D01*
X96254494Y-114369463D01*
X96144180Y-114310498D01*
X96109573Y-114300000D01*
X96144180Y-114289502D01*
X96254494Y-114230537D01*
X96351185Y-114151185D01*
X96430537Y-114054494D01*
X96489502Y-113944180D01*
X96499870Y-113910000D01*
X97911928Y-113910000D01*
X97915000Y-114624250D01*
X98073750Y-114783000D01*
X99173000Y-114783000D01*
X99173000Y-113433750D01*
X99014250Y-113275000D01*
X98550000Y-113271928D01*
X98425518Y-113284188D01*
X98305820Y-113320498D01*
X98195506Y-113379463D01*
X98098815Y-113458815D01*
X98019463Y-113555506D01*
X97960498Y-113665820D01*
X97924188Y-113785518D01*
X97911928Y-113910000D01*
X96499870Y-113910000D01*
X96525812Y-113824482D01*
X96538072Y-113700000D01*
X96538072Y-113000000D01*
X96525812Y-112875518D01*
X96489502Y-112755820D01*
X96430537Y-112645506D01*
X96396036Y-112603466D01*
X98481004Y-110518498D01*
X98510001Y-110494701D01*
X98591987Y-110394801D01*
X98604974Y-110378977D01*
X98642122Y-110309479D01*
X98795561Y-110340000D01*
X98999439Y-110340000D01*
X99199398Y-110300226D01*
X99387756Y-110222205D01*
X99436883Y-110189380D01*
X99455820Y-110199502D01*
G36*
X103878454Y-110147046D02*
G01*
X103949026Y-110279076D01*
X103975540Y-110311383D01*
X104043999Y-110394801D01*
X104073003Y-110418604D01*
X106451466Y-112797068D01*
X106436000Y-112796928D01*
X106311518Y-112809188D01*
X106191820Y-112845498D01*
X106081506Y-112904463D01*
X105984815Y-112983815D01*
X105905463Y-113080506D01*
X105846498Y-113190820D01*
X105810188Y-113310518D01*
X105797928Y-113435000D01*
X105801000Y-113649250D01*
X105959750Y-113808000D01*
X106934000Y-113808000D01*
X106934000Y-113788000D01*
X107188000Y-113788000D01*
X107188000Y-113808000D01*
X107208000Y-113808000D01*
X107208000Y-114062000D01*
X107188000Y-114062000D01*
X107188000Y-114082000D01*
X106934000Y-114082000D01*
X106934000Y-114062000D01*
X105959750Y-114062000D01*
X105871750Y-114150000D01*
X105288072Y-114150000D01*
X105288072Y-113910000D01*
X105275812Y-113785518D01*
X105239502Y-113665820D01*
X105180537Y-113555506D01*
X105101185Y-113458815D01*
X105004494Y-113379463D01*
X104894180Y-113320498D01*
X104774482Y-113284188D01*
X104650000Y-113271928D01*
X103150000Y-113271928D01*
X103025518Y-113284188D01*
X102905820Y-113320498D01*
X102795506Y-113379463D01*
X102750000Y-113416809D01*
X102704494Y-113379463D01*
X102594180Y-113320498D01*
X102474482Y-113284188D01*
X102360000Y-113272913D01*
X102360000Y-110248072D01*
X103500000Y-110248072D01*
X103624482Y-110235812D01*
X103744180Y-110199502D01*
X103854494Y-110140537D01*
X103872097Y-110126090D01*
X103878454Y-110147046D01*
G37*
X103878454Y-110147046D02*
X103949026Y-110279076D01*
X103975540Y-110311383D01*
X104043999Y-110394801D01*
X104073003Y-110418604D01*
X106451466Y-112797068D01*
X106436000Y-112796928D01*
X106311518Y-112809188D01*
X106191820Y-112845498D01*
X106081506Y-112904463D01*
X105984815Y-112983815D01*
X105905463Y-113080506D01*
X105846498Y-113190820D01*
X105810188Y-113310518D01*
X105797928Y-113435000D01*
X105801000Y-113649250D01*
X105959750Y-113808000D01*
X106934000Y-113808000D01*
X106934000Y-113788000D01*
X107188000Y-113788000D01*
X107188000Y-113808000D01*
X107208000Y-113808000D01*
X107208000Y-114062000D01*
X107188000Y-114062000D01*
X107188000Y-114082000D01*
X106934000Y-114082000D01*
X106934000Y-114062000D01*
X105959750Y-114062000D01*
X105871750Y-114150000D01*
X105288072Y-114150000D01*
X105288072Y-113910000D01*
X105275812Y-113785518D01*
X105239502Y-113665820D01*
X105180537Y-113555506D01*
X105101185Y-113458815D01*
X105004494Y-113379463D01*
X104894180Y-113320498D01*
X104774482Y-113284188D01*
X104650000Y-113271928D01*
X103150000Y-113271928D01*
X103025518Y-113284188D01*
X102905820Y-113320498D01*
X102795506Y-113379463D01*
X102750000Y-113416809D01*
X102704494Y-113379463D01*
X102594180Y-113320498D01*
X102474482Y-113284188D01*
X102360000Y-113272913D01*
X102360000Y-110248072D01*
X103500000Y-110248072D01*
X103624482Y-110235812D01*
X103744180Y-110199502D01*
X103854494Y-110140537D01*
X103872097Y-110126090D01*
X103878454Y-110147046D01*
G36*
X107838212Y-111625000D02*
G01*
X108010198Y-111625000D01*
X108097000Y-111711802D01*
X108097000Y-111887000D01*
X108077000Y-111887000D01*
X108077000Y-111907000D01*
X107823000Y-111907000D01*
X107823000Y-111887000D01*
X107803000Y-111887000D01*
X107803000Y-111633000D01*
X107823000Y-111633000D01*
X107823000Y-111621974D01*
X107838212Y-111625000D01*
G37*
X107838212Y-111625000D02*
X108010198Y-111625000D01*
X108097000Y-111711802D01*
X108097000Y-111887000D01*
X108077000Y-111887000D01*
X108077000Y-111907000D01*
X107823000Y-111907000D01*
X107823000Y-111887000D01*
X107803000Y-111887000D01*
X107803000Y-111633000D01*
X107823000Y-111633000D01*
X107823000Y-111621974D01*
X107838212Y-111625000D01*
G36*
X105597600Y-107590277D02*
G01*
X105593924Y-107627600D01*
X105597600Y-107664922D01*
X105597600Y-107664932D01*
X105608597Y-107776585D01*
X105643262Y-107890863D01*
X105652054Y-107919846D01*
X105722626Y-108051876D01*
X105762471Y-108100426D01*
X105817599Y-108167601D01*
X105846603Y-108191404D01*
X106815000Y-109159802D01*
X106815000Y-109331788D01*
X106858617Y-109551067D01*
X106944176Y-109757624D01*
X107009241Y-109855000D01*
X106944176Y-109952376D01*
X106858617Y-110158933D01*
X106815000Y-110378212D01*
X106815000Y-110601788D01*
X106858617Y-110821067D01*
X106944176Y-111027624D01*
X107012353Y-111129658D01*
X106979802Y-111175801D01*
X105344000Y-109539999D01*
X105344000Y-107210238D01*
X105358482Y-107208812D01*
X105478180Y-107172502D01*
X105588494Y-107113537D01*
X105597600Y-107106064D01*
X105597600Y-107590277D01*
G37*
X105597600Y-107590277D02*
X105593924Y-107627600D01*
X105597600Y-107664922D01*
X105597600Y-107664932D01*
X105608597Y-107776585D01*
X105643262Y-107890863D01*
X105652054Y-107919846D01*
X105722626Y-108051876D01*
X105762471Y-108100426D01*
X105817599Y-108167601D01*
X105846603Y-108191404D01*
X106815000Y-109159802D01*
X106815000Y-109331788D01*
X106858617Y-109551067D01*
X106944176Y-109757624D01*
X107009241Y-109855000D01*
X106944176Y-109952376D01*
X106858617Y-110158933D01*
X106815000Y-110378212D01*
X106815000Y-110601788D01*
X106858617Y-110821067D01*
X106944176Y-111027624D01*
X107012353Y-111129658D01*
X106979802Y-111175801D01*
X105344000Y-109539999D01*
X105344000Y-107210238D01*
X105358482Y-107208812D01*
X105478180Y-107172502D01*
X105588494Y-107113537D01*
X105597600Y-107106064D01*
X105597600Y-107590277D01*
G36*
X106858617Y-103201067D02*
G01*
X106944176Y-103407624D01*
X107009241Y-103505000D01*
X106944176Y-103602376D01*
X106858617Y-103808933D01*
X106815000Y-104028212D01*
X106815000Y-104251788D01*
X106858617Y-104471067D01*
X106944176Y-104677624D01*
X107009241Y-104775000D01*
X106944176Y-104872376D01*
X106858617Y-105078933D01*
X106815000Y-105298212D01*
X106815000Y-105521788D01*
X106858617Y-105741067D01*
X106944176Y-105947624D01*
X107009241Y-106045000D01*
X106977186Y-106092973D01*
X106921399Y-106024997D01*
X106897601Y-105995999D01*
X106868603Y-105972201D01*
X105943004Y-105046602D01*
X105919201Y-105017599D01*
X105819088Y-104935438D01*
X105823502Y-104927180D01*
X105859812Y-104807482D01*
X105872072Y-104683000D01*
X105869000Y-104618750D01*
X105710250Y-104460000D01*
X104711000Y-104460000D01*
X104711000Y-104480000D01*
X104457000Y-104480000D01*
X104457000Y-104460000D01*
X103457750Y-104460000D01*
X103299000Y-104618750D01*
X103295928Y-104683000D01*
X103308188Y-104807482D01*
X103344498Y-104927180D01*
X103348516Y-104934697D01*
X103247499Y-105017599D01*
X103223701Y-105046597D01*
X101588803Y-106681496D01*
X101559799Y-106705299D01*
X101519995Y-106753801D01*
X101464826Y-106821024D01*
X101428988Y-106888072D01*
X101394254Y-106953054D01*
X101388529Y-106971928D01*
X99700000Y-106971928D01*
X99575518Y-106984188D01*
X99480000Y-107013163D01*
X99480000Y-102996138D01*
X99569712Y-103044089D01*
X99702747Y-103084445D01*
X99841100Y-103098072D01*
X100327370Y-103098072D01*
X100545601Y-103316303D01*
X100569399Y-103345301D01*
X100598397Y-103369099D01*
X100685124Y-103440274D01*
X100817153Y-103510846D01*
X100960414Y-103554303D01*
X101109400Y-103568977D01*
X101146733Y-103565300D01*
X103455335Y-103565300D01*
X103403463Y-103628506D01*
X103344498Y-103738820D01*
X103308188Y-103858518D01*
X103295928Y-103983000D01*
X103299000Y-104047250D01*
X103457750Y-104206000D01*
X104457000Y-104206000D01*
X104457000Y-104186000D01*
X104711000Y-104186000D01*
X104711000Y-104206000D01*
X105710250Y-104206000D01*
X105869000Y-104047250D01*
X105872072Y-103983000D01*
X105859812Y-103858518D01*
X105823502Y-103738820D01*
X105764537Y-103628506D01*
X105712665Y-103565300D01*
X105882078Y-103565300D01*
X105919400Y-103568976D01*
X105956722Y-103565300D01*
X105956733Y-103565300D01*
X106068386Y-103554303D01*
X106211647Y-103510846D01*
X106343676Y-103440274D01*
X106459401Y-103345301D01*
X106483204Y-103316297D01*
X106815450Y-102984051D01*
X106858617Y-103201067D01*
G37*
X106858617Y-103201067D02*
X106944176Y-103407624D01*
X107009241Y-103505000D01*
X106944176Y-103602376D01*
X106858617Y-103808933D01*
X106815000Y-104028212D01*
X106815000Y-104251788D01*
X106858617Y-104471067D01*
X106944176Y-104677624D01*
X107009241Y-104775000D01*
X106944176Y-104872376D01*
X106858617Y-105078933D01*
X106815000Y-105298212D01*
X106815000Y-105521788D01*
X106858617Y-105741067D01*
X106944176Y-105947624D01*
X107009241Y-106045000D01*
X106977186Y-106092973D01*
X106921399Y-106024997D01*
X106897601Y-105995999D01*
X106868603Y-105972201D01*
X105943004Y-105046602D01*
X105919201Y-105017599D01*
X105819088Y-104935438D01*
X105823502Y-104927180D01*
X105859812Y-104807482D01*
X105872072Y-104683000D01*
X105869000Y-104618750D01*
X105710250Y-104460000D01*
X104711000Y-104460000D01*
X104711000Y-104480000D01*
X104457000Y-104480000D01*
X104457000Y-104460000D01*
X103457750Y-104460000D01*
X103299000Y-104618750D01*
X103295928Y-104683000D01*
X103308188Y-104807482D01*
X103344498Y-104927180D01*
X103348516Y-104934697D01*
X103247499Y-105017599D01*
X103223701Y-105046597D01*
X101588803Y-106681496D01*
X101559799Y-106705299D01*
X101519995Y-106753801D01*
X101464826Y-106821024D01*
X101428988Y-106888072D01*
X101394254Y-106953054D01*
X101388529Y-106971928D01*
X99700000Y-106971928D01*
X99575518Y-106984188D01*
X99480000Y-107013163D01*
X99480000Y-102996138D01*
X99569712Y-103044089D01*
X99702747Y-103084445D01*
X99841100Y-103098072D01*
X100327370Y-103098072D01*
X100545601Y-103316303D01*
X100569399Y-103345301D01*
X100598397Y-103369099D01*
X100685124Y-103440274D01*
X100817153Y-103510846D01*
X100960414Y-103554303D01*
X101109400Y-103568977D01*
X101146733Y-103565300D01*
X103455335Y-103565300D01*
X103403463Y-103628506D01*
X103344498Y-103738820D01*
X103308188Y-103858518D01*
X103295928Y-103983000D01*
X103299000Y-104047250D01*
X103457750Y-104206000D01*
X104457000Y-104206000D01*
X104457000Y-104186000D01*
X104711000Y-104186000D01*
X104711000Y-104206000D01*
X105710250Y-104206000D01*
X105869000Y-104047250D01*
X105872072Y-103983000D01*
X105859812Y-103858518D01*
X105823502Y-103738820D01*
X105764537Y-103628506D01*
X105712665Y-103565300D01*
X105882078Y-103565300D01*
X105919400Y-103568976D01*
X105956722Y-103565300D01*
X105956733Y-103565300D01*
X106068386Y-103554303D01*
X106211647Y-103510846D01*
X106343676Y-103440274D01*
X106459401Y-103345301D01*
X106483204Y-103316297D01*
X106815450Y-102984051D01*
X106858617Y-103201067D01*
G36*
X95707000Y-105323000D02*
G01*
X95727000Y-105323000D01*
X95727000Y-105577000D01*
X95707000Y-105577000D01*
X95707000Y-105597000D01*
X95453000Y-105597000D01*
X95453000Y-105577000D01*
X95433000Y-105577000D01*
X95433000Y-105323000D01*
X95453000Y-105323000D01*
X95453000Y-105303000D01*
X95707000Y-105303000D01*
X95707000Y-105323000D01*
G37*
X95707000Y-105323000D02*
X95727000Y-105323000D01*
X95727000Y-105577000D01*
X95707000Y-105577000D01*
X95707000Y-105597000D01*
X95453000Y-105597000D01*
X95453000Y-105577000D01*
X95433000Y-105577000D01*
X95433000Y-105323000D01*
X95453000Y-105323000D01*
X95453000Y-105303000D01*
X95707000Y-105303000D01*
X95707000Y-105323000D01*
G36*
X103347000Y-101583000D02*
G01*
X103367000Y-101583000D01*
X103367000Y-101837000D01*
X103347000Y-101837000D01*
X103347000Y-101857000D01*
X103093000Y-101857000D01*
X103093000Y-101837000D01*
X103073000Y-101837000D01*
X103073000Y-101583000D01*
X103093000Y-101583000D01*
X103093000Y-101563000D01*
X103347000Y-101563000D01*
X103347000Y-101583000D01*
G37*
X103347000Y-101583000D02*
X103367000Y-101583000D01*
X103367000Y-101837000D01*
X103347000Y-101837000D01*
X103347000Y-101857000D01*
X103093000Y-101857000D01*
X103093000Y-101837000D01*
X103073000Y-101837000D01*
X103073000Y-101583000D01*
X103093000Y-101583000D01*
X103093000Y-101563000D01*
X103347000Y-101563000D01*
X103347000Y-101583000D01*
G36*
X96158402Y-83858904D02*
G01*
X96155518Y-83859188D01*
X96080000Y-83882096D01*
X96004482Y-83859188D01*
X95880000Y-83846928D01*
X95615750Y-83850000D01*
X95457000Y-84008750D01*
X95457000Y-84449137D01*
X95366033Y-84585279D01*
X95344000Y-84638472D01*
X95321967Y-84585279D01*
X95230587Y-84448519D01*
X95203000Y-84420932D01*
X95203000Y-84008750D01*
X95044250Y-83850000D01*
X94780000Y-83846928D01*
X94655518Y-83859188D01*
X94580000Y-83882096D01*
X94504482Y-83859188D01*
X94380000Y-83846928D01*
X94115750Y-83850000D01*
X93957000Y-84008750D01*
X93957000Y-84424932D01*
X93933413Y-84448519D01*
X93842033Y-84585279D01*
X93779089Y-84737240D01*
X93747000Y-84898560D01*
X93747000Y-84958600D01*
X93737760Y-84958600D01*
X93576440Y-84990689D01*
X93424479Y-85053633D01*
X93287719Y-85145013D01*
X93270732Y-85162000D01*
X92803750Y-85162000D01*
X92645000Y-85320750D01*
X92641928Y-85585000D01*
X92654188Y-85709482D01*
X92677096Y-85785000D01*
X92654188Y-85860518D01*
X92641928Y-85985000D01*
X92645000Y-86249250D01*
X92803750Y-86408000D01*
X93253532Y-86408000D01*
X93287719Y-86442187D01*
X93419440Y-86530200D01*
X93287719Y-86618213D01*
X93243932Y-86662000D01*
X92803750Y-86662000D01*
X92645000Y-86820750D01*
X92641928Y-87085000D01*
X92654188Y-87209482D01*
X92677096Y-87285000D01*
X92654188Y-87360518D01*
X92641928Y-87485000D01*
X92645000Y-87749250D01*
X92803750Y-87908000D01*
X93280332Y-87908000D01*
X93287719Y-87915387D01*
X93424479Y-88006767D01*
X93576440Y-88069711D01*
X93737760Y-88101800D01*
X93755267Y-88101800D01*
X93779089Y-88221560D01*
X93842033Y-88373521D01*
X93933413Y-88510281D01*
X93957000Y-88533868D01*
X93957000Y-89061250D01*
X94115750Y-89220000D01*
X94380000Y-89223072D01*
X94504482Y-89210812D01*
X94580000Y-89187904D01*
X94655518Y-89210812D01*
X94780000Y-89223072D01*
X95044250Y-89220000D01*
X95203000Y-89061250D01*
X95203000Y-88537868D01*
X95230587Y-88510281D01*
X95318600Y-88378560D01*
X95406613Y-88510281D01*
X95457000Y-88560668D01*
X95457000Y-89061250D01*
X95615750Y-89220000D01*
X95880000Y-89223072D01*
X96004482Y-89210812D01*
X96080000Y-89187904D01*
X96155518Y-89210812D01*
X96280000Y-89223072D01*
X96544250Y-89220000D01*
X96703000Y-89061250D01*
X96703000Y-88511068D01*
X96703787Y-88510281D01*
X96795167Y-88373521D01*
X96858111Y-88221560D01*
X96869958Y-88162000D01*
X96957000Y-88162000D01*
X96957000Y-89061250D01*
X97115750Y-89220000D01*
X97380000Y-89223072D01*
X97504482Y-89210812D01*
X97624180Y-89174502D01*
X97734494Y-89115537D01*
X97831185Y-89036185D01*
X97910537Y-88939494D01*
X97969502Y-88829180D01*
X98005812Y-88709482D01*
X98018072Y-88585000D01*
X98015000Y-88320750D01*
X97856250Y-88162000D01*
X96957000Y-88162000D01*
X96869958Y-88162000D01*
X96881933Y-88101800D01*
X96899440Y-88101800D01*
X97060760Y-88069711D01*
X97212721Y-88006767D01*
X97349481Y-87915387D01*
X97356868Y-87908000D01*
X97856250Y-87908000D01*
X98015000Y-87749250D01*
X98018072Y-87485000D01*
X98005812Y-87360518D01*
X97982904Y-87285000D01*
X98005812Y-87209482D01*
X98018072Y-87085000D01*
X98015000Y-86820750D01*
X97856250Y-86662000D01*
X97393268Y-86662000D01*
X97349481Y-86618213D01*
X97217760Y-86530200D01*
X97349481Y-86442187D01*
X97383668Y-86408000D01*
X97856250Y-86408000D01*
X98015000Y-86249250D01*
X98018072Y-85985000D01*
X98005812Y-85860518D01*
X97982904Y-85785000D01*
X98005812Y-85709482D01*
X98006096Y-85706598D01*
X103270505Y-90971008D01*
X103294299Y-91000001D01*
X103323292Y-91023795D01*
X103323296Y-91023799D01*
X103357187Y-91051612D01*
X103410024Y-91094974D01*
X103542053Y-91165546D01*
X103685314Y-91209003D01*
X103796967Y-91220000D01*
X103796976Y-91220000D01*
X103834299Y-91223676D01*
X103871622Y-91220000D01*
X103933862Y-91220000D01*
X103885911Y-91309712D01*
X103845555Y-91442747D01*
X103831928Y-91581100D01*
X103831928Y-92338900D01*
X103845555Y-92477253D01*
X103885911Y-92610288D01*
X103939208Y-92710000D01*
X103885911Y-92809712D01*
X103845555Y-92942747D01*
X103831928Y-93081100D01*
X103831928Y-93838900D01*
X103845555Y-93977253D01*
X103885911Y-94110288D01*
X103939208Y-94210000D01*
X103885911Y-94309712D01*
X103845555Y-94442747D01*
X103831928Y-94581100D01*
X103831928Y-95338900D01*
X103845555Y-95477253D01*
X103885911Y-95610288D01*
X103939208Y-95710000D01*
X103885911Y-95809712D01*
X103845555Y-95942747D01*
X103831928Y-96081100D01*
X103831928Y-96838900D01*
X103845555Y-96977253D01*
X103885911Y-97110288D01*
X103939208Y-97210000D01*
X103885911Y-97309712D01*
X103845555Y-97442747D01*
X103831928Y-97581100D01*
X103831928Y-98338900D01*
X103845555Y-98477253D01*
X103885911Y-98610288D01*
X103939208Y-98710000D01*
X103885911Y-98809712D01*
X103845555Y-98942747D01*
X103831928Y-99081100D01*
X103831928Y-99838900D01*
X103845555Y-99977253D01*
X103885911Y-100110288D01*
X103939208Y-100210000D01*
X103885911Y-100309712D01*
X103871408Y-100357523D01*
X103794482Y-100334188D01*
X103670000Y-100321928D01*
X103505750Y-100325000D01*
X103436487Y-100394263D01*
X103438600Y-100383639D01*
X103438600Y-100179761D01*
X103398826Y-99979802D01*
X103320805Y-99791444D01*
X103207537Y-99621926D01*
X103063374Y-99477763D01*
X102893856Y-99364495D01*
X102705498Y-99286474D01*
X102505539Y-99246700D01*
X102301661Y-99246700D01*
X102101702Y-99286474D01*
X101913344Y-99364495D01*
X101743826Y-99477763D01*
X101599663Y-99621926D01*
X101486395Y-99791444D01*
X101408374Y-99979802D01*
X101368600Y-100179761D01*
X101368600Y-100241898D01*
X101282832Y-100327667D01*
X101202747Y-100335555D01*
X101069712Y-100375911D01*
X100970000Y-100429208D01*
X100870288Y-100375911D01*
X100737253Y-100335555D01*
X100598900Y-100321928D01*
X99841100Y-100321928D01*
X99702747Y-100335555D01*
X99569712Y-100375911D01*
X99470000Y-100429208D01*
X99370288Y-100375911D01*
X99237253Y-100335555D01*
X99098900Y-100321928D01*
X98341100Y-100321928D01*
X98202747Y-100335555D01*
X98069712Y-100375911D01*
X97970000Y-100429208D01*
X97870288Y-100375911D01*
X97737253Y-100335555D01*
X97598900Y-100321928D01*
X96841100Y-100321928D01*
X96702747Y-100335555D01*
X96569712Y-100375911D01*
X96470000Y-100429208D01*
X96370288Y-100375911D01*
X96237253Y-100335555D01*
X96098900Y-100321928D01*
X95341100Y-100321928D01*
X95202747Y-100335555D01*
X95069712Y-100375911D01*
X94970000Y-100429208D01*
X94870288Y-100375911D01*
X94737253Y-100335555D01*
X94598900Y-100321928D01*
X93841100Y-100321928D01*
X93702747Y-100335555D01*
X93569712Y-100375911D01*
X93470000Y-100429208D01*
X93370288Y-100375911D01*
X93237253Y-100335555D01*
X93098900Y-100321928D01*
X92341100Y-100321928D01*
X92202747Y-100335555D01*
X92069712Y-100375911D01*
X91970000Y-100429208D01*
X91870288Y-100375911D01*
X91737253Y-100335555D01*
X91598900Y-100321928D01*
X90841100Y-100321928D01*
X90702747Y-100335555D01*
X90569712Y-100375911D01*
X90470000Y-100429208D01*
X90370288Y-100375911D01*
X90237253Y-100335555D01*
X90098900Y-100321928D01*
X89881273Y-100321928D01*
X90477804Y-99725398D01*
X90506801Y-99701601D01*
X90601774Y-99585876D01*
X90672346Y-99453847D01*
X90715803Y-99310586D01*
X90726800Y-99198933D01*
X90726800Y-99198924D01*
X90730476Y-99161601D01*
X90726800Y-99124278D01*
X90726800Y-96231333D01*
X90730477Y-96194000D01*
X90715803Y-96045014D01*
X90672346Y-95901753D01*
X90601774Y-95769724D01*
X90530599Y-95682997D01*
X90506801Y-95653999D01*
X90477803Y-95630201D01*
X89296604Y-94449003D01*
X89272801Y-94419999D01*
X89157076Y-94325026D01*
X89025047Y-94254454D01*
X89024458Y-94254275D01*
X89000792Y-94210000D01*
X89054089Y-94110288D01*
X89094445Y-93977253D01*
X89108072Y-93838900D01*
X89108072Y-93081100D01*
X89094445Y-92942747D01*
X89054089Y-92809712D01*
X89000792Y-92710000D01*
X89054089Y-92610288D01*
X89094445Y-92477253D01*
X89108072Y-92338900D01*
X89108072Y-91581100D01*
X89094445Y-91442747D01*
X89054089Y-91309712D01*
X89000792Y-91210000D01*
X89054089Y-91110288D01*
X89094445Y-90977253D01*
X89108072Y-90838900D01*
X89108072Y-90081100D01*
X89094445Y-89942747D01*
X89054089Y-89809712D01*
X89000792Y-89710000D01*
X89054089Y-89610288D01*
X89094445Y-89477253D01*
X89108072Y-89338900D01*
X89108072Y-88585000D01*
X92641928Y-88585000D01*
X92654188Y-88709482D01*
X92690498Y-88829180D01*
X92749463Y-88939494D01*
X92828815Y-89036185D01*
X92925506Y-89115537D01*
X93035820Y-89174502D01*
X93155518Y-89210812D01*
X93280000Y-89223072D01*
X93544250Y-89220000D01*
X93703000Y-89061250D01*
X93703000Y-88162000D01*
X92803750Y-88162000D01*
X92645000Y-88320750D01*
X92641928Y-88585000D01*
X89108072Y-88585000D01*
X89108072Y-88581100D01*
X89094445Y-88442747D01*
X89054089Y-88309712D01*
X89000792Y-88210000D01*
X89054089Y-88110288D01*
X89094445Y-87977253D01*
X89108072Y-87838900D01*
X89108072Y-87081100D01*
X89094445Y-86942747D01*
X89054089Y-86809712D01*
X89000792Y-86710000D01*
X89054089Y-86610288D01*
X89094445Y-86477253D01*
X89108072Y-86338900D01*
X89108072Y-85581100D01*
X89094445Y-85442747D01*
X89054089Y-85309712D01*
X89000792Y-85210000D01*
X89054089Y-85110288D01*
X89094445Y-84977253D01*
X89108072Y-84838900D01*
X89108072Y-84485000D01*
X92641928Y-84485000D01*
X92645000Y-84749250D01*
X92803750Y-84908000D01*
X93703000Y-84908000D01*
X93703000Y-84008750D01*
X93544250Y-83850000D01*
X93280000Y-83846928D01*
X93155518Y-83859188D01*
X93035820Y-83895498D01*
X92925506Y-83954463D01*
X92828815Y-84033815D01*
X92749463Y-84130506D01*
X92690498Y-84240820D01*
X92654188Y-84360518D01*
X92641928Y-84485000D01*
X89108072Y-84485000D01*
X89108072Y-84081100D01*
X89094445Y-83942747D01*
X89054089Y-83809712D01*
X89000792Y-83710000D01*
X89054089Y-83610288D01*
X89094445Y-83477253D01*
X89108072Y-83338900D01*
X89108072Y-82581100D01*
X89094445Y-82442747D01*
X89054089Y-82309712D01*
X89000792Y-82210000D01*
X89054089Y-82110288D01*
X89094445Y-81977253D01*
X89108072Y-81838900D01*
X89108072Y-81081100D01*
X89094445Y-80942747D01*
X89054089Y-80809712D01*
X89000792Y-80710000D01*
X89054089Y-80610288D01*
X89094445Y-80477253D01*
X89108072Y-80338900D01*
X89108072Y-79581100D01*
X89094445Y-79442747D01*
X89054089Y-79309712D01*
X89015229Y-79237008D01*
X89059502Y-79154180D01*
X89095812Y-79034482D01*
X89108072Y-78910000D01*
X89105000Y-78745750D01*
X88946250Y-78587000D01*
X87847000Y-78587000D01*
X87847000Y-78607000D01*
X87593000Y-78607000D01*
X87593000Y-78587000D01*
X87573000Y-78587000D01*
X87573000Y-78372800D01*
X90672299Y-78372800D01*
X96158402Y-83858904D01*
G37*
X96158402Y-83858904D02*
X96155518Y-83859188D01*
X96080000Y-83882096D01*
X96004482Y-83859188D01*
X95880000Y-83846928D01*
X95615750Y-83850000D01*
X95457000Y-84008750D01*
X95457000Y-84449137D01*
X95366033Y-84585279D01*
X95344000Y-84638472D01*
X95321967Y-84585279D01*
X95230587Y-84448519D01*
X95203000Y-84420932D01*
X95203000Y-84008750D01*
X95044250Y-83850000D01*
X94780000Y-83846928D01*
X94655518Y-83859188D01*
X94580000Y-83882096D01*
X94504482Y-83859188D01*
X94380000Y-83846928D01*
X94115750Y-83850000D01*
X93957000Y-84008750D01*
X93957000Y-84424932D01*
X93933413Y-84448519D01*
X93842033Y-84585279D01*
X93779089Y-84737240D01*
X93747000Y-84898560D01*
X93747000Y-84958600D01*
X93737760Y-84958600D01*
X93576440Y-84990689D01*
X93424479Y-85053633D01*
X93287719Y-85145013D01*
X93270732Y-85162000D01*
X92803750Y-85162000D01*
X92645000Y-85320750D01*
X92641928Y-85585000D01*
X92654188Y-85709482D01*
X92677096Y-85785000D01*
X92654188Y-85860518D01*
X92641928Y-85985000D01*
X92645000Y-86249250D01*
X92803750Y-86408000D01*
X93253532Y-86408000D01*
X93287719Y-86442187D01*
X93419440Y-86530200D01*
X93287719Y-86618213D01*
X93243932Y-86662000D01*
X92803750Y-86662000D01*
X92645000Y-86820750D01*
X92641928Y-87085000D01*
X92654188Y-87209482D01*
X92677096Y-87285000D01*
X92654188Y-87360518D01*
X92641928Y-87485000D01*
X92645000Y-87749250D01*
X92803750Y-87908000D01*
X93280332Y-87908000D01*
X93287719Y-87915387D01*
X93424479Y-88006767D01*
X93576440Y-88069711D01*
X93737760Y-88101800D01*
X93755267Y-88101800D01*
X93779089Y-88221560D01*
X93842033Y-88373521D01*
X93933413Y-88510281D01*
X93957000Y-88533868D01*
X93957000Y-89061250D01*
X94115750Y-89220000D01*
X94380000Y-89223072D01*
X94504482Y-89210812D01*
X94580000Y-89187904D01*
X94655518Y-89210812D01*
X94780000Y-89223072D01*
X95044250Y-89220000D01*
X95203000Y-89061250D01*
X95203000Y-88537868D01*
X95230587Y-88510281D01*
X95318600Y-88378560D01*
X95406613Y-88510281D01*
X95457000Y-88560668D01*
X95457000Y-89061250D01*
X95615750Y-89220000D01*
X95880000Y-89223072D01*
X96004482Y-89210812D01*
X96080000Y-89187904D01*
X96155518Y-89210812D01*
X96280000Y-89223072D01*
X96544250Y-89220000D01*
X96703000Y-89061250D01*
X96703000Y-88511068D01*
X96703787Y-88510281D01*
X96795167Y-88373521D01*
X96858111Y-88221560D01*
X96869958Y-88162000D01*
X96957000Y-88162000D01*
X96957000Y-89061250D01*
X97115750Y-89220000D01*
X97380000Y-89223072D01*
X97504482Y-89210812D01*
X97624180Y-89174502D01*
X97734494Y-89115537D01*
X97831185Y-89036185D01*
X97910537Y-88939494D01*
X97969502Y-88829180D01*
X98005812Y-88709482D01*
X98018072Y-88585000D01*
X98015000Y-88320750D01*
X97856250Y-88162000D01*
X96957000Y-88162000D01*
X96869958Y-88162000D01*
X96881933Y-88101800D01*
X96899440Y-88101800D01*
X97060760Y-88069711D01*
X97212721Y-88006767D01*
X97349481Y-87915387D01*
X97356868Y-87908000D01*
X97856250Y-87908000D01*
X98015000Y-87749250D01*
X98018072Y-87485000D01*
X98005812Y-87360518D01*
X97982904Y-87285000D01*
X98005812Y-87209482D01*
X98018072Y-87085000D01*
X98015000Y-86820750D01*
X97856250Y-86662000D01*
X97393268Y-86662000D01*
X97349481Y-86618213D01*
X97217760Y-86530200D01*
X97349481Y-86442187D01*
X97383668Y-86408000D01*
X97856250Y-86408000D01*
X98015000Y-86249250D01*
X98018072Y-85985000D01*
X98005812Y-85860518D01*
X97982904Y-85785000D01*
X98005812Y-85709482D01*
X98006096Y-85706598D01*
X103270505Y-90971008D01*
X103294299Y-91000001D01*
X103323292Y-91023795D01*
X103323296Y-91023799D01*
X103357187Y-91051612D01*
X103410024Y-91094974D01*
X103542053Y-91165546D01*
X103685314Y-91209003D01*
X103796967Y-91220000D01*
X103796976Y-91220000D01*
X103834299Y-91223676D01*
X103871622Y-91220000D01*
X103933862Y-91220000D01*
X103885911Y-91309712D01*
X103845555Y-91442747D01*
X103831928Y-91581100D01*
X103831928Y-92338900D01*
X103845555Y-92477253D01*
X103885911Y-92610288D01*
X103939208Y-92710000D01*
X103885911Y-92809712D01*
X103845555Y-92942747D01*
X103831928Y-93081100D01*
X103831928Y-93838900D01*
X103845555Y-93977253D01*
X103885911Y-94110288D01*
X103939208Y-94210000D01*
X103885911Y-94309712D01*
X103845555Y-94442747D01*
X103831928Y-94581100D01*
X103831928Y-95338900D01*
X103845555Y-95477253D01*
X103885911Y-95610288D01*
X103939208Y-95710000D01*
X103885911Y-95809712D01*
X103845555Y-95942747D01*
X103831928Y-96081100D01*
X103831928Y-96838900D01*
X103845555Y-96977253D01*
X103885911Y-97110288D01*
X103939208Y-97210000D01*
X103885911Y-97309712D01*
X103845555Y-97442747D01*
X103831928Y-97581100D01*
X103831928Y-98338900D01*
X103845555Y-98477253D01*
X103885911Y-98610288D01*
X103939208Y-98710000D01*
X103885911Y-98809712D01*
X103845555Y-98942747D01*
X103831928Y-99081100D01*
X103831928Y-99838900D01*
X103845555Y-99977253D01*
X103885911Y-100110288D01*
X103939208Y-100210000D01*
X103885911Y-100309712D01*
X103871408Y-100357523D01*
X103794482Y-100334188D01*
X103670000Y-100321928D01*
X103505750Y-100325000D01*
X103436487Y-100394263D01*
X103438600Y-100383639D01*
X103438600Y-100179761D01*
X103398826Y-99979802D01*
X103320805Y-99791444D01*
X103207537Y-99621926D01*
X103063374Y-99477763D01*
X102893856Y-99364495D01*
X102705498Y-99286474D01*
X102505539Y-99246700D01*
X102301661Y-99246700D01*
X102101702Y-99286474D01*
X101913344Y-99364495D01*
X101743826Y-99477763D01*
X101599663Y-99621926D01*
X101486395Y-99791444D01*
X101408374Y-99979802D01*
X101368600Y-100179761D01*
X101368600Y-100241898D01*
X101282832Y-100327667D01*
X101202747Y-100335555D01*
X101069712Y-100375911D01*
X100970000Y-100429208D01*
X100870288Y-100375911D01*
X100737253Y-100335555D01*
X100598900Y-100321928D01*
X99841100Y-100321928D01*
X99702747Y-100335555D01*
X99569712Y-100375911D01*
X99470000Y-100429208D01*
X99370288Y-100375911D01*
X99237253Y-100335555D01*
X99098900Y-100321928D01*
X98341100Y-100321928D01*
X98202747Y-100335555D01*
X98069712Y-100375911D01*
X97970000Y-100429208D01*
X97870288Y-100375911D01*
X97737253Y-100335555D01*
X97598900Y-100321928D01*
X96841100Y-100321928D01*
X96702747Y-100335555D01*
X96569712Y-100375911D01*
X96470000Y-100429208D01*
X96370288Y-100375911D01*
X96237253Y-100335555D01*
X96098900Y-100321928D01*
X95341100Y-100321928D01*
X95202747Y-100335555D01*
X95069712Y-100375911D01*
X94970000Y-100429208D01*
X94870288Y-100375911D01*
X94737253Y-100335555D01*
X94598900Y-100321928D01*
X93841100Y-100321928D01*
X93702747Y-100335555D01*
X93569712Y-100375911D01*
X93470000Y-100429208D01*
X93370288Y-100375911D01*
X93237253Y-100335555D01*
X93098900Y-100321928D01*
X92341100Y-100321928D01*
X92202747Y-100335555D01*
X92069712Y-100375911D01*
X91970000Y-100429208D01*
X91870288Y-100375911D01*
X91737253Y-100335555D01*
X91598900Y-100321928D01*
X90841100Y-100321928D01*
X90702747Y-100335555D01*
X90569712Y-100375911D01*
X90470000Y-100429208D01*
X90370288Y-100375911D01*
X90237253Y-100335555D01*
X90098900Y-100321928D01*
X89881273Y-100321928D01*
X90477804Y-99725398D01*
X90506801Y-99701601D01*
X90601774Y-99585876D01*
X90672346Y-99453847D01*
X90715803Y-99310586D01*
X90726800Y-99198933D01*
X90726800Y-99198924D01*
X90730476Y-99161601D01*
X90726800Y-99124278D01*
X90726800Y-96231333D01*
X90730477Y-96194000D01*
X90715803Y-96045014D01*
X90672346Y-95901753D01*
X90601774Y-95769724D01*
X90530599Y-95682997D01*
X90506801Y-95653999D01*
X90477803Y-95630201D01*
X89296604Y-94449003D01*
X89272801Y-94419999D01*
X89157076Y-94325026D01*
X89025047Y-94254454D01*
X89024458Y-94254275D01*
X89000792Y-94210000D01*
X89054089Y-94110288D01*
X89094445Y-93977253D01*
X89108072Y-93838900D01*
X89108072Y-93081100D01*
X89094445Y-92942747D01*
X89054089Y-92809712D01*
X89000792Y-92710000D01*
X89054089Y-92610288D01*
X89094445Y-92477253D01*
X89108072Y-92338900D01*
X89108072Y-91581100D01*
X89094445Y-91442747D01*
X89054089Y-91309712D01*
X89000792Y-91210000D01*
X89054089Y-91110288D01*
X89094445Y-90977253D01*
X89108072Y-90838900D01*
X89108072Y-90081100D01*
X89094445Y-89942747D01*
X89054089Y-89809712D01*
X89000792Y-89710000D01*
X89054089Y-89610288D01*
X89094445Y-89477253D01*
X89108072Y-89338900D01*
X89108072Y-88585000D01*
X92641928Y-88585000D01*
X92654188Y-88709482D01*
X92690498Y-88829180D01*
X92749463Y-88939494D01*
X92828815Y-89036185D01*
X92925506Y-89115537D01*
X93035820Y-89174502D01*
X93155518Y-89210812D01*
X93280000Y-89223072D01*
X93544250Y-89220000D01*
X93703000Y-89061250D01*
X93703000Y-88162000D01*
X92803750Y-88162000D01*
X92645000Y-88320750D01*
X92641928Y-88585000D01*
X89108072Y-88585000D01*
X89108072Y-88581100D01*
X89094445Y-88442747D01*
X89054089Y-88309712D01*
X89000792Y-88210000D01*
X89054089Y-88110288D01*
X89094445Y-87977253D01*
X89108072Y-87838900D01*
X89108072Y-87081100D01*
X89094445Y-86942747D01*
X89054089Y-86809712D01*
X89000792Y-86710000D01*
X89054089Y-86610288D01*
X89094445Y-86477253D01*
X89108072Y-86338900D01*
X89108072Y-85581100D01*
X89094445Y-85442747D01*
X89054089Y-85309712D01*
X89000792Y-85210000D01*
X89054089Y-85110288D01*
X89094445Y-84977253D01*
X89108072Y-84838900D01*
X89108072Y-84485000D01*
X92641928Y-84485000D01*
X92645000Y-84749250D01*
X92803750Y-84908000D01*
X93703000Y-84908000D01*
X93703000Y-84008750D01*
X93544250Y-83850000D01*
X93280000Y-83846928D01*
X93155518Y-83859188D01*
X93035820Y-83895498D01*
X92925506Y-83954463D01*
X92828815Y-84033815D01*
X92749463Y-84130506D01*
X92690498Y-84240820D01*
X92654188Y-84360518D01*
X92641928Y-84485000D01*
X89108072Y-84485000D01*
X89108072Y-84081100D01*
X89094445Y-83942747D01*
X89054089Y-83809712D01*
X89000792Y-83710000D01*
X89054089Y-83610288D01*
X89094445Y-83477253D01*
X89108072Y-83338900D01*
X89108072Y-82581100D01*
X89094445Y-82442747D01*
X89054089Y-82309712D01*
X89000792Y-82210000D01*
X89054089Y-82110288D01*
X89094445Y-81977253D01*
X89108072Y-81838900D01*
X89108072Y-81081100D01*
X89094445Y-80942747D01*
X89054089Y-80809712D01*
X89000792Y-80710000D01*
X89054089Y-80610288D01*
X89094445Y-80477253D01*
X89108072Y-80338900D01*
X89108072Y-79581100D01*
X89094445Y-79442747D01*
X89054089Y-79309712D01*
X89015229Y-79237008D01*
X89059502Y-79154180D01*
X89095812Y-79034482D01*
X89108072Y-78910000D01*
X89105000Y-78745750D01*
X88946250Y-78587000D01*
X87847000Y-78587000D01*
X87847000Y-78607000D01*
X87593000Y-78607000D01*
X87593000Y-78587000D01*
X87573000Y-78587000D01*
X87573000Y-78372800D01*
X90672299Y-78372800D01*
X96158402Y-83858904D01*
G36*
X87568501Y-56956802D02*
G01*
X87568500Y-57557177D01*
X87564824Y-57594500D01*
X87568500Y-57631822D01*
X87568500Y-57631832D01*
X87579497Y-57743485D01*
X87606620Y-57832898D01*
X87622954Y-57886746D01*
X87693526Y-58018776D01*
X87718165Y-58048798D01*
X87788499Y-58134501D01*
X87817503Y-58158304D01*
X89033698Y-59374500D01*
X88524211Y-59374500D01*
X88480274Y-59330563D01*
X88310756Y-59217295D01*
X88122398Y-59139274D01*
X87922439Y-59099500D01*
X87718561Y-59099500D01*
X87518602Y-59139274D01*
X87330244Y-59217295D01*
X87160726Y-59330563D01*
X87016563Y-59474726D01*
X86903295Y-59644244D01*
X86825274Y-59832602D01*
X86785500Y-60032561D01*
X86785500Y-60236439D01*
X86825274Y-60436398D01*
X86903295Y-60624756D01*
X87016563Y-60794274D01*
X87160726Y-60938437D01*
X87330244Y-61051705D01*
X87518602Y-61129726D01*
X87718561Y-61169500D01*
X87922439Y-61169500D01*
X88122398Y-61129726D01*
X88310756Y-61051705D01*
X88480274Y-60938437D01*
X88524211Y-60894500D01*
X95354299Y-60894500D01*
X105229400Y-70769602D01*
X105229401Y-76852800D01*
X104483822Y-76852800D01*
X104446499Y-76849124D01*
X104409176Y-76852800D01*
X104409167Y-76852800D01*
X104297514Y-76863797D01*
X104154253Y-76907254D01*
X104022224Y-76977826D01*
X104022222Y-76977827D01*
X104022223Y-76977827D01*
X103935496Y-77049001D01*
X103935492Y-77049005D01*
X103906499Y-77072799D01*
X103882705Y-77101792D01*
X101878702Y-79105796D01*
X101849699Y-79129599D01*
X101794941Y-79196323D01*
X101754726Y-79245324D01*
X101693262Y-79360315D01*
X101684154Y-79377354D01*
X101640697Y-79520615D01*
X101629700Y-79632268D01*
X101629700Y-79632278D01*
X101626024Y-79669600D01*
X101629700Y-79706923D01*
X101629701Y-86249468D01*
X101626024Y-86286800D01*
X101629701Y-86324133D01*
X101640698Y-86435786D01*
X101651381Y-86471003D01*
X101684154Y-86579046D01*
X101754726Y-86711076D01*
X101825901Y-86797802D01*
X101849700Y-86826801D01*
X101878698Y-86850599D01*
X103831928Y-88803830D01*
X103831928Y-89338900D01*
X103836727Y-89387624D01*
X91550904Y-77101803D01*
X91527101Y-77072799D01*
X91411376Y-76977826D01*
X91279347Y-76907254D01*
X91136086Y-76863797D01*
X91024433Y-76852800D01*
X91024422Y-76852800D01*
X90987100Y-76849124D01*
X90949778Y-76852800D01*
X87249900Y-76852800D01*
X87249900Y-71579222D01*
X87253576Y-71541899D01*
X87249900Y-71504576D01*
X87249900Y-71504567D01*
X87238903Y-71392914D01*
X87195446Y-71249653D01*
X87147710Y-71160346D01*
X87124874Y-71117623D01*
X87053699Y-71030897D01*
X87029901Y-71001899D01*
X87000903Y-70978101D01*
X85773700Y-69750899D01*
X85773700Y-58874601D01*
X86082302Y-58566000D01*
X86144439Y-58566000D01*
X86344398Y-58526226D01*
X86532756Y-58448205D01*
X86702274Y-58334937D01*
X86846437Y-58190774D01*
X86959705Y-58021256D01*
X87037726Y-57832898D01*
X87077500Y-57632939D01*
X87077500Y-57429061D01*
X87037726Y-57229102D01*
X86959705Y-57040744D01*
X86846437Y-56871226D01*
X86742211Y-56767000D01*
X87378699Y-56767000D01*
X87568501Y-56956802D01*
G37*
X87568501Y-56956802D02*
X87568500Y-57557177D01*
X87564824Y-57594500D01*
X87568500Y-57631822D01*
X87568500Y-57631832D01*
X87579497Y-57743485D01*
X87606620Y-57832898D01*
X87622954Y-57886746D01*
X87693526Y-58018776D01*
X87718165Y-58048798D01*
X87788499Y-58134501D01*
X87817503Y-58158304D01*
X89033698Y-59374500D01*
X88524211Y-59374500D01*
X88480274Y-59330563D01*
X88310756Y-59217295D01*
X88122398Y-59139274D01*
X87922439Y-59099500D01*
X87718561Y-59099500D01*
X87518602Y-59139274D01*
X87330244Y-59217295D01*
X87160726Y-59330563D01*
X87016563Y-59474726D01*
X86903295Y-59644244D01*
X86825274Y-59832602D01*
X86785500Y-60032561D01*
X86785500Y-60236439D01*
X86825274Y-60436398D01*
X86903295Y-60624756D01*
X87016563Y-60794274D01*
X87160726Y-60938437D01*
X87330244Y-61051705D01*
X87518602Y-61129726D01*
X87718561Y-61169500D01*
X87922439Y-61169500D01*
X88122398Y-61129726D01*
X88310756Y-61051705D01*
X88480274Y-60938437D01*
X88524211Y-60894500D01*
X95354299Y-60894500D01*
X105229400Y-70769602D01*
X105229401Y-76852800D01*
X104483822Y-76852800D01*
X104446499Y-76849124D01*
X104409176Y-76852800D01*
X104409167Y-76852800D01*
X104297514Y-76863797D01*
X104154253Y-76907254D01*
X104022224Y-76977826D01*
X104022222Y-76977827D01*
X104022223Y-76977827D01*
X103935496Y-77049001D01*
X103935492Y-77049005D01*
X103906499Y-77072799D01*
X103882705Y-77101792D01*
X101878702Y-79105796D01*
X101849699Y-79129599D01*
X101794941Y-79196323D01*
X101754726Y-79245324D01*
X101693262Y-79360315D01*
X101684154Y-79377354D01*
X101640697Y-79520615D01*
X101629700Y-79632268D01*
X101629700Y-79632278D01*
X101626024Y-79669600D01*
X101629700Y-79706923D01*
X101629701Y-86249468D01*
X101626024Y-86286800D01*
X101629701Y-86324133D01*
X101640698Y-86435786D01*
X101651381Y-86471003D01*
X101684154Y-86579046D01*
X101754726Y-86711076D01*
X101825901Y-86797802D01*
X101849700Y-86826801D01*
X101878698Y-86850599D01*
X103831928Y-88803830D01*
X103831928Y-89338900D01*
X103836727Y-89387624D01*
X91550904Y-77101803D01*
X91527101Y-77072799D01*
X91411376Y-76977826D01*
X91279347Y-76907254D01*
X91136086Y-76863797D01*
X91024433Y-76852800D01*
X91024422Y-76852800D01*
X90987100Y-76849124D01*
X90949778Y-76852800D01*
X87249900Y-76852800D01*
X87249900Y-71579222D01*
X87253576Y-71541899D01*
X87249900Y-71504576D01*
X87249900Y-71504567D01*
X87238903Y-71392914D01*
X87195446Y-71249653D01*
X87147710Y-71160346D01*
X87124874Y-71117623D01*
X87053699Y-71030897D01*
X87029901Y-71001899D01*
X87000903Y-70978101D01*
X85773700Y-69750899D01*
X85773700Y-58874601D01*
X86082302Y-58566000D01*
X86144439Y-58566000D01*
X86344398Y-58526226D01*
X86532756Y-58448205D01*
X86702274Y-58334937D01*
X86846437Y-58190774D01*
X86959705Y-58021256D01*
X87037726Y-57832898D01*
X87077500Y-57632939D01*
X87077500Y-57429061D01*
X87037726Y-57229102D01*
X86959705Y-57040744D01*
X86846437Y-56871226D01*
X86742211Y-56767000D01*
X87378699Y-56767000D01*
X87568501Y-56956802D01*
G36*
X85217000Y-82423000D02*
G01*
X85237000Y-82423000D01*
X85237000Y-82677000D01*
X85217000Y-82677000D01*
X85217000Y-82688026D01*
X85201788Y-82685000D01*
X85024700Y-82685000D01*
X85024700Y-82403000D01*
X85217000Y-82403000D01*
X85217000Y-82423000D01*
G37*
X85217000Y-82423000D02*
X85237000Y-82423000D01*
X85237000Y-82677000D01*
X85217000Y-82677000D01*
X85217000Y-82688026D01*
X85201788Y-82685000D01*
X85024700Y-82685000D01*
X85024700Y-82403000D01*
X85217000Y-82403000D01*
X85217000Y-82423000D01*
G36*
X107746463Y-81165994D02*
G01*
X107825815Y-81262685D01*
X107922506Y-81342037D01*
X108032820Y-81401002D01*
X108068838Y-81411928D01*
X107450000Y-81411928D01*
X107325518Y-81424188D01*
X107205820Y-81460498D01*
X107143377Y-81493875D01*
X106721001Y-81071500D01*
X107695954Y-81071500D01*
X107746463Y-81165994D01*
G37*
X107746463Y-81165994D02*
X107825815Y-81262685D01*
X107922506Y-81342037D01*
X108032820Y-81401002D01*
X108068838Y-81411928D01*
X107450000Y-81411928D01*
X107325518Y-81424188D01*
X107205820Y-81460498D01*
X107143377Y-81493875D01*
X106721001Y-81071500D01*
X107695954Y-81071500D01*
X107746463Y-81165994D01*
G36*
X103924771Y-79237008D02*
G01*
X103885911Y-79309712D01*
X103845555Y-79442747D01*
X103831928Y-79581100D01*
X103831928Y-80146070D01*
X103149700Y-80828299D01*
X103149700Y-79984401D01*
X103915130Y-79218972D01*
X103924771Y-79237008D01*
G37*
X103924771Y-79237008D02*
X103885911Y-79309712D01*
X103845555Y-79442747D01*
X103831928Y-79581100D01*
X103831928Y-80146070D01*
X103149700Y-80828299D01*
X103149700Y-79984401D01*
X103915130Y-79218972D01*
X103924771Y-79237008D01*
G36*
X105367000Y-78587000D02*
G01*
X105347000Y-78587000D01*
X105347000Y-78607000D01*
X105093000Y-78607000D01*
X105093000Y-78587000D01*
X105073000Y-78587000D01*
X105073000Y-78372800D01*
X105367000Y-78372800D01*
X105367000Y-78587000D01*
G37*
X105367000Y-78587000D02*
X105347000Y-78587000D01*
X105347000Y-78607000D01*
X105093000Y-78607000D01*
X105093000Y-78587000D01*
X105073000Y-78587000D01*
X105073000Y-78372800D01*
X105367000Y-78372800D01*
X105367000Y-78587000D01*
G36*
X107699485Y-75102440D02*
G01*
X107818225Y-75280147D01*
X107969353Y-75431275D01*
X108147060Y-75550015D01*
X108344517Y-75631804D01*
X108554137Y-75673500D01*
X108767863Y-75673500D01*
X108977483Y-75631804D01*
X109092400Y-75584204D01*
X109092400Y-77271850D01*
X109029000Y-77335250D01*
X109029000Y-78184500D01*
X109049000Y-78184500D01*
X109049000Y-78438500D01*
X109029000Y-78438500D01*
X109029000Y-78458500D01*
X108775000Y-78458500D01*
X108775000Y-78438500D01*
X108755000Y-78438500D01*
X108755000Y-78184500D01*
X108775000Y-78184500D01*
X108775000Y-77335250D01*
X108616250Y-77176500D01*
X108277000Y-77173428D01*
X108152518Y-77185688D01*
X108032820Y-77221998D01*
X107922506Y-77280963D01*
X107825815Y-77360315D01*
X107746463Y-77457006D01*
X107687498Y-77567320D01*
X107651188Y-77687018D01*
X107647200Y-77727510D01*
X107647200Y-74976212D01*
X107699485Y-75102440D01*
G37*
X107699485Y-75102440D02*
X107818225Y-75280147D01*
X107969353Y-75431275D01*
X108147060Y-75550015D01*
X108344517Y-75631804D01*
X108554137Y-75673500D01*
X108767863Y-75673500D01*
X108977483Y-75631804D01*
X109092400Y-75584204D01*
X109092400Y-77271850D01*
X109029000Y-77335250D01*
X109029000Y-78184500D01*
X109049000Y-78184500D01*
X109049000Y-78438500D01*
X109029000Y-78438500D01*
X109029000Y-78458500D01*
X108775000Y-78458500D01*
X108775000Y-78438500D01*
X108755000Y-78438500D01*
X108755000Y-78184500D01*
X108775000Y-78184500D01*
X108775000Y-77335250D01*
X108616250Y-77176500D01*
X108277000Y-77173428D01*
X108152518Y-77185688D01*
X108032820Y-77221998D01*
X107922506Y-77280963D01*
X107825815Y-77360315D01*
X107746463Y-77457006D01*
X107687498Y-77567320D01*
X107651188Y-77687018D01*
X107647200Y-77727510D01*
X107647200Y-74976212D01*
X107699485Y-75102440D01*
G36*
X85471000Y-76057000D02*
G01*
X85491000Y-76057000D01*
X85491000Y-76311000D01*
X85471000Y-76311000D01*
X85471000Y-77613000D01*
X85491000Y-77613000D01*
X85491000Y-77867000D01*
X85471000Y-77867000D01*
X85471000Y-77887000D01*
X85217000Y-77887000D01*
X85217000Y-77867000D01*
X85197000Y-77867000D01*
X85197000Y-77613000D01*
X85217000Y-77613000D01*
X85217000Y-76311000D01*
X85197000Y-76311000D01*
X85197000Y-76057000D01*
X85217000Y-76057000D01*
X85217000Y-76037000D01*
X85471000Y-76037000D01*
X85471000Y-76057000D01*
G37*
X85471000Y-76057000D02*
X85491000Y-76057000D01*
X85491000Y-76311000D01*
X85471000Y-76311000D01*
X85471000Y-77613000D01*
X85491000Y-77613000D01*
X85491000Y-77867000D01*
X85471000Y-77867000D01*
X85471000Y-77887000D01*
X85217000Y-77887000D01*
X85217000Y-77867000D01*
X85197000Y-77867000D01*
X85197000Y-77613000D01*
X85217000Y-77613000D01*
X85217000Y-76311000D01*
X85197000Y-76311000D01*
X85197000Y-76057000D01*
X85217000Y-76057000D01*
X85217000Y-76037000D01*
X85471000Y-76037000D01*
X85471000Y-76057000D01*
G36*
X109337869Y-40044722D02*
G01*
X109451246Y-40078953D01*
X109555819Y-40134555D01*
X109647596Y-40209407D01*
X109723091Y-40300664D01*
X109779419Y-40404844D01*
X109814440Y-40517976D01*
X109830001Y-40666031D01*
X109830000Y-41877581D01*
X109830000Y-67227598D01*
X101888479Y-59286078D01*
X101911482Y-59283812D01*
X101961724Y-59268571D01*
X102004987Y-59282266D01*
X102105250Y-59293000D01*
X102264000Y-59134250D01*
X102264000Y-59077729D01*
X102312390Y-59018765D01*
X102360000Y-59078224D01*
X102360000Y-59134250D01*
X102518750Y-59293000D01*
X102619013Y-59282266D01*
X102662000Y-59268658D01*
X102704987Y-59282266D01*
X102805250Y-59293000D01*
X102964000Y-59134250D01*
X102964000Y-59078224D01*
X103021770Y-59006076D01*
X103060000Y-58932432D01*
X103060000Y-59134250D01*
X103218750Y-59293000D01*
X103319013Y-59282266D01*
X103438264Y-59244517D01*
X103547860Y-59184228D01*
X103643588Y-59103716D01*
X103721770Y-59006076D01*
X103779401Y-58895059D01*
X103814266Y-58774933D01*
X103825026Y-58650312D01*
X103822000Y-57943750D01*
X103663250Y-57785000D01*
X103060000Y-57785000D01*
X103060000Y-57881750D01*
X102964000Y-57785750D01*
X102964000Y-57785000D01*
X102865000Y-57785000D01*
X102865000Y-57531000D01*
X102964000Y-57531000D01*
X102964000Y-57530250D01*
X103060000Y-57434250D01*
X103060000Y-57531000D01*
X103663250Y-57531000D01*
X103822000Y-57372250D01*
X103825026Y-56665688D01*
X103814266Y-56541067D01*
X103779401Y-56420941D01*
X103721770Y-56309924D01*
X103643588Y-56212284D01*
X103547860Y-56131772D01*
X103438264Y-56071483D01*
X103319013Y-56033734D01*
X103218750Y-56023000D01*
X103060000Y-56181750D01*
X103060000Y-56383568D01*
X103021770Y-56309924D01*
X102964000Y-56237776D01*
X102964000Y-56181750D01*
X102805250Y-56023000D01*
X102704987Y-56033734D01*
X102662000Y-56047342D01*
X102619013Y-56033734D01*
X102518750Y-56023000D01*
X102360000Y-56181750D01*
X102360000Y-56237776D01*
X102312390Y-56297235D01*
X102264000Y-56238271D01*
X102264000Y-56181750D01*
X102105250Y-56023000D01*
X102004987Y-56033734D01*
X101961724Y-56047429D01*
X101911482Y-56032188D01*
X101787000Y-56019928D01*
X101437000Y-56019928D01*
X101312518Y-56032188D01*
X101262000Y-56047512D01*
X101211482Y-56032188D01*
X101087000Y-56019928D01*
X100737000Y-56019928D01*
X100612518Y-56032188D01*
X100562276Y-56047429D01*
X100519013Y-56033734D01*
X100418750Y-56023000D01*
X100339002Y-56102748D01*
X100339002Y-56023000D01*
X100269741Y-56023000D01*
X100283346Y-55997547D01*
X100326803Y-55854286D01*
X100337800Y-55742633D01*
X100337800Y-55742632D01*
X100341477Y-55705300D01*
X100337800Y-55667967D01*
X100337800Y-54502347D01*
X100364454Y-54484537D01*
X100508617Y-54340374D01*
X100621885Y-54170856D01*
X100699906Y-53982498D01*
X100739680Y-53782539D01*
X100739680Y-53578661D01*
X100699906Y-53378702D01*
X100621885Y-53190344D01*
X100508617Y-53020826D01*
X100364454Y-52876663D01*
X100194936Y-52763395D01*
X100006578Y-52685374D01*
X99806619Y-52645600D01*
X99602741Y-52645600D01*
X99502500Y-52665539D01*
X99502500Y-51178301D01*
X99819302Y-50861500D01*
X101933014Y-50861500D01*
X101952795Y-50909256D01*
X102066063Y-51078774D01*
X102210226Y-51222937D01*
X102379744Y-51336205D01*
X102568102Y-51414226D01*
X102768061Y-51454000D01*
X102971939Y-51454000D01*
X103171898Y-51414226D01*
X103360256Y-51336205D01*
X103529774Y-51222937D01*
X103673937Y-51078774D01*
X103787205Y-50909256D01*
X103865226Y-50720898D01*
X103905000Y-50520939D01*
X103905000Y-50317061D01*
X103865226Y-50117102D01*
X103831632Y-50036000D01*
X104460199Y-50036000D01*
X104692500Y-50268302D01*
X104692500Y-50330439D01*
X104732274Y-50530398D01*
X104810295Y-50718756D01*
X104923563Y-50888274D01*
X105067726Y-51032437D01*
X105237244Y-51145705D01*
X105425602Y-51223726D01*
X105625561Y-51263500D01*
X105829439Y-51263500D01*
X106029398Y-51223726D01*
X106217756Y-51145705D01*
X106387274Y-51032437D01*
X106531437Y-50888274D01*
X106644705Y-50718756D01*
X106722726Y-50530398D01*
X106762500Y-50330439D01*
X106762500Y-50126561D01*
X106722726Y-49926602D01*
X106644705Y-49738244D01*
X106531437Y-49568726D01*
X106387274Y-49424563D01*
X106217756Y-49311295D01*
X106029398Y-49233274D01*
X105829439Y-49193500D01*
X105767302Y-49193500D01*
X105338803Y-48765002D01*
X105315001Y-48735999D01*
X105199276Y-48641026D01*
X105067247Y-48570454D01*
X104923986Y-48526997D01*
X104812333Y-48516000D01*
X104812322Y-48516000D01*
X104775000Y-48512324D01*
X104737678Y-48516000D01*
X98716322Y-48516000D01*
X98678999Y-48512324D01*
X98641676Y-48516000D01*
X98641667Y-48516000D01*
X98530014Y-48526997D01*
X98386753Y-48570454D01*
X98254724Y-48641026D01*
X98254722Y-48641027D01*
X98254723Y-48641027D01*
X98167996Y-48712201D01*
X98167992Y-48712205D01*
X98138999Y-48735999D01*
X98115205Y-48764992D01*
X96032398Y-50847801D01*
X96003400Y-50871599D01*
X95979602Y-50900597D01*
X95979601Y-50900598D01*
X95908426Y-50987324D01*
X95837854Y-51119354D01*
X95794398Y-51262615D01*
X95779724Y-51411600D01*
X95783401Y-51448932D01*
X95783401Y-52868597D01*
X95642206Y-52727402D01*
X95618403Y-52698399D01*
X95502678Y-52603426D01*
X95370649Y-52532854D01*
X95227388Y-52489397D01*
X95115735Y-52478400D01*
X95115724Y-52478400D01*
X95078402Y-52474724D01*
X95041080Y-52478400D01*
X94853601Y-52478400D01*
X94733203Y-52358002D01*
X94709400Y-52328998D01*
X94593675Y-52234025D01*
X94461646Y-52163453D01*
X94318385Y-52119996D01*
X94206732Y-52108999D01*
X94206721Y-52108999D01*
X94169399Y-52105323D01*
X94132077Y-52108999D01*
X87065321Y-52108999D01*
X87027998Y-52105323D01*
X86990675Y-52108999D01*
X86990666Y-52108999D01*
X86879013Y-52119996D01*
X86735752Y-52163453D01*
X86603723Y-52234025D01*
X86487998Y-52328998D01*
X86464200Y-52357996D01*
X83210000Y-55612197D01*
X83210000Y-40672279D01*
X83224722Y-40522131D01*
X83258953Y-40408754D01*
X83314555Y-40304181D01*
X83389407Y-40212404D01*
X83480664Y-40136909D01*
X83584844Y-40080581D01*
X83697976Y-40045560D01*
X83846022Y-40030000D01*
X109187721Y-40030000D01*
X109337869Y-40044722D01*
G37*
X109337869Y-40044722D02*
X109451246Y-40078953D01*
X109555819Y-40134555D01*
X109647596Y-40209407D01*
X109723091Y-40300664D01*
X109779419Y-40404844D01*
X109814440Y-40517976D01*
X109830001Y-40666031D01*
X109830000Y-41877581D01*
X109830000Y-67227598D01*
X101888479Y-59286078D01*
X101911482Y-59283812D01*
X101961724Y-59268571D01*
X102004987Y-59282266D01*
X102105250Y-59293000D01*
X102264000Y-59134250D01*
X102264000Y-59077729D01*
X102312390Y-59018765D01*
X102360000Y-59078224D01*
X102360000Y-59134250D01*
X102518750Y-59293000D01*
X102619013Y-59282266D01*
X102662000Y-59268658D01*
X102704987Y-59282266D01*
X102805250Y-59293000D01*
X102964000Y-59134250D01*
X102964000Y-59078224D01*
X103021770Y-59006076D01*
X103060000Y-58932432D01*
X103060000Y-59134250D01*
X103218750Y-59293000D01*
X103319013Y-59282266D01*
X103438264Y-59244517D01*
X103547860Y-59184228D01*
X103643588Y-59103716D01*
X103721770Y-59006076D01*
X103779401Y-58895059D01*
X103814266Y-58774933D01*
X103825026Y-58650312D01*
X103822000Y-57943750D01*
X103663250Y-57785000D01*
X103060000Y-57785000D01*
X103060000Y-57881750D01*
X102964000Y-57785750D01*
X102964000Y-57785000D01*
X102865000Y-57785000D01*
X102865000Y-57531000D01*
X102964000Y-57531000D01*
X102964000Y-57530250D01*
X103060000Y-57434250D01*
X103060000Y-57531000D01*
X103663250Y-57531000D01*
X103822000Y-57372250D01*
X103825026Y-56665688D01*
X103814266Y-56541067D01*
X103779401Y-56420941D01*
X103721770Y-56309924D01*
X103643588Y-56212284D01*
X103547860Y-56131772D01*
X103438264Y-56071483D01*
X103319013Y-56033734D01*
X103218750Y-56023000D01*
X103060000Y-56181750D01*
X103060000Y-56383568D01*
X103021770Y-56309924D01*
X102964000Y-56237776D01*
X102964000Y-56181750D01*
X102805250Y-56023000D01*
X102704987Y-56033734D01*
X102662000Y-56047342D01*
X102619013Y-56033734D01*
X102518750Y-56023000D01*
X102360000Y-56181750D01*
X102360000Y-56237776D01*
X102312390Y-56297235D01*
X102264000Y-56238271D01*
X102264000Y-56181750D01*
X102105250Y-56023000D01*
X102004987Y-56033734D01*
X101961724Y-56047429D01*
X101911482Y-56032188D01*
X101787000Y-56019928D01*
X101437000Y-56019928D01*
X101312518Y-56032188D01*
X101262000Y-56047512D01*
X101211482Y-56032188D01*
X101087000Y-56019928D01*
X100737000Y-56019928D01*
X100612518Y-56032188D01*
X100562276Y-56047429D01*
X100519013Y-56033734D01*
X100418750Y-56023000D01*
X100339002Y-56102748D01*
X100339002Y-56023000D01*
X100269741Y-56023000D01*
X100283346Y-55997547D01*
X100326803Y-55854286D01*
X100337800Y-55742633D01*
X100337800Y-55742632D01*
X100341477Y-55705300D01*
X100337800Y-55667967D01*
X100337800Y-54502347D01*
X100364454Y-54484537D01*
X100508617Y-54340374D01*
X100621885Y-54170856D01*
X100699906Y-53982498D01*
X100739680Y-53782539D01*
X100739680Y-53578661D01*
X100699906Y-53378702D01*
X100621885Y-53190344D01*
X100508617Y-53020826D01*
X100364454Y-52876663D01*
X100194936Y-52763395D01*
X100006578Y-52685374D01*
X99806619Y-52645600D01*
X99602741Y-52645600D01*
X99502500Y-52665539D01*
X99502500Y-51178301D01*
X99819302Y-50861500D01*
X101933014Y-50861500D01*
X101952795Y-50909256D01*
X102066063Y-51078774D01*
X102210226Y-51222937D01*
X102379744Y-51336205D01*
X102568102Y-51414226D01*
X102768061Y-51454000D01*
X102971939Y-51454000D01*
X103171898Y-51414226D01*
X103360256Y-51336205D01*
X103529774Y-51222937D01*
X103673937Y-51078774D01*
X103787205Y-50909256D01*
X103865226Y-50720898D01*
X103905000Y-50520939D01*
X103905000Y-50317061D01*
X103865226Y-50117102D01*
X103831632Y-50036000D01*
X104460199Y-50036000D01*
X104692500Y-50268302D01*
X104692500Y-50330439D01*
X104732274Y-50530398D01*
X104810295Y-50718756D01*
X104923563Y-50888274D01*
X105067726Y-51032437D01*
X105237244Y-51145705D01*
X105425602Y-51223726D01*
X105625561Y-51263500D01*
X105829439Y-51263500D01*
X106029398Y-51223726D01*
X106217756Y-51145705D01*
X106387274Y-51032437D01*
X106531437Y-50888274D01*
X106644705Y-50718756D01*
X106722726Y-50530398D01*
X106762500Y-50330439D01*
X106762500Y-50126561D01*
X106722726Y-49926602D01*
X106644705Y-49738244D01*
X106531437Y-49568726D01*
X106387274Y-49424563D01*
X106217756Y-49311295D01*
X106029398Y-49233274D01*
X105829439Y-49193500D01*
X105767302Y-49193500D01*
X105338803Y-48765002D01*
X105315001Y-48735999D01*
X105199276Y-48641026D01*
X105067247Y-48570454D01*
X104923986Y-48526997D01*
X104812333Y-48516000D01*
X104812322Y-48516000D01*
X104775000Y-48512324D01*
X104737678Y-48516000D01*
X98716322Y-48516000D01*
X98678999Y-48512324D01*
X98641676Y-48516000D01*
X98641667Y-48516000D01*
X98530014Y-48526997D01*
X98386753Y-48570454D01*
X98254724Y-48641026D01*
X98254722Y-48641027D01*
X98254723Y-48641027D01*
X98167996Y-48712201D01*
X98167992Y-48712205D01*
X98138999Y-48735999D01*
X98115205Y-48764992D01*
X96032398Y-50847801D01*
X96003400Y-50871599D01*
X95979602Y-50900597D01*
X95979601Y-50900598D01*
X95908426Y-50987324D01*
X95837854Y-51119354D01*
X95794398Y-51262615D01*
X95779724Y-51411600D01*
X95783401Y-51448932D01*
X95783401Y-52868597D01*
X95642206Y-52727402D01*
X95618403Y-52698399D01*
X95502678Y-52603426D01*
X95370649Y-52532854D01*
X95227388Y-52489397D01*
X95115735Y-52478400D01*
X95115724Y-52478400D01*
X95078402Y-52474724D01*
X95041080Y-52478400D01*
X94853601Y-52478400D01*
X94733203Y-52358002D01*
X94709400Y-52328998D01*
X94593675Y-52234025D01*
X94461646Y-52163453D01*
X94318385Y-52119996D01*
X94206732Y-52108999D01*
X94206721Y-52108999D01*
X94169399Y-52105323D01*
X94132077Y-52108999D01*
X87065321Y-52108999D01*
X87027998Y-52105323D01*
X86990675Y-52108999D01*
X86990666Y-52108999D01*
X86879013Y-52119996D01*
X86735752Y-52163453D01*
X86603723Y-52234025D01*
X86487998Y-52328998D01*
X86464200Y-52357996D01*
X83210000Y-55612197D01*
X83210000Y-40672279D01*
X83224722Y-40522131D01*
X83258953Y-40408754D01*
X83314555Y-40304181D01*
X83389407Y-40212404D01*
X83480664Y-40136909D01*
X83584844Y-40080581D01*
X83697976Y-40045560D01*
X83846022Y-40030000D01*
X109187721Y-40030000D01*
X109337869Y-40044722D01*
G36*
X93974996Y-53749397D02*
G01*
X93998799Y-53778401D01*
X94114524Y-53873374D01*
X94246553Y-53943946D01*
X94389814Y-53987403D01*
X94501467Y-53998400D01*
X94501477Y-53998400D01*
X94538800Y-54002076D01*
X94576123Y-53998400D01*
X94763601Y-53998400D01*
X95252001Y-54486801D01*
X95252000Y-56023000D01*
X95184998Y-56023000D01*
X95184998Y-56102748D01*
X95105250Y-56023000D01*
X95004987Y-56033734D01*
X94885736Y-56071483D01*
X94776140Y-56131772D01*
X94680412Y-56212284D01*
X94602230Y-56309924D01*
X94544599Y-56420941D01*
X94509734Y-56541067D01*
X94498974Y-56665688D01*
X94502000Y-57372250D01*
X94660750Y-57531000D01*
X95198928Y-57531000D01*
X95198928Y-57785000D01*
X94660750Y-57785000D01*
X94502000Y-57943750D01*
X94500717Y-58243300D01*
X90052102Y-58243300D01*
X89088500Y-57279699D01*
X89088500Y-56679333D01*
X89092177Y-56642000D01*
X89077503Y-56493014D01*
X89034046Y-56349753D01*
X88963474Y-56217724D01*
X88892299Y-56130997D01*
X88868501Y-56101999D01*
X88839502Y-56078200D01*
X88257303Y-55496002D01*
X88233501Y-55466999D01*
X88117776Y-55372026D01*
X87985747Y-55301454D01*
X87842486Y-55257997D01*
X87730833Y-55247000D01*
X87730822Y-55247000D01*
X87693500Y-55243324D01*
X87656178Y-55247000D01*
X85724800Y-55247000D01*
X87342801Y-53628999D01*
X93854598Y-53628999D01*
X93974996Y-53749397D01*
G37*
X93974996Y-53749397D02*
X93998799Y-53778401D01*
X94114524Y-53873374D01*
X94246553Y-53943946D01*
X94389814Y-53987403D01*
X94501467Y-53998400D01*
X94501477Y-53998400D01*
X94538800Y-54002076D01*
X94576123Y-53998400D01*
X94763601Y-53998400D01*
X95252001Y-54486801D01*
X95252000Y-56023000D01*
X95184998Y-56023000D01*
X95184998Y-56102748D01*
X95105250Y-56023000D01*
X95004987Y-56033734D01*
X94885736Y-56071483D01*
X94776140Y-56131772D01*
X94680412Y-56212284D01*
X94602230Y-56309924D01*
X94544599Y-56420941D01*
X94509734Y-56541067D01*
X94498974Y-56665688D01*
X94502000Y-57372250D01*
X94660750Y-57531000D01*
X95198928Y-57531000D01*
X95198928Y-57785000D01*
X94660750Y-57785000D01*
X94502000Y-57943750D01*
X94500717Y-58243300D01*
X90052102Y-58243300D01*
X89088500Y-57279699D01*
X89088500Y-56679333D01*
X89092177Y-56642000D01*
X89077503Y-56493014D01*
X89034046Y-56349753D01*
X88963474Y-56217724D01*
X88892299Y-56130997D01*
X88868501Y-56101999D01*
X88839502Y-56078200D01*
X88257303Y-55496002D01*
X88233501Y-55466999D01*
X88117776Y-55372026D01*
X87985747Y-55301454D01*
X87842486Y-55257997D01*
X87730833Y-55247000D01*
X87730822Y-55247000D01*
X87693500Y-55243324D01*
X87656178Y-55247000D01*
X85724800Y-55247000D01*
X87342801Y-53628999D01*
X93854598Y-53628999D01*
X93974996Y-53749397D01*
%TD*%
M02*
