%TF.GenerationSoftware,KiCad,Pcbnew,(5.1.6)-1*%
%TF.CreationDate,2020-08-18T23:06:57+02:00*%
%TF.ProjectId,ESP32-S2-WROOM,45535033-322d-4533-922d-57524f4f4d2e,1.2*%
%TF.SameCoordinates,Original*%
%TF.FileFunction,Soldermask,Bot*%
%TF.FilePolarity,Negative*%
%FSLAX46Y46*%
G04 Gerber Fmt 4.6, Leading zero omitted, Abs format (unit mm)*
G04 Created by KiCad (PCBNEW (5.1.6)-1) date 2020-08-18 23:06:57*
%MOMM*%
%LPD*%
G01*
G04 APERTURE LIST*
%ADD10O,1.350000X1.050000*%
%ADD11O,1.100000X1.650000*%
%ADD12C,1.000000*%
%ADD13C,0.500000*%
%ADD14O,1.100000X1.100000*%
%ADD15R,1.100000X1.100000*%
%ADD16R,3.500000X1.600000*%
%ADD17R,3.600000X1.100000*%
%ADD18R,0.900000X1.100000*%
%ADD19R,1.600000X0.800000*%
%ADD20C,1.624000*%
%ADD21C,0.100000*%
G04 APERTURE END LIST*
D10*
%TO.C,J1*%
X94020000Y-124126000D03*
X99020000Y-124126000D03*
D11*
X93020000Y-126826000D03*
X100020000Y-126826000D03*
%TD*%
D12*
%TO.C,SW2*%
X85585500Y-110784000D03*
X85585500Y-107784000D03*
%TD*%
D13*
%TO.C,U2*%
X93820000Y-85793600D03*
X94582000Y-84980800D03*
X96106000Y-84980800D03*
X96817200Y-85793600D03*
X96817200Y-87266800D03*
X96055200Y-87978000D03*
X94582000Y-87978000D03*
X93820000Y-87266800D03*
X94582000Y-86504800D03*
X96106000Y-86454000D03*
X95344000Y-85793600D03*
X95293200Y-87266800D03*
%TD*%
D14*
%TO.C,J2*%
X85090000Y-101600000D03*
X85090000Y-100330000D03*
X85090000Y-99060000D03*
X85090000Y-97790000D03*
X85090000Y-96520000D03*
X85090000Y-95250000D03*
X85090000Y-93980000D03*
X85090000Y-92710000D03*
X85090000Y-91440000D03*
X85090000Y-90170000D03*
X85090000Y-88900000D03*
X85090000Y-87630000D03*
X85090000Y-86360000D03*
X85090000Y-85090000D03*
X85090000Y-83820000D03*
D15*
X85090000Y-82550000D03*
%TD*%
D14*
%TO.C,J3*%
X107950000Y-111760000D03*
X107950000Y-110490000D03*
X107950000Y-109220000D03*
X107950000Y-107950000D03*
X107950000Y-106680000D03*
X107950000Y-105410000D03*
X107950000Y-104140000D03*
X107950000Y-102870000D03*
X107950000Y-101600000D03*
X107950000Y-100330000D03*
X107950000Y-99060000D03*
X107950000Y-97790000D03*
X107950000Y-96520000D03*
X107950000Y-95250000D03*
X107950000Y-93980000D03*
X107950000Y-92710000D03*
X107950000Y-91440000D03*
X107950000Y-90170000D03*
X107950000Y-88900000D03*
X107950000Y-87630000D03*
X107950000Y-86360000D03*
X107950000Y-85090000D03*
X107950000Y-83820000D03*
D15*
X107950000Y-82550000D03*
%TD*%
D16*
%TO.C,J4*%
X91838500Y-120571000D03*
X91838500Y-113871000D03*
D17*
X86088500Y-118221000D03*
X86088500Y-116221000D03*
%TD*%
D18*
%TO.C,SW3*%
X107551000Y-69438500D03*
X107551000Y-76738500D03*
X109761000Y-76738500D03*
X109761000Y-69438500D03*
D19*
X106901000Y-75338500D03*
X106901000Y-73838500D03*
X106901000Y-70838500D03*
D12*
X108661000Y-74588500D03*
X108661000Y-71588500D03*
%TD*%
D20*
%TO.C,J5*%
X86042500Y-60071000D03*
X86042500Y-57531000D03*
X86042500Y-54991000D03*
X86042500Y-52451000D03*
%TD*%
D21*
%TO.C,JP1*%
G36*
X98050559Y-52310755D02*
G01*
X98047714Y-52320134D01*
X98043093Y-52328779D01*
X98036875Y-52336355D01*
X98029299Y-52342573D01*
X98020654Y-52347194D01*
X98011275Y-52350039D01*
X98001520Y-52351000D01*
X96501520Y-52351000D01*
X96491765Y-52350039D01*
X96482386Y-52347194D01*
X96473741Y-52342573D01*
X96466165Y-52336355D01*
X96459947Y-52328779D01*
X96455326Y-52320134D01*
X96452481Y-52310755D01*
X96451520Y-52301000D01*
X96451520Y-51801000D01*
X96452122Y-51794889D01*
X96452122Y-51776466D01*
X96452363Y-51771565D01*
X96457173Y-51722734D01*
X96457893Y-51717881D01*
X96467465Y-51669756D01*
X96468657Y-51664995D01*
X96482901Y-51618040D01*
X96484554Y-51613421D01*
X96503331Y-51568088D01*
X96505429Y-51563651D01*
X96528560Y-51520378D01*
X96531082Y-51516171D01*
X96558342Y-51475372D01*
X96561266Y-51471430D01*
X96592394Y-51433501D01*
X96595689Y-51429866D01*
X96630386Y-51395169D01*
X96634021Y-51391874D01*
X96671950Y-51360746D01*
X96675892Y-51357822D01*
X96716691Y-51330562D01*
X96720898Y-51328040D01*
X96764171Y-51304909D01*
X96768608Y-51302811D01*
X96813941Y-51284034D01*
X96818560Y-51282381D01*
X96865515Y-51268137D01*
X96870276Y-51266945D01*
X96918401Y-51257373D01*
X96923254Y-51256653D01*
X96972085Y-51251843D01*
X96976986Y-51251602D01*
X96995409Y-51251602D01*
X97001520Y-51251000D01*
X97501520Y-51251000D01*
X97507631Y-51251602D01*
X97526054Y-51251602D01*
X97530955Y-51251843D01*
X97579786Y-51256653D01*
X97584639Y-51257373D01*
X97632764Y-51266945D01*
X97637525Y-51268137D01*
X97684480Y-51282381D01*
X97689099Y-51284034D01*
X97734432Y-51302811D01*
X97738869Y-51304909D01*
X97782142Y-51328040D01*
X97786349Y-51330562D01*
X97827148Y-51357822D01*
X97831090Y-51360746D01*
X97869019Y-51391874D01*
X97872654Y-51395169D01*
X97907351Y-51429866D01*
X97910646Y-51433501D01*
X97941774Y-51471430D01*
X97944698Y-51475372D01*
X97971958Y-51516171D01*
X97974480Y-51520378D01*
X97997611Y-51563651D01*
X97999709Y-51568088D01*
X98018486Y-51613421D01*
X98020139Y-51618040D01*
X98034383Y-51664995D01*
X98035575Y-51669756D01*
X98045147Y-51717881D01*
X98045867Y-51722734D01*
X98050677Y-51771565D01*
X98050918Y-51776466D01*
X98050918Y-51794889D01*
X98051520Y-51801000D01*
X98051520Y-52301000D01*
X98050559Y-52310755D01*
G37*
G36*
X98050918Y-53107111D02*
G01*
X98050918Y-53125534D01*
X98050677Y-53130435D01*
X98045867Y-53179266D01*
X98045147Y-53184119D01*
X98035575Y-53232244D01*
X98034383Y-53237005D01*
X98020139Y-53283960D01*
X98018486Y-53288579D01*
X97999709Y-53333912D01*
X97997611Y-53338349D01*
X97974480Y-53381622D01*
X97971958Y-53385829D01*
X97944698Y-53426628D01*
X97941774Y-53430570D01*
X97910646Y-53468499D01*
X97907351Y-53472134D01*
X97872654Y-53506831D01*
X97869019Y-53510126D01*
X97831090Y-53541254D01*
X97827148Y-53544178D01*
X97786349Y-53571438D01*
X97782142Y-53573960D01*
X97738869Y-53597091D01*
X97734432Y-53599189D01*
X97689099Y-53617966D01*
X97684480Y-53619619D01*
X97637525Y-53633863D01*
X97632764Y-53635055D01*
X97584639Y-53644627D01*
X97579786Y-53645347D01*
X97530955Y-53650157D01*
X97526054Y-53650398D01*
X97507631Y-53650398D01*
X97501520Y-53651000D01*
X97001520Y-53651000D01*
X96995409Y-53650398D01*
X96976986Y-53650398D01*
X96972085Y-53650157D01*
X96923254Y-53645347D01*
X96918401Y-53644627D01*
X96870276Y-53635055D01*
X96865515Y-53633863D01*
X96818560Y-53619619D01*
X96813941Y-53617966D01*
X96768608Y-53599189D01*
X96764171Y-53597091D01*
X96720898Y-53573960D01*
X96716691Y-53571438D01*
X96675892Y-53544178D01*
X96671950Y-53541254D01*
X96634021Y-53510126D01*
X96630386Y-53506831D01*
X96595689Y-53472134D01*
X96592394Y-53468499D01*
X96561266Y-53430570D01*
X96558342Y-53426628D01*
X96531082Y-53385829D01*
X96528560Y-53381622D01*
X96505429Y-53338349D01*
X96503331Y-53333912D01*
X96484554Y-53288579D01*
X96482901Y-53283960D01*
X96468657Y-53237005D01*
X96467465Y-53232244D01*
X96457893Y-53184119D01*
X96457173Y-53179266D01*
X96452363Y-53130435D01*
X96452122Y-53125534D01*
X96452122Y-53107111D01*
X96451520Y-53101000D01*
X96451520Y-52601000D01*
X96452481Y-52591245D01*
X96455326Y-52581866D01*
X96459947Y-52573221D01*
X96466165Y-52565645D01*
X96473741Y-52559427D01*
X96482386Y-52554806D01*
X96491765Y-52551961D01*
X96501520Y-52551000D01*
X98001520Y-52551000D01*
X98011275Y-52551961D01*
X98020654Y-52554806D01*
X98029299Y-52559427D01*
X98036875Y-52565645D01*
X98043093Y-52573221D01*
X98047714Y-52581866D01*
X98050559Y-52591245D01*
X98051520Y-52601000D01*
X98051520Y-53101000D01*
X98050918Y-53107111D01*
G37*
%TD*%
%TO.C,JP2*%
G36*
X102207762Y-51830449D02*
G01*
X102207762Y-51812026D01*
X102208003Y-51807125D01*
X102212813Y-51758294D01*
X102213533Y-51753441D01*
X102223105Y-51705316D01*
X102224297Y-51700555D01*
X102238541Y-51653600D01*
X102240194Y-51648981D01*
X102258971Y-51603648D01*
X102261069Y-51599211D01*
X102284200Y-51555938D01*
X102286722Y-51551731D01*
X102313982Y-51510932D01*
X102316906Y-51506990D01*
X102348034Y-51469061D01*
X102351329Y-51465426D01*
X102386026Y-51430729D01*
X102389661Y-51427434D01*
X102427590Y-51396306D01*
X102431532Y-51393382D01*
X102472331Y-51366122D01*
X102476538Y-51363600D01*
X102519811Y-51340469D01*
X102524248Y-51338371D01*
X102569581Y-51319594D01*
X102574200Y-51317941D01*
X102621155Y-51303697D01*
X102625916Y-51302505D01*
X102674041Y-51292933D01*
X102678894Y-51292213D01*
X102727725Y-51287403D01*
X102732626Y-51287162D01*
X102751049Y-51287162D01*
X102757160Y-51286560D01*
X103257160Y-51286560D01*
X103263271Y-51287162D01*
X103281694Y-51287162D01*
X103286595Y-51287403D01*
X103335426Y-51292213D01*
X103340279Y-51292933D01*
X103388404Y-51302505D01*
X103393165Y-51303697D01*
X103440120Y-51317941D01*
X103444739Y-51319594D01*
X103490072Y-51338371D01*
X103494509Y-51340469D01*
X103537782Y-51363600D01*
X103541989Y-51366122D01*
X103582788Y-51393382D01*
X103586730Y-51396306D01*
X103624659Y-51427434D01*
X103628294Y-51430729D01*
X103662991Y-51465426D01*
X103666286Y-51469061D01*
X103697414Y-51506990D01*
X103700338Y-51510932D01*
X103727598Y-51551731D01*
X103730120Y-51555938D01*
X103753251Y-51599211D01*
X103755349Y-51603648D01*
X103774126Y-51648981D01*
X103775779Y-51653600D01*
X103790023Y-51700555D01*
X103791215Y-51705316D01*
X103800787Y-51753441D01*
X103801507Y-51758294D01*
X103806317Y-51807125D01*
X103806558Y-51812026D01*
X103806558Y-51830449D01*
X103807160Y-51836560D01*
X103807160Y-52336560D01*
X103806199Y-52346315D01*
X103803354Y-52355694D01*
X103798733Y-52364339D01*
X103792515Y-52371915D01*
X103784939Y-52378133D01*
X103776294Y-52382754D01*
X103766915Y-52385599D01*
X103757160Y-52386560D01*
X102257160Y-52386560D01*
X102247405Y-52385599D01*
X102238026Y-52382754D01*
X102229381Y-52378133D01*
X102221805Y-52371915D01*
X102215587Y-52364339D01*
X102210966Y-52355694D01*
X102208121Y-52346315D01*
X102207160Y-52336560D01*
X102207160Y-51836560D01*
X102207762Y-51830449D01*
G37*
G36*
X102208121Y-52626805D02*
G01*
X102210966Y-52617426D01*
X102215587Y-52608781D01*
X102221805Y-52601205D01*
X102229381Y-52594987D01*
X102238026Y-52590366D01*
X102247405Y-52587521D01*
X102257160Y-52586560D01*
X103757160Y-52586560D01*
X103766915Y-52587521D01*
X103776294Y-52590366D01*
X103784939Y-52594987D01*
X103792515Y-52601205D01*
X103798733Y-52608781D01*
X103803354Y-52617426D01*
X103806199Y-52626805D01*
X103807160Y-52636560D01*
X103807160Y-53136560D01*
X103806558Y-53142671D01*
X103806558Y-53161094D01*
X103806317Y-53165995D01*
X103801507Y-53214826D01*
X103800787Y-53219679D01*
X103791215Y-53267804D01*
X103790023Y-53272565D01*
X103775779Y-53319520D01*
X103774126Y-53324139D01*
X103755349Y-53369472D01*
X103753251Y-53373909D01*
X103730120Y-53417182D01*
X103727598Y-53421389D01*
X103700338Y-53462188D01*
X103697414Y-53466130D01*
X103666286Y-53504059D01*
X103662991Y-53507694D01*
X103628294Y-53542391D01*
X103624659Y-53545686D01*
X103586730Y-53576814D01*
X103582788Y-53579738D01*
X103541989Y-53606998D01*
X103537782Y-53609520D01*
X103494509Y-53632651D01*
X103490072Y-53634749D01*
X103444739Y-53653526D01*
X103440120Y-53655179D01*
X103393165Y-53669423D01*
X103388404Y-53670615D01*
X103340279Y-53680187D01*
X103335426Y-53680907D01*
X103286595Y-53685717D01*
X103281694Y-53685958D01*
X103263271Y-53685958D01*
X103257160Y-53686560D01*
X102757160Y-53686560D01*
X102751049Y-53685958D01*
X102732626Y-53685958D01*
X102727725Y-53685717D01*
X102678894Y-53680907D01*
X102674041Y-53680187D01*
X102625916Y-53670615D01*
X102621155Y-53669423D01*
X102574200Y-53655179D01*
X102569581Y-53653526D01*
X102524248Y-53634749D01*
X102519811Y-53632651D01*
X102476538Y-53609520D01*
X102472331Y-53606998D01*
X102431532Y-53579738D01*
X102427590Y-53576814D01*
X102389661Y-53545686D01*
X102386026Y-53542391D01*
X102351329Y-53507694D01*
X102348034Y-53504059D01*
X102316906Y-53466130D01*
X102313982Y-53462188D01*
X102286722Y-53421389D01*
X102284200Y-53417182D01*
X102261069Y-53373909D01*
X102258971Y-53369472D01*
X102240194Y-53324139D01*
X102238541Y-53319520D01*
X102224297Y-53272565D01*
X102223105Y-53267804D01*
X102213533Y-53219679D01*
X102212813Y-53214826D01*
X102208003Y-53165995D01*
X102207762Y-53161094D01*
X102207762Y-53142671D01*
X102207160Y-53136560D01*
X102207160Y-52636560D01*
X102208121Y-52626805D01*
G37*
%TD*%
%TO.C,JP3*%
G36*
X101042679Y-52351395D02*
G01*
X101039834Y-52360774D01*
X101035213Y-52369419D01*
X101028995Y-52376995D01*
X101021419Y-52383213D01*
X101012774Y-52387834D01*
X101003395Y-52390679D01*
X100993640Y-52391640D01*
X99493640Y-52391640D01*
X99483885Y-52390679D01*
X99474506Y-52387834D01*
X99465861Y-52383213D01*
X99458285Y-52376995D01*
X99452067Y-52369419D01*
X99447446Y-52360774D01*
X99444601Y-52351395D01*
X99443640Y-52341640D01*
X99443640Y-51841640D01*
X99444242Y-51835529D01*
X99444242Y-51817106D01*
X99444483Y-51812205D01*
X99449293Y-51763374D01*
X99450013Y-51758521D01*
X99459585Y-51710396D01*
X99460777Y-51705635D01*
X99475021Y-51658680D01*
X99476674Y-51654061D01*
X99495451Y-51608728D01*
X99497549Y-51604291D01*
X99520680Y-51561018D01*
X99523202Y-51556811D01*
X99550462Y-51516012D01*
X99553386Y-51512070D01*
X99584514Y-51474141D01*
X99587809Y-51470506D01*
X99622506Y-51435809D01*
X99626141Y-51432514D01*
X99664070Y-51401386D01*
X99668012Y-51398462D01*
X99708811Y-51371202D01*
X99713018Y-51368680D01*
X99756291Y-51345549D01*
X99760728Y-51343451D01*
X99806061Y-51324674D01*
X99810680Y-51323021D01*
X99857635Y-51308777D01*
X99862396Y-51307585D01*
X99910521Y-51298013D01*
X99915374Y-51297293D01*
X99964205Y-51292483D01*
X99969106Y-51292242D01*
X99987529Y-51292242D01*
X99993640Y-51291640D01*
X100493640Y-51291640D01*
X100499751Y-51292242D01*
X100518174Y-51292242D01*
X100523075Y-51292483D01*
X100571906Y-51297293D01*
X100576759Y-51298013D01*
X100624884Y-51307585D01*
X100629645Y-51308777D01*
X100676600Y-51323021D01*
X100681219Y-51324674D01*
X100726552Y-51343451D01*
X100730989Y-51345549D01*
X100774262Y-51368680D01*
X100778469Y-51371202D01*
X100819268Y-51398462D01*
X100823210Y-51401386D01*
X100861139Y-51432514D01*
X100864774Y-51435809D01*
X100899471Y-51470506D01*
X100902766Y-51474141D01*
X100933894Y-51512070D01*
X100936818Y-51516012D01*
X100964078Y-51556811D01*
X100966600Y-51561018D01*
X100989731Y-51604291D01*
X100991829Y-51608728D01*
X101010606Y-51654061D01*
X101012259Y-51658680D01*
X101026503Y-51705635D01*
X101027695Y-51710396D01*
X101037267Y-51758521D01*
X101037987Y-51763374D01*
X101042797Y-51812205D01*
X101043038Y-51817106D01*
X101043038Y-51835529D01*
X101043640Y-51841640D01*
X101043640Y-52341640D01*
X101042679Y-52351395D01*
G37*
G36*
X101043038Y-53147751D02*
G01*
X101043038Y-53166174D01*
X101042797Y-53171075D01*
X101037987Y-53219906D01*
X101037267Y-53224759D01*
X101027695Y-53272884D01*
X101026503Y-53277645D01*
X101012259Y-53324600D01*
X101010606Y-53329219D01*
X100991829Y-53374552D01*
X100989731Y-53378989D01*
X100966600Y-53422262D01*
X100964078Y-53426469D01*
X100936818Y-53467268D01*
X100933894Y-53471210D01*
X100902766Y-53509139D01*
X100899471Y-53512774D01*
X100864774Y-53547471D01*
X100861139Y-53550766D01*
X100823210Y-53581894D01*
X100819268Y-53584818D01*
X100778469Y-53612078D01*
X100774262Y-53614600D01*
X100730989Y-53637731D01*
X100726552Y-53639829D01*
X100681219Y-53658606D01*
X100676600Y-53660259D01*
X100629645Y-53674503D01*
X100624884Y-53675695D01*
X100576759Y-53685267D01*
X100571906Y-53685987D01*
X100523075Y-53690797D01*
X100518174Y-53691038D01*
X100499751Y-53691038D01*
X100493640Y-53691640D01*
X99993640Y-53691640D01*
X99987529Y-53691038D01*
X99969106Y-53691038D01*
X99964205Y-53690797D01*
X99915374Y-53685987D01*
X99910521Y-53685267D01*
X99862396Y-53675695D01*
X99857635Y-53674503D01*
X99810680Y-53660259D01*
X99806061Y-53658606D01*
X99760728Y-53639829D01*
X99756291Y-53637731D01*
X99713018Y-53614600D01*
X99708811Y-53612078D01*
X99668012Y-53584818D01*
X99664070Y-53581894D01*
X99626141Y-53550766D01*
X99622506Y-53547471D01*
X99587809Y-53512774D01*
X99584514Y-53509139D01*
X99553386Y-53471210D01*
X99550462Y-53467268D01*
X99523202Y-53426469D01*
X99520680Y-53422262D01*
X99497549Y-53378989D01*
X99495451Y-53374552D01*
X99476674Y-53329219D01*
X99475021Y-53324600D01*
X99460777Y-53277645D01*
X99459585Y-53272884D01*
X99450013Y-53224759D01*
X99449293Y-53219906D01*
X99444483Y-53171075D01*
X99444242Y-53166174D01*
X99444242Y-53147751D01*
X99443640Y-53141640D01*
X99443640Y-52641640D01*
X99444601Y-52631885D01*
X99447446Y-52622506D01*
X99452067Y-52613861D01*
X99458285Y-52606285D01*
X99465861Y-52600067D01*
X99474506Y-52595446D01*
X99483885Y-52592601D01*
X99493640Y-52591640D01*
X100993640Y-52591640D01*
X101003395Y-52592601D01*
X101012774Y-52595446D01*
X101021419Y-52600067D01*
X101028995Y-52606285D01*
X101035213Y-52613861D01*
X101039834Y-52622506D01*
X101042679Y-52631885D01*
X101043640Y-52641640D01*
X101043640Y-53141640D01*
X101043038Y-53147751D01*
G37*
%TD*%
%TO.C,JP4*%
G36*
X105113522Y-51820289D02*
G01*
X105113522Y-51801866D01*
X105113763Y-51796965D01*
X105118573Y-51748134D01*
X105119293Y-51743281D01*
X105128865Y-51695156D01*
X105130057Y-51690395D01*
X105144301Y-51643440D01*
X105145954Y-51638821D01*
X105164731Y-51593488D01*
X105166829Y-51589051D01*
X105189960Y-51545778D01*
X105192482Y-51541571D01*
X105219742Y-51500772D01*
X105222666Y-51496830D01*
X105253794Y-51458901D01*
X105257089Y-51455266D01*
X105291786Y-51420569D01*
X105295421Y-51417274D01*
X105333350Y-51386146D01*
X105337292Y-51383222D01*
X105378091Y-51355962D01*
X105382298Y-51353440D01*
X105425571Y-51330309D01*
X105430008Y-51328211D01*
X105475341Y-51309434D01*
X105479960Y-51307781D01*
X105526915Y-51293537D01*
X105531676Y-51292345D01*
X105579801Y-51282773D01*
X105584654Y-51282053D01*
X105633485Y-51277243D01*
X105638386Y-51277002D01*
X105656809Y-51277002D01*
X105662920Y-51276400D01*
X106162920Y-51276400D01*
X106169031Y-51277002D01*
X106187454Y-51277002D01*
X106192355Y-51277243D01*
X106241186Y-51282053D01*
X106246039Y-51282773D01*
X106294164Y-51292345D01*
X106298925Y-51293537D01*
X106345880Y-51307781D01*
X106350499Y-51309434D01*
X106395832Y-51328211D01*
X106400269Y-51330309D01*
X106443542Y-51353440D01*
X106447749Y-51355962D01*
X106488548Y-51383222D01*
X106492490Y-51386146D01*
X106530419Y-51417274D01*
X106534054Y-51420569D01*
X106568751Y-51455266D01*
X106572046Y-51458901D01*
X106603174Y-51496830D01*
X106606098Y-51500772D01*
X106633358Y-51541571D01*
X106635880Y-51545778D01*
X106659011Y-51589051D01*
X106661109Y-51593488D01*
X106679886Y-51638821D01*
X106681539Y-51643440D01*
X106695783Y-51690395D01*
X106696975Y-51695156D01*
X106706547Y-51743281D01*
X106707267Y-51748134D01*
X106712077Y-51796965D01*
X106712318Y-51801866D01*
X106712318Y-51820289D01*
X106712920Y-51826400D01*
X106712920Y-52326400D01*
X106711959Y-52336155D01*
X106709114Y-52345534D01*
X106704493Y-52354179D01*
X106698275Y-52361755D01*
X106690699Y-52367973D01*
X106682054Y-52372594D01*
X106672675Y-52375439D01*
X106662920Y-52376400D01*
X105162920Y-52376400D01*
X105153165Y-52375439D01*
X105143786Y-52372594D01*
X105135141Y-52367973D01*
X105127565Y-52361755D01*
X105121347Y-52354179D01*
X105116726Y-52345534D01*
X105113881Y-52336155D01*
X105112920Y-52326400D01*
X105112920Y-51826400D01*
X105113522Y-51820289D01*
G37*
G36*
X105113881Y-52616645D02*
G01*
X105116726Y-52607266D01*
X105121347Y-52598621D01*
X105127565Y-52591045D01*
X105135141Y-52584827D01*
X105143786Y-52580206D01*
X105153165Y-52577361D01*
X105162920Y-52576400D01*
X106662920Y-52576400D01*
X106672675Y-52577361D01*
X106682054Y-52580206D01*
X106690699Y-52584827D01*
X106698275Y-52591045D01*
X106704493Y-52598621D01*
X106709114Y-52607266D01*
X106711959Y-52616645D01*
X106712920Y-52626400D01*
X106712920Y-53126400D01*
X106712318Y-53132511D01*
X106712318Y-53150934D01*
X106712077Y-53155835D01*
X106707267Y-53204666D01*
X106706547Y-53209519D01*
X106696975Y-53257644D01*
X106695783Y-53262405D01*
X106681539Y-53309360D01*
X106679886Y-53313979D01*
X106661109Y-53359312D01*
X106659011Y-53363749D01*
X106635880Y-53407022D01*
X106633358Y-53411229D01*
X106606098Y-53452028D01*
X106603174Y-53455970D01*
X106572046Y-53493899D01*
X106568751Y-53497534D01*
X106534054Y-53532231D01*
X106530419Y-53535526D01*
X106492490Y-53566654D01*
X106488548Y-53569578D01*
X106447749Y-53596838D01*
X106443542Y-53599360D01*
X106400269Y-53622491D01*
X106395832Y-53624589D01*
X106350499Y-53643366D01*
X106345880Y-53645019D01*
X106298925Y-53659263D01*
X106294164Y-53660455D01*
X106246039Y-53670027D01*
X106241186Y-53670747D01*
X106192355Y-53675557D01*
X106187454Y-53675798D01*
X106169031Y-53675798D01*
X106162920Y-53676400D01*
X105662920Y-53676400D01*
X105656809Y-53675798D01*
X105638386Y-53675798D01*
X105633485Y-53675557D01*
X105584654Y-53670747D01*
X105579801Y-53670027D01*
X105531676Y-53660455D01*
X105526915Y-53659263D01*
X105479960Y-53645019D01*
X105475341Y-53643366D01*
X105430008Y-53624589D01*
X105425571Y-53622491D01*
X105382298Y-53599360D01*
X105378091Y-53596838D01*
X105337292Y-53569578D01*
X105333350Y-53566654D01*
X105295421Y-53535526D01*
X105291786Y-53532231D01*
X105257089Y-53497534D01*
X105253794Y-53493899D01*
X105222666Y-53455970D01*
X105219742Y-53452028D01*
X105192482Y-53411229D01*
X105189960Y-53407022D01*
X105166829Y-53363749D01*
X105164731Y-53359312D01*
X105145954Y-53313979D01*
X105144301Y-53309360D01*
X105130057Y-53262405D01*
X105128865Y-53257644D01*
X105119293Y-53209519D01*
X105118573Y-53204666D01*
X105113763Y-53155835D01*
X105113522Y-53150934D01*
X105113522Y-53132511D01*
X105112920Y-53126400D01*
X105112920Y-52626400D01*
X105113881Y-52616645D01*
G37*
%TD*%
%TO.C,JP5*%
G36*
X97314318Y-94737711D02*
G01*
X97314318Y-94756134D01*
X97314077Y-94761035D01*
X97309267Y-94809866D01*
X97308547Y-94814719D01*
X97298975Y-94862844D01*
X97297783Y-94867605D01*
X97283539Y-94914560D01*
X97281886Y-94919179D01*
X97263109Y-94964512D01*
X97261011Y-94968949D01*
X97237880Y-95012222D01*
X97235358Y-95016429D01*
X97208098Y-95057228D01*
X97205174Y-95061170D01*
X97174046Y-95099099D01*
X97170751Y-95102734D01*
X97136054Y-95137431D01*
X97132419Y-95140726D01*
X97094490Y-95171854D01*
X97090548Y-95174778D01*
X97049749Y-95202038D01*
X97045542Y-95204560D01*
X97002269Y-95227691D01*
X96997832Y-95229789D01*
X96952499Y-95248566D01*
X96947880Y-95250219D01*
X96900925Y-95264463D01*
X96896164Y-95265655D01*
X96848039Y-95275227D01*
X96843186Y-95275947D01*
X96794355Y-95280757D01*
X96789454Y-95280998D01*
X96771031Y-95280998D01*
X96764920Y-95281600D01*
X96264920Y-95281600D01*
X96258809Y-95280998D01*
X96240386Y-95280998D01*
X96235485Y-95280757D01*
X96186654Y-95275947D01*
X96181801Y-95275227D01*
X96133676Y-95265655D01*
X96128915Y-95264463D01*
X96081960Y-95250219D01*
X96077341Y-95248566D01*
X96032008Y-95229789D01*
X96027571Y-95227691D01*
X95984298Y-95204560D01*
X95980091Y-95202038D01*
X95939292Y-95174778D01*
X95935350Y-95171854D01*
X95897421Y-95140726D01*
X95893786Y-95137431D01*
X95859089Y-95102734D01*
X95855794Y-95099099D01*
X95824666Y-95061170D01*
X95821742Y-95057228D01*
X95794482Y-95016429D01*
X95791960Y-95012222D01*
X95768829Y-94968949D01*
X95766731Y-94964512D01*
X95747954Y-94919179D01*
X95746301Y-94914560D01*
X95732057Y-94867605D01*
X95730865Y-94862844D01*
X95721293Y-94814719D01*
X95720573Y-94809866D01*
X95715763Y-94761035D01*
X95715522Y-94756134D01*
X95715522Y-94737711D01*
X95714920Y-94731600D01*
X95714920Y-94231600D01*
X95715881Y-94221845D01*
X95718726Y-94212466D01*
X95723347Y-94203821D01*
X95729565Y-94196245D01*
X95737141Y-94190027D01*
X95745786Y-94185406D01*
X95755165Y-94182561D01*
X95764920Y-94181600D01*
X97264920Y-94181600D01*
X97274675Y-94182561D01*
X97284054Y-94185406D01*
X97292699Y-94190027D01*
X97300275Y-94196245D01*
X97306493Y-94203821D01*
X97311114Y-94212466D01*
X97313959Y-94221845D01*
X97314920Y-94231600D01*
X97314920Y-94731600D01*
X97314318Y-94737711D01*
G37*
G36*
X97313959Y-93941355D02*
G01*
X97311114Y-93950734D01*
X97306493Y-93959379D01*
X97300275Y-93966955D01*
X97292699Y-93973173D01*
X97284054Y-93977794D01*
X97274675Y-93980639D01*
X97264920Y-93981600D01*
X95764920Y-93981600D01*
X95755165Y-93980639D01*
X95745786Y-93977794D01*
X95737141Y-93973173D01*
X95729565Y-93966955D01*
X95723347Y-93959379D01*
X95718726Y-93950734D01*
X95715881Y-93941355D01*
X95714920Y-93931600D01*
X95714920Y-93431600D01*
X95715522Y-93425489D01*
X95715522Y-93407066D01*
X95715763Y-93402165D01*
X95720573Y-93353334D01*
X95721293Y-93348481D01*
X95730865Y-93300356D01*
X95732057Y-93295595D01*
X95746301Y-93248640D01*
X95747954Y-93244021D01*
X95766731Y-93198688D01*
X95768829Y-93194251D01*
X95791960Y-93150978D01*
X95794482Y-93146771D01*
X95821742Y-93105972D01*
X95824666Y-93102030D01*
X95855794Y-93064101D01*
X95859089Y-93060466D01*
X95893786Y-93025769D01*
X95897421Y-93022474D01*
X95935350Y-92991346D01*
X95939292Y-92988422D01*
X95980091Y-92961162D01*
X95984298Y-92958640D01*
X96027571Y-92935509D01*
X96032008Y-92933411D01*
X96077341Y-92914634D01*
X96081960Y-92912981D01*
X96128915Y-92898737D01*
X96133676Y-92897545D01*
X96181801Y-92887973D01*
X96186654Y-92887253D01*
X96235485Y-92882443D01*
X96240386Y-92882202D01*
X96258809Y-92882202D01*
X96264920Y-92881600D01*
X96764920Y-92881600D01*
X96771031Y-92882202D01*
X96789454Y-92882202D01*
X96794355Y-92882443D01*
X96843186Y-92887253D01*
X96848039Y-92887973D01*
X96896164Y-92897545D01*
X96900925Y-92898737D01*
X96947880Y-92912981D01*
X96952499Y-92914634D01*
X96997832Y-92933411D01*
X97002269Y-92935509D01*
X97045542Y-92958640D01*
X97049749Y-92961162D01*
X97090548Y-92988422D01*
X97094490Y-92991346D01*
X97132419Y-93022474D01*
X97136054Y-93025769D01*
X97170751Y-93060466D01*
X97174046Y-93064101D01*
X97205174Y-93102030D01*
X97208098Y-93105972D01*
X97235358Y-93146771D01*
X97237880Y-93150978D01*
X97261011Y-93194251D01*
X97263109Y-93198688D01*
X97281886Y-93244021D01*
X97283539Y-93248640D01*
X97297783Y-93295595D01*
X97298975Y-93300356D01*
X97308547Y-93348481D01*
X97309267Y-93353334D01*
X97314077Y-93402165D01*
X97314318Y-93407066D01*
X97314318Y-93425489D01*
X97314920Y-93431600D01*
X97314920Y-93931600D01*
X97313959Y-93941355D01*
G37*
%TD*%
M02*
