%TF.GenerationSoftware,KiCad,Pcbnew,(5.1.6)-1*%
%TF.CreationDate,2020-08-18T23:06:57+02:00*%
%TF.ProjectId,ESP32-S2-WROOM,45535033-322d-4533-922d-57524f4f4d2e,1.2*%
%TF.SameCoordinates,Original*%
%TF.FileFunction,Soldermask,Top*%
%TF.FilePolarity,Negative*%
%FSLAX46Y46*%
G04 Gerber Fmt 4.6, Leading zero omitted, Abs format (unit mm)*
G04 Created by KiCad (PCBNEW (5.1.6)-1) date 2020-08-18 23:06:57*
%MOMM*%
%LPD*%
G01*
G04 APERTURE LIST*
%ADD10R,1.350000X1.100000*%
%ADD11R,0.500000X2.100000*%
%ADD12O,1.350000X1.050000*%
%ADD13O,1.100000X1.650000*%
%ADD14R,1.400000X0.800000*%
%ADD15R,1.800000X1.000000*%
%ADD16R,0.900000X1.100000*%
%ADD17R,1.600000X0.800000*%
%ADD18C,1.000000*%
%ADD19R,1.600000X2.100000*%
%ADD20R,3.900000X2.100000*%
%ADD21C,0.500000*%
%ADD22R,1.100000X1.350000*%
%ADD23O,1.100000X1.100000*%
%ADD24R,1.100000X1.100000*%
%ADD25R,1.100000X1.700000*%
%ADD26R,1.000000X0.900000*%
%ADD27R,1.600000X1.400000*%
%ADD28R,1.660000X0.750000*%
%ADD29R,0.450000X2.100000*%
G04 APERTURE END LIST*
D10*
%TO.C,C1*%
X102616000Y-121428000D03*
X102616000Y-123428000D03*
%TD*%
%TO.C,C2*%
X90424000Y-121428000D03*
X90424000Y-123428000D03*
%TD*%
%TO.C,C3*%
X85344000Y-76184000D03*
X85344000Y-74184000D03*
%TD*%
%TO.C,C4*%
X85344000Y-79740000D03*
X85344000Y-77740000D03*
%TD*%
%TO.C,C5*%
X87884000Y-121428000D03*
X87884000Y-123428000D03*
%TD*%
%TO.C,C6*%
X108902000Y-80311500D03*
X108902000Y-78311500D03*
%TD*%
D11*
%TO.C,J1*%
X95229680Y-123802140D03*
X95862140Y-123802140D03*
X96507300Y-123794520D03*
X97165160Y-123807220D03*
X97815400Y-123807220D03*
D12*
X94020000Y-124126000D03*
X99020000Y-124126000D03*
D13*
X93020000Y-126826000D03*
X100020000Y-126826000D03*
%TD*%
D14*
%TO.C,R1*%
X102616000Y-117922000D03*
X102616000Y-119822000D03*
%TD*%
%TO.C,R2*%
X92456000Y-117922000D03*
X92456000Y-119822000D03*
%TD*%
%TO.C,R3*%
X95250000Y-113350000D03*
X95250000Y-115250000D03*
%TD*%
%TO.C,R4*%
X92456000Y-113350000D03*
X92456000Y-115250000D03*
%TD*%
D15*
%TO.C,SW1*%
X87630000Y-115140000D03*
X87630000Y-118540000D03*
%TD*%
D16*
%TO.C,SW2*%
X86695500Y-105634000D03*
X86695500Y-112934000D03*
X84485500Y-112934000D03*
X84485500Y-105634000D03*
D17*
X87345500Y-111534000D03*
X87345500Y-110034000D03*
X87345500Y-107034000D03*
D18*
X85585500Y-110784000D03*
X85585500Y-107784000D03*
%TD*%
D19*
%TO.C,U1*%
X99300000Y-114910000D03*
X103900000Y-114910000D03*
X101600000Y-114910000D03*
D20*
X101600000Y-108610000D03*
%TD*%
%TO.C,U2*%
G36*
G01*
X86920000Y-78881000D02*
X86920000Y-78039000D01*
G75*
G02*
X86999000Y-77960000I79000J0D01*
G01*
X88441000Y-77960000D01*
G75*
G02*
X88520000Y-78039000I0J-79000D01*
G01*
X88520000Y-78881000D01*
G75*
G02*
X88441000Y-78960000I-79000J0D01*
G01*
X86999000Y-78960000D01*
G75*
G02*
X86920000Y-78881000I0J79000D01*
G01*
G37*
G36*
G01*
X86920000Y-80381000D02*
X86920000Y-79539000D01*
G75*
G02*
X86999000Y-79460000I79000J0D01*
G01*
X88441000Y-79460000D01*
G75*
G02*
X88520000Y-79539000I0J-79000D01*
G01*
X88520000Y-80381000D01*
G75*
G02*
X88441000Y-80460000I-79000J0D01*
G01*
X86999000Y-80460000D01*
G75*
G02*
X86920000Y-80381000I0J79000D01*
G01*
G37*
G36*
G01*
X86920000Y-81881000D02*
X86920000Y-81039000D01*
G75*
G02*
X86999000Y-80960000I79000J0D01*
G01*
X88441000Y-80960000D01*
G75*
G02*
X88520000Y-81039000I0J-79000D01*
G01*
X88520000Y-81881000D01*
G75*
G02*
X88441000Y-81960000I-79000J0D01*
G01*
X86999000Y-81960000D01*
G75*
G02*
X86920000Y-81881000I0J79000D01*
G01*
G37*
G36*
G01*
X86920000Y-83381000D02*
X86920000Y-82539000D01*
G75*
G02*
X86999000Y-82460000I79000J0D01*
G01*
X88441000Y-82460000D01*
G75*
G02*
X88520000Y-82539000I0J-79000D01*
G01*
X88520000Y-83381000D01*
G75*
G02*
X88441000Y-83460000I-79000J0D01*
G01*
X86999000Y-83460000D01*
G75*
G02*
X86920000Y-83381000I0J79000D01*
G01*
G37*
G36*
G01*
X86920000Y-84881000D02*
X86920000Y-84039000D01*
G75*
G02*
X86999000Y-83960000I79000J0D01*
G01*
X88441000Y-83960000D01*
G75*
G02*
X88520000Y-84039000I0J-79000D01*
G01*
X88520000Y-84881000D01*
G75*
G02*
X88441000Y-84960000I-79000J0D01*
G01*
X86999000Y-84960000D01*
G75*
G02*
X86920000Y-84881000I0J79000D01*
G01*
G37*
G36*
G01*
X86920000Y-86381000D02*
X86920000Y-85539000D01*
G75*
G02*
X86999000Y-85460000I79000J0D01*
G01*
X88441000Y-85460000D01*
G75*
G02*
X88520000Y-85539000I0J-79000D01*
G01*
X88520000Y-86381000D01*
G75*
G02*
X88441000Y-86460000I-79000J0D01*
G01*
X86999000Y-86460000D01*
G75*
G02*
X86920000Y-86381000I0J79000D01*
G01*
G37*
G36*
G01*
X86920000Y-87881000D02*
X86920000Y-87039000D01*
G75*
G02*
X86999000Y-86960000I79000J0D01*
G01*
X88441000Y-86960000D01*
G75*
G02*
X88520000Y-87039000I0J-79000D01*
G01*
X88520000Y-87881000D01*
G75*
G02*
X88441000Y-87960000I-79000J0D01*
G01*
X86999000Y-87960000D01*
G75*
G02*
X86920000Y-87881000I0J79000D01*
G01*
G37*
G36*
G01*
X86920000Y-89381000D02*
X86920000Y-88539000D01*
G75*
G02*
X86999000Y-88460000I79000J0D01*
G01*
X88441000Y-88460000D01*
G75*
G02*
X88520000Y-88539000I0J-79000D01*
G01*
X88520000Y-89381000D01*
G75*
G02*
X88441000Y-89460000I-79000J0D01*
G01*
X86999000Y-89460000D01*
G75*
G02*
X86920000Y-89381000I0J79000D01*
G01*
G37*
G36*
G01*
X86920000Y-90881000D02*
X86920000Y-90039000D01*
G75*
G02*
X86999000Y-89960000I79000J0D01*
G01*
X88441000Y-89960000D01*
G75*
G02*
X88520000Y-90039000I0J-79000D01*
G01*
X88520000Y-90881000D01*
G75*
G02*
X88441000Y-90960000I-79000J0D01*
G01*
X86999000Y-90960000D01*
G75*
G02*
X86920000Y-90881000I0J79000D01*
G01*
G37*
G36*
G01*
X86920000Y-92381000D02*
X86920000Y-91539000D01*
G75*
G02*
X86999000Y-91460000I79000J0D01*
G01*
X88441000Y-91460000D01*
G75*
G02*
X88520000Y-91539000I0J-79000D01*
G01*
X88520000Y-92381000D01*
G75*
G02*
X88441000Y-92460000I-79000J0D01*
G01*
X86999000Y-92460000D01*
G75*
G02*
X86920000Y-92381000I0J79000D01*
G01*
G37*
G36*
G01*
X86920000Y-93881000D02*
X86920000Y-93039000D01*
G75*
G02*
X86999000Y-92960000I79000J0D01*
G01*
X88441000Y-92960000D01*
G75*
G02*
X88520000Y-93039000I0J-79000D01*
G01*
X88520000Y-93881000D01*
G75*
G02*
X88441000Y-93960000I-79000J0D01*
G01*
X86999000Y-93960000D01*
G75*
G02*
X86920000Y-93881000I0J79000D01*
G01*
G37*
G36*
G01*
X86920000Y-95381000D02*
X86920000Y-94539000D01*
G75*
G02*
X86999000Y-94460000I79000J0D01*
G01*
X88441000Y-94460000D01*
G75*
G02*
X88520000Y-94539000I0J-79000D01*
G01*
X88520000Y-95381000D01*
G75*
G02*
X88441000Y-95460000I-79000J0D01*
G01*
X86999000Y-95460000D01*
G75*
G02*
X86920000Y-95381000I0J79000D01*
G01*
G37*
G36*
G01*
X86920000Y-96881000D02*
X86920000Y-96039000D01*
G75*
G02*
X86999000Y-95960000I79000J0D01*
G01*
X88441000Y-95960000D01*
G75*
G02*
X88520000Y-96039000I0J-79000D01*
G01*
X88520000Y-96881000D01*
G75*
G02*
X88441000Y-96960000I-79000J0D01*
G01*
X86999000Y-96960000D01*
G75*
G02*
X86920000Y-96881000I0J79000D01*
G01*
G37*
G36*
G01*
X86920000Y-98381000D02*
X86920000Y-97539000D01*
G75*
G02*
X86999000Y-97460000I79000J0D01*
G01*
X88441000Y-97460000D01*
G75*
G02*
X88520000Y-97539000I0J-79000D01*
G01*
X88520000Y-98381000D01*
G75*
G02*
X88441000Y-98460000I-79000J0D01*
G01*
X86999000Y-98460000D01*
G75*
G02*
X86920000Y-98381000I0J79000D01*
G01*
G37*
G36*
G01*
X86920000Y-99881000D02*
X86920000Y-99039000D01*
G75*
G02*
X86999000Y-98960000I79000J0D01*
G01*
X88441000Y-98960000D01*
G75*
G02*
X88520000Y-99039000I0J-79000D01*
G01*
X88520000Y-99881000D01*
G75*
G02*
X88441000Y-99960000I-79000J0D01*
G01*
X86999000Y-99960000D01*
G75*
G02*
X86920000Y-99881000I0J79000D01*
G01*
G37*
G36*
G01*
X86920000Y-101381000D02*
X86920000Y-100539000D01*
G75*
G02*
X86999000Y-100460000I79000J0D01*
G01*
X88441000Y-100460000D01*
G75*
G02*
X88520000Y-100539000I0J-79000D01*
G01*
X88520000Y-101381000D01*
G75*
G02*
X88441000Y-101460000I-79000J0D01*
G01*
X86999000Y-101460000D01*
G75*
G02*
X86920000Y-101381000I0J79000D01*
G01*
G37*
G36*
G01*
X90141000Y-102510000D02*
X89299000Y-102510000D01*
G75*
G02*
X89220000Y-102431000I0J79000D01*
G01*
X89220000Y-100989000D01*
G75*
G02*
X89299000Y-100910000I79000J0D01*
G01*
X90141000Y-100910000D01*
G75*
G02*
X90220000Y-100989000I0J-79000D01*
G01*
X90220000Y-102431000D01*
G75*
G02*
X90141000Y-102510000I-79000J0D01*
G01*
G37*
G36*
G01*
X91641000Y-102510000D02*
X90799000Y-102510000D01*
G75*
G02*
X90720000Y-102431000I0J79000D01*
G01*
X90720000Y-100989000D01*
G75*
G02*
X90799000Y-100910000I79000J0D01*
G01*
X91641000Y-100910000D01*
G75*
G02*
X91720000Y-100989000I0J-79000D01*
G01*
X91720000Y-102431000D01*
G75*
G02*
X91641000Y-102510000I-79000J0D01*
G01*
G37*
G36*
G01*
X93141000Y-102510000D02*
X92299000Y-102510000D01*
G75*
G02*
X92220000Y-102431000I0J79000D01*
G01*
X92220000Y-100989000D01*
G75*
G02*
X92299000Y-100910000I79000J0D01*
G01*
X93141000Y-100910000D01*
G75*
G02*
X93220000Y-100989000I0J-79000D01*
G01*
X93220000Y-102431000D01*
G75*
G02*
X93141000Y-102510000I-79000J0D01*
G01*
G37*
G36*
G01*
X94641000Y-102510000D02*
X93799000Y-102510000D01*
G75*
G02*
X93720000Y-102431000I0J79000D01*
G01*
X93720000Y-100989000D01*
G75*
G02*
X93799000Y-100910000I79000J0D01*
G01*
X94641000Y-100910000D01*
G75*
G02*
X94720000Y-100989000I0J-79000D01*
G01*
X94720000Y-102431000D01*
G75*
G02*
X94641000Y-102510000I-79000J0D01*
G01*
G37*
G36*
G01*
X96141000Y-102510000D02*
X95299000Y-102510000D01*
G75*
G02*
X95220000Y-102431000I0J79000D01*
G01*
X95220000Y-100989000D01*
G75*
G02*
X95299000Y-100910000I79000J0D01*
G01*
X96141000Y-100910000D01*
G75*
G02*
X96220000Y-100989000I0J-79000D01*
G01*
X96220000Y-102431000D01*
G75*
G02*
X96141000Y-102510000I-79000J0D01*
G01*
G37*
G36*
G01*
X97641000Y-102510000D02*
X96799000Y-102510000D01*
G75*
G02*
X96720000Y-102431000I0J79000D01*
G01*
X96720000Y-100989000D01*
G75*
G02*
X96799000Y-100910000I79000J0D01*
G01*
X97641000Y-100910000D01*
G75*
G02*
X97720000Y-100989000I0J-79000D01*
G01*
X97720000Y-102431000D01*
G75*
G02*
X97641000Y-102510000I-79000J0D01*
G01*
G37*
G36*
G01*
X99141000Y-102510000D02*
X98299000Y-102510000D01*
G75*
G02*
X98220000Y-102431000I0J79000D01*
G01*
X98220000Y-100989000D01*
G75*
G02*
X98299000Y-100910000I79000J0D01*
G01*
X99141000Y-100910000D01*
G75*
G02*
X99220000Y-100989000I0J-79000D01*
G01*
X99220000Y-102431000D01*
G75*
G02*
X99141000Y-102510000I-79000J0D01*
G01*
G37*
G36*
G01*
X100641000Y-102510000D02*
X99799000Y-102510000D01*
G75*
G02*
X99720000Y-102431000I0J79000D01*
G01*
X99720000Y-100989000D01*
G75*
G02*
X99799000Y-100910000I79000J0D01*
G01*
X100641000Y-100910000D01*
G75*
G02*
X100720000Y-100989000I0J-79000D01*
G01*
X100720000Y-102431000D01*
G75*
G02*
X100641000Y-102510000I-79000J0D01*
G01*
G37*
G36*
G01*
X102141000Y-102510000D02*
X101299000Y-102510000D01*
G75*
G02*
X101220000Y-102431000I0J79000D01*
G01*
X101220000Y-100989000D01*
G75*
G02*
X101299000Y-100910000I79000J0D01*
G01*
X102141000Y-100910000D01*
G75*
G02*
X102220000Y-100989000I0J-79000D01*
G01*
X102220000Y-102431000D01*
G75*
G02*
X102141000Y-102510000I-79000J0D01*
G01*
G37*
G36*
G01*
X103641000Y-102510000D02*
X102799000Y-102510000D01*
G75*
G02*
X102720000Y-102431000I0J79000D01*
G01*
X102720000Y-100989000D01*
G75*
G02*
X102799000Y-100910000I79000J0D01*
G01*
X103641000Y-100910000D01*
G75*
G02*
X103720000Y-100989000I0J-79000D01*
G01*
X103720000Y-102431000D01*
G75*
G02*
X103641000Y-102510000I-79000J0D01*
G01*
G37*
G36*
G01*
X106020000Y-100539000D02*
X106020000Y-101381000D01*
G75*
G02*
X105941000Y-101460000I-79000J0D01*
G01*
X104499000Y-101460000D01*
G75*
G02*
X104420000Y-101381000I0J79000D01*
G01*
X104420000Y-100539000D01*
G75*
G02*
X104499000Y-100460000I79000J0D01*
G01*
X105941000Y-100460000D01*
G75*
G02*
X106020000Y-100539000I0J-79000D01*
G01*
G37*
G36*
G01*
X106020000Y-99039000D02*
X106020000Y-99881000D01*
G75*
G02*
X105941000Y-99960000I-79000J0D01*
G01*
X104499000Y-99960000D01*
G75*
G02*
X104420000Y-99881000I0J79000D01*
G01*
X104420000Y-99039000D01*
G75*
G02*
X104499000Y-98960000I79000J0D01*
G01*
X105941000Y-98960000D01*
G75*
G02*
X106020000Y-99039000I0J-79000D01*
G01*
G37*
G36*
G01*
X106020000Y-97539000D02*
X106020000Y-98381000D01*
G75*
G02*
X105941000Y-98460000I-79000J0D01*
G01*
X104499000Y-98460000D01*
G75*
G02*
X104420000Y-98381000I0J79000D01*
G01*
X104420000Y-97539000D01*
G75*
G02*
X104499000Y-97460000I79000J0D01*
G01*
X105941000Y-97460000D01*
G75*
G02*
X106020000Y-97539000I0J-79000D01*
G01*
G37*
G36*
G01*
X106020000Y-96039000D02*
X106020000Y-96881000D01*
G75*
G02*
X105941000Y-96960000I-79000J0D01*
G01*
X104499000Y-96960000D01*
G75*
G02*
X104420000Y-96881000I0J79000D01*
G01*
X104420000Y-96039000D01*
G75*
G02*
X104499000Y-95960000I79000J0D01*
G01*
X105941000Y-95960000D01*
G75*
G02*
X106020000Y-96039000I0J-79000D01*
G01*
G37*
G36*
G01*
X106020000Y-94539000D02*
X106020000Y-95381000D01*
G75*
G02*
X105941000Y-95460000I-79000J0D01*
G01*
X104499000Y-95460000D01*
G75*
G02*
X104420000Y-95381000I0J79000D01*
G01*
X104420000Y-94539000D01*
G75*
G02*
X104499000Y-94460000I79000J0D01*
G01*
X105941000Y-94460000D01*
G75*
G02*
X106020000Y-94539000I0J-79000D01*
G01*
G37*
G36*
G01*
X106020000Y-93039000D02*
X106020000Y-93881000D01*
G75*
G02*
X105941000Y-93960000I-79000J0D01*
G01*
X104499000Y-93960000D01*
G75*
G02*
X104420000Y-93881000I0J79000D01*
G01*
X104420000Y-93039000D01*
G75*
G02*
X104499000Y-92960000I79000J0D01*
G01*
X105941000Y-92960000D01*
G75*
G02*
X106020000Y-93039000I0J-79000D01*
G01*
G37*
G36*
G01*
X106020000Y-91539000D02*
X106020000Y-92381000D01*
G75*
G02*
X105941000Y-92460000I-79000J0D01*
G01*
X104499000Y-92460000D01*
G75*
G02*
X104420000Y-92381000I0J79000D01*
G01*
X104420000Y-91539000D01*
G75*
G02*
X104499000Y-91460000I79000J0D01*
G01*
X105941000Y-91460000D01*
G75*
G02*
X106020000Y-91539000I0J-79000D01*
G01*
G37*
G36*
G01*
X106020000Y-90039000D02*
X106020000Y-90881000D01*
G75*
G02*
X105941000Y-90960000I-79000J0D01*
G01*
X104499000Y-90960000D01*
G75*
G02*
X104420000Y-90881000I0J79000D01*
G01*
X104420000Y-90039000D01*
G75*
G02*
X104499000Y-89960000I79000J0D01*
G01*
X105941000Y-89960000D01*
G75*
G02*
X106020000Y-90039000I0J-79000D01*
G01*
G37*
G36*
G01*
X106020000Y-88539000D02*
X106020000Y-89381000D01*
G75*
G02*
X105941000Y-89460000I-79000J0D01*
G01*
X104499000Y-89460000D01*
G75*
G02*
X104420000Y-89381000I0J79000D01*
G01*
X104420000Y-88539000D01*
G75*
G02*
X104499000Y-88460000I79000J0D01*
G01*
X105941000Y-88460000D01*
G75*
G02*
X106020000Y-88539000I0J-79000D01*
G01*
G37*
G36*
G01*
X106020000Y-87039000D02*
X106020000Y-87881000D01*
G75*
G02*
X105941000Y-87960000I-79000J0D01*
G01*
X104499000Y-87960000D01*
G75*
G02*
X104420000Y-87881000I0J79000D01*
G01*
X104420000Y-87039000D01*
G75*
G02*
X104499000Y-86960000I79000J0D01*
G01*
X105941000Y-86960000D01*
G75*
G02*
X106020000Y-87039000I0J-79000D01*
G01*
G37*
G36*
G01*
X106020000Y-85539000D02*
X106020000Y-86381000D01*
G75*
G02*
X105941000Y-86460000I-79000J0D01*
G01*
X104499000Y-86460000D01*
G75*
G02*
X104420000Y-86381000I0J79000D01*
G01*
X104420000Y-85539000D01*
G75*
G02*
X104499000Y-85460000I79000J0D01*
G01*
X105941000Y-85460000D01*
G75*
G02*
X106020000Y-85539000I0J-79000D01*
G01*
G37*
G36*
G01*
X106020000Y-84039000D02*
X106020000Y-84881000D01*
G75*
G02*
X105941000Y-84960000I-79000J0D01*
G01*
X104499000Y-84960000D01*
G75*
G02*
X104420000Y-84881000I0J79000D01*
G01*
X104420000Y-84039000D01*
G75*
G02*
X104499000Y-83960000I79000J0D01*
G01*
X105941000Y-83960000D01*
G75*
G02*
X106020000Y-84039000I0J-79000D01*
G01*
G37*
G36*
G01*
X106020000Y-82539000D02*
X106020000Y-83381000D01*
G75*
G02*
X105941000Y-83460000I-79000J0D01*
G01*
X104499000Y-83460000D01*
G75*
G02*
X104420000Y-83381000I0J79000D01*
G01*
X104420000Y-82539000D01*
G75*
G02*
X104499000Y-82460000I79000J0D01*
G01*
X105941000Y-82460000D01*
G75*
G02*
X106020000Y-82539000I0J-79000D01*
G01*
G37*
G36*
G01*
X106020000Y-81039000D02*
X106020000Y-81881000D01*
G75*
G02*
X105941000Y-81960000I-79000J0D01*
G01*
X104499000Y-81960000D01*
G75*
G02*
X104420000Y-81881000I0J79000D01*
G01*
X104420000Y-81039000D01*
G75*
G02*
X104499000Y-80960000I79000J0D01*
G01*
X105941000Y-80960000D01*
G75*
G02*
X106020000Y-81039000I0J-79000D01*
G01*
G37*
G36*
G01*
X106020000Y-79539000D02*
X106020000Y-80381000D01*
G75*
G02*
X105941000Y-80460000I-79000J0D01*
G01*
X104499000Y-80460000D01*
G75*
G02*
X104420000Y-80381000I0J79000D01*
G01*
X104420000Y-79539000D01*
G75*
G02*
X104499000Y-79460000I79000J0D01*
G01*
X105941000Y-79460000D01*
G75*
G02*
X106020000Y-79539000I0J-79000D01*
G01*
G37*
G36*
G01*
X106020000Y-78039000D02*
X106020000Y-78881000D01*
G75*
G02*
X105941000Y-78960000I-79000J0D01*
G01*
X104499000Y-78960000D01*
G75*
G02*
X104420000Y-78881000I0J79000D01*
G01*
X104420000Y-78039000D01*
G75*
G02*
X104499000Y-77960000I79000J0D01*
G01*
X105941000Y-77960000D01*
G75*
G02*
X106020000Y-78039000I0J-79000D01*
G01*
G37*
G36*
G01*
X94430000Y-84529800D02*
X94430000Y-85540200D01*
G75*
G02*
X94335200Y-85635000I-94800J0D01*
G01*
X93324800Y-85635000D01*
G75*
G02*
X93230000Y-85540200I0J94800D01*
G01*
X93230000Y-84529800D01*
G75*
G02*
X93324800Y-84435000I94800J0D01*
G01*
X94335200Y-84435000D01*
G75*
G02*
X94430000Y-84529800I0J-94800D01*
G01*
G37*
G36*
G01*
X95930000Y-84529800D02*
X95930000Y-85540200D01*
G75*
G02*
X95835200Y-85635000I-94800J0D01*
G01*
X94824800Y-85635000D01*
G75*
G02*
X94730000Y-85540200I0J94800D01*
G01*
X94730000Y-84529800D01*
G75*
G02*
X94824800Y-84435000I94800J0D01*
G01*
X95835200Y-84435000D01*
G75*
G02*
X95930000Y-84529800I0J-94800D01*
G01*
G37*
G36*
G01*
X97430000Y-84529800D02*
X97430000Y-85540200D01*
G75*
G02*
X97335200Y-85635000I-94800J0D01*
G01*
X96324800Y-85635000D01*
G75*
G02*
X96230000Y-85540200I0J94800D01*
G01*
X96230000Y-84529800D01*
G75*
G02*
X96324800Y-84435000I94800J0D01*
G01*
X97335200Y-84435000D01*
G75*
G02*
X97430000Y-84529800I0J-94800D01*
G01*
G37*
G36*
G01*
X94430000Y-86029800D02*
X94430000Y-87040200D01*
G75*
G02*
X94335200Y-87135000I-94800J0D01*
G01*
X93324800Y-87135000D01*
G75*
G02*
X93230000Y-87040200I0J94800D01*
G01*
X93230000Y-86029800D01*
G75*
G02*
X93324800Y-85935000I94800J0D01*
G01*
X94335200Y-85935000D01*
G75*
G02*
X94430000Y-86029800I0J-94800D01*
G01*
G37*
G36*
G01*
X95930000Y-86029800D02*
X95930000Y-87040200D01*
G75*
G02*
X95835200Y-87135000I-94800J0D01*
G01*
X94824800Y-87135000D01*
G75*
G02*
X94730000Y-87040200I0J94800D01*
G01*
X94730000Y-86029800D01*
G75*
G02*
X94824800Y-85935000I94800J0D01*
G01*
X95835200Y-85935000D01*
G75*
G02*
X95930000Y-86029800I0J-94800D01*
G01*
G37*
G36*
G01*
X97430000Y-86029800D02*
X97430000Y-87040200D01*
G75*
G02*
X97335200Y-87135000I-94800J0D01*
G01*
X96324800Y-87135000D01*
G75*
G02*
X96230000Y-87040200I0J94800D01*
G01*
X96230000Y-86029800D01*
G75*
G02*
X96324800Y-85935000I94800J0D01*
G01*
X97335200Y-85935000D01*
G75*
G02*
X97430000Y-86029800I0J-94800D01*
G01*
G37*
G36*
G01*
X94430000Y-87529800D02*
X94430000Y-88540200D01*
G75*
G02*
X94335200Y-88635000I-94800J0D01*
G01*
X93324800Y-88635000D01*
G75*
G02*
X93230000Y-88540200I0J94800D01*
G01*
X93230000Y-87529800D01*
G75*
G02*
X93324800Y-87435000I94800J0D01*
G01*
X94335200Y-87435000D01*
G75*
G02*
X94430000Y-87529800I0J-94800D01*
G01*
G37*
G36*
G01*
X95930000Y-87529800D02*
X95930000Y-88540200D01*
G75*
G02*
X95835200Y-88635000I-94800J0D01*
G01*
X94824800Y-88635000D01*
G75*
G02*
X94730000Y-88540200I0J94800D01*
G01*
X94730000Y-87529800D01*
G75*
G02*
X94824800Y-87435000I94800J0D01*
G01*
X95835200Y-87435000D01*
G75*
G02*
X95930000Y-87529800I0J-94800D01*
G01*
G37*
G36*
G01*
X97430000Y-87529800D02*
X97430000Y-88540200D01*
G75*
G02*
X97335200Y-88635000I-94800J0D01*
G01*
X96324800Y-88635000D01*
G75*
G02*
X96230000Y-88540200I0J94800D01*
G01*
X96230000Y-87529800D01*
G75*
G02*
X96324800Y-87435000I94800J0D01*
G01*
X97335200Y-87435000D01*
G75*
G02*
X97430000Y-87529800I0J-94800D01*
G01*
G37*
D21*
X93820000Y-85793600D03*
X94582000Y-84980800D03*
X96106000Y-84980800D03*
X96817200Y-85793600D03*
X96817200Y-87266800D03*
X96055200Y-87978000D03*
X94582000Y-87978000D03*
X93820000Y-87266800D03*
X94582000Y-86504800D03*
X96106000Y-86454000D03*
X95344000Y-85793600D03*
X95293200Y-87266800D03*
%TD*%
D22*
%TO.C,C7*%
X100568000Y-120396000D03*
X98568000Y-120396000D03*
%TD*%
%TO.C,C8*%
X96504000Y-118872000D03*
X94504000Y-118872000D03*
%TD*%
D23*
%TO.C,J2*%
X85090000Y-101600000D03*
X85090000Y-100330000D03*
X85090000Y-99060000D03*
X85090000Y-97790000D03*
X85090000Y-96520000D03*
X85090000Y-95250000D03*
X85090000Y-93980000D03*
X85090000Y-92710000D03*
X85090000Y-91440000D03*
X85090000Y-90170000D03*
X85090000Y-88900000D03*
X85090000Y-87630000D03*
X85090000Y-86360000D03*
X85090000Y-85090000D03*
X85090000Y-83820000D03*
D24*
X85090000Y-82550000D03*
%TD*%
D23*
%TO.C,J3*%
X107950000Y-111760000D03*
X107950000Y-110490000D03*
X107950000Y-109220000D03*
X107950000Y-107950000D03*
X107950000Y-106680000D03*
X107950000Y-105410000D03*
X107950000Y-104140000D03*
X107950000Y-102870000D03*
X107950000Y-101600000D03*
X107950000Y-100330000D03*
X107950000Y-99060000D03*
X107950000Y-97790000D03*
X107950000Y-96520000D03*
X107950000Y-95250000D03*
X107950000Y-93980000D03*
X107950000Y-92710000D03*
X107950000Y-91440000D03*
X107950000Y-90170000D03*
X107950000Y-88900000D03*
X107950000Y-87630000D03*
X107950000Y-86360000D03*
X107950000Y-85090000D03*
X107950000Y-83820000D03*
D24*
X107950000Y-82550000D03*
%TD*%
D25*
%TO.C,D1*%
X92380000Y-110450000D03*
X95580000Y-110450000D03*
X92380000Y-105450000D03*
X95580000Y-105450000D03*
%TD*%
D14*
%TO.C,R5*%
X89662000Y-104968000D03*
X89662000Y-106868000D03*
%TD*%
D22*
%TO.C,C9*%
X103330000Y-125666000D03*
X105330000Y-125666000D03*
%TD*%
D26*
%TO.C,D2*%
X107426000Y-118554000D03*
X105426000Y-119504000D03*
X105426000Y-117604000D03*
%TD*%
D27*
%TO.C,D3*%
X87931000Y-125666000D03*
X90631000Y-125666000D03*
%TD*%
D14*
%TO.C,R6*%
X104584000Y-106233000D03*
X104584000Y-104333000D03*
%TD*%
%TO.C,R7*%
X85534500Y-123759000D03*
X85534500Y-121859000D03*
%TD*%
D28*
%TO.C,U3*%
X107649000Y-121414000D03*
X107649000Y-123314000D03*
X104949000Y-123314000D03*
X104949000Y-122364000D03*
X104949000Y-121414000D03*
%TD*%
D10*
%TO.C,C10*%
X107061000Y-113935000D03*
X107061000Y-115935000D03*
%TD*%
D29*
%TO.C,U4*%
X95312000Y-57658000D03*
X96012000Y-57658000D03*
X96712000Y-57658000D03*
X97412000Y-57658000D03*
X98112000Y-57658000D03*
X98812000Y-57658000D03*
X99512000Y-57658000D03*
X100212000Y-57658000D03*
X100912000Y-57658000D03*
X101612000Y-57658000D03*
X102312000Y-57658000D03*
X103012000Y-57658000D03*
%TD*%
D18*
%TO.C,SW3*%
X108661000Y-74588500D03*
X108661000Y-71588500D03*
%TD*%
M02*
