%TF.GenerationSoftware,KiCad,Pcbnew,(5.1.6)-1*%
%TF.CreationDate,2020-07-20T18:07:10+02:00*%
%TF.ProjectId,ESP32-S2-WROOM,45535033-322d-4533-922d-57524f4f4d2e,rev?*%
%TF.SameCoordinates,Original*%
%TF.FileFunction,Legend,Bot*%
%TF.FilePolarity,Positive*%
%FSLAX46Y46*%
G04 Gerber Fmt 4.6, Leading zero omitted, Abs format (unit mm)*
G04 Created by KiCad (PCBNEW (5.1.6)-1) date 2020-07-20 18:07:10*
%MOMM*%
%LPD*%
G01*
G04 APERTURE LIST*
%ADD10C,0.100000*%
%ADD11C,0.150000*%
%ADD12C,0.200000*%
%ADD13C,0.120000*%
G04 APERTURE END LIST*
D10*
X89302714Y-60247571D02*
X89195571Y-60283285D01*
X89017000Y-60283285D01*
X88945571Y-60247571D01*
X88909857Y-60211857D01*
X88874142Y-60140428D01*
X88874142Y-60069000D01*
X88909857Y-59997571D01*
X88945571Y-59961857D01*
X89017000Y-59926142D01*
X89159857Y-59890428D01*
X89231285Y-59854714D01*
X89267000Y-59819000D01*
X89302714Y-59747571D01*
X89302714Y-59676142D01*
X89267000Y-59604714D01*
X89231285Y-59569000D01*
X89159857Y-59533285D01*
X88981285Y-59533285D01*
X88874142Y-59569000D01*
X88552714Y-60283285D02*
X88552714Y-59533285D01*
X88374142Y-59533285D01*
X88267000Y-59569000D01*
X88195571Y-59640428D01*
X88159857Y-59711857D01*
X88124142Y-59854714D01*
X88124142Y-59961857D01*
X88159857Y-60104714D01*
X88195571Y-60176142D01*
X88267000Y-60247571D01*
X88374142Y-60283285D01*
X88552714Y-60283285D01*
X87838428Y-60069000D02*
X87481285Y-60069000D01*
X87909857Y-60283285D02*
X87659857Y-59533285D01*
X87409857Y-60283285D01*
X89284857Y-57707571D02*
X89177714Y-57743285D01*
X88999142Y-57743285D01*
X88927714Y-57707571D01*
X88892000Y-57671857D01*
X88856285Y-57600428D01*
X88856285Y-57529000D01*
X88892000Y-57457571D01*
X88927714Y-57421857D01*
X88999142Y-57386142D01*
X89142000Y-57350428D01*
X89213428Y-57314714D01*
X89249142Y-57279000D01*
X89284857Y-57207571D01*
X89284857Y-57136142D01*
X89249142Y-57064714D01*
X89213428Y-57029000D01*
X89142000Y-56993285D01*
X88963428Y-56993285D01*
X88856285Y-57029000D01*
X88106285Y-57671857D02*
X88142000Y-57707571D01*
X88249142Y-57743285D01*
X88320571Y-57743285D01*
X88427714Y-57707571D01*
X88499142Y-57636142D01*
X88534857Y-57564714D01*
X88570571Y-57421857D01*
X88570571Y-57314714D01*
X88534857Y-57171857D01*
X88499142Y-57100428D01*
X88427714Y-57029000D01*
X88320571Y-56993285D01*
X88249142Y-56993285D01*
X88142000Y-57029000D01*
X88106285Y-57064714D01*
X87427714Y-57743285D02*
X87784857Y-57743285D01*
X87784857Y-56993285D01*
X89463428Y-54453285D02*
X88999142Y-54453285D01*
X89249142Y-54739000D01*
X89142000Y-54739000D01*
X89070571Y-54774714D01*
X89034857Y-54810428D01*
X88999142Y-54881857D01*
X88999142Y-55060428D01*
X89034857Y-55131857D01*
X89070571Y-55167571D01*
X89142000Y-55203285D01*
X89356285Y-55203285D01*
X89427714Y-55167571D01*
X89463428Y-55131857D01*
X88677714Y-55131857D02*
X88642000Y-55167571D01*
X88677714Y-55203285D01*
X88713428Y-55167571D01*
X88677714Y-55131857D01*
X88677714Y-55203285D01*
X88392000Y-54453285D02*
X87927714Y-54453285D01*
X88177714Y-54739000D01*
X88070571Y-54739000D01*
X87999142Y-54774714D01*
X87963428Y-54810428D01*
X87927714Y-54881857D01*
X87927714Y-55060428D01*
X87963428Y-55131857D01*
X87999142Y-55167571D01*
X88070571Y-55203285D01*
X88284857Y-55203285D01*
X88356285Y-55167571D01*
X88392000Y-55131857D01*
X87677714Y-54703285D02*
X87499142Y-55203285D01*
X87320571Y-54703285D01*
X88963428Y-51949000D02*
X89034857Y-51913285D01*
X89142000Y-51913285D01*
X89249142Y-51949000D01*
X89320571Y-52020428D01*
X89356285Y-52091857D01*
X89392000Y-52234714D01*
X89392000Y-52341857D01*
X89356285Y-52484714D01*
X89320571Y-52556142D01*
X89249142Y-52627571D01*
X89142000Y-52663285D01*
X89070571Y-52663285D01*
X88963428Y-52627571D01*
X88927714Y-52591857D01*
X88927714Y-52341857D01*
X89070571Y-52341857D01*
X88606285Y-52663285D02*
X88606285Y-51913285D01*
X88177714Y-52663285D01*
X88177714Y-51913285D01*
X87820571Y-52663285D02*
X87820571Y-51913285D01*
X87642000Y-51913285D01*
X87534857Y-51949000D01*
X87463428Y-52020428D01*
X87427714Y-52091857D01*
X87392000Y-52234714D01*
X87392000Y-52341857D01*
X87427714Y-52484714D01*
X87463428Y-52556142D01*
X87534857Y-52627571D01*
X87642000Y-52663285D01*
X87820571Y-52663285D01*
D11*
X104043809Y-45505714D02*
X103853333Y-46172380D01*
X103662857Y-45696190D01*
X103472380Y-46172380D01*
X103281904Y-45505714D01*
X102996190Y-45505714D02*
X102805714Y-46172380D01*
X102615238Y-45696190D01*
X102424761Y-46172380D01*
X102234285Y-45505714D01*
X101948571Y-45505714D02*
X101758095Y-46172380D01*
X101567619Y-45696190D01*
X101377142Y-46172380D01*
X101186666Y-45505714D01*
X100805714Y-46077142D02*
X100758095Y-46124761D01*
X100805714Y-46172380D01*
X100853333Y-46124761D01*
X100805714Y-46077142D01*
X100805714Y-46172380D01*
X100329523Y-46172380D02*
X100329523Y-45505714D01*
X100329523Y-45600952D02*
X100281904Y-45553333D01*
X100186666Y-45505714D01*
X100043809Y-45505714D01*
X99948571Y-45553333D01*
X99900952Y-45648571D01*
X99900952Y-46172380D01*
X99900952Y-45648571D02*
X99853333Y-45553333D01*
X99758095Y-45505714D01*
X99615238Y-45505714D01*
X99520000Y-45553333D01*
X99472380Y-45648571D01*
X99472380Y-46172380D01*
X98853333Y-46172380D02*
X98948571Y-46124761D01*
X98996190Y-46077142D01*
X99043809Y-45981904D01*
X99043809Y-45696190D01*
X98996190Y-45600952D01*
X98948571Y-45553333D01*
X98853333Y-45505714D01*
X98710476Y-45505714D01*
X98615238Y-45553333D01*
X98567619Y-45600952D01*
X98520000Y-45696190D01*
X98520000Y-45981904D01*
X98567619Y-46077142D01*
X98615238Y-46124761D01*
X98710476Y-46172380D01*
X98853333Y-46172380D01*
X98091428Y-46172380D02*
X98091428Y-45505714D01*
X98091428Y-45696190D02*
X98043809Y-45600952D01*
X97996190Y-45553333D01*
X97900952Y-45505714D01*
X97805714Y-45505714D01*
X97472380Y-45505714D02*
X97472380Y-46505714D01*
X97472380Y-45553333D02*
X97377142Y-45505714D01*
X97186666Y-45505714D01*
X97091428Y-45553333D01*
X97043809Y-45600952D01*
X96996190Y-45696190D01*
X96996190Y-45981904D01*
X97043809Y-46077142D01*
X97091428Y-46124761D01*
X97186666Y-46172380D01*
X97377142Y-46172380D01*
X97472380Y-46124761D01*
X96567619Y-46172380D02*
X96567619Y-45172380D01*
X96139047Y-46172380D02*
X96139047Y-45648571D01*
X96186666Y-45553333D01*
X96281904Y-45505714D01*
X96424761Y-45505714D01*
X96520000Y-45553333D01*
X96567619Y-45600952D01*
X95281904Y-46124761D02*
X95377142Y-46172380D01*
X95567619Y-46172380D01*
X95662857Y-46124761D01*
X95710476Y-46029523D01*
X95710476Y-45648571D01*
X95662857Y-45553333D01*
X95567619Y-45505714D01*
X95377142Y-45505714D01*
X95281904Y-45553333D01*
X95234285Y-45648571D01*
X95234285Y-45743809D01*
X95710476Y-45839047D01*
X94377142Y-46172380D02*
X94377142Y-45648571D01*
X94424761Y-45553333D01*
X94520000Y-45505714D01*
X94710476Y-45505714D01*
X94805714Y-45553333D01*
X94377142Y-46124761D02*
X94472380Y-46172380D01*
X94710476Y-46172380D01*
X94805714Y-46124761D01*
X94853333Y-46029523D01*
X94853333Y-45934285D01*
X94805714Y-45839047D01*
X94710476Y-45791428D01*
X94472380Y-45791428D01*
X94377142Y-45743809D01*
X93900952Y-45505714D02*
X93900952Y-46172380D01*
X93900952Y-45600952D02*
X93853333Y-45553333D01*
X93758095Y-45505714D01*
X93615238Y-45505714D01*
X93520000Y-45553333D01*
X93472380Y-45648571D01*
X93472380Y-46172380D01*
X93043809Y-46124761D02*
X92948571Y-46172380D01*
X92758095Y-46172380D01*
X92662857Y-46124761D01*
X92615238Y-46029523D01*
X92615238Y-45981904D01*
X92662857Y-45886666D01*
X92758095Y-45839047D01*
X92900952Y-45839047D01*
X92996190Y-45791428D01*
X93043809Y-45696190D01*
X93043809Y-45648571D01*
X92996190Y-45553333D01*
X92900952Y-45505714D01*
X92758095Y-45505714D01*
X92662857Y-45553333D01*
X92186666Y-46077142D02*
X92139047Y-46124761D01*
X92186666Y-46172380D01*
X92234285Y-46124761D01*
X92186666Y-46077142D01*
X92186666Y-46172380D01*
X91281904Y-46124761D02*
X91377142Y-46172380D01*
X91567619Y-46172380D01*
X91662857Y-46124761D01*
X91710476Y-46077142D01*
X91758095Y-45981904D01*
X91758095Y-45696190D01*
X91710476Y-45600952D01*
X91662857Y-45553333D01*
X91567619Y-45505714D01*
X91377142Y-45505714D01*
X91281904Y-45553333D01*
X90710476Y-46172380D02*
X90805714Y-46124761D01*
X90853333Y-46077142D01*
X90900952Y-45981904D01*
X90900952Y-45696190D01*
X90853333Y-45600952D01*
X90805714Y-45553333D01*
X90710476Y-45505714D01*
X90567619Y-45505714D01*
X90472380Y-45553333D01*
X90424761Y-45600952D01*
X90377142Y-45696190D01*
X90377142Y-45981904D01*
X90424761Y-46077142D01*
X90472380Y-46124761D01*
X90567619Y-46172380D01*
X90710476Y-46172380D01*
X89948571Y-46172380D02*
X89948571Y-45505714D01*
X89948571Y-45600952D02*
X89900952Y-45553333D01*
X89805714Y-45505714D01*
X89662857Y-45505714D01*
X89567619Y-45553333D01*
X89520000Y-45648571D01*
X89520000Y-46172380D01*
X89520000Y-45648571D02*
X89472380Y-45553333D01*
X89377142Y-45505714D01*
X89234285Y-45505714D01*
X89139047Y-45553333D01*
X89091428Y-45648571D01*
X89091428Y-46172380D01*
X99827885Y-48188571D02*
X99494552Y-48188571D01*
X99351695Y-48712380D02*
X99827885Y-48712380D01*
X99827885Y-47712380D01*
X99351695Y-47712380D01*
X98970742Y-48664761D02*
X98827885Y-48712380D01*
X98589790Y-48712380D01*
X98494552Y-48664761D01*
X98446933Y-48617142D01*
X98399314Y-48521904D01*
X98399314Y-48426666D01*
X98446933Y-48331428D01*
X98494552Y-48283809D01*
X98589790Y-48236190D01*
X98780266Y-48188571D01*
X98875504Y-48140952D01*
X98923123Y-48093333D01*
X98970742Y-47998095D01*
X98970742Y-47902857D01*
X98923123Y-47807619D01*
X98875504Y-47760000D01*
X98780266Y-47712380D01*
X98542171Y-47712380D01*
X98399314Y-47760000D01*
X97970742Y-48712380D02*
X97970742Y-47712380D01*
X97589790Y-47712380D01*
X97494552Y-47760000D01*
X97446933Y-47807619D01*
X97399314Y-47902857D01*
X97399314Y-48045714D01*
X97446933Y-48140952D01*
X97494552Y-48188571D01*
X97589790Y-48236190D01*
X97970742Y-48236190D01*
X97065980Y-47712380D02*
X96446933Y-47712380D01*
X96780266Y-48093333D01*
X96637409Y-48093333D01*
X96542171Y-48140952D01*
X96494552Y-48188571D01*
X96446933Y-48283809D01*
X96446933Y-48521904D01*
X96494552Y-48617142D01*
X96542171Y-48664761D01*
X96637409Y-48712380D01*
X96923123Y-48712380D01*
X97018361Y-48664761D01*
X97065980Y-48617142D01*
X96065980Y-47807619D02*
X96018361Y-47760000D01*
X95923123Y-47712380D01*
X95685028Y-47712380D01*
X95589790Y-47760000D01*
X95542171Y-47807619D01*
X95494552Y-47902857D01*
X95494552Y-47998095D01*
X95542171Y-48140952D01*
X96113600Y-48712380D01*
X95494552Y-48712380D01*
X95065980Y-48331428D02*
X94304076Y-48331428D01*
X93875504Y-48664761D02*
X93732647Y-48712380D01*
X93494552Y-48712380D01*
X93399314Y-48664761D01*
X93351695Y-48617142D01*
X93304076Y-48521904D01*
X93304076Y-48426666D01*
X93351695Y-48331428D01*
X93399314Y-48283809D01*
X93494552Y-48236190D01*
X93685028Y-48188571D01*
X93780266Y-48140952D01*
X93827885Y-48093333D01*
X93875504Y-47998095D01*
X93875504Y-47902857D01*
X93827885Y-47807619D01*
X93780266Y-47760000D01*
X93685028Y-47712380D01*
X93446933Y-47712380D01*
X93304076Y-47760000D01*
X92923123Y-47807619D02*
X92875504Y-47760000D01*
X92780266Y-47712380D01*
X92542171Y-47712380D01*
X92446933Y-47760000D01*
X92399314Y-47807619D01*
X92351695Y-47902857D01*
X92351695Y-47998095D01*
X92399314Y-48140952D01*
X92970742Y-48712380D01*
X92351695Y-48712380D01*
D12*
%TO.C,REF\u002A\u002A*%
X99854657Y-66461656D02*
X99979827Y-66432574D01*
X99183679Y-64411433D02*
X99306516Y-64578360D01*
X99306516Y-64578360D02*
X99432400Y-64772181D01*
X99432400Y-64772181D02*
X99546415Y-64966943D01*
X99546415Y-64966943D02*
X99644530Y-65160735D01*
X99644530Y-65160735D02*
X99682499Y-65279275D01*
X99634662Y-66279810D02*
X99483977Y-66146511D01*
X99483977Y-66146511D02*
X99441854Y-66070185D01*
X99473654Y-66320534D02*
X99659862Y-66411751D01*
X99659862Y-66411751D02*
X99854657Y-66461656D01*
X99580984Y-65379856D02*
X99414948Y-65514674D01*
X99414948Y-65514674D02*
X99312929Y-65697838D01*
X99312929Y-65697838D02*
X99277920Y-65903100D01*
X99277920Y-65903100D02*
X99312917Y-66104211D01*
X99312917Y-66104211D02*
X99420914Y-66274922D01*
X99420914Y-66274922D02*
X99473654Y-66320534D01*
X99716084Y-65965102D02*
X99716084Y-65965095D01*
X99846340Y-65748657D02*
X99958152Y-65918126D01*
X99958152Y-65918126D02*
X99944540Y-65968618D01*
X99716084Y-65965095D02*
X99765752Y-65764300D01*
X99765752Y-65764300D02*
X99846340Y-65748657D01*
X100004956Y-66084126D02*
X100004956Y-66084126D01*
X99837441Y-65625241D02*
X99649003Y-65699118D01*
X99649003Y-65699118D02*
X99579204Y-65898566D01*
X99634662Y-66279809D02*
X99634662Y-66279810D01*
X99682499Y-65279275D02*
X99580984Y-65379856D01*
X99441854Y-66070185D02*
X99382286Y-65875041D01*
X99382286Y-65875041D02*
X99403127Y-65776242D01*
X94445801Y-63947782D02*
X94658781Y-63780508D01*
X94658781Y-63780508D02*
X94886729Y-63631842D01*
X94886729Y-63631842D02*
X95127436Y-63502382D01*
X95127436Y-63502382D02*
X95378694Y-63392727D01*
X95378694Y-63392727D02*
X95638294Y-63303476D01*
X95638294Y-63303476D02*
X95904030Y-63235225D01*
X95904030Y-63235225D02*
X96173692Y-63188575D01*
X96173692Y-63188575D02*
X96445074Y-63164124D01*
X96445074Y-63164124D02*
X96715966Y-63162469D01*
X96715966Y-63162469D02*
X96984161Y-63184210D01*
X96984161Y-63184210D02*
X97160370Y-63211997D01*
X99403127Y-65776242D02*
X99514286Y-65584460D01*
X99514286Y-65584460D02*
X99687502Y-65473422D01*
X99687502Y-65473422D02*
X99888869Y-65450396D01*
X99888869Y-65450396D02*
X100084483Y-65522653D01*
X100084483Y-65522653D02*
X100180631Y-65609522D01*
X100180631Y-65609522D02*
X100263828Y-65800292D01*
X100263828Y-65800292D02*
X100252523Y-66017310D01*
X100252523Y-66017310D02*
X100156191Y-66203982D01*
X100156191Y-66203982D02*
X100069422Y-66273747D01*
X99979827Y-66432574D02*
X99979827Y-66432573D01*
X99837441Y-66155488D02*
X100004956Y-66084126D01*
X100004956Y-66084126D02*
X100100832Y-65892181D01*
X100100832Y-65892181D02*
X100023318Y-65701489D01*
X100023318Y-65701489D02*
X99837441Y-65625241D01*
X99944540Y-65968618D02*
X99740694Y-65986984D01*
X99740694Y-65986984D02*
X99716084Y-65965102D01*
X97160370Y-63211997D02*
X97392663Y-63263083D01*
X97392663Y-63263083D02*
X97615483Y-63326474D01*
X97615483Y-63326474D02*
X97829058Y-63402306D01*
X97829058Y-63402306D02*
X98033614Y-63490713D01*
X98033614Y-63490713D02*
X98229380Y-63591830D01*
X98229380Y-63591830D02*
X98416584Y-63705793D01*
X98416584Y-63705793D02*
X98595453Y-63832737D01*
X98595453Y-63832737D02*
X98766215Y-63972796D01*
X98766215Y-63972796D02*
X98929098Y-64126105D01*
X98929098Y-64126105D02*
X99084329Y-64292800D01*
X99084329Y-64292800D02*
X99183679Y-64411433D01*
X100069422Y-66273747D02*
X99862114Y-66324100D01*
X99862114Y-66324100D02*
X99662382Y-66290546D01*
X99662382Y-66290546D02*
X99634662Y-66279809D01*
X99579204Y-65898566D02*
X99668742Y-66084412D01*
X99668742Y-66084412D02*
X99837441Y-66155488D01*
X94218195Y-64074495D02*
X94405372Y-63981478D01*
X94405372Y-63981478D02*
X94445801Y-63947782D01*
X94262660Y-63947342D02*
X94218195Y-64074495D01*
X95091252Y-63386523D02*
X94905588Y-63484708D01*
X94905588Y-63484708D02*
X94725568Y-63591757D01*
X94725568Y-63591757D02*
X94558699Y-63702586D01*
X94558699Y-63702586D02*
X94390657Y-63829884D01*
X94390657Y-63829884D02*
X94262660Y-63947342D01*
X96600867Y-63052273D02*
X96373079Y-63055826D01*
X96373079Y-63055826D02*
X96167563Y-63067842D01*
X96167563Y-63067842D02*
X95933530Y-63096637D01*
X95933530Y-63096637D02*
X95714777Y-63142979D01*
X95714777Y-63142979D02*
X95500459Y-63209268D01*
X95500459Y-63209268D02*
X95279733Y-63297906D01*
X95279733Y-63297906D02*
X95091252Y-63386523D01*
X97424770Y-63140385D02*
X97210129Y-63091593D01*
X97210129Y-63091593D02*
X97010951Y-63064676D01*
X97010951Y-63064676D02*
X96801935Y-63054305D01*
X96801935Y-63054305D02*
X96600867Y-63052273D01*
X99737261Y-65069833D02*
X99609197Y-64814593D01*
X99609197Y-64814593D02*
X99457475Y-64570316D01*
X99457475Y-64570316D02*
X99283930Y-64338532D01*
X99283930Y-64338532D02*
X99090397Y-64120770D01*
X99090397Y-64120770D02*
X98878709Y-63918563D01*
X98878709Y-63918563D02*
X98650701Y-63733439D01*
X98650701Y-63733439D02*
X98408207Y-63566929D01*
X98408207Y-63566929D02*
X98153061Y-63420565D01*
X98153061Y-63420565D02*
X97887098Y-63295875D01*
X97887098Y-63295875D02*
X97612152Y-63194392D01*
X97612152Y-63194392D02*
X97424770Y-63140385D01*
X99923520Y-65313996D02*
X99783558Y-65167674D01*
X99783558Y-65167674D02*
X99737261Y-65069833D01*
X95275250Y-65122539D02*
X95275250Y-65122539D01*
X95309682Y-65156971D02*
X95275250Y-65122539D01*
X95344115Y-65122539D02*
X95309682Y-65156971D01*
X95275250Y-65122539D02*
X95309682Y-65088106D01*
X96136043Y-65156971D02*
X96136043Y-65156971D01*
X96170472Y-65191403D02*
X96136043Y-65156971D01*
X96170472Y-65122539D02*
X96204904Y-65156971D01*
X93444381Y-65972502D02*
X93444372Y-65972503D01*
X93039702Y-65961469D02*
X93222890Y-66055051D01*
X93222890Y-66055051D02*
X93422983Y-65992762D01*
X93422983Y-65992762D02*
X93444381Y-65972502D01*
X93444372Y-65972503D02*
X93515850Y-65782937D01*
X93515850Y-65782937D02*
X93428137Y-65620154D01*
X93640344Y-65605912D02*
X93690608Y-65829347D01*
X93690608Y-65829347D02*
X93627512Y-66028634D01*
X93627512Y-66028634D02*
X93481705Y-66176927D01*
X93481705Y-66176927D02*
X93283836Y-66247379D01*
X93283836Y-66247379D02*
X93064555Y-66213142D01*
X93064555Y-66213142D02*
X92992001Y-66173826D01*
X92992095Y-66173826D02*
X92866174Y-66011071D01*
X92866174Y-66011071D02*
X92844923Y-65963321D01*
X94896497Y-66310433D02*
X94896502Y-66310430D01*
X94948152Y-66258783D02*
X94976839Y-66339123D01*
X96109502Y-66747282D02*
X96109502Y-66747281D01*
X95068660Y-67324132D02*
X95034231Y-67360596D01*
X96132468Y-67832439D02*
X96188759Y-67875340D01*
X94896502Y-66310430D02*
X94948152Y-66258783D01*
X96150389Y-66706394D02*
X96204904Y-66760910D01*
X95034231Y-67360596D02*
X94999799Y-67345412D01*
X96280656Y-67698025D02*
X96280656Y-67698025D01*
X96349517Y-67739343D02*
X96280656Y-67698025D01*
X94311702Y-65721268D02*
X94305261Y-65926068D01*
X94305261Y-65926068D02*
X94318195Y-65942028D01*
X94552085Y-65741723D02*
X94555654Y-65531250D01*
X94555654Y-65531250D02*
X94750882Y-65444897D01*
X94750882Y-65444897D02*
X94823103Y-65464919D01*
X96377069Y-67291732D02*
X96373732Y-67504636D01*
X96373732Y-67504636D02*
X96358967Y-67712067D01*
X96358967Y-67712067D02*
X96349517Y-67739343D01*
X96280656Y-67698025D02*
X96243496Y-67485983D01*
X96243496Y-67485983D02*
X96239337Y-67291732D01*
X94553857Y-65911343D02*
X94552085Y-65741723D01*
X94554002Y-65911358D02*
X94553857Y-65911343D01*
X94996813Y-65468544D02*
X95051560Y-65271929D01*
X95051560Y-65271929D02*
X94931294Y-65191418D01*
X96132436Y-67832437D02*
X96132468Y-67832439D01*
X96239337Y-67291732D02*
X96244623Y-67076405D01*
X96244623Y-67076405D02*
X96286372Y-66878524D01*
X96286372Y-66878524D02*
X96349517Y-66844121D01*
X96130663Y-67890958D02*
X96132436Y-67832437D01*
X94423605Y-65533615D02*
X94322817Y-65707757D01*
X94322817Y-65707757D02*
X94311702Y-65721268D01*
X94931294Y-65191418D02*
X94737096Y-65262513D01*
X94737096Y-65262513D02*
X94688553Y-65286105D01*
X95260490Y-66548992D02*
X95459671Y-66572809D01*
X95459671Y-66572809D02*
X95482529Y-66550633D01*
X96349517Y-66844121D02*
X96373067Y-67060083D01*
X96373067Y-67060083D02*
X96377032Y-67268787D01*
X96377032Y-67268787D02*
X96377069Y-67291732D01*
X94318195Y-65942028D02*
X94522075Y-65949229D01*
X94522075Y-65949229D02*
X94554002Y-65911358D01*
X95309682Y-65088106D02*
X95344115Y-65122539D01*
X96109502Y-66747281D02*
X96150389Y-66706394D01*
X92844923Y-65963321D02*
X92810352Y-65762266D01*
X92810352Y-65762266D02*
X92847013Y-65653314D01*
X94999799Y-67345412D02*
X95034231Y-67308948D01*
X96188759Y-67875340D02*
X96130663Y-67890958D01*
X100355805Y-66103685D02*
X100398167Y-65906226D01*
X100398167Y-65906226D02*
X100367710Y-65690262D01*
X100367710Y-65690262D02*
X100260170Y-65506143D01*
X100260170Y-65506143D02*
X100084935Y-65371018D01*
X100084935Y-65371018D02*
X99923520Y-65313996D01*
X99979827Y-66432573D02*
X100171752Y-66344923D01*
X100171752Y-66344923D02*
X100312429Y-66192304D01*
X100312429Y-66192304D02*
X100355805Y-66103685D01*
X96136043Y-65156971D02*
X96170472Y-65122539D01*
X94999799Y-67345412D02*
X94999799Y-67345412D01*
X95034231Y-67308948D02*
X95068660Y-67324132D01*
X94823103Y-65464919D02*
X94996813Y-65468544D01*
X95482529Y-66550633D02*
X95482534Y-66550617D01*
X96204904Y-65156971D02*
X96170472Y-65191403D01*
X93428137Y-65620154D02*
X93238245Y-65540982D01*
X93238245Y-65540982D02*
X93068984Y-65636364D01*
X94688553Y-65286105D02*
X94516077Y-65399891D01*
X94516077Y-65399891D02*
X94423605Y-65533615D01*
X93068984Y-65636364D02*
X92972835Y-65816381D01*
X92972835Y-65816381D02*
X93039702Y-65961469D01*
X92992001Y-66173826D02*
X92992095Y-66173826D01*
X92847013Y-65653314D02*
X92956957Y-65482388D01*
X92956957Y-65482388D02*
X93140780Y-65375530D01*
X93140780Y-65375530D02*
X93347114Y-65370576D01*
X93347114Y-65370576D02*
X93536778Y-65469868D01*
X93536778Y-65469868D02*
X93640344Y-65605912D01*
X96204904Y-66760910D02*
X96109502Y-66747282D01*
X94976839Y-66339123D02*
X94896497Y-66310433D01*
X95717483Y-65308591D02*
X95719255Y-65250069D01*
X95275236Y-66310430D02*
X95227440Y-66506078D01*
X95227440Y-66506078D02*
X95260490Y-66548992D01*
X95275313Y-66008456D02*
X95338699Y-66200069D01*
X95338699Y-66200069D02*
X95275236Y-66310430D01*
X95072119Y-65939028D02*
X95264632Y-65995232D01*
X95264632Y-65995232D02*
X95275313Y-66008456D01*
X94897980Y-65882813D02*
X95072119Y-65939028D01*
X95102291Y-65646509D02*
X94902570Y-65695588D01*
X94902570Y-65695588D02*
X94897980Y-65882813D01*
X95171948Y-65713570D02*
X95102291Y-65646509D01*
X95308730Y-65868838D02*
X95173531Y-65718670D01*
X95173531Y-65718670D02*
X95171948Y-65713570D01*
X95485797Y-66249341D02*
X95442201Y-66051445D01*
X95442201Y-66051445D02*
X95319819Y-65879589D01*
X95319819Y-65879589D02*
X95308730Y-65868838D01*
X95719288Y-65250067D02*
X95775579Y-65292968D01*
X95482534Y-66550617D02*
X95500330Y-66346888D01*
X95500330Y-66346888D02*
X95485797Y-66249341D01*
X95719255Y-65250069D02*
X95719288Y-65250067D01*
X95775579Y-65292968D02*
X95717483Y-65308591D01*
X95826156Y-66844111D02*
X95892343Y-66654186D01*
X95892343Y-66654186D02*
X95894895Y-66427088D01*
X95894895Y-66427088D02*
X95895021Y-66290941D01*
X95757295Y-65889092D02*
X95757295Y-66366601D01*
X95614830Y-65869981D02*
X95757295Y-65889092D01*
X95402148Y-65704921D02*
X95542390Y-65855467D01*
X95542390Y-65855467D02*
X95614830Y-65869981D01*
X95510312Y-65704688D02*
X95402148Y-65704921D01*
X95763190Y-65685324D02*
X95564152Y-65728250D01*
X95564152Y-65728250D02*
X95510312Y-65704688D01*
X95860064Y-65147774D02*
X95700644Y-65106846D01*
X94813602Y-66947415D02*
X94603666Y-66953743D01*
X94603666Y-66953743D02*
X94517754Y-66999063D01*
X95555096Y-67415840D02*
X95361165Y-67477105D01*
X95361165Y-67477105D02*
X95362652Y-67621854D01*
X95326897Y-67050711D02*
X95275250Y-66999063D01*
X95931690Y-65669264D02*
X95949938Y-65468213D01*
X95949938Y-65468213D02*
X95910549Y-65255767D01*
X95910549Y-65255767D02*
X95860064Y-65147774D01*
X94119769Y-66878553D02*
X94104577Y-66844121D01*
X94434742Y-67515538D02*
X94628046Y-67581466D01*
X94628046Y-67581466D02*
X94670289Y-67547509D01*
X95533487Y-67532753D02*
X95562174Y-67613093D01*
X95275250Y-66999063D02*
X95326897Y-66947415D01*
X94466986Y-67291262D02*
X94273577Y-67234837D01*
X94273577Y-67234837D02*
X94221290Y-67146666D01*
X95378547Y-66999063D02*
X95326897Y-67050711D01*
X94670289Y-67547509D02*
X94670237Y-67547510D01*
X95481840Y-67584400D02*
X95533487Y-67532753D01*
X95602352Y-65261095D02*
X95713509Y-65432424D01*
X95817551Y-67469313D02*
X95897381Y-67264080D01*
X95897381Y-67264080D02*
X95835324Y-67051161D01*
X95835324Y-67051161D02*
X95666209Y-66904365D01*
X95666209Y-66904365D02*
X95538816Y-66878552D01*
X95895021Y-66290951D02*
X95897098Y-66088887D01*
X95897098Y-66088887D02*
X95905269Y-65873183D01*
X95905269Y-65873183D02*
X95929687Y-65673670D01*
X95929687Y-65673670D02*
X95931690Y-65669264D01*
X95720364Y-67107000D02*
X95787588Y-67295665D01*
X95787588Y-67295665D02*
X95615492Y-67413676D01*
X95615492Y-67413676D02*
X95555096Y-67415840D01*
X95467792Y-67102357D02*
X95661638Y-67048329D01*
X95661638Y-67048329D02*
X95720364Y-67107000D01*
X95700644Y-65106846D02*
X95602352Y-65261095D01*
X95362652Y-67621854D02*
X95517266Y-67751549D01*
X95517266Y-67751549D02*
X95588762Y-67748689D01*
X95588762Y-67748689D02*
X95588762Y-67748690D01*
X94324132Y-67429459D02*
X94434742Y-67515538D01*
X94670237Y-67547510D02*
X94700118Y-67339232D01*
X94700118Y-67339232D02*
X94501079Y-67276372D01*
X94501079Y-67276372D02*
X94466986Y-67291262D01*
X94221290Y-67146666D02*
X94240769Y-66958749D01*
X94866339Y-67054381D02*
X95072311Y-67062608D01*
X95072311Y-67062608D02*
X95190169Y-67120674D01*
X94104577Y-66844121D02*
X94104577Y-66844121D01*
X94156233Y-66844121D02*
X94119769Y-66878553D01*
X95275250Y-66999063D02*
X95275250Y-66999063D01*
X94141041Y-66809688D02*
X94156233Y-66844121D01*
X94104577Y-66844121D02*
X94141041Y-66809688D01*
X94517754Y-66999063D02*
X94724814Y-67055024D01*
X94724814Y-67055024D02*
X94866339Y-67054381D01*
X94243740Y-66724865D02*
X94038484Y-66703816D01*
X94038484Y-66703816D02*
X93988160Y-66759918D01*
X95196994Y-66878552D02*
X94995988Y-66942869D01*
X94995988Y-66942869D02*
X94813602Y-66947415D01*
X94240769Y-66958749D02*
X94277457Y-66759114D01*
X94277457Y-66759114D02*
X94243740Y-66724865D01*
X95562174Y-67613093D02*
X95481832Y-67584403D01*
X95190169Y-67120674D02*
X95390283Y-67171784D01*
X95390283Y-67171784D02*
X95467792Y-67102357D01*
X95538816Y-66878552D02*
X95430193Y-66844120D01*
X95895021Y-66290941D02*
X95895021Y-66290951D01*
X95757295Y-66366601D02*
X95758031Y-66579461D01*
X95758031Y-66579461D02*
X95768928Y-66786890D01*
X95768928Y-66786890D02*
X95826156Y-66844111D01*
X95430193Y-66844120D02*
X95223759Y-66859216D01*
X95223759Y-66859216D02*
X95196994Y-66878552D01*
X95481832Y-67584403D02*
X95481840Y-67584400D01*
X94202582Y-67345343D02*
X94324132Y-67429459D01*
X95326897Y-66947415D02*
X95378547Y-66999063D01*
X95713509Y-65432424D02*
X95818236Y-65607862D01*
X95818236Y-65607862D02*
X95763190Y-65685324D01*
X93988160Y-66759918D02*
X94014954Y-66959337D01*
X94014954Y-66959337D02*
X94091927Y-67164758D01*
X94091927Y-67164758D02*
X94202582Y-67345343D01*
X95692059Y-67644932D02*
X95809409Y-67478378D01*
X95809409Y-67478378D02*
X95817551Y-67469313D01*
X95588762Y-67748690D02*
X95692059Y-67644932D01*
X95757342Y-68083649D02*
X95553917Y-68082883D01*
X95553917Y-68082883D02*
X95346909Y-68078740D01*
X95346909Y-68078740D02*
X95148096Y-68053374D01*
X95148096Y-68053374D02*
X95137572Y-68038583D01*
X96291034Y-67980354D02*
X96377113Y-68014786D01*
X96011231Y-67926903D02*
X96198896Y-68018557D01*
X96198896Y-68018557D02*
X96291034Y-67980354D01*
X96027643Y-67738923D02*
X96011231Y-67926903D01*
X96101648Y-67275901D02*
X96098416Y-67488566D01*
X96098416Y-67488566D02*
X96058501Y-67690885D01*
X96058501Y-67690885D02*
X96027643Y-67738923D01*
X96072755Y-66912974D02*
X96098790Y-67118918D01*
X96098790Y-67118918D02*
X96101648Y-67275901D01*
X96314143Y-66625641D02*
X96116141Y-66572224D01*
X96116141Y-66572224D02*
X95988168Y-66680968D01*
X95988168Y-66680968D02*
X96031525Y-66879345D01*
X96031525Y-66879345D02*
X96072755Y-66912974D01*
X96377113Y-65954225D02*
X96376904Y-66187308D01*
X96376904Y-66187308D02*
X96375355Y-66399702D01*
X96375355Y-66399702D02*
X96365037Y-66602628D01*
X96365037Y-66602628D02*
X96314143Y-66625641D01*
X96346896Y-65225824D02*
X96368238Y-65439791D01*
X96368238Y-65439791D02*
X96374729Y-65671400D01*
X96374729Y-65671400D02*
X96376956Y-65880024D01*
X96376956Y-65880024D02*
X96377113Y-65954225D01*
X96232841Y-65502321D02*
X96269588Y-65296283D01*
X96269588Y-65296283D02*
X96346896Y-65225824D01*
X96048380Y-65258900D02*
X96105509Y-65452596D01*
X96105509Y-65452596D02*
X96108635Y-65495530D01*
X96050761Y-65018589D02*
X96018639Y-65221314D01*
X96018639Y-65221314D02*
X96048380Y-65258900D01*
X95800820Y-64653903D02*
X95981710Y-64748856D01*
X95981710Y-64748856D02*
X96085343Y-64928594D01*
X96085343Y-64928594D02*
X96050761Y-65018589D01*
X95202976Y-64998564D02*
X95159855Y-65201187D01*
X95159855Y-65201187D02*
X95263911Y-65282017D01*
X95275272Y-64860847D02*
X95202976Y-64998564D01*
X96204927Y-64876714D02*
X96098937Y-64696694D01*
X96098937Y-64696694D02*
X95931509Y-64564030D01*
X95931509Y-64564030D02*
X95861831Y-64533500D01*
X95723647Y-64365040D02*
X95943165Y-64407086D01*
X95943165Y-64407086D02*
X96133948Y-64521965D01*
X96133948Y-64521965D02*
X96279489Y-64692787D01*
X96279489Y-64692787D02*
X96363280Y-64902661D01*
X96363280Y-64902661D02*
X96377084Y-65033623D01*
X95008426Y-65104273D02*
X95103114Y-64983241D01*
X94735915Y-65074437D02*
X94941845Y-65091332D01*
X94941845Y-65091332D02*
X95008426Y-65104273D01*
X94204562Y-65976800D02*
X94141278Y-65785012D01*
X94141278Y-65785012D02*
X94146271Y-65566012D01*
X94146271Y-65566012D02*
X94229659Y-65362988D01*
X94229659Y-65362988D02*
X94363589Y-65211392D01*
X94363589Y-65211392D02*
X94411882Y-65174185D01*
X95137525Y-68038592D02*
X95188078Y-67926690D01*
X94565958Y-66262346D02*
X94379666Y-66185366D01*
X94379666Y-66185366D02*
X94236244Y-66033670D01*
X94236244Y-66033670D02*
X94204562Y-65976800D01*
X95109378Y-66379292D02*
X95095926Y-66178932D01*
X95095926Y-66178932D02*
X94885351Y-66137444D01*
X94885351Y-66137444D02*
X94782548Y-66209845D01*
X94950944Y-66465371D02*
X95109378Y-66379292D01*
X94970009Y-67185953D02*
X94885153Y-67372070D01*
X94885153Y-67372070D02*
X95036833Y-67498321D01*
X94827648Y-67997580D02*
X94653473Y-68083659D01*
X93841232Y-67233120D02*
X93794235Y-67033326D01*
X93794235Y-67033326D02*
X93811960Y-66831429D01*
X93811960Y-66831429D02*
X93891128Y-66646021D01*
X93891128Y-66646021D02*
X93960453Y-66556985D01*
X94276304Y-67601494D02*
X94081210Y-67504689D01*
X94081210Y-67504689D02*
X93923799Y-67362007D01*
X93923799Y-67362007D02*
X93841232Y-67233120D01*
X94658090Y-67958630D02*
X94715408Y-67814693D01*
X98356279Y-67739345D02*
X98562832Y-67759602D01*
X98562832Y-67759602D02*
X98756139Y-67844898D01*
X98756139Y-67844898D02*
X98836638Y-67941512D01*
X94938698Y-67910973D02*
X94827648Y-67997580D01*
X95055420Y-67885150D02*
X94938698Y-67910973D01*
X96704164Y-68066447D02*
X96694929Y-67225217D01*
X94522429Y-66379705D02*
X94729209Y-66407584D01*
X94729209Y-66407584D02*
X94812670Y-66434542D01*
X93960453Y-66556985D02*
X94116834Y-66425123D01*
X94116834Y-66425123D02*
X94310547Y-66372589D01*
X94310547Y-66372589D02*
X94522429Y-66379705D01*
X94377777Y-67723532D02*
X94276304Y-67601494D01*
X97797368Y-68075538D02*
X96704164Y-68066447D01*
X94715408Y-67814693D02*
X94523541Y-67885604D01*
X94523541Y-67885604D02*
X94378403Y-68017873D01*
X94378403Y-68017873D02*
X94187435Y-68086059D01*
X94187435Y-68086059D02*
X94139028Y-68054393D01*
X94812670Y-66434542D02*
X94950944Y-66465371D01*
X94653473Y-68083659D02*
X94658090Y-67958630D01*
X96291005Y-65019244D02*
X96204927Y-64876714D01*
X95137572Y-68038583D02*
X95137525Y-68038592D01*
X96377113Y-68014786D02*
X96165541Y-68081033D01*
X96165541Y-68081033D02*
X95955321Y-68083409D01*
X95955321Y-68083409D02*
X95757342Y-68083649D01*
X96108635Y-65495530D02*
X96160254Y-65689314D01*
X96160254Y-65689314D02*
X96170523Y-65690651D01*
X95036833Y-67498321D02*
X95128859Y-67681612D01*
X95128859Y-67681612D02*
X95065182Y-67877781D01*
X95065182Y-67877781D02*
X95055420Y-67885150D01*
X95188078Y-67926690D02*
X95237848Y-67728187D01*
X95237848Y-67728187D02*
X95226572Y-67510739D01*
X95226572Y-67510739D02*
X95218208Y-67435519D01*
X95449841Y-64816956D02*
X95600020Y-64673371D01*
X95600020Y-64673371D02*
X95800820Y-64653903D01*
X94782548Y-66209845D02*
X94587893Y-66268148D01*
X94587893Y-66268148D02*
X94565958Y-66262346D01*
X98890572Y-68065219D02*
X98672656Y-68075001D01*
X98672656Y-68075001D02*
X98450376Y-68077099D01*
X98450376Y-68077099D02*
X98221838Y-68077536D01*
X98221838Y-68077536D02*
X98016969Y-68076968D01*
X98016969Y-68076968D02*
X97797368Y-68075538D01*
X95435363Y-65005041D02*
X95449841Y-64816956D01*
X95861831Y-64533500D02*
X95657956Y-64521123D01*
X95657956Y-64521123D02*
X95608510Y-64535167D01*
X98836638Y-67941512D02*
X98890572Y-68065219D01*
X96170523Y-65690651D02*
X96232841Y-65502321D01*
X94411882Y-65174185D02*
X94591582Y-65084352D01*
X94591582Y-65084352D02*
X94735915Y-65074437D01*
X95218208Y-67435519D02*
X95153436Y-67234367D01*
X95153436Y-67234367D02*
X94970009Y-67185953D01*
X95263911Y-65282017D02*
X95454809Y-65219910D01*
X95454809Y-65219910D02*
X95444566Y-65019996D01*
X95444566Y-65019996D02*
X95435363Y-65005041D01*
X94139028Y-68054393D02*
X94250282Y-67872326D01*
X94250282Y-67872326D02*
X94377777Y-67723532D01*
X95608510Y-64535167D02*
X95433893Y-64646615D01*
X95433893Y-64646615D02*
X95295192Y-64803983D01*
X95295192Y-64803983D02*
X95275272Y-64860847D01*
X96377084Y-65033623D02*
X96291005Y-65019244D01*
X95103114Y-64983241D02*
X95143669Y-64781005D01*
X95143669Y-64781005D02*
X95253169Y-64600710D01*
X95253169Y-64600710D02*
X95413367Y-64460534D01*
X95413367Y-64460534D02*
X95606015Y-64378656D01*
X95606015Y-64378656D02*
X95723647Y-64365040D01*
X97912460Y-67907978D02*
X98084586Y-67784674D01*
X98084586Y-67784674D02*
X98283027Y-67741745D01*
X98283027Y-67741745D02*
X98356279Y-67739345D01*
X97800639Y-67980366D02*
X97912460Y-67907978D01*
X98162216Y-67621000D02*
X97974201Y-67704430D01*
X97974201Y-67704430D02*
X97810468Y-67844677D01*
X97810468Y-67844677D02*
X97800639Y-67980366D01*
X98547690Y-67607551D02*
X98340546Y-67608374D01*
X98340546Y-67608374D02*
X98162216Y-67621000D01*
X98944245Y-67537153D02*
X98749329Y-67602978D01*
X98749329Y-67602978D02*
X98547690Y-67607551D01*
X98869776Y-66395328D02*
X99066291Y-66508055D01*
X99066291Y-66508055D02*
X99196569Y-66679410D01*
X99196569Y-66679410D02*
X99259085Y-66886006D01*
X99259085Y-66886006D02*
X99252314Y-67104455D01*
X99252314Y-67104455D02*
X99174731Y-67311372D01*
X99174731Y-67311372D02*
X99024809Y-67483370D01*
X99024809Y-67483370D02*
X98944245Y-67537153D01*
X98604561Y-66424196D02*
X98802821Y-66377521D01*
X98802821Y-66377521D02*
X98869776Y-66395328D01*
X98139160Y-66504810D02*
X98341442Y-66499574D01*
X98341442Y-66499574D02*
X98538519Y-66451923D01*
X98538519Y-66451923D02*
X98604561Y-66424196D01*
X98070636Y-66440233D02*
X98139160Y-66504810D01*
X98258166Y-66374298D02*
X98070636Y-66440233D01*
X98875451Y-65483774D02*
X98924997Y-65684305D01*
X98924997Y-65684305D02*
X98900153Y-65913574D01*
X98900153Y-65913574D02*
X98794760Y-66113976D01*
X98794760Y-66113976D02*
X98620900Y-66268081D01*
X98620900Y-66268081D02*
X98432432Y-66348559D01*
X98432432Y-66348559D02*
X98258166Y-66374298D01*
X98429806Y-65118767D02*
X98622778Y-65194846D01*
X98622778Y-65194846D02*
X98784421Y-65327240D01*
X98784421Y-65327240D02*
X98875451Y-65483774D01*
X97674354Y-65670490D02*
X97842358Y-65551695D01*
X97842358Y-65551695D02*
X97969157Y-65384433D01*
X97969157Y-65384433D02*
X98034678Y-65256626D01*
X97487045Y-65604582D02*
X97295488Y-65675386D01*
X97295488Y-65675386D02*
X97290569Y-65709604D01*
X97304870Y-64399667D02*
X97525314Y-64438895D01*
X97525314Y-64438895D02*
X97716862Y-64545192D01*
X97716862Y-64545192D02*
X97862962Y-64702971D01*
X97862962Y-64702971D02*
X97947064Y-64896649D01*
X97947064Y-64896649D02*
X97960918Y-65017442D01*
X96692659Y-65461584D02*
X96697657Y-65234795D01*
X96697657Y-65234795D02*
X96706876Y-65016845D01*
X96706876Y-65016845D02*
X96741546Y-64813286D01*
X96741546Y-64813286D02*
X96788037Y-64717857D01*
X97180970Y-66465428D02*
X97021934Y-66331279D01*
X97021934Y-66331279D02*
X96838906Y-66237202D01*
X96838906Y-66237202D02*
X96775055Y-66224351D01*
X97206169Y-66841929D02*
X97284131Y-67006764D01*
X97096738Y-66563907D02*
X97182607Y-66755057D01*
X97182607Y-66755057D02*
X97206169Y-66841929D01*
X96694929Y-67225217D02*
X96693584Y-67013510D01*
X96693584Y-67013510D02*
X96694596Y-66783875D01*
X96694596Y-66783875D02*
X96699033Y-66564357D01*
X96699033Y-66564357D02*
X96713526Y-66360529D01*
X96713526Y-66360529D02*
X96716657Y-66353028D01*
X93618594Y-69121327D02*
X93419429Y-69201698D01*
X93419429Y-69201698D02*
X93374918Y-69404166D01*
X93374918Y-69404166D02*
X93447726Y-69498005D01*
X93807660Y-68952111D02*
X93667871Y-69109325D01*
X93667871Y-69109325D02*
X93618594Y-69121327D01*
X93520698Y-68925476D02*
X93720654Y-68893879D01*
X93720654Y-68893879D02*
X93807660Y-68952111D01*
X93880769Y-69357631D02*
X93829122Y-69392915D01*
X94640762Y-69552929D02*
X94640761Y-69552918D01*
X94965372Y-69207831D02*
X94965367Y-69207826D01*
X94856010Y-69461272D02*
X95004576Y-69324675D01*
X95004576Y-69324675D02*
X95061123Y-69323546D01*
X96716657Y-66353028D02*
X96922189Y-66414651D01*
X96922189Y-66414651D02*
X97079200Y-66541697D01*
X97079200Y-66541697D02*
X97096738Y-66563907D01*
X93447726Y-69498005D02*
X93624744Y-69593490D01*
X93624744Y-69593490D02*
X93760258Y-69574225D01*
X93381510Y-68929188D02*
X93520698Y-68925476D01*
X94381416Y-69028473D02*
X94262210Y-69193797D01*
X94262210Y-69193797D02*
X94172390Y-69288767D01*
X94723456Y-69555609D02*
X94856010Y-69461272D01*
X94172390Y-69288767D02*
X94139677Y-69082910D01*
X94139677Y-69082910D02*
X94139005Y-69030530D01*
X93673101Y-69219904D02*
X93864571Y-69152446D01*
X93864571Y-69152446D02*
X93928356Y-68949645D01*
X93928356Y-68949645D02*
X93863555Y-68841157D01*
X93760258Y-69574225D02*
X93915271Y-69446522D01*
X93915271Y-69446522D02*
X93880769Y-69357631D01*
X94548165Y-69280159D02*
X94546420Y-69483574D01*
X94546420Y-69483574D02*
X94548061Y-69555612D01*
X94522844Y-69047746D02*
X94548436Y-69256483D01*
X94548436Y-69256483D02*
X94548165Y-69280159D01*
X94307553Y-69322944D02*
X94424401Y-69158558D01*
X94424401Y-69158558D02*
X94522844Y-69047746D01*
X94139005Y-69030530D02*
X94130046Y-68830565D01*
X94130046Y-68830565D02*
X94086265Y-68772293D01*
X95124801Y-69142433D02*
X95055466Y-69219904D01*
X94965367Y-69207826D02*
X95003168Y-69087315D01*
X94043227Y-69174055D02*
X94053175Y-69386925D01*
X94053175Y-69386925D02*
X94085523Y-69585885D01*
X94085523Y-69585885D02*
X94087358Y-69586980D01*
X94086265Y-68772293D02*
X94040152Y-68966960D01*
X94040152Y-68966960D02*
X94043227Y-69174055D01*
X95929443Y-69598649D02*
X95929453Y-69185471D01*
X95625377Y-69598649D02*
X95929443Y-69598649D01*
X94597664Y-68781643D02*
X94452819Y-68928468D01*
X94452819Y-68928468D02*
X94381416Y-69028473D01*
X94087358Y-69586980D02*
X94232709Y-69428917D01*
X94232709Y-69428917D02*
X94307553Y-69322944D01*
X93863555Y-68841157D02*
X93656145Y-68775176D01*
X93656145Y-68775176D02*
X93453150Y-68826527D01*
X93453150Y-68826527D02*
X93381510Y-68929188D01*
X93570004Y-69460591D02*
X93501684Y-69268759D01*
X93501684Y-69268759D02*
X93673101Y-69219904D01*
X95103563Y-69021922D02*
X95124801Y-69142433D01*
X94548061Y-69555612D02*
X94640762Y-69552929D01*
X94640761Y-69552918D02*
X94654906Y-69335737D01*
X94654906Y-69335737D02*
X94646165Y-69104181D01*
X94646165Y-69104181D02*
X94626955Y-68894928D01*
X94626955Y-68894928D02*
X94597664Y-68781643D01*
X95055466Y-69219904D02*
X94965372Y-69207831D01*
X95061123Y-69323546D02*
X95227797Y-69383451D01*
X95227797Y-69383451D02*
X95321212Y-69565328D01*
X95321212Y-69565328D02*
X95542160Y-69598408D01*
X95542160Y-69598408D02*
X95625377Y-69598649D01*
X98034678Y-65256626D02*
X98185881Y-65114382D01*
X98185881Y-65114382D02*
X98395140Y-65109887D01*
X98395140Y-65109887D02*
X98429806Y-65118767D01*
X97290569Y-65709604D02*
X97493775Y-65730624D01*
X97493775Y-65730624D02*
X97674354Y-65670490D01*
X97960918Y-65017442D02*
X97916538Y-65219442D01*
X97916538Y-65219442D02*
X97803082Y-65409020D01*
X97803082Y-65409020D02*
X97650076Y-65549594D01*
X97650076Y-65549594D02*
X97487045Y-65604582D01*
X96788037Y-64717857D02*
X96930936Y-64560720D01*
X96930936Y-64560720D02*
X97111215Y-64449731D01*
X97111215Y-64449731D02*
X97304870Y-64399667D01*
X96775055Y-66224351D02*
X96694661Y-66038301D01*
X96694661Y-66038301D02*
X96688653Y-65812127D01*
X96688653Y-65812127D02*
X96690650Y-65575892D01*
X96690650Y-65575892D02*
X96692659Y-65461584D01*
X97284131Y-67006764D02*
X97328728Y-66807340D01*
X97328728Y-66807340D02*
X97262541Y-66596009D01*
X97262541Y-66596009D02*
X97180970Y-66465428D01*
X93829122Y-69392915D02*
X93639734Y-69473540D01*
X93639734Y-69473540D02*
X93570004Y-69460591D01*
X95003168Y-69087315D02*
X95103563Y-69021922D01*
X93760258Y-69574225D02*
X93760258Y-69574225D01*
X95062856Y-68779777D02*
X94943366Y-68961051D01*
X94943366Y-68961051D02*
X94868477Y-69141309D01*
X95436421Y-69480509D02*
X95316010Y-69312629D01*
X95316010Y-69312629D02*
X95248360Y-69144801D01*
X95830510Y-69460924D02*
X95658987Y-69460924D01*
X95819726Y-69349021D02*
X95830510Y-69460924D01*
X95628170Y-69226712D02*
X95814540Y-69305207D01*
X95814540Y-69305207D02*
X95819726Y-69349021D01*
X95447403Y-69166456D02*
X95628170Y-69226712D01*
X95638959Y-69116608D02*
X95447403Y-69166456D01*
X95830515Y-69116608D02*
X95638959Y-69116608D01*
X95819731Y-69004705D02*
X95830515Y-69116608D01*
X95628175Y-68882395D02*
X95814545Y-68960890D01*
X95814545Y-68960890D02*
X95819731Y-69004705D01*
X95447408Y-68822139D02*
X95628175Y-68882395D01*
X95688430Y-68772292D02*
X95484905Y-68785767D01*
X95484905Y-68785767D02*
X95447408Y-68822139D01*
X95929453Y-69185471D02*
X95929453Y-68772292D01*
X96597610Y-69569447D02*
X96597638Y-69569448D01*
X96497561Y-69237118D02*
X96507956Y-69417884D01*
X96153245Y-69237118D02*
X96325403Y-69237118D01*
X96142850Y-69417884D02*
X96153245Y-69237118D01*
X96082594Y-69598650D02*
X96142850Y-69417884D01*
X96032746Y-69185470D02*
X96034807Y-69392491D01*
X96034807Y-69392491D02*
X96065731Y-69592408D01*
X96065731Y-69592408D02*
X96082594Y-69598650D01*
X96499052Y-68944636D02*
X96497571Y-69099392D01*
X96084393Y-68772291D02*
X96034763Y-68975652D01*
X96034763Y-68975652D02*
X96032746Y-69185470D01*
X97264953Y-69148712D02*
X97255071Y-68789507D01*
X97771546Y-68892803D02*
X97781554Y-69219583D01*
X96136040Y-68946248D02*
X96084393Y-68772291D01*
X96497571Y-69099392D02*
X96316807Y-69109798D01*
X97034081Y-68875586D02*
X97134559Y-69027660D01*
X96597638Y-69569448D02*
X96612896Y-69358153D01*
X96612896Y-69358153D02*
X96615330Y-69154042D01*
X96850498Y-69161463D02*
X96850498Y-69161463D01*
X97648771Y-69185470D02*
X97464051Y-69100435D01*
X97464051Y-69100435D02*
X97444446Y-69033532D01*
X97134559Y-69027660D02*
X97091519Y-69196243D01*
X96850498Y-69161463D02*
X96824674Y-69032181D01*
X97256326Y-69556147D02*
X97256325Y-69556147D01*
X97141160Y-69450839D02*
X97256326Y-69556147D01*
X97444446Y-69033532D02*
X97576678Y-68882844D01*
X97576678Y-68882844D02*
X97657394Y-68881844D01*
X97003433Y-69304483D02*
X97141160Y-69450839D01*
X97691954Y-68772290D02*
X97488559Y-68796572D01*
X97488559Y-68796572D02*
X97416502Y-68842494D01*
X97781554Y-69219583D02*
X97793403Y-69432396D01*
X97793403Y-69432396D02*
X97868527Y-69576271D01*
X96736807Y-69170357D02*
X96901879Y-69286138D01*
X96901879Y-69286138D02*
X97003433Y-69304483D01*
X97255071Y-68789507D02*
X97058757Y-68779231D01*
X97378769Y-69475252D02*
X97366974Y-69597020D01*
X97892052Y-68772290D02*
X97691954Y-68772290D01*
X97427471Y-69206059D02*
X97440654Y-69413828D01*
X97440654Y-69413828D02*
X97378769Y-69475252D01*
X94868477Y-69141309D02*
X94793098Y-69339698D01*
X94793098Y-69339698D02*
X94727851Y-69533144D01*
X94727851Y-69533144D02*
X94723456Y-69555609D01*
X97657394Y-68881844D02*
X97771546Y-68892803D01*
X95248360Y-69144801D02*
X95170403Y-68959514D01*
X95170403Y-68959514D02*
X95071800Y-68785366D01*
X95071800Y-68785366D02*
X95062856Y-68779777D01*
X95658987Y-69460924D02*
X95459300Y-69474702D01*
X95459300Y-69474702D02*
X95436421Y-69480509D01*
X96507956Y-69417884D02*
X96597610Y-69569447D01*
X96136040Y-69120204D02*
X96136040Y-68946248D01*
X97416502Y-68842494D02*
X97342991Y-69031552D01*
X97342991Y-69031552D02*
X97427471Y-69206059D01*
X96557756Y-68778859D02*
X96499052Y-68944636D01*
X96792788Y-68838611D02*
X96698411Y-69025600D01*
X96698411Y-69025600D02*
X96736807Y-69170357D01*
X97719898Y-69207425D02*
X97648771Y-69185470D01*
X96325403Y-69237118D02*
X96497561Y-69237118D01*
X96824674Y-69032181D02*
X96964712Y-68878157D01*
X96964712Y-68878157D02*
X97034081Y-68875586D01*
X97058757Y-68779231D02*
X96853467Y-68795242D01*
X96853467Y-68795242D02*
X96792788Y-68838611D01*
X95929453Y-68772292D02*
X95688430Y-68772292D01*
X96615330Y-69154042D02*
X96613323Y-68950035D01*
X96613323Y-68950035D02*
X96557756Y-68778859D01*
X97091519Y-69196243D02*
X96888757Y-69177028D01*
X96888757Y-69177028D02*
X96850498Y-69161463D01*
X97256325Y-69556147D02*
X97267375Y-69341615D01*
X97267375Y-69341615D02*
X97264953Y-69148712D01*
X97366974Y-69597020D02*
X97532562Y-69456434D01*
X97532562Y-69456434D02*
X97672217Y-69292213D01*
X97672217Y-69292213D02*
X97719898Y-69207425D01*
X97868526Y-69576268D02*
X97888633Y-69367883D01*
X97888633Y-69367883D02*
X97892052Y-69162515D01*
X97892052Y-69162515D02*
X97892052Y-68772290D01*
X96316807Y-69109798D02*
X96136040Y-69120204D01*
X97868527Y-69576271D02*
X97868526Y-69576268D01*
X98292843Y-69447942D02*
X98292843Y-69447942D01*
X98546655Y-69431085D02*
X98346905Y-69470884D01*
X98346905Y-69470884D02*
X98292843Y-69447942D01*
X98668943Y-69030099D02*
X98706745Y-69231534D01*
X98706745Y-69231534D02*
X98588847Y-69405073D01*
X98588847Y-69405073D02*
X98546655Y-69431085D01*
X98110627Y-69107982D02*
X98225575Y-68933464D01*
X98225575Y-68933464D02*
X98431116Y-68874167D01*
X98431116Y-68874167D02*
X98626529Y-68969406D01*
X98626529Y-68969406D02*
X98668943Y-69030099D01*
X98292843Y-69447942D02*
X98142195Y-69305084D01*
X98142195Y-69305084D02*
X98110627Y-69107982D01*
X98618635Y-69520055D02*
X98618635Y-69520055D01*
X98073854Y-69395074D02*
X98223525Y-69545266D01*
X98223525Y-69545266D02*
X98432758Y-69593267D01*
X98432758Y-69593267D02*
X98618635Y-69520055D01*
X98437609Y-68772290D02*
X98226288Y-68816387D01*
X98226288Y-68816387D02*
X98061215Y-68953772D01*
X98061215Y-68953772D02*
X97997742Y-69149585D01*
X97997742Y-69149585D02*
X98056811Y-69367973D01*
X98056811Y-69367973D02*
X98073854Y-69395074D01*
X98807860Y-69066118D02*
X98704007Y-68892190D01*
X98704007Y-68892190D02*
X98527555Y-68785873D01*
X98527555Y-68785873D02*
X98437609Y-68772290D01*
X98618635Y-69520055D02*
X98756977Y-69360064D01*
X98756977Y-69360064D02*
X98816000Y-69155148D01*
X98816000Y-69155148D02*
X98807860Y-69066118D01*
X99648078Y-69185469D02*
X99648067Y-69185469D01*
X99596431Y-69598649D02*
X99646060Y-69395286D01*
X99646060Y-69395286D02*
X99648078Y-69185469D01*
X99544110Y-69314588D02*
X99550976Y-69515637D01*
X99550976Y-69515637D02*
X99596431Y-69598649D01*
X99420732Y-69176862D02*
X99543424Y-69030527D01*
X99274592Y-69323196D02*
X99420732Y-69176862D01*
X99166024Y-69185469D02*
X99274592Y-69323196D01*
X99028298Y-69323196D02*
X99036939Y-69119521D01*
X99036939Y-69119521D02*
X99054601Y-69047743D01*
X98925003Y-69185469D02*
X98927020Y-69395286D01*
X98927020Y-69395286D02*
X98958899Y-69592817D01*
X98958899Y-69592817D02*
X98976650Y-69598649D01*
X99428785Y-68961663D02*
X99311637Y-69128094D01*
X99311637Y-69128094D02*
X99290377Y-69151038D01*
X97952996Y-73041810D02*
X96528839Y-73041810D01*
X100071087Y-68221382D02*
X100051609Y-68488227D01*
X96273769Y-74093760D02*
X96055141Y-74109354D01*
X96055141Y-74109354D02*
X95844423Y-74123984D01*
X95844423Y-74123984D02*
X95625433Y-74138706D01*
X95625433Y-74138706D02*
X95417234Y-74151850D01*
X95417234Y-74151850D02*
X95361329Y-74154924D01*
X98015355Y-72947123D02*
X97952996Y-73041810D01*
X95146132Y-73656498D02*
X95034229Y-73513131D01*
X98257835Y-71385797D02*
X98182346Y-71588260D01*
X98182346Y-71588260D02*
X98136317Y-71784801D01*
X98136317Y-71784801D02*
X98106229Y-72016249D01*
X98106229Y-72016249D02*
X98091139Y-72254581D01*
X98091139Y-72254581D02*
X98085701Y-72439257D01*
X98681526Y-70900949D02*
X98526231Y-71034142D01*
X98526231Y-71034142D02*
X98383433Y-71177201D01*
X98383433Y-71177201D02*
X98272713Y-71353508D01*
X98272713Y-71353508D02*
X98257835Y-71385797D01*
X97984522Y-73288835D02*
X97952308Y-73467100D01*
X99648067Y-69185469D02*
X99644311Y-68959533D01*
X99644311Y-68959533D02*
X99428785Y-68961663D01*
X96979617Y-73665384D02*
X97179905Y-73650422D01*
X97179905Y-73650422D02*
X97394356Y-73634968D01*
X97394356Y-73634968D02*
X97597267Y-73620844D01*
X97597267Y-73620844D02*
X97762936Y-73609872D01*
X99147278Y-68961663D02*
X99018305Y-68796922D01*
X99018305Y-68796922D02*
X98927377Y-68990946D01*
X98927377Y-68990946D02*
X98925003Y-69185469D01*
X93018916Y-68591750D02*
X92988704Y-68387878D01*
X92988704Y-68387878D02*
X92968344Y-68238826D01*
X95104680Y-73041810D02*
X95045282Y-72951139D01*
X96528839Y-73041810D02*
X95104680Y-73041810D01*
X95993441Y-73730101D02*
X96205400Y-73717552D01*
X96205400Y-73717552D02*
X96438050Y-73702884D01*
X96438050Y-73702884D02*
X96669712Y-73687518D01*
X96669712Y-73687518D02*
X96878709Y-73672877D01*
X96878709Y-73672877D02*
X96979617Y-73665384D01*
X100051609Y-68488227D02*
X100020522Y-68724399D01*
X100020522Y-68724399D02*
X99975932Y-68926668D01*
X99975932Y-68926668D02*
X99915725Y-69135573D01*
X99915725Y-69135573D02*
X99841668Y-69346304D01*
X99841668Y-69346304D02*
X99755527Y-69554048D01*
X99755527Y-69554048D02*
X99659068Y-69753995D01*
X99659068Y-69753995D02*
X99554056Y-69941333D01*
X99554056Y-69941333D02*
X99470748Y-70070668D01*
X95034231Y-73993131D02*
X95034231Y-73993129D01*
X98098644Y-73776003D02*
X98098644Y-73963444D01*
X95094483Y-74171547D02*
X95034231Y-73993131D01*
X95034231Y-73993129D02*
X95034231Y-73808202D01*
X97323933Y-74023276D02*
X97105121Y-74036736D01*
X97105121Y-74036736D02*
X96873416Y-74051997D01*
X96873416Y-74051997D02*
X96651218Y-74067124D01*
X96651218Y-74067124D02*
X96422586Y-74083108D01*
X96422586Y-74083108D02*
X96273769Y-74093760D01*
X96519721Y-68221382D02*
X100071087Y-68221382D01*
X94259529Y-70797857D02*
X94075085Y-70635115D01*
X94075085Y-70635115D02*
X93904138Y-70462186D01*
X93904138Y-70462186D02*
X93746896Y-70279439D01*
X93746896Y-70279439D02*
X93603566Y-70087244D01*
X93603566Y-70087244D02*
X93474357Y-69885969D01*
X93474357Y-69885969D02*
X93359475Y-69675984D01*
X93359475Y-69675984D02*
X93259129Y-69457659D01*
X93259129Y-69457659D02*
X93173527Y-69231363D01*
X93173527Y-69231363D02*
X93102876Y-68997466D01*
X93102876Y-68997466D02*
X93047385Y-68756337D01*
X93047385Y-68756337D02*
X93018916Y-68591750D01*
X95104433Y-73289325D02*
X95306406Y-73225380D01*
X95306406Y-73225380D02*
X95506398Y-73218018D01*
X95506398Y-73218018D02*
X95751571Y-73215187D01*
X95751571Y-73215187D02*
X95996051Y-73214274D01*
X95996051Y-73214274D02*
X96300270Y-73213991D01*
X96300270Y-73213991D02*
X96539736Y-73213970D01*
X98098644Y-73963444D02*
X97883446Y-73983644D01*
X97883446Y-73983644D02*
X97667885Y-74000924D01*
X97667885Y-74000924D02*
X97455118Y-74015381D01*
X97455118Y-74015381D02*
X97323933Y-74023276D01*
X98085701Y-72439257D02*
X98079043Y-72647828D01*
X98079043Y-72647828D02*
X98055313Y-72851742D01*
X98055313Y-72851742D02*
X98015355Y-72947123D01*
X92968344Y-68238826D02*
X93184750Y-68232844D01*
X93184750Y-68232844D02*
X93398610Y-68230528D01*
X93398610Y-68230528D02*
X93676262Y-68228406D01*
X93676262Y-68228406D02*
X93893768Y-68227112D01*
X93893768Y-68227112D02*
X94135075Y-68225927D01*
X94135075Y-68225927D02*
X94398361Y-68224859D01*
X94398361Y-68224859D02*
X94681806Y-68223916D01*
X94681806Y-68223916D02*
X94983589Y-68223108D01*
X94983589Y-68223108D02*
X95301888Y-68222444D01*
X95301888Y-68222444D02*
X95634884Y-68221933D01*
X95634884Y-68221933D02*
X95980755Y-68221583D01*
X95980755Y-68221583D02*
X96337681Y-68221404D01*
X96337681Y-68221404D02*
X96519721Y-68221382D01*
X97952308Y-73467100D02*
X97703255Y-73493309D01*
X97703255Y-73493309D02*
X97488094Y-73510904D01*
X97488094Y-73510904D02*
X97227352Y-73530491D01*
X97227352Y-73530491D02*
X96932163Y-73551318D01*
X96932163Y-73551318D02*
X96721730Y-73565521D01*
X96721730Y-73565521D02*
X96504234Y-73579718D01*
X96504234Y-73579718D02*
X96282972Y-73593688D01*
X96282972Y-73593688D02*
X96061244Y-73607207D01*
X96061244Y-73607207D02*
X95842347Y-73620053D01*
X95842347Y-73620053D02*
X95629581Y-73632003D01*
X95629581Y-73632003D02*
X95426243Y-73642834D01*
X95426243Y-73642834D02*
X95146132Y-73656498D01*
X98098644Y-73588563D02*
X98098644Y-73776003D01*
X95045282Y-72951139D02*
X94990555Y-72746562D01*
X94990555Y-72746562D02*
X94971967Y-72521291D01*
X94971967Y-72521291D02*
X94960880Y-72305546D01*
X95034231Y-73513131D02*
X95083755Y-73314963D01*
X95083755Y-73314963D02*
X95104433Y-73289325D01*
X95244554Y-73784408D02*
X95454239Y-73765898D01*
X95454239Y-73765898D02*
X95656818Y-73751208D01*
X95656818Y-73751208D02*
X95880961Y-73736715D01*
X95880961Y-73736715D02*
X95993441Y-73730101D01*
X95034231Y-73808202D02*
X95244554Y-73784408D01*
X96539736Y-73213970D02*
X96778256Y-73213994D01*
X96778256Y-73213994D02*
X96987374Y-73214140D01*
X96987374Y-73214140D02*
X97250439Y-73214818D01*
X97250439Y-73214818D02*
X97458968Y-73216371D01*
X97458968Y-73216371D02*
X97664222Y-73220427D01*
X97664222Y-73220427D02*
X97869650Y-73235387D01*
X97869650Y-73235387D02*
X97984522Y-73288835D01*
X97762936Y-73609872D02*
X98098644Y-73588563D01*
X95146538Y-74562362D02*
X95146538Y-74562361D01*
X99543424Y-69030527D02*
X99544110Y-69314588D01*
X94960880Y-72305546D02*
X94948737Y-72076075D01*
X94948737Y-72076075D02*
X94926455Y-71822471D01*
X94926455Y-71822471D02*
X94891599Y-71616638D01*
X94891599Y-71616638D02*
X94821017Y-71406471D01*
X94821017Y-71406471D02*
X94709262Y-71224669D01*
X94709262Y-71224669D02*
X94544372Y-71045523D01*
X94544372Y-71045523D02*
X94366167Y-70886843D01*
X94366167Y-70886843D02*
X94259529Y-70797857D01*
X99054601Y-69047743D02*
X99166024Y-69185469D01*
X95361329Y-74154924D02*
X95155686Y-74166709D01*
X95155686Y-74166709D02*
X95094483Y-74171547D01*
X98976650Y-69598649D02*
X99027785Y-69398739D01*
X99027785Y-69398739D02*
X99028298Y-69323196D01*
X99290377Y-69151038D02*
X99167218Y-68990403D01*
X99167218Y-68990403D02*
X99147278Y-68961663D01*
X99470748Y-70070668D02*
X99339484Y-70246055D01*
X99339484Y-70246055D02*
X99206960Y-70400817D01*
X99206960Y-70400817D02*
X99057412Y-70558146D01*
X99057412Y-70558146D02*
X98892212Y-70716597D01*
X98892212Y-70716597D02*
X98712731Y-70874726D01*
X98712731Y-70874726D02*
X98681526Y-70900949D01*
X95034229Y-73513131D02*
X95034231Y-73513131D01*
X96545661Y-74606396D02*
X96288064Y-74605689D01*
X96288064Y-74605689D02*
X96060705Y-74604405D01*
X96060705Y-74604405D02*
X95802153Y-74601714D01*
X95802153Y-74601714D02*
X95591497Y-74597809D01*
X95591497Y-74597809D02*
X95390435Y-74591058D01*
X95390435Y-74591058D02*
X95183073Y-74573045D01*
X95183073Y-74573045D02*
X95146538Y-74562362D01*
X97960949Y-74551752D02*
X97758277Y-74593558D01*
X97758277Y-74593558D02*
X97534713Y-74602190D01*
X97534713Y-74602190D02*
X97314097Y-74605205D01*
X97314097Y-74605205D02*
X97103360Y-74606325D01*
X97103360Y-74606325D02*
X96848737Y-74606663D01*
X96848737Y-74606663D02*
X96545661Y-74606396D01*
X96204904Y-75266921D02*
X96204904Y-75266921D01*
X98098644Y-74188894D02*
X98072198Y-74395546D01*
X98072198Y-74395546D02*
X97960949Y-74551752D01*
X96837475Y-75438001D02*
X96837500Y-75438000D01*
X98098644Y-74105045D02*
X98098644Y-74188894D01*
X97676857Y-74126992D02*
X98098644Y-74105045D01*
X96404035Y-74215145D02*
X96629411Y-74197956D01*
X96629411Y-74197956D02*
X96859928Y-74180996D01*
X96859928Y-74180996D02*
X97085389Y-74164971D01*
X97085389Y-74164971D02*
X97295599Y-74150588D01*
X97295599Y-74150588D02*
X97513360Y-74136489D01*
X97513360Y-74136489D02*
X97676857Y-74126992D01*
X95050236Y-74317739D02*
X95252318Y-74282500D01*
X95252318Y-74282500D02*
X95312861Y-74281350D01*
X95146538Y-74562361D02*
X95039225Y-74393348D01*
X95039225Y-74393348D02*
X95050236Y-74317739D01*
X96783492Y-75317788D02*
X96584551Y-75362003D01*
X96584551Y-75362003D02*
X96379239Y-75337542D01*
X96379239Y-75337542D02*
X96204904Y-75266921D01*
X97216437Y-74956348D02*
X97090400Y-75131515D01*
X97090400Y-75131515D02*
X96923204Y-75257109D01*
X96923204Y-75257109D02*
X96783492Y-75317788D01*
X96541868Y-74736853D02*
X96742123Y-74734474D01*
X96742123Y-74734474D02*
X96951491Y-74734285D01*
X96951491Y-74734285D02*
X97157122Y-74745301D01*
X97157122Y-74745301D02*
X97227386Y-74935845D01*
X97227386Y-74935845D02*
X97216437Y-74956348D01*
X95936682Y-75022841D02*
X95835233Y-74848176D01*
X95835233Y-74848176D02*
X96044746Y-74749168D01*
X96044746Y-74749168D02*
X96278661Y-74740790D01*
X96278661Y-74740790D02*
X96541868Y-74736853D01*
X95752869Y-74948587D02*
X95861462Y-75136343D01*
X95861462Y-75136343D02*
X95998179Y-75284244D01*
X95998179Y-75284244D02*
X96178608Y-75398384D01*
X96178608Y-75398384D02*
X96196481Y-75406146D01*
X95380409Y-74723833D02*
X95656647Y-74736374D01*
X94902589Y-73983068D02*
X94907399Y-74197382D01*
X94907399Y-74197382D02*
X94917874Y-74413776D01*
X94917874Y-74413776D02*
X95000322Y-74607517D01*
X95000322Y-74607517D02*
X95008933Y-74616144D01*
X95022316Y-73104702D02*
X95003755Y-73217630D01*
X94165122Y-70875247D02*
X94358834Y-71040635D01*
X94358834Y-71040635D02*
X94508530Y-71182912D01*
X94508530Y-71182912D02*
X94643110Y-71348200D01*
X94643110Y-71348200D02*
X94743387Y-71561878D01*
X94743387Y-71561878D02*
X94790014Y-71782720D01*
X94790014Y-71782720D02*
X94811778Y-72005802D01*
X94811778Y-72005802D02*
X94823069Y-72208777D01*
X94823069Y-72208777D02*
X94826387Y-72284319D01*
X92888897Y-68421127D02*
X92903646Y-68635750D01*
X92903646Y-68635750D02*
X92939052Y-68857735D01*
X92939052Y-68857735D02*
X92994976Y-69086544D01*
X92994976Y-69086544D02*
X93057152Y-69282044D01*
X93057152Y-69282044D02*
X93133399Y-69481598D01*
X93133399Y-69481598D02*
X93204473Y-69643953D01*
X93144103Y-66724490D02*
X93164687Y-66939621D01*
X93164687Y-66939621D02*
X93199799Y-67159438D01*
X93199799Y-67159438D02*
X93247733Y-67376564D01*
X93247733Y-67376564D02*
X93306785Y-67583626D01*
X93306785Y-67583626D02*
X93375249Y-67773246D01*
X93375249Y-67773246D02*
X93399868Y-67831303D01*
X93575478Y-67920107D02*
X93490010Y-67724188D01*
X93490010Y-67724188D02*
X93421933Y-67527654D01*
X93421933Y-67527654D02*
X93361940Y-67316352D01*
X93361940Y-67316352D02*
X93313162Y-67101301D01*
X93313162Y-67101301D02*
X93278727Y-66893522D01*
X93278727Y-66893522D02*
X93274602Y-66860374D01*
X98320280Y-64990243D02*
X98117917Y-64970476D01*
X98117917Y-64970476D02*
X98064213Y-64916137D01*
X93751652Y-67328560D02*
X93865871Y-67502164D01*
X93865871Y-67502164D02*
X94028246Y-67631385D01*
X94028246Y-67631385D02*
X94120418Y-67687769D01*
X94085622Y-66308956D02*
X93913209Y-66437602D01*
X93913209Y-66437602D02*
X93780686Y-66591610D01*
X93780686Y-66591610D02*
X93693880Y-66764210D01*
X93274602Y-66860374D02*
X93254600Y-66648100D01*
X93254600Y-66648100D02*
X93262598Y-66442847D01*
X93262598Y-66442847D02*
X93349445Y-66362076D01*
X94001280Y-65686699D02*
X94036675Y-65896600D01*
X94036675Y-65896600D02*
X94107898Y-66085365D01*
X94107898Y-66085365D02*
X94170590Y-66170941D01*
X94970213Y-64933163D02*
X94778177Y-64938815D01*
X98963490Y-66087971D02*
X99033716Y-65894772D01*
X99033716Y-65894772D02*
X99052753Y-65778087D01*
X98064213Y-64916137D02*
X98003034Y-64712195D01*
X98003034Y-64712195D02*
X97885026Y-64533298D01*
X97885026Y-64533298D02*
X97741049Y-64401906D01*
X93131104Y-65258492D02*
X92924653Y-65341193D01*
X92924653Y-65341193D02*
X92768968Y-65497323D01*
X92768968Y-65497323D02*
X92700412Y-65689333D01*
X92700412Y-65689333D02*
X92693009Y-65788751D01*
X93703141Y-66155709D02*
X93808214Y-65957779D01*
X93808214Y-65957779D02*
X93820843Y-65749198D01*
X93820843Y-65749198D02*
X93754953Y-65551808D01*
X93754953Y-65551808D02*
X93624469Y-65387453D01*
X93624469Y-65387453D02*
X93443319Y-65277976D01*
X93443319Y-65277976D02*
X93225428Y-65245220D01*
X93225428Y-65245220D02*
X93131104Y-65258492D01*
X96583652Y-66442718D02*
X96583330Y-66720711D01*
X96583330Y-66720711D02*
X96582373Y-66974296D01*
X96582373Y-66974296D02*
X96580792Y-67202914D01*
X96580792Y-67202914D02*
X96578599Y-67406007D01*
X96578599Y-67406007D02*
X96574745Y-67636127D01*
X96574745Y-67636127D02*
X96568469Y-67856553D01*
X96568469Y-67856553D02*
X96553258Y-68057277D01*
X96553258Y-68057277D02*
X96549220Y-68066441D01*
X93349445Y-66362076D02*
X93539463Y-66296528D01*
X93539463Y-66296528D02*
X93693598Y-66166786D01*
X93693598Y-66166786D02*
X93703141Y-66155709D01*
X94085250Y-67902967D02*
X93969575Y-68068359D01*
X93969575Y-68068359D02*
X93824814Y-68083657D01*
X95031991Y-64750540D02*
X94970213Y-64933163D01*
X96819402Y-64480741D02*
X96680314Y-64636050D01*
X96680314Y-64636050D02*
X96616369Y-64839363D01*
X96616369Y-64839363D02*
X96594337Y-65101019D01*
X96594337Y-65101019D02*
X96587766Y-65327957D01*
X96587766Y-65327957D02*
X96584638Y-65620207D01*
X96584638Y-65620207D02*
X96583840Y-65856520D01*
X96583840Y-65856520D02*
X96583636Y-66129651D01*
X96583636Y-66129651D02*
X96583652Y-66442718D01*
X95458453Y-64294710D02*
X95274604Y-64397969D01*
X95274604Y-64397969D02*
X95129871Y-64548007D01*
X95129871Y-64548007D02*
X95039316Y-64729570D01*
X95039316Y-64729570D02*
X95031991Y-64750540D01*
X96413600Y-64674926D02*
X96282955Y-64485279D01*
X96282955Y-64485279D02*
X96120091Y-64346333D01*
X96120091Y-64346333D02*
X95933881Y-64261620D01*
X95933881Y-64261620D02*
X95733200Y-64234673D01*
X95733200Y-64234673D02*
X95526922Y-64269026D01*
X95526922Y-64269026D02*
X95458453Y-64294710D01*
X97741049Y-64401906D02*
X97535582Y-64312401D01*
X97535582Y-64312401D02*
X97319072Y-64283806D01*
X97319072Y-64283806D02*
X97106921Y-64314802D01*
X97106921Y-64314802D02*
X96914535Y-64404072D01*
X96914535Y-64404072D02*
X96819402Y-64480741D01*
X95312861Y-74281350D02*
X95530188Y-74273328D01*
X95530188Y-74273328D02*
X95732449Y-74261902D01*
X95732449Y-74261902D02*
X95970147Y-74246635D01*
X95970147Y-74246635D02*
X96184402Y-74231640D01*
X96184402Y-74231640D02*
X96404035Y-74215145D01*
X96204904Y-75266921D02*
X96035573Y-75143798D01*
X96035573Y-75143798D02*
X95936682Y-75022841D01*
X95008933Y-74616144D02*
X95188938Y-74709228D01*
X95188938Y-74709228D02*
X95380409Y-74723833D01*
X94170590Y-66170941D02*
X94085622Y-66308956D01*
X95003755Y-73217630D02*
X94911071Y-73399577D01*
X94911071Y-73399577D02*
X94898105Y-73625981D01*
X94898105Y-73625981D02*
X94899664Y-73828014D01*
X94899664Y-73828014D02*
X94902589Y-73983068D01*
X93399868Y-67831303D02*
X93476397Y-68020695D01*
X93476397Y-68020695D02*
X93484806Y-68052170D01*
X93204473Y-69643953D02*
X93315743Y-69865920D01*
X93315743Y-69865920D02*
X93438020Y-70072607D01*
X93438020Y-70072607D02*
X93573605Y-70266963D01*
X93573605Y-70266963D02*
X93724800Y-70451938D01*
X93724800Y-70451938D02*
X93893905Y-70630480D01*
X93893905Y-70630480D02*
X94043630Y-70770663D01*
X94043630Y-70770663D02*
X94165122Y-70875247D01*
X93054411Y-66345324D02*
X93130862Y-66544476D01*
X93130862Y-66544476D02*
X93144103Y-66724490D01*
X96500320Y-66413723D02*
X96494451Y-64829869D01*
X94120418Y-67687769D02*
X94093070Y-67887854D01*
X94093070Y-67887854D02*
X94085250Y-67902967D01*
X92882253Y-68100876D02*
X92888897Y-68421127D01*
X94778177Y-64938815D02*
X94542974Y-64977432D01*
X94542974Y-64977432D02*
X94338863Y-65072797D01*
X94338863Y-65072797D02*
X94175052Y-65216044D01*
X94175052Y-65216044D02*
X94060750Y-65398308D01*
X94060750Y-65398308D02*
X94005167Y-65610725D01*
X94005167Y-65610725D02*
X94001280Y-65686699D01*
X96494451Y-64829869D02*
X96413600Y-64674926D01*
X92693009Y-65788751D02*
X92717569Y-65990074D01*
X92717569Y-65990074D02*
X92823984Y-66180023D01*
X92823984Y-66180023D02*
X92984488Y-66306358D01*
X92984488Y-66306358D02*
X93054411Y-66345324D01*
X93693880Y-66764210D02*
X93660037Y-66966199D01*
X93660037Y-66966199D02*
X93686466Y-67169035D01*
X93686466Y-67169035D02*
X93751652Y-67328560D01*
X96549220Y-68066441D02*
X96508238Y-67840418D01*
X96508238Y-67840418D02*
X96505421Y-67598042D01*
X96505421Y-67598042D02*
X96503865Y-67338450D01*
X96503865Y-67338450D02*
X96502929Y-67122859D01*
X96502929Y-67122859D02*
X96501975Y-66869835D01*
X96501975Y-66869835D02*
X96500916Y-66576457D01*
X96500916Y-66576457D02*
X96500320Y-66413723D01*
X99052753Y-65778087D02*
X99046078Y-65577532D01*
X99046078Y-65577532D02*
X98969863Y-65398606D01*
X96196481Y-75406146D02*
X96391829Y-75457507D01*
X96391829Y-75457507D02*
X96591680Y-75472551D01*
X96591680Y-75472551D02*
X96806953Y-75447844D01*
X96806953Y-75447844D02*
X96837475Y-75438001D01*
X95656647Y-74736374D02*
X95752869Y-74948587D01*
X93183528Y-68090925D02*
X92882253Y-68100876D01*
X98969863Y-65398606D02*
X98851585Y-65218506D01*
X98851585Y-65218506D02*
X98691824Y-65083375D01*
X98691824Y-65083375D02*
X98488271Y-65009935D01*
X98488271Y-65009935D02*
X98320280Y-64990243D01*
X94826387Y-72284319D02*
X94836429Y-72484770D01*
X94836429Y-72484770D02*
X94852218Y-72685236D01*
X94852218Y-72685236D02*
X94883700Y-72886346D01*
X94883700Y-72886346D02*
X94976704Y-73072106D01*
X94976704Y-73072106D02*
X95022316Y-73104702D01*
X93824814Y-68083657D02*
X93631036Y-68021903D01*
X93631036Y-68021903D02*
X93575478Y-67920107D01*
X93484806Y-68052170D02*
X93286841Y-68085757D01*
X93286841Y-68085757D02*
X93183528Y-68090925D01*
X98890701Y-66227993D02*
X98963490Y-66087971D01*
X99048875Y-66348503D02*
X98890701Y-66227993D01*
X98951003Y-67904577D02*
X98887716Y-67712876D01*
X98887716Y-67712876D02*
X98899356Y-67701770D01*
X99262983Y-67414461D02*
X99365271Y-67202895D01*
X99365271Y-67202895D02*
X99398517Y-66980281D01*
X99398517Y-66980281D02*
X99365694Y-66761422D01*
X99365694Y-66761422D02*
X99269776Y-66561120D01*
X99269776Y-66561120D02*
X99113735Y-66394178D01*
X99113735Y-66394178D02*
X99048875Y-66348503D01*
X98899356Y-67701770D02*
X99071987Y-67595829D01*
X99071987Y-67595829D02*
X99229055Y-67459068D01*
X99229055Y-67459068D02*
X99262983Y-67414461D01*
X99045516Y-68083129D02*
X98951003Y-67904577D01*
X99535555Y-68083658D02*
X99290535Y-68083394D01*
X98056329Y-73170463D02*
X98067153Y-73089881D01*
X99884779Y-69577404D02*
X99968105Y-69378987D01*
X99968105Y-69378987D02*
X100037773Y-69184956D01*
X100037773Y-69184956D02*
X100103203Y-68958476D01*
X100103203Y-68958476D02*
X100148645Y-68739588D01*
X100148645Y-68739588D02*
X100173927Y-68528990D01*
X100173927Y-68528990D02*
X100179495Y-68393542D01*
X100181760Y-68100873D02*
X99932131Y-68090755D01*
X98201939Y-74486854D02*
X98201939Y-73934781D01*
X98067153Y-73089881D02*
X98169630Y-72901588D01*
X98169630Y-72901588D02*
X98205487Y-72703858D01*
X98205487Y-72703858D02*
X98211237Y-72495287D01*
X98211237Y-72495287D02*
X98210675Y-72465406D01*
X98104043Y-74596418D02*
X98201939Y-74486854D01*
X99871957Y-67059498D02*
X99832682Y-67264078D01*
X99832682Y-67264078D02*
X99780345Y-67466309D01*
X99780345Y-67466309D02*
X99716176Y-67661993D01*
X99716176Y-67661993D02*
X99641404Y-67846930D01*
X99996863Y-66903688D02*
X99871957Y-67059498D01*
X98210675Y-72465406D02*
X98213865Y-72240776D01*
X98213865Y-72240776D02*
X98232726Y-72018643D01*
X98232726Y-72018643D02*
X98265815Y-71807505D01*
X98265815Y-71807505D02*
X98320481Y-71586417D01*
X98320481Y-71586417D02*
X98390268Y-71405368D01*
X99788679Y-67808205D02*
X99860229Y-67610842D01*
X99860229Y-67610842D02*
X99924028Y-67394769D01*
X99924028Y-67394769D02*
X99973545Y-67188360D01*
X99973545Y-67188360D02*
X100006065Y-66977215D01*
X100006065Y-66977215D02*
X99996863Y-66903688D01*
X99682619Y-68073542D02*
X99757260Y-67885098D01*
X99757260Y-67885098D02*
X99788679Y-67808205D01*
X99932131Y-68090755D02*
X99732308Y-68079798D01*
X99732308Y-68079798D02*
X99682619Y-68073542D01*
X100179495Y-68393542D02*
X100181760Y-68100873D01*
X98728072Y-71022703D02*
X98923993Y-70857210D01*
X98923993Y-70857210D02*
X99103738Y-70689269D01*
X99103738Y-70689269D02*
X99268061Y-70517937D01*
X99268061Y-70517937D02*
X99417719Y-70342271D01*
X99417719Y-70342271D02*
X99553464Y-70161327D01*
X99553464Y-70161327D02*
X99676053Y-69974164D01*
X99676053Y-69974164D02*
X99786239Y-69779837D01*
X99786239Y-69779837D02*
X99884779Y-69577404D01*
X98201939Y-73934781D02*
X98199442Y-73700389D01*
X98199442Y-73700389D02*
X98188715Y-73486728D01*
X98188715Y-73486728D02*
X98152583Y-73282314D01*
X98152583Y-73282314D02*
X98056329Y-73170463D01*
X97418669Y-74789070D02*
X97613575Y-74737006D01*
X97613575Y-74737006D02*
X97719228Y-74727065D01*
X97719228Y-74727065D02*
X97921760Y-74706369D01*
X97921760Y-74706369D02*
X98095682Y-74605706D01*
X98095682Y-74605706D02*
X98104043Y-74596418D01*
X98390268Y-71405368D02*
X98505601Y-71230311D01*
X98505601Y-71230311D02*
X98649289Y-71088439D01*
X98649289Y-71088439D02*
X98728072Y-71022703D01*
X99290535Y-68083394D02*
X99045516Y-68083129D01*
X99641404Y-67846930D02*
X99535555Y-68083658D01*
X96837500Y-75438000D02*
X97021574Y-75339085D01*
X97021574Y-75339085D02*
X97185828Y-75191221D01*
X97185828Y-75191221D02*
X97306175Y-75029631D01*
X97306175Y-75029631D02*
X97398354Y-74845072D01*
X97398354Y-74845072D02*
X97418669Y-74789070D01*
D13*
%TO.C,J4*%
X87238500Y-115446000D02*
X84338500Y-115446000D01*
X93438500Y-114896000D02*
X93438500Y-119546000D01*
X87238500Y-120271000D02*
X87238500Y-118996000D01*
X85638500Y-120271000D02*
X87238500Y-120271000D01*
X85638500Y-121271000D02*
X85638500Y-120271000D01*
X89863500Y-121271000D02*
X85638500Y-121271000D01*
X85638500Y-113171000D02*
X89863500Y-113171000D01*
X85638500Y-114171000D02*
X85638500Y-113171000D01*
X87238500Y-114171000D02*
X85638500Y-114171000D01*
X87238500Y-115446000D02*
X87238500Y-114171000D01*
%TO.C,SW3*%
X109051000Y-76538500D02*
X108261000Y-76538500D01*
X108261000Y-69638500D02*
X109051000Y-69638500D01*
X107211000Y-71488500D02*
X107211000Y-73188500D01*
X110061000Y-70238500D02*
X110061000Y-75938500D01*
X111351000Y-72988500D02*
X110061000Y-72988500D01*
X111561000Y-71888500D02*
X111561000Y-72788500D01*
X110061000Y-71688500D02*
X111351000Y-71688500D01*
X111351000Y-72988500D02*
X111561000Y-72788500D01*
X111351000Y-71688500D02*
X111561000Y-71888500D01*
X107211000Y-74488500D02*
X107211000Y-74688500D01*
%TO.C,JP1*%
X96251520Y-51751000D02*
X96251520Y-53151000D01*
X96951520Y-53851000D02*
X97551520Y-53851000D01*
X98251520Y-53151000D02*
X98251520Y-51751000D01*
X97551520Y-51051000D02*
X96951520Y-51051000D01*
X96251520Y-53151000D02*
G75*
G03*
X96951520Y-53851000I700000J0D01*
G01*
X97551520Y-53851000D02*
G75*
G03*
X98251520Y-53151000I0J700000D01*
G01*
X98251520Y-51751000D02*
G75*
G03*
X97551520Y-51051000I-700000J0D01*
G01*
X96951520Y-51051000D02*
G75*
G03*
X96251520Y-51751000I0J-700000D01*
G01*
%TO.C,JP2*%
X102707160Y-53886560D02*
X103307160Y-53886560D01*
X102007160Y-51786560D02*
X102007160Y-53186560D01*
X103307160Y-51086560D02*
X102707160Y-51086560D01*
X104007160Y-53186560D02*
X104007160Y-51786560D01*
X103307160Y-53886560D02*
G75*
G03*
X104007160Y-53186560I0J700000D01*
G01*
X102007160Y-53186560D02*
G75*
G03*
X102707160Y-53886560I700000J0D01*
G01*
X102707160Y-51086560D02*
G75*
G03*
X102007160Y-51786560I0J-700000D01*
G01*
X104007160Y-51786560D02*
G75*
G03*
X103307160Y-51086560I-700000J0D01*
G01*
%TO.C,JP3*%
X99243640Y-51791640D02*
X99243640Y-53191640D01*
X99943640Y-53891640D02*
X100543640Y-53891640D01*
X101243640Y-53191640D02*
X101243640Y-51791640D01*
X100543640Y-51091640D02*
X99943640Y-51091640D01*
X99243640Y-53191640D02*
G75*
G03*
X99943640Y-53891640I700000J0D01*
G01*
X100543640Y-53891640D02*
G75*
G03*
X101243640Y-53191640I0J700000D01*
G01*
X101243640Y-51791640D02*
G75*
G03*
X100543640Y-51091640I-700000J0D01*
G01*
X99943640Y-51091640D02*
G75*
G03*
X99243640Y-51791640I0J-700000D01*
G01*
%TO.C,JP4*%
X105612920Y-53876400D02*
X106212920Y-53876400D01*
X104912920Y-51776400D02*
X104912920Y-53176400D01*
X106212920Y-51076400D02*
X105612920Y-51076400D01*
X106912920Y-53176400D02*
X106912920Y-51776400D01*
X106212920Y-53876400D02*
G75*
G03*
X106912920Y-53176400I0J700000D01*
G01*
X104912920Y-53176400D02*
G75*
G03*
X105612920Y-53876400I700000J0D01*
G01*
X105612920Y-51076400D02*
G75*
G03*
X104912920Y-51776400I0J-700000D01*
G01*
X106912920Y-51776400D02*
G75*
G03*
X106212920Y-51076400I-700000J0D01*
G01*
%TO.C,JP5*%
X96814920Y-92681600D02*
X96214920Y-92681600D01*
X97514920Y-94781600D02*
X97514920Y-93381600D01*
X96214920Y-95481600D02*
X96814920Y-95481600D01*
X95514920Y-93381600D02*
X95514920Y-94781600D01*
X96214920Y-92681600D02*
G75*
G03*
X95514920Y-93381600I0J-700000D01*
G01*
X97514920Y-93381600D02*
G75*
G03*
X96814920Y-92681600I-700000J0D01*
G01*
X96814920Y-95481600D02*
G75*
G03*
X97514920Y-94781600I0J700000D01*
G01*
X95514920Y-94781600D02*
G75*
G03*
X96214920Y-95481600I700000J0D01*
G01*
%TO.C,SW2*%
D11*
X87761771Y-108202552D02*
X87809390Y-108345409D01*
X87857009Y-108393028D01*
X87952247Y-108440647D01*
X88095104Y-108440647D01*
X88190342Y-108393028D01*
X88237961Y-108345409D01*
X88285580Y-108250171D01*
X88285580Y-107869219D01*
X87285580Y-107869219D01*
X87285580Y-108202552D01*
X87333200Y-108297790D01*
X87380819Y-108345409D01*
X87476057Y-108393028D01*
X87571295Y-108393028D01*
X87666533Y-108345409D01*
X87714152Y-108297790D01*
X87761771Y-108202552D01*
X87761771Y-107869219D01*
X88285580Y-109012076D02*
X88237961Y-108916838D01*
X88190342Y-108869219D01*
X88095104Y-108821600D01*
X87809390Y-108821600D01*
X87714152Y-108869219D01*
X87666533Y-108916838D01*
X87618914Y-109012076D01*
X87618914Y-109154933D01*
X87666533Y-109250171D01*
X87714152Y-109297790D01*
X87809390Y-109345409D01*
X88095104Y-109345409D01*
X88190342Y-109297790D01*
X88237961Y-109250171D01*
X88285580Y-109154933D01*
X88285580Y-109012076D01*
X88285580Y-109916838D02*
X88237961Y-109821600D01*
X88190342Y-109773980D01*
X88095104Y-109726361D01*
X87809390Y-109726361D01*
X87714152Y-109773980D01*
X87666533Y-109821600D01*
X87618914Y-109916838D01*
X87618914Y-110059695D01*
X87666533Y-110154933D01*
X87714152Y-110202552D01*
X87809390Y-110250171D01*
X88095104Y-110250171D01*
X88190342Y-110202552D01*
X88237961Y-110154933D01*
X88285580Y-110059695D01*
X88285580Y-109916838D01*
X87618914Y-110535885D02*
X87618914Y-110916838D01*
X87285580Y-110678742D02*
X88142723Y-110678742D01*
X88237961Y-110726361D01*
X88285580Y-110821600D01*
X88285580Y-110916838D01*
%TO.C,SW3*%
X104481380Y-69294452D02*
X104481380Y-69484928D01*
X104529000Y-69580166D01*
X104624238Y-69675404D01*
X104814714Y-69723023D01*
X105148047Y-69723023D01*
X105338523Y-69675404D01*
X105433761Y-69580166D01*
X105481380Y-69484928D01*
X105481380Y-69294452D01*
X105433761Y-69199214D01*
X105338523Y-69103976D01*
X105148047Y-69056357D01*
X104814714Y-69056357D01*
X104624238Y-69103976D01*
X104529000Y-69199214D01*
X104481380Y-69294452D01*
X105481380Y-70151595D02*
X104481380Y-70151595D01*
X105481380Y-70723023D01*
X104481380Y-70723023D01*
%TO.C,JP1*%
D10*
X97422857Y-54925571D02*
X97458571Y-54889857D01*
X97494285Y-54782714D01*
X97494285Y-54711285D01*
X97458571Y-54604142D01*
X97387142Y-54532714D01*
X97315714Y-54497000D01*
X97172857Y-54461285D01*
X97065714Y-54461285D01*
X96922857Y-54497000D01*
X96851428Y-54532714D01*
X96780000Y-54604142D01*
X96744285Y-54711285D01*
X96744285Y-54782714D01*
X96780000Y-54889857D01*
X96815714Y-54925571D01*
X97494285Y-55604142D02*
X97494285Y-55247000D01*
X96744285Y-55247000D01*
X97494285Y-55854142D02*
X96744285Y-55854142D01*
X97494285Y-56282714D02*
X97065714Y-55961285D01*
X96744285Y-56282714D02*
X97172857Y-55854142D01*
%TO.C,JP2*%
X103386777Y-55150480D02*
X103422491Y-55114765D01*
X103458205Y-55007622D01*
X103458205Y-54936194D01*
X103422491Y-54829051D01*
X103351062Y-54757622D01*
X103279634Y-54721908D01*
X103136777Y-54686194D01*
X103029634Y-54686194D01*
X102886777Y-54721908D01*
X102815348Y-54757622D01*
X102743920Y-54829051D01*
X102708205Y-54936194D01*
X102708205Y-55007622D01*
X102743920Y-55114765D01*
X102779634Y-55150480D01*
X103422491Y-55436194D02*
X103458205Y-55543337D01*
X103458205Y-55721908D01*
X103422491Y-55793337D01*
X103386777Y-55829051D01*
X103315348Y-55864765D01*
X103243920Y-55864765D01*
X103172491Y-55829051D01*
X103136777Y-55793337D01*
X103101062Y-55721908D01*
X103065348Y-55579051D01*
X103029634Y-55507622D01*
X102993920Y-55471908D01*
X102922491Y-55436194D01*
X102851062Y-55436194D01*
X102779634Y-55471908D01*
X102743920Y-55507622D01*
X102708205Y-55579051D01*
X102708205Y-55757622D01*
X102743920Y-55864765D01*
%TO.C,JP3*%
X100669285Y-54673571D02*
X99919285Y-54673571D01*
X99919285Y-54852142D01*
X99955000Y-54959285D01*
X100026428Y-55030714D01*
X100097857Y-55066428D01*
X100240714Y-55102142D01*
X100347857Y-55102142D01*
X100490714Y-55066428D01*
X100562142Y-55030714D01*
X100633571Y-54959285D01*
X100669285Y-54852142D01*
X100669285Y-54673571D01*
X100597857Y-55852142D02*
X100633571Y-55816428D01*
X100669285Y-55709285D01*
X100669285Y-55637857D01*
X100633571Y-55530714D01*
X100562142Y-55459285D01*
X100490714Y-55423571D01*
X100347857Y-55387857D01*
X100240714Y-55387857D01*
X100097857Y-55423571D01*
X100026428Y-55459285D01*
X99955000Y-55530714D01*
X99919285Y-55637857D01*
X99919285Y-55709285D01*
X99955000Y-55816428D01*
X99990714Y-55852142D01*
%TO.C,JP4*%
X106282685Y-54808108D02*
X105532685Y-54808108D01*
X106068400Y-55058108D01*
X105532685Y-55308108D01*
X106282685Y-55308108D01*
X105532685Y-55808108D02*
X105532685Y-55950965D01*
X105568400Y-56022394D01*
X105639828Y-56093822D01*
X105782685Y-56129537D01*
X106032685Y-56129537D01*
X106175542Y-56093822D01*
X106246971Y-56022394D01*
X106282685Y-55950965D01*
X106282685Y-55808108D01*
X106246971Y-55736680D01*
X106175542Y-55665251D01*
X106032685Y-55629537D01*
X105782685Y-55629537D01*
X105639828Y-55665251D01*
X105568400Y-55736680D01*
X105532685Y-55808108D01*
X106246971Y-56415251D02*
X106282685Y-56522394D01*
X106282685Y-56700965D01*
X106246971Y-56772394D01*
X106211257Y-56808108D01*
X106139828Y-56843822D01*
X106068400Y-56843822D01*
X105996971Y-56808108D01*
X105961257Y-56772394D01*
X105925542Y-56700965D01*
X105889828Y-56558108D01*
X105854114Y-56486680D01*
X105818400Y-56450965D01*
X105746971Y-56415251D01*
X105675542Y-56415251D01*
X105604114Y-56450965D01*
X105568400Y-56486680D01*
X105532685Y-56558108D01*
X105532685Y-56736680D01*
X105568400Y-56843822D01*
X106282685Y-57165251D02*
X105532685Y-57165251D01*
%TO.C,JP5*%
D11*
X98581586Y-91605409D02*
X98581586Y-92081600D01*
X98867300Y-91510171D02*
X97867300Y-91843504D01*
X98867300Y-92176838D01*
X98200634Y-92938742D02*
X98867300Y-92938742D01*
X98200634Y-92510171D02*
X98724443Y-92510171D01*
X98819681Y-92557790D01*
X98867300Y-92653028D01*
X98867300Y-92795885D01*
X98819681Y-92891123D01*
X98772062Y-92938742D01*
X98200634Y-93272076D02*
X98200634Y-93653028D01*
X97867300Y-93414933D02*
X98724443Y-93414933D01*
X98819681Y-93462552D01*
X98867300Y-93557790D01*
X98867300Y-93653028D01*
X98867300Y-94129219D02*
X98819681Y-94033980D01*
X98772062Y-93986361D01*
X98676824Y-93938742D01*
X98391110Y-93938742D01*
X98295872Y-93986361D01*
X98248253Y-94033980D01*
X98200634Y-94129219D01*
X98200634Y-94272076D01*
X98248253Y-94367314D01*
X98295872Y-94414933D01*
X98391110Y-94462552D01*
X98676824Y-94462552D01*
X98772062Y-94414933D01*
X98819681Y-94367314D01*
X98867300Y-94272076D01*
X98867300Y-94129219D01*
X97867300Y-95081600D02*
X97867300Y-95272076D01*
X97914920Y-95367314D01*
X98010158Y-95462552D01*
X98200634Y-95510171D01*
X98533967Y-95510171D01*
X98724443Y-95462552D01*
X98819681Y-95367314D01*
X98867300Y-95272076D01*
X98867300Y-95081600D01*
X98819681Y-94986361D01*
X98724443Y-94891123D01*
X98533967Y-94843504D01*
X98200634Y-94843504D01*
X98010158Y-94891123D01*
X97914920Y-94986361D01*
X97867300Y-95081600D01*
X98867300Y-95938742D02*
X97867300Y-95938742D01*
X98867300Y-96510171D01*
X97867300Y-96510171D01*
%TD*%
M02*
