M48
; DRILL file {KiCad (5.1.6)-1} date 07/20/20 18:07:13
; FORMAT={-:-/ absolute / metric / decimal}
; #@! TF.CreationDate,2020-07-20T18:07:13+02:00
; #@! TF.GenerationSoftware,Kicad,Pcbnew,(5.1.6)-1
; #@! TF.FileFunction,Plated,1,2,PTH
FMAT,2
METRIC
T1C0.250
T2C0.400
T3C0.500
T4C0.550
T5C0.700
%
G90
G05
T2
X84.963Y-56.007
X85.325Y-77.74
X86.042Y-57.531
X87.63Y-118.54
X87.82Y-60.134
X87.884Y-123.444
X89.218Y-53.594
X89.248Y-103.597
X90.424Y-123.428
X90.638Y-103.281
X92.331Y-103.828
X92.481Y-111.867
X93.091Y-123.317
X93.973Y-104.607
X94.504Y-118.872
X94.831Y-103.334
X95.25Y-54.483
X96.069Y-103.546
X97.274Y-55.593
X97.97Y-103.144
X98.821Y-55.39
X98.897Y-109.305
X99.3Y-114.91
X99.705Y-53.681
X100.33Y-103.177
X100.838Y-112.268
X101.185Y-119.092
X102.362Y-112.776
X102.404Y-100.282
X102.616Y-121.428
X102.87Y-50.419
X103.115Y-83.885
X103.251Y-79.883
X103.378Y-98.806
X103.632Y-111.633
X104.234Y-117.178
X104.902Y-122.389
X105.727Y-50.228
X106.506Y-117.482
X106.621Y-79.527
X106.68Y-109.093
X106.887Y-72.639
X107.061Y-113.919
X108.839Y-78.359
T5
X85.09Y-82.55
X85.09Y-83.82
X85.09Y-85.09
X85.09Y-86.36
X85.09Y-87.63
X85.09Y-88.9
X85.09Y-90.17
X85.09Y-91.44
X85.09Y-92.71
X85.09Y-93.98
X85.09Y-95.25
X85.09Y-96.52
X85.09Y-97.79
X85.09Y-99.06
X85.09Y-100.33
X85.09Y-101.6
X107.95Y-82.55
X107.95Y-83.82
X107.95Y-85.09
X107.95Y-86.36
X107.95Y-87.63
X107.95Y-88.9
X107.95Y-90.17
X107.95Y-91.44
X107.95Y-92.71
X107.95Y-93.98
X107.95Y-95.25
X107.95Y-96.52
X107.95Y-97.79
X107.95Y-99.06
X107.95Y-100.33
X107.95Y-101.6
X107.95Y-102.87
X107.95Y-104.14
X107.95Y-105.41
X107.95Y-106.68
X107.95Y-107.95
X107.95Y-109.22
X107.95Y-110.49
X107.95Y-111.76
T1
G00X93.82Y-85.794
M15
G01X93.82Y-85.794
M16
G05
G00X93.82Y-87.267
M15
G01X93.82Y-87.267
M16
G05
G00X94.582Y-84.981
M15
G01X94.582Y-84.981
M16
G05
G00X94.582Y-86.505
M15
G01X94.582Y-86.505
M16
G05
G00X94.582Y-87.978
M15
G01X94.582Y-87.978
M16
G05
G00X95.293Y-87.267
M15
G01X95.293Y-87.267
M16
G05
G00X95.344Y-85.794
M15
G01X95.344Y-85.794
M16
G05
G00X96.055Y-87.978
M15
G01X96.055Y-87.978
M16
G05
G00X96.106Y-84.981
M15
G01X96.106Y-84.981
M16
G05
G00X96.106Y-86.454
M15
G01X96.106Y-86.454
M16
G05
G00X96.817Y-85.794
M15
G01X96.817Y-85.794
M16
G05
G00X96.817Y-87.267
M15
G01X96.817Y-87.267
M16
G05
T3
G00X93.02Y-127.151
M15
G01X93.02Y-126.501
M16
G05
G00X100.02Y-127.151
M15
G01X100.02Y-126.501
M16
G05
T4
G00X93.87Y-124.126
M15
G01X94.17Y-124.126
M16
G05
G00X98.87Y-124.126
M15
G01X99.17Y-124.126
M16
G05
T0
M30
