  0
SECTION
  2
HEADER
  9
$ACADVER
  1
AC1014
  9
$HANDSEED
  5
FFFF
  9
$MEASUREMENT
 70
     1
  0
ENDSEC
  0
SECTION
  2
TABLES
  0
TABLE
  2
VPORT
  5
8
330
0
100
AcDbSymbolTable
 70
     4
  0
VPORT
  5
2E
330
8
100
AcDbSymbolTableRecord
100
AcDbViewportTableRecord
  2
*ACTIVE
 70
     0
 10
0.0
 20
0.0
 11
1.0
 21
1.0
 12
210.0
 22
148.5
 13
0.0
 23
0.0
 14
10.0
 24
10.0
 15
10.0
 25
10.0
 16
0.0
 26
0.0
 36
1.0
 17
0.0
 27
0.0
 37
0.0
 40
341.0
 41
1.24
 42
50.0
 43
0.0
 44
0.0
 50
0.0
 51
0.0
 71
     0
 72
   100
 73
     1
 74
     3
 75
     0
 76
     0
 77
     0
 78
     0
  0
ENDTAB
  0
TABLE
  2
LTYPE
  5
5
330
0
100
AcDbSymbolTable
 70
     1
  0
LTYPE
  5
14
330
5
100
AcDbSymbolTableRecord
100
AcDbLinetypeTableRecord
  2
BYBLOCK
 70
     0
  3

 72
    65
 73
     0
 40
0.0
  0
LTYPE
  5
15
330
5
100
AcDbSymbolTableRecord
100
AcDbLinetypeTableRecord
  2
BYLAYER
 70
     0
  3

 72
    65
 73
     0
 40
0.0
  0
LTYPE
  5
16
330
5
100
AcDbSymbolTableRecord
100
AcDbLinetypeTableRecord
  2
CONTINUOUS
 70
     0
  3
Solid line
 72
    65
 73
     0
 40
0.0
  0
ENDTAB
  0
TABLE
  2
LAYER
  5
2
100
AcDbSymbolTable
 70
1
  0
LAYER
  5
50
100
AcDbSymbolTableRecord
100
AcDbLayerTableRecord
  2
0
 70
0
  6
CONTINUOUS
  0
ENDTAB
  0
TABLE
  2
STYLE
  5
3
330
0
100
AcDbSymbolTable
 70
     1
  0
STYLE
  5
11
330
3
100
AcDbSymbolTableRecord
100
AcDbTextStyleTableRecord
  2
STANDARD
 70
     0
 40
0.0
 41
1.0
 50
0.0
 71
     0
 42
2.5
  3
txt
  4

  0
ENDTAB
  0
TABLE
  2
VIEW
  5
6
330
0
100
AcDbSymbolTable
 70
     0
  0
ENDTAB
  0
TABLE
  2
UCS
  5
7
330
0
100
AcDbSymbolTable
 70
     0
  0
ENDTAB
  0
TABLE
  2
APPID
  5
9
330
0
100
AcDbSymbolTable
 70
     2
  0
APPID
  5
12
330
9
100
AcDbSymbolTableRecord
100
AcDbRegAppTableRecord
  2
ACAD
 70
     0
  0
ENDTAB
  0
TABLE
  2
DIMSTYLE
  5
A
330
0
100
AcDbSymbolTable
 70
     1
  0
DIMSTYLE
105
27
330
A
100
AcDbSymbolTableRecord
100
AcDbDimStyleTableRecord
  2
ISO-25
 70
     0
  3

  4

  5

  6

  7

 40
1.0
 41
2.5
 42
0.625
 43
3.75
 44
1.25
 45
0.0
 46
0.0
 47
0.0
 48
0.0
140
2.5
141
2.5
142
0.0
143
0.03937007874016
144
1.0
145
0.0
146
1.0
147
0.625
 71
     0
 72
     0
 73
     0
 74
     0
 75
     0
 76
     0
 77
     1
 78
     8
170
     0
171
     3
172
     1
173
     0
174
     0
175
     0
176
     0
177
     0
178
     0
270
     2
271
     2
272
     2
273
     2
274
     3
340
11
275
     0
280
     0
281
     0
282
     0
283
     0
284
     8
285
     0
286
     0
287
     3
288
     0
  0
ENDTAB
  0
TABLE
  2
BLOCK_RECORD
  5
1
330
0
100
AcDbSymbolTable
 70
     1
  0
BLOCK_RECORD
  5
1F
330
1
100
AcDbSymbolTableRecord
100
AcDbBlockTableRecord
  2
*MODEL_SPACE
  0
BLOCK_RECORD
  5
1B
330
1
100
AcDbSymbolTableRecord
100
AcDbBlockTableRecord
  2
*PAPER_SPACE
  0
ENDTAB
  0
ENDSEC
  0
SECTION
  2
BLOCKS
  0
BLOCK
  5
20
330
1F
100
AcDbEntity
  8
0
100
AcDbBlockBegin
  2
*MODEL_SPACE
 70
     0
 10
0.0
 20
0.0
 30
0.0
  3
*MODEL_SPACE
  1

  0
ENDBLK
  5
21
330
1F
100
AcDbEntity
  8
0
100
AcDbBlockEnd
  0
BLOCK
  5
1C
330
1B
100
AcDbEntity
 67
     1
  8
0
100
AcDbBlockBegin
  2
*PAPER_SPACE
  1

  0
ENDBLK
  5
1D
330
1B
100
AcDbEntity
 67
     1
  8
0
100
AcDbBlockEnd
  0
ENDSEC
  0
SECTION
  2
ENTITIES
  0
SPLINE
  5
100
100
AcDbEntity
  8
0
 62
1
100
AcDbSpline
 70
8
 71
3
 72
8
 73
4
 74
0
 40
0
 40
0
 40
0
 40
0
 40
1
 40
1
 40
1
 40
1
 10
9.585875
 20
290.152150
 30
0.0
 10
9.585875
 20
290.688049
 30
0.0
 10
9.299976
 20
291.183240
 30
0.0
 10
8.835875
 20
291.451189
 30
0.0
  0
SPLINE
  5
101
100
AcDbEntity
  8
0
 62
1
100
AcDbSpline
 70
8
 71
3
 72
8
 73
4
 74
0
 40
0
 40
0
 40
0
 40
0
 40
1
 40
1
 40
1
 40
1
 10
8.835875
 20
291.451189
 30
0.0
 10
8.371773
 20
291.719139
 30
0.0
 10
7.799976
 20
291.719139
 30
0.0
 10
7.335874
 20
291.451189
 30
0.0
  0
SPLINE
  5
102
100
AcDbEntity
  8
0
 62
1
100
AcDbSpline
 70
8
 71
3
 72
8
 73
4
 74
0
 40
0
 40
0
 40
0
 40
0
 40
1
 40
1
 40
1
 40
1
 10
7.335874
 20
291.451189
 30
0.0
 10
6.871772
 20
291.183240
 30
0.0
 10
6.585873
 20
290.688049
 30
0.0
 10
6.585873
 20
290.152150
 30
0.0
  0
SPLINE
  5
103
100
AcDbEntity
  8
0
 62
1
100
AcDbSpline
 70
8
 71
3
 72
8
 73
4
 74
0
 40
0
 40
0
 40
0
 40
0
 40
1
 40
1
 40
1
 40
1
 10
6.585873
 20
290.152150
 30
0.0
 10
6.585873
 20
289.616252
 30
0.0
 10
6.871772
 20
289.121061
 30
0.0
 10
7.335874
 20
288.853112
 30
0.0
  0
SPLINE
  5
104
100
AcDbEntity
  8
0
 62
1
100
AcDbSpline
 70
8
 71
3
 72
8
 73
4
 74
0
 40
0
 40
0
 40
0
 40
0
 40
1
 40
1
 40
1
 40
1
 10
7.335874
 20
288.853112
 30
0.0
 10
7.799976
 20
288.585162
 30
0.0
 10
8.371773
 20
288.585162
 30
0.0
 10
8.835875
 20
288.853112
 30
0.0
  0
SPLINE
  5
105
100
AcDbEntity
  8
0
 62
1
100
AcDbSpline
 70
8
 71
3
 72
8
 73
4
 74
0
 40
0
 40
0
 40
0
 40
0
 40
1
 40
1
 40
1
 40
1
 10
8.835875
 20
288.853112
 30
0.0
 10
9.299976
 20
289.121061
 30
0.0
 10
9.585875
 20
289.616252
 30
0.0
 10
9.585875
 20
290.152150
 30
0.0
  0
LINE
  5
106
100
AcDbEntity
  8
0
 62
1
100
AcDbLine
 10
9.585875
 20
290.152150
 30
0.0
 11
9.585875
 21
290.152150
 31
0.0
  0
SPLINE
  5
107
100
AcDbEntity
  8
0
 62
1
100
AcDbSpline
 70
8
 71
3
 72
8
 73
4
 74
0
 40
0
 40
0
 40
0
 40
0
 40
1
 40
1
 40
1
 40
1
 10
32.432744
 20
290.152150
 30
0.0
 10
32.433134
 20
290.688309
 30
0.0
 10
32.147321
 20
291.183906
 30
0.0
 10
31.683059
 20
291.452098
 30
0.0
  0
SPLINE
  5
108
100
AcDbEntity
  8
0
 62
1
100
AcDbSpline
 70
8
 71
3
 72
8
 73
4
 74
0
 40
0
 40
0
 40
0
 40
0
 40
1
 40
1
 40
1
 40
1
 10
31.683059
 20
291.452098
 30
0.0
 10
31.218798
 20
291.720290
 30
0.0
 10
30.646691
 20
291.720290
 30
0.0
 10
30.182429
 20
291.452098
 30
0.0
  0
SPLINE
  5
109
100
AcDbEntity
  8
0
 62
1
100
AcDbSpline
 70
8
 71
3
 72
8
 73
4
 74
0
 40
0
 40
0
 40
0
 40
0
 40
1
 40
1
 40
1
 40
1
 10
30.182429
 20
291.452098
 30
0.0
 10
29.718168
 20
291.183906
 30
0.0
 10
29.432355
 20
290.688309
 30
0.0
 10
29.432745
 20
290.152150
 30
0.0
  0
SPLINE
  5
10a
100
AcDbEntity
  8
0
 62
1
100
AcDbSpline
 70
8
 71
3
 72
8
 73
4
 74
0
 40
0
 40
0
 40
0
 40
0
 40
1
 40
1
 40
1
 40
1
 10
29.432745
 20
290.152150
 30
0.0
 10
29.432355
 20
289.615992
 30
0.0
 10
29.718168
 20
289.120395
 30
0.0
 10
30.182429
 20
288.852203
 30
0.0
  0
SPLINE
  5
10b
100
AcDbEntity
  8
0
 62
1
100
AcDbSpline
 70
8
 71
3
 72
8
 73
4
 74
0
 40
0
 40
0
 40
0
 40
0
 40
1
 40
1
 40
1
 40
1
 10
30.182429
 20
288.852203
 30
0.0
 10
30.646691
 20
288.584011
 30
0.0
 10
31.218798
 20
288.584011
 30
0.0
 10
31.683059
 20
288.852203
 30
0.0
  0
SPLINE
  5
10c
100
AcDbEntity
  8
0
 62
1
100
AcDbSpline
 70
8
 71
3
 72
8
 73
4
 74
0
 40
0
 40
0
 40
0
 40
0
 40
1
 40
1
 40
1
 40
1
 10
31.683059
 20
288.852203
 30
0.0
 10
32.147321
 20
289.120395
 30
0.0
 10
32.433134
 20
289.615992
 30
0.0
 10
32.432744
 20
290.152150
 30
0.0
  0
LINE
  5
10d
100
AcDbEntity
  8
0
 62
1
100
AcDbLine
 10
32.432744
 20
290.152150
 30
0.0
 11
32.432744
 21
290.152150
 31
0.0
  0
SPLINE
  5
10e
100
AcDbEntity
  8
0
 62
1
100
AcDbSpline
 70
8
 71
3
 72
8
 73
4
 74
0
 40
0
 40
0
 40
0
 40
0
 40
1
 40
1
 40
1
 40
1
 10
9.585875
 20
201.113934
 30
0.0
 10
9.585875
 20
201.649832
 30
0.0
 10
9.299976
 20
202.145023
 30
0.0
 10
8.835875
 20
202.412973
 30
0.0
  0
SPLINE
  5
10f
100
AcDbEntity
  8
0
 62
1
100
AcDbSpline
 70
8
 71
3
 72
8
 73
4
 74
0
 40
0
 40
0
 40
0
 40
0
 40
1
 40
1
 40
1
 40
1
 10
8.835875
 20
202.412973
 30
0.0
 10
8.371773
 20
202.680922
 30
0.0
 10
7.799976
 20
202.680922
 30
0.0
 10
7.335874
 20
202.412973
 30
0.0
  0
SPLINE
  5
110
100
AcDbEntity
  8
0
 62
1
100
AcDbSpline
 70
8
 71
3
 72
8
 73
4
 74
0
 40
0
 40
0
 40
0
 40
0
 40
1
 40
1
 40
1
 40
1
 10
7.335874
 20
202.412973
 30
0.0
 10
6.871772
 20
202.145023
 30
0.0
 10
6.585873
 20
201.649832
 30
0.0
 10
6.585873
 20
201.113934
 30
0.0
  0
SPLINE
  5
111
100
AcDbEntity
  8
0
 62
1
100
AcDbSpline
 70
8
 71
3
 72
8
 73
4
 74
0
 40
0
 40
0
 40
0
 40
0
 40
1
 40
1
 40
1
 40
1
 10
6.585873
 20
201.113934
 30
0.0
 10
6.585873
 20
200.578035
 30
0.0
 10
6.871772
 20
200.082844
 30
0.0
 10
7.335874
 20
199.814895
 30
0.0
  0
SPLINE
  5
112
100
AcDbEntity
  8
0
 62
1
100
AcDbSpline
 70
8
 71
3
 72
8
 73
4
 74
0
 40
0
 40
0
 40
0
 40
0
 40
1
 40
1
 40
1
 40
1
 10
7.335874
 20
199.814895
 30
0.0
 10
7.799976
 20
199.546945
 30
0.0
 10
8.371773
 20
199.546945
 30
0.0
 10
8.835875
 20
199.814895
 30
0.0
  0
SPLINE
  5
113
100
AcDbEntity
  8
0
 62
1
100
AcDbSpline
 70
8
 71
3
 72
8
 73
4
 74
0
 40
0
 40
0
 40
0
 40
0
 40
1
 40
1
 40
1
 40
1
 10
8.835875
 20
199.814895
 30
0.0
 10
9.299976
 20
200.082844
 30
0.0
 10
9.585875
 20
200.578035
 30
0.0
 10
9.585875
 20
201.113934
 30
0.0
  0
LINE
  5
114
100
AcDbEntity
  8
0
 62
1
100
AcDbLine
 10
9.585875
 20
201.113934
 30
0.0
 11
9.585875
 21
201.113934
 31
0.0
  0
SPLINE
  5
115
100
AcDbEntity
  8
0
 62
1
100
AcDbSpline
 70
8
 71
3
 72
8
 73
4
 74
0
 40
0
 40
0
 40
0
 40
0
 40
1
 40
1
 40
1
 40
1
 10
32.404537
 20
201.113934
 30
0.0
 10
32.404927
 20
201.650092
 30
0.0
 10
32.119114
 20
202.145689
 30
0.0
 10
31.654852
 20
202.413881
 30
0.0
  0
SPLINE
  5
116
100
AcDbEntity
  8
0
 62
1
100
AcDbSpline
 70
8
 71
3
 72
8
 73
4
 74
0
 40
0
 40
0
 40
0
 40
0
 40
1
 40
1
 40
1
 40
1
 10
31.654852
 20
202.413881
 30
0.0
 10
31.190590
 20
202.682073
 30
0.0
 10
30.618484
 20
202.682073
 30
0.0
 10
30.154222
 20
202.413881
 30
0.0
  0
SPLINE
  5
117
100
AcDbEntity
  8
0
 62
1
100
AcDbSpline
 70
8
 71
3
 72
8
 73
4
 74
0
 40
0
 40
0
 40
0
 40
0
 40
1
 40
1
 40
1
 40
1
 10
30.154222
 20
202.413881
 30
0.0
 10
29.689961
 20
202.145689
 30
0.0
 10
29.404148
 20
201.650092
 30
0.0
 10
29.404538
 20
201.113934
 30
0.0
  0
SPLINE
  5
118
100
AcDbEntity
  8
0
 62
1
100
AcDbSpline
 70
8
 71
3
 72
8
 73
4
 74
0
 40
0
 40
0
 40
0
 40
0
 40
1
 40
1
 40
1
 40
1
 10
29.404538
 20
201.113934
 30
0.0
 10
29.404148
 20
200.577776
 30
0.0
 10
29.689961
 20
200.082178
 30
0.0
 10
30.154222
 20
199.813986
 30
0.0
  0
SPLINE
  5
119
100
AcDbEntity
  8
0
 62
1
100
AcDbSpline
 70
8
 71
3
 72
8
 73
4
 74
0
 40
0
 40
0
 40
0
 40
0
 40
1
 40
1
 40
1
 40
1
 10
30.154222
 20
199.813986
 30
0.0
 10
30.618484
 20
199.545795
 30
0.0
 10
31.190590
 20
199.545795
 30
0.0
 10
31.654852
 20
199.813986
 30
0.0
  0
SPLINE
  5
11a
100
AcDbEntity
  8
0
 62
1
100
AcDbSpline
 70
8
 71
3
 72
8
 73
4
 74
0
 40
0
 40
0
 40
0
 40
0
 40
1
 40
1
 40
1
 40
1
 10
31.654852
 20
199.813986
 30
0.0
 10
32.119114
 20
200.082178
 30
0.0
 10
32.404927
 20
200.577776
 30
0.0
 10
32.404537
 20
201.113934
 30
0.0
  0
LINE
  5
11b
100
AcDbEntity
  8
0
 62
1
100
AcDbLine
 10
32.404537
 20
201.113934
 30
0.0
 11
32.404537
 21
201.113934
 31
0.0
  0
SPLINE
  5
11c
100
AcDbEntity
  8
0
 62
1
100
AcDbSpline
 70
8
 71
3
 72
8
 73
4
 74
0
 40
0
 40
0
 40
0
 40
0
 40
1
 40
1
 40
1
 40
1
 10
6.283259
 20
199.317863
 30
0.0
 10
5.806913
 20
199.794219
 30
0.0
 10
5.539308
 20
200.440278
 30
0.0
 10
5.539308
 20
201.113934
 30
0.0
  0
SPLINE
  5
11d
100
AcDbEntity
  8
0
 62
1
100
AcDbSpline
 70
8
 71
3
 72
8
 73
4
 74
0
 40
0
 40
0
 40
0
 40
0
 40
1
 40
1
 40
1
 40
1
 10
8.079308
 20
198.573934
 30
0.0
 10
7.405658
 20
198.573934
 30
0.0
 10
6.759599
 20
198.841533
 30
0.0
 10
6.283259
 20
199.317863
 30
0.0
  0
SPLINE
  5
11e
100
AcDbEntity
  8
0
 62
1
100
AcDbSpline
 70
8
 71
3
 72
8
 73
4
 74
0
 40
0
 40
0
 40
0
 40
0
 40
1
 40
1
 40
1
 40
1
 10
32.735359
 20
199.317863
 30
0.0
 10
32.259019
 20
198.841533
 30
0.0
 10
31.612959
 20
198.573934
 30
0.0
 10
30.939309
 20
198.573934
 30
0.0
  0
SPLINE
  5
11f
100
AcDbEntity
  8
0
 62
1
100
AcDbSpline
 70
8
 71
3
 72
8
 73
4
 74
0
 40
0
 40
0
 40
0
 40
0
 40
1
 40
1
 40
1
 40
1
 10
33.479309
 20
201.113934
 30
0.0
 10
33.479309
 20
200.440278
 30
0.0
 10
33.211704
 20
199.794219
 30
0.0
 10
32.735359
 20
199.317863
 30
0.0
  0
SPLINE
  5
120
100
AcDbEntity
  8
0
 62
1
100
AcDbSpline
 70
8
 71
3
 72
8
 73
4
 74
0
 40
0
 40
0
 40
0
 40
0
 40
1
 40
1
 40
1
 40
1
 10
33.107334
 20
292.101944
 30
0.0
 10
33.345506
 20
291.863767
 30
0.0
 10
33.479309
 20
291.540737
 30
0.0
 10
33.479309
 20
291.203922
 30
0.0
  0
SPLINE
  5
121
100
AcDbEntity
  8
0
 62
1
100
AcDbSpline
 70
8
 71
3
 72
8
 73
4
 74
0
 40
0
 40
0
 40
0
 40
0
 40
1
 40
1
 40
1
 40
1
 10
32.209309
 20
292.473922
 30
0.0
 10
32.546134
 20
292.473922
 30
0.0
 10
32.869164
 20
292.340122
 30
0.0
 10
33.107334
 20
292.101944
 30
0.0
  0
SPLINE
  5
122
100
AcDbEntity
  8
0
 62
1
100
AcDbSpline
 70
8
 71
3
 72
8
 73
4
 74
0
 40
0
 40
0
 40
0
 40
0
 40
1
 40
1
 40
1
 40
1
 10
5.911284
 20
292.101944
 30
0.0
 10
6.149454
 20
292.340122
 30
0.0
 10
6.472483
 20
292.473922
 30
0.0
 10
6.809308
 20
292.473922
 30
0.0
  0
SPLINE
  5
123
100
AcDbEntity
  8
0
 62
1
100
AcDbSpline
 70
8
 71
3
 72
8
 73
4
 74
0
 40
0
 40
0
 40
0
 40
0
 40
1
 40
1
 40
1
 40
1
 10
5.539308
 20
291.203922
 30
0.0
 10
5.539308
 20
291.540737
 30
0.0
 10
5.673111
 20
291.863767
 30
0.0
 10
5.911284
 20
292.101944
 30
0.0
  0
LINE
  5
124
100
AcDbEntity
  8
0
 62
1
100
AcDbLine
 10
5.539308
 20
201.113934
 30
0.0
 11
5.539308
 21
291.203922
 31
0.0
  0
LINE
  5
125
100
AcDbEntity
  8
0
 62
1
100
AcDbLine
 10
30.939309
 20
198.573934
 30
0.0
 11
8.079308
 21
198.573934
 31
0.0
  0
LINE
  5
126
100
AcDbEntity
  8
0
 62
1
100
AcDbLine
 10
33.479309
 20
291.203922
 30
0.0
 11
33.479309
 21
201.113934
 31
0.0
  0
LINE
  5
127
100
AcDbEntity
  8
0
 62
1
100
AcDbLine
 10
6.809308
 20
292.473922
 30
0.0
 11
32.209309
 21
292.473922
 31
0.0
  0
ENDSEC
  0
SECTION
  2
OBJECTS
  0
DICTIONARY
  5
C
330
0
100
AcDbDictionary
  3
ACAD_GROUP
350
D
  3
ACAD_MLINESTYLE
350
17
  0
DICTIONARY
  5
D
330
C
100
AcDbDictionary
  0
DICTIONARY
  5
1A
330
C
100
AcDbDictionary
  0
DICTIONARY
  5
17
330
C
100
AcDbDictionary
  3
STANDARD
350
18
  0
DICTIONARY
  5
19
330
C
100
AcDbDictionary
  0
ENDSEC
  0
EOF
