<?xml version="1.0" encoding="UTF-8" standalone="no"?>
<svg
   xmlns:dc="http://purl.org/dc/elements/1.1/"
   xmlns:cc="http://creativecommons.org/ns#"
   xmlns:rdf="http://www.w3.org/1999/02/22-rdf-syntax-ns#"
   xmlns:svg="http://www.w3.org/2000/svg"
   xmlns="http://www.w3.org/2000/svg"
   xmlns:sodipodi="http://sodipodi.sourceforge.net/DTD/sodipodi-0.dtd"
   xmlns:inkscape="http://www.inkscape.org/namespaces/inkscape"
   width="793.700787402"
   height="1122.51968504"
   version="1.1"
   id="svg1355"
   sodipodi:docname="frontalacrylic3mm_holes.svg"
   inkscape:version="0.92.4 (5da689c313, 2019-01-14)">
  <metadata
     id="metadata1359">
    <rdf:RDF>
      <cc:Work
         rdf:about="">
        <dc:format>image/svg+xml</dc:format>
        <dc:type
           rdf:resource="http://purl.org/dc/dcmitype/StillImage" />
        <dc:title></dc:title>
      </cc:Work>
    </rdf:RDF>
  </metadata>
  <sodipodi:namedview
     pagecolor="#ffffff"
     bordercolor="#666666"
     borderopacity="1"
     objecttolerance="10"
     gridtolerance="10"
     guidetolerance="10"
     inkscape:pageopacity="0"
     inkscape:pageshadow="2"
     inkscape:window-width="3240"
     inkscape:window-height="2035"
     id="namedview1357"
     showgrid="false"
     inkscape:zoom="1.6819305"
     inkscape:cx="96.116064"
     inkscape:cy="793.95295"
     inkscape:window-x="-13"
     inkscape:window-y="-13"
     inkscape:window-maximized="1"
     inkscape:current-layer="g1353" />
  <desc
     id="desc1257">C:\Users\ccadic\CloudStation\esp32-v2\acryl-crowsupply\frontalacrylic3mm_holes.DXF - scale = 1.000000, origin = (0.000000, 0.000000), method = file</desc>
  <defs
     id="defs1271">
    <marker
       id="DistanceX"
       orient="auto"
       refX="0.0"
       refY="0.0"
       style="overflow:visible">
      <path
         d="M 3,-3 L -3,3 M 0,-5 L  0,5"
         style="stroke:#000000; stroke-width:0.5"
         id="path1259" />
    </marker>
    <pattern
       height="8"
       id="Hatch"
       patternUnits="userSpaceOnUse"
       width="8"
       x="0"
       y="0">
      <path
         d="M8 4 l-4,4"
         linecap="square"
         stroke="#000000"
         stroke-width="0.25"
         id="path1262" />
      <path
         d="M6 2 l-4,4"
         linecap="square"
         stroke="#000000"
         stroke-width="0.25"
         id="path1264" />
      <path
         d="M4 0 l-4,4"
         linecap="square"
         stroke="#000000"
         stroke-width="0.25"
         id="path1266" />
    </pattern>
    <symbol
       id="*MODEL_SPACE" />
    <symbol
       id="*PAPER_SPACE" />
  </defs>
  <g
     inkscape:groupmode="layer"
     inkscape:label="0"
     id="g1353">
    <path
       d="M 36.230079,25.881638 C 36.230079,23.856193 35.149516,21.984605 33.395433,20.971884"
       style="stroke:#FF0000;fill:none"
       id="path1273" />
    <path
       d="M 33.395433,20.971884 C 31.641347,19.959160 29.480224,19.959160 27.726138,20.971884"
       style="stroke:#FF0000;fill:none"
       id="path1275" />
    <path
       d="M 27.726138,20.971884 C 25.972052,21.984605 24.891489,23.856193 24.891489,25.881638"
       style="stroke:#FF0000;fill:none"
       id="path1277" />
    <path
       d="M 24.891489,25.881638 C 24.891489,27.907079 25.972052,29.778667 27.726138,30.791388"
       style="stroke:#FF0000;fill:none"
       id="path1279" />
    <path
       d="M 27.726138,30.791388 C 29.480224,31.804112 31.641347,31.804112 33.395433,30.791388"
       style="stroke:#FF0000;fill:none"
       id="path1281" />
    <path
       d="M 33.395433,30.791388 C 35.149516,29.778667 36.230079,27.907079 36.230079,25.881638"
       style="stroke:#FF0000;fill:none"
       id="path1283" />
    <path
       d="M 36.230079,25.881638 36.230079,25.881638"
       style="stroke:#FF0000;fill:none"
       id="path1285" />
    <path
       d="M 122.580450,25.881638 C 122.581924,23.855210 121.501686,21.982088 119.746995,20.968449"
       style="stroke:#FF0000;fill:none"
       id="path1287" />
    <path
       d="M 119.746995,20.968449 C 117.992307,19.954809 115.830013,19.954809 114.075322,20.968449"
       style="stroke:#FF0000;fill:none"
       id="path1289" />
    <path
       d="M 114.075322,20.968449 C 112.320635,21.982088 111.240397,23.855210 111.241871,25.881638"
       style="stroke:#FF0000;fill:none"
       id="path1291" />
    <path
       d="M 111.241871,25.881638 C 111.240397,27.908062 112.320635,29.781184 114.075322,30.794823"
       style="stroke:#FF0000;fill:none"
       id="path1293" />
    <path
       d="M 114.075322,30.794823 C 115.830013,31.808462 117.992307,31.808462 119.746995,30.794823"
       style="stroke:#FF0000;fill:none"
       id="path1295" />
    <path
       d="M 119.746995,30.794823 C 121.501686,29.781184 122.581924,27.908062 122.580450,25.881638"
       style="stroke:#FF0000;fill:none"
       id="path1297" />
    <path
       d="M 122.580450,25.881638 122.580450,25.881638"
       style="stroke:#FF0000;fill:none"
       id="path1299" />
    <path
       d="M 36.230079,362.404029 C 36.230079,360.378588 35.149516,358.507000 33.395433,357.494275"
       style="stroke:#FF0000;fill:none"
       id="path1301" />
    <path
       d="M 33.395433,357.494275 C 31.641347,356.481555 29.480224,356.481555 27.726138,357.494275"
       style="stroke:#FF0000;fill:none"
       id="path1303" />
    <path
       d="M 27.726138,357.494275 C 25.972052,358.507000 24.891489,360.378588 24.891489,362.404029"
       style="stroke:#FF0000;fill:none"
       id="path1305" />
    <path
       d="M 24.891489,362.404029 C 24.891489,364.429474 25.972052,366.301062 27.726138,367.313783"
       style="stroke:#FF0000;fill:none"
       id="path1307" />
    <path
       d="M 27.726138,367.313783 C 29.480224,368.326507 31.641347,368.326507 33.395433,367.313783"
       style="stroke:#FF0000;fill:none"
       id="path1309" />
    <path
       d="M 33.395433,367.313783 C 35.149516,366.301062 36.230079,364.429474 36.230079,362.404029"
       style="stroke:#FF0000;fill:none"
       id="path1311" />
    <path
       d="M 36.230079,362.404029 36.230079,362.404029"
       style="stroke:#FF0000;fill:none"
       id="path1313" />
    <path
       d="M 122.473841,362.404029 C 122.475315,360.377605 121.395077,358.504483 119.640386,357.490843"
       style="stroke:#FF0000;fill:none"
       id="path1315" />
    <path
       d="M 119.640386,357.490843 C 117.885694,356.477204 115.723404,356.477204 113.968713,357.490843"
       style="stroke:#FF0000;fill:none"
       id="path1317" />
    <path
       d="M 113.968713,357.490843 C 112.214026,358.504483 111.133788,360.377605 111.135262,362.404029"
       style="stroke:#FF0000;fill:none"
       id="path1319" />
    <path
       d="M 111.135262,362.404029 C 111.133788,364.430453 112.214026,366.303579 113.968713,367.317218"
       style="stroke:#FF0000;fill:none"
       id="path1321" />
    <path
       d="M 113.968713,367.317218 C 115.723404,368.330854 117.885694,368.330854 119.640386,367.317218"
       style="stroke:#FF0000;fill:none"
       id="path1323" />
    <path
       d="M 119.640386,367.317218 C 121.395077,366.303579 122.475315,364.430453 122.473841,362.404029"
       style="stroke:#FF0000;fill:none"
       id="path1325" />
    <path
       d="M 122.473841,362.404029 122.473841,362.404029"
       style="stroke:#FF0000;fill:none"
       id="path1327" />
    <path
       d="M 23.747751,369.192329 C 21.947388,367.391928 20.935967,364.950130 20.935967,362.404029"
       style="stroke:#FF0000;fill:none"
       id="path1329" />
    <path
       d="M 30.535967,372.004029 C 27.989889,372.004029 25.548091,370.992631 23.747751,369.192329"
       style="stroke:#FF0000;fill:none"
       id="path1331" />
    <path
       d="M 123.724191,369.192329 C 121.923851,370.992631 119.482050,372.004029 116.935971,372.004029"
       style="stroke:#FF0000;fill:none"
       id="path1333" />
    <path
       d="M 126.535971,362.404029 C 126.535971,364.950130 125.524551,367.391928 123.724191,369.192329"
       style="stroke:#FF0000;fill:none"
       id="path1335" />
    <path
       d="M 125.130081,18.512338 C 126.030259,19.412534 126.535971,20.633435 126.535971,21.906437"
       style="stroke:#FF0000;fill:none"
       id="path1337" />
    <path
       d="M 121.735971,17.106437 C 123.009010,17.106437 124.229911,17.612137 125.130081,18.512338"
       style="stroke:#FF0000;fill:none"
       id="path1339" />
    <path
       d="M 22.341861,18.512338 C 23.242031,17.612137 24.462928,17.106437 25.735967,17.106437"
       style="stroke:#FF0000;fill:none"
       id="path1341" />
    <path
       d="M 20.935967,21.906437 C 20.935967,20.633435 21.441679,19.412534 22.341861,18.512338"
       style="stroke:#FF0000;fill:none"
       id="path1343" />
    <path
       d="M 20.935967,362.404029 20.935967,21.906437"
       style="stroke:#FF0000;fill:none"
       id="path1345" />
    <path
       d="M 116.935971,372.004029 30.535967,372.004029"
       style="stroke:#FF0000;fill:none"
       id="path1347" />
    <path
       d="M 126.535971,21.906437 126.535971,362.404029"
       style="stroke:#FF0000;fill:none"
       id="path1349" />
    <path
       d="M 25.735967,17.106437 121.735971,17.106437"
       style="stroke:#FF0000;fill:none"
       id="path1351" />
  </g>
</svg>
